<svg xmlns="http://www.w3.org/2000/svg" viewBox="0 0 720 560"><defs/><path fill="none" class="stroke-neutral-900 dark:stroke-neutral-50" stroke-dasharray="8 10" stroke-linecap="round" stroke-width="2.5" d="M42 10c142.09-1.43 283.46-.33 356 0m0 0c19.93-.87 31.19 9.38 32 32m0 0c-1.54 139.14-.54 277.51 0 476m0 0c-.14 21.67-10.14 32.08-32 32m0 0c-129.25.24-259.33-.98-356 0m0 0c-20.71.55-30.75-10.08-32-32m0 0c.17-149.53-.53-298.01 0-476m0 0c.92-23.27 10.95-33.88 32-32"/><text x="29.296" y="14.096" class="fill-neutral-900 dark:fill-neutral-50" dominant-baseline="alphabetic" font-family="Excalifont, Xiaolai, sans-serif, Segoe UI Emoji" font-size="16" style="white-space:pre" text-anchor="middle" transform="translate(190.704 15)">Barklog</text><path fill="none" class="stroke-neutral-900 dark:stroke-neutral-50" stroke-linecap="round" stroke-width="2" d="M62.5 50c51.73-.14 104.72 2.22 135 0m-135 0c28.27 1.06 56.05.93 135 0m0 0c9.52-1.07 13.85 2.91 12.5 12.5M197.5 50c9.7 1.2 14.51 4.02 12.5 12.5m0 0c.57 7.34-.19 13.53 0 25m0-25c-.63 5.38.8 10.97 0 25m0 0c1.95 10.22-2.44 11.4-12.5 12.5M210 87.5c1.09 9.23-5.77 13.54-12.5 12.5m0 0c-29.97.06-55.79.54-135 0m135 0c-40.46 1.47-79.72 1.52-135 0m0 0c-7.06-1.25-11.99-5.96-12.5-12.5M62.5 100c-7.35-2.17-14.16-3.18-12.5-12.5m0 0c-1.14-3.75.45-11.62 0-25m0 25c-.82-4.52.81-11.18 0-25m0 0c.31-8.81 4.06-13.84 12.5-12.5M50 62.5c-1.62-8.82 3.26-10.91 12.5-12.5"/><text x="69.24" y="14.096" class="fill-neutral-900 dark:fill-neutral-50" dominant-baseline="alphabetic" font-family="Excalifont, Xiaolai, sans-serif, Segoe UI Emoji" font-size="16" style="white-space:pre" text-anchor="middle" transform="translate(60.76 65)">Mobile app (Expo)</text><path fill="none" class="stroke-neutral-900 dark:stroke-neutral-50" stroke-linecap="round" stroke-width="2" d="M65 170c106.89.37 211.29.86 310 0m-310 0c71.64-.93 143.92.32 310 0m0 0c8.35 1.3 16.62 3.32 15 15m-15-15c10.36-.55 14.88 3.46 15 15m0 0c1.32 5.81 1.59 14.88 0 30m0-30c-.75 11.89.71 22.68 0 30m0 0c.14 11.25-4.16 16-15 15m15-15c-.23 8.81-6.74 14.06-15 15m0 0c-78.83-2.78-156.83-1.79-310 0m310 0c-98.9-2.09-197.25-2.42-310 0m0 0c-8.83 1.83-14.74-3.65-15-15m15 15c-11.13.74-14.73-3.05-15-15m0 0c1.22-12.15 1.6-22.4 0-30m0 30c-.2-8.13.73-18.49 0-30m0 0c-1.44-9.95 4.59-15.17 15-15m-15 15c.84-11.16 6.59-15.95 15-15"/><text x="43.688" y="14.096" class="fill-neutral-900 dark:fill-neutral-50" dominant-baseline="alphabetic" font-family="Excalifont, Xiaolai, sans-serif, Segoe UI Emoji" font-size="16" style="white-space:pre" text-anchor="middle" transform="translate(176.312 190)">API (Hono)</text><g stroke-linecap="round"><path fill="none" class="stroke-neutral-900 dark:stroke-neutral-50" stroke-width="2" d="M110.692 106c-.79 14.8-.74 25.92-.69 58m.69-58c1.02 18.6-.5 38.27-.69 58"/><path class="fill-neutral-900 dark:fill-neutral-50" fill-rule="evenodd" stroke-width="0" d="m109.992 106.72 7.72 12.69-15.32 1.69 6.6-14.25"/><path fill="none" class="stroke-neutral-900 dark:stroke-neutral-50" stroke-width="2" d="M110.692 106c1.03 4.08 2.63 5.35 6.05 13.72m-6.05-13.72c2.63 4.41 3.61 9.56 6.05 13.72m0 0c-3.24.18-5.49-1.31-12.67-.26m12.67.26c-2.9-.59-6.52.01-12.67-.26m0 0c1.49-3.43 5.03-8.61 6.62-13.46m-6.62 13.46c1.53-2.89 2.85-6.33 6.62-13.46m0 0q0 0 0 0m0 0q0 0 0 0"/><path class="fill-neutral-900 dark:fill-neutral-50" fill-rule="evenodd" stroke-width="0" d="m109.292 164.72-4.33-14.77 10.02 2.25-6.68 12.65"/><path fill="none" class="stroke-neutral-900 dark:stroke-neutral-50" stroke-width="2" d="M110.002 164c-1.77-2.52-3.04-7.77-6.01-13.74m6.01 13.74c-1.5-4.55-4.41-8.25-6.01-13.74m0 0c3.15.56 7.31-.79 12.67.3m-12.67-.3c4.08-.41 7.46.35 12.67.3m0 0c-2.87 5.39-3.62 8.91-6.66 13.44m6.66-13.44c-1.51 3.65-3.36 6.63-6.66 13.44m0 0q0 0 0 0m0 0q0 0 0 0"/></g><text y="14.096" class="fill-neutral-900 dark:fill-neutral-50" dominant-baseline="alphabetic" font-family="Excalifont, Xiaolai, sans-serif, Segoe UI Emoji" font-size="16" style="white-space:pre" transform="translate(130 130)">HTTPS</text><path fill="none" class="stroke-neutral-900 dark:stroke-neutral-50" stroke-linecap="round" stroke-width="2" d="M65 310c41.91-.19 79.04-.29 110 0m-110 0c32.34.25 63.59-.24 110 0m0 0c11.66-1.47 16.72 5.25 15 15m-15-15c9.55-.79 17.1 5.46 15 15m0 0c.3 8.67.94 14.35 0 30m0-30c.88 7.96-.51 16.8 0 30m0 0c-.07 9.25-5.42 15.02-15 15m15-15c1.14 11.99-5.2 16.35-15 15m0 0c-21.58.18-44.49-.2-110 0m110 0c-30.84-.74-63.54-.28-110 0m0 0c-9.04 1.45-14.57-3.74-15-15m15 15c-10.9-1.07-13.26-3.36-15-15m0 0c-.2-10.57 1.75-24.96 0-30m0 30c-.08-9.46.11-20.21 0-30m0 0c.35-10.94 3.16-14.36 15-15m-15 15c1.09-10.84 3.51-16.17 15-15"/><text x="57.4" y="14.096" class="fill-neutral-900 dark:fill-neutral-50" dominant-baseline="alphabetic" font-family="Excalifont, Xiaolai, sans-serif, Segoe UI Emoji" font-size="16" style="white-space:pre" text-anchor="middle" transform="translate(62.6 330)">DB (Postgres)</text><path fill="none" class="stroke-neutral-900 dark:stroke-neutral-50" stroke-linecap="round" stroke-width="2" d="M265 310c33.09 1.62 64.88-.74 110 0m-110 0c30.46-.16 60.09-1.26 110 0m0 0c11.51 1.43 16.68 3.58 15 15m-15-15c7.8-.48 16.08 6.77 15 15m0 0c2 5.55 1.4 12.03 0 30m0-30c-.87 9.33.53 17.65 0 30m0 0c-1.3 8.98-3.46 15.54-15 15m15-15c-.54 8.39-4.42 16.04-15 15m0 0c-43.31.06-88.22 1.71-110 0m110 0c-33.06-.44-66.08.39-110 0m0 0c-9.01 1.2-13.36-3.41-15-15m15 15c-9.06-1.43-13.54-6.38-15-15m0 0c1.85-11.51.34-21.92 0-30m0 30c.08-11.56.88-22.04 0-30m0 0c.7-10.93 6.54-13.5 15-15m-15 15c1.34-10.92 5.67-16.99 15-15"/><text x="55.992" y="14.096" class="fill-neutral-900 dark:fill-neutral-50" dominant-baseline="alphabetic" font-family="Excalifont, Xiaolai, sans-serif, Segoe UI Emoji" font-size="16" style="white-space:pre" text-anchor="middle" transform="translate(264.008 330)">Cache (Valkey)</text><g stroke-linecap="round"><path fill="none" class="stroke-neutral-900 dark:stroke-neutral-50" stroke-width="2" d="M110 230c-1.31 25.3 1.27 53.17 0 74m0-74c-.88 22.62-.22 45.18 0 74"/><path class="fill-neutral-900 dark:fill-neutral-50" fill-rule="evenodd" stroke-width="0" d="m111.38 231.37 6.43 11.26-15.12-.81 7.61-13.34"/><path fill="none" class="stroke-neutral-900 dark:stroke-neutral-50" stroke-width="2" d="M110 230c1.6 3.69 5.87 9.36 6.42 13.56M110 230c1.35 3.9 3.85 7.79 6.42 13.56m0 0c-5.19 1.05-8.25.83-12.68.07m12.68-.07c-3.22-.33-5.99-.01-12.68.07m0 0c1.83-3.85 3.26-8.74 6.26-13.63m-6.26 13.63c1.92-4.54 4.43-7.83 6.26-13.63m0 0q0 0 0 0m0 0q0 0 0 0"/><path class="fill-neutral-900 dark:fill-neutral-50" fill-rule="evenodd" stroke-width="0" d="m111.38 305.37-6.47-15.82 10.23-1.02-4.84 13.95"/><path fill="none" class="stroke-neutral-900 dark:stroke-neutral-50" stroke-width="2" d="M110 304c-2.92-6.07-3.34-10.24-6.49-13.53M110 304c-2.64-4.44-4.15-8.96-6.49-13.53m0 0c4.02.89 10.16.6 12.68-.13m-12.68.13c3.38-.16 7.19.11 12.68-.13m0 0c-2.33 4.75-4.8 8.41-6.19 13.66m6.19-13.66c-2.03 4-3.43 9.3-6.19 13.66m0 0q0 0 0 0m0 0q0 0 0 0"/></g><g stroke-linecap="round"><path fill="none" class="stroke-neutral-900 dark:stroke-neutral-50" stroke-width="2" d="M310 230c-1.5 17.05.52 33.05 0 74m0-74c-.23 14.52.24 30.7 0 74"/><path class="fill-neutral-900 dark:fill-neutral-50" fill-rule="evenodd" stroke-width="0" d="m310.57 229.84 7.13 12.84-14.28.46 6.63-13.97"/><path fill="none" class="stroke-neutral-900 dark:stroke-neutral-50" stroke-width="2" d="M310 230c.18 3.49 3.09 6.22 6.32 13.6M310 230c.77 2.21 2.44 5.63 6.32 13.6m0 0c-5.07.25-8.59.56-12.68-.01m12.68.01c-3.88-.38-6.75-.13-12.68-.01m0 0c0-3.01 1.56-5.96 6.36-13.59m-6.36 13.59c1.82-3.85 4.33-8.98 6.36-13.59m0 0q0 0 0 0m0 0q0 0 0 0"/><path class="fill-neutral-900 dark:fill-neutral-50" fill-rule="evenodd" stroke-width="0" d="m310.57 303.84-5.5-14.37 11.08.5-6.1 13.2"/><path fill="none" class="stroke-neutral-900 dark:stroke-neutral-50" stroke-width="2" d="M310 304c-2.68-2.49-2.57-5.78-6.31-13.61M310 304c-2.09-3.51-3.05-5.74-6.31-13.61m0 0c4.47.42 10.49.74 12.68.03m-12.68-.03c2.88-.55 6.76-.29 12.68.03m0 0c-2.59 2.67-3.69 5.38-6.37 13.58m6.37-13.58c-2.19 4.94-3.84 8.69-6.37 13.58m0 0q0 0 0 0m0 0q0 0 0 0"/></g><path fill="none" class="stroke-neutral-900 dark:stroke-neutral-50" stroke-linecap="round" stroke-width="2" d="M65 450c36.41.96 71.72-.26 110 0m-110 0c38.74.22 78.08-.58 110 0m0 0c11.82.11 14.5 4.5 15 15m-15-15c11.17-1.69 14.41 3.52 15 15m0 0c1.65 6.59-.46 13.74 0 30m0-30c-.13 7.82-.13 14.56 0 30m0 0c-1.12 9.24-5.36 16.51-15 15m15-15c.45 11.17-4.1 13.81-15 15m0 0c-24.34 1.49-49.17-1.46-110 0m110 0c-24.23.58-47.98-1.32-110 0m0 0c-11.84 1.79-14.91-5.94-15-15m15 15c-9.5.35-13.8-3.01-15-15m0 0c-.04-6.62-.95-12.5 0-30m0 30c.5-10.28.84-18.45 0-30m0 0c-.62-11.35 3.25-15.16 15-15m-15 15c-1.42-10.77 3.47-13.13 15-15"/><text x="26" y="14.096" class="fill-neutral-900 dark:fill-neutral-50" dominant-baseline="alphabetic" font-family="Excalifont, Xiaolai, sans-serif, Segoe UI Emoji" font-size="16" style="white-space:pre" text-anchor="middle" transform="translate(94 470)">Worker</text><g stroke-linecap="round"><path fill="none" class="stroke-neutral-900 dark:stroke-neutral-50" stroke-width="2" d="M110 450c-.16-17.68 2.59-34.41 0-74m0 74c.73-15.94.9-30.78 0-74"/><path class="fill-neutral-900 dark:fill-neutral-50" fill-rule="evenodd" stroke-width="0" d="m110.66 377.49 7.86 10.55-15.35 1.75 8.18-14.6"/><path fill="none" class="stroke-neutral-900 dark:stroke-neutral-50" stroke-width="2" d="M110 376c.88 3.05 4.49 6.8 6.57 13.49M110 376c1.28 2.41 2.78 5.7 6.57 13.49m0 0c-3.7-1.01-8.84.35-12.68.21m12.68-.21c-3.79-.49-6.46-.37-12.68.21m0 0c1.12-6.25 4.23-10.82 6.11-13.7m-6.11 13.7c2.38-4.12 3.72-7.86 6.11-13.7m0 0q0 0 0 0m0 0q0 0 0 0"/></g><text y="14.096" class="fill-neutral-900 dark:fill-neutral-50" dominant-baseline="alphabetic" font-family="Excalifont, Xiaolai, sans-serif, Segoe UI Emoji" font-size="16" style="white-space:pre" transform="translate(130 390)">nightly</text><text y="34.096" class="fill-neutral-900 dark:fill-neutral-50" dominant-baseline="alphabetic" font-family="Excalifont, Xiaolai, sans-serif, Segoe UI Emoji" font-size="16" style="white-space:pre" transform="translate(130 390)">upsert</text><path fill="none" class="stroke-neutral-900 dark:stroke-neutral-50" stroke-linecap="round" stroke-width="2" d="M585 450c24.28-.79 50.75-.5 110 0m-110 0c22.23-.36 44.58-.98 110 0m0 0c11.72-.48 14.62 6.08 15 15m-15-15c8.16-1.39 13.98 6.1 15 15m0 0c-1.21 12.66-.51 21.77 0 30m0-30c-.66 8.07.48 15.67 0 30m0 0c-.33 9.61-4.75 14.29-15 15m15-15c.09 11.16-5.65 15.12-15 15m0 0c-38.95-.81-78.68-.31-110 0m110 0c-38.43.95-75.17 1.63-110 0m0 0c-9.35 1.25-16.62-5.27-15-15m15 15c-9.96 2.17-16.75-2.96-15-15m0 0c-1.81-5.7.17-14.12 0-30m0 30c-1.02-7.1-.82-15.43 0-30m0 0c.6-10.98 6.78-15.88 15-15m-15 15c-1.89-11.29 3.91-14.14 15-15"/><text x="22.928" y="14.096" class="fill-neutral-900 dark:fill-neutral-50" dominant-baseline="alphabetic" font-family="Excalifont, Xiaolai, sans-serif, Segoe UI Emoji" font-size="16" style="white-space:pre" text-anchor="middle" transform="translate(617.072 470)">IGDB</text><g stroke-linecap="round"><path fill="none" class="stroke-neutral-900 dark:stroke-neutral-50" stroke-width="2" d="M190 490c105.58-.24 212.63-.63 374 0m-374 0c114.1.78 227.98.52 374 0"/><path class="fill-neutral-900 dark:fill-neutral-50" fill-rule="evenodd" stroke-width="0" d="m562.92 491.55-11.45 3.56.92-10.48 11.23 4.93"/><path fill="none" class="stroke-neutral-900 dark:stroke-neutral-50" stroke-width="2" d="M564 490c-4.39 1.88-6.95 3.21-13.58 6.38M564 490c-4.12 1.88-8.55 3.51-13.58 6.38m0 0c.84-4.51.14-6.88-.03-12.68m.03 12.68c-.57-4.96-.06-9.15-.03-12.68m0 0c4.54.64 5 4.18 13.61 6.3m-13.61-6.3c4.7 2.86 8.13 4.31 13.61 6.3m0 0q0 0 0 0m0 0q0 0 0 0"/></g><path fill="none" class="stroke-neutral-900 dark:stroke-neutral-50" stroke-linecap="round" stroke-width="2" d="M585 150c23.59-2.33 45.84-.21 110 0m-110 0c33.73 1.31 65.6 1.57 110 0m0 0c11.59.49 14.61 6.71 15 15m-15-15c9.43.58 14.32 5.79 15 15m0 0c-1.69 6.15-1.37 16 0 30m0-30c.26 9.3.34 16.62 0 30m0 0c1.13 10.48-3.38 16.63-15 15m15-15c.28 11.89-6.63 12.78-15 15m0 0c-36.4 1.65-77.2-.97-110 0m110 0c-28.72-1.74-58.13-.4-110 0m0 0c-9.85-1.53-15.17-5.34-15-15m15 15c-9.49-1.36-14.12-4.35-15-15m0 0c1.35-11.69-1.51-20.63 0-30m0 30c-.03-7.89-.89-16.83 0-30m0 0c-1.68-9.04 6-14.36 15-15m-15 15c-1.65-10.39 3.42-13.8 15-15"/><text x="18.688" y="14.096" class="fill-neutral-900 dark:fill-neutral-50" dominant-baseline="alphabetic" font-family="Excalifont, Xiaolai, sans-serif, Segoe UI Emoji" font-size="16" style="white-space:pre" text-anchor="middle" transform="translate(621.312 170)">Clerk</text><path fill="none" class="stroke-neutral-900 dark:stroke-neutral-50" stroke-linecap="round" stroke-width="2" d="M585 230c27.75 1.37 52.5 1.38 110 0m-110 0c24.42-.72 51.39.39 110 0m0 0c9.49-.76 14.25 3.83 15 15m-15-15c8.42.36 12.74 4.12 15 15m0 0c-.15 9.71.47 18.91 0 30m0-30c.79 9.95.86 19.94 0 30m0 0c-1.29 11.33-5.12 16.27-15 15m15-15c-.87 10.36-2.84 13.38-15 15m0 0c-41.03 1.17-85.49.19-110 0m110 0c-25.66-.19-51.02.55-110 0m0 0c-10.53-1.84-15.16-5.37-15-15m15 15c-8.74.43-14.61-6.39-15-15m0 0c-.55-7.78-1.23-16.58 0-30m0 30c-.42-5.91.86-12.82 0-30m0 0c-.08-10.63 4.04-16.19 15-15m-15 15c.4-8.64 2.99-16.3 15-15"/><text x="45.632" y="14.096" class="fill-neutral-900 dark:fill-neutral-50" dominant-baseline="alphabetic" font-family="Excalifont, Xiaolai, sans-serif, Segoe UI Emoji" font-size="16" style="white-space:pre" text-anchor="middle" transform="translate(594.368 250)">RevenueCat</text><path fill="none" class="stroke-neutral-900 dark:stroke-neutral-50" stroke-linecap="round" stroke-width="2" d="M585 10c26.15.38 49.82.78 110 0m-110 0c30.85.21 63.37.84 110 0m0 0c10.37.34 13.79 4.36 15 15m-15-15c8.2-1.77 14.1 5.29 15 15m0 0c-1.21 6.03-1.26 15.37 0 30m0-30c-.08 10.58-.37 22.29 0 30m0 0c1.18 8.25-6.13 16.79-15 15m15-15c-1.78 8.22-2.79 14.98-15 15m0 0c-44.35-1.38-85.13-.96-110 0m110 0c-34.16.14-67.26 1.42-110 0m0 0c-11.69.73-14.06-5.03-15-15m15 15c-8.18.39-12.7-4.98-15-15m0 0c.02-9.98-.13-23.41 0-30m0 30c0-9.19.26-17.5 0-30m0 0c-1.77-11.88 5.22-16.02 15-15m-15 15c.39-9.57 4.79-17.03 15-15"/><text x="28.544" y="14.096" class="fill-neutral-900 dark:fill-neutral-50" dominant-baseline="alphabetic" font-family="Excalifont, Xiaolai, sans-serif, Segoe UI Emoji" font-size="16" style="white-space:pre" text-anchor="middle" transform="translate(611.456 30)">OpenAI</text><g stroke-linecap="round"><path fill="none" class="stroke-neutral-900 dark:stroke-neutral-50" stroke-width="2" d="M564 30c-18.11 1.39-33.14 1.32-68 0m68 0c-14.55.15-28.6-.35-68 0m0 0c-12.04 2-16.87 3.41-16 16m16-16c-10.23.73-17.95 6.18-16 16m0 0c.32 39.13 0 75.87 0 107.03M480 46c1.06 27.74.05 55.64 0 107.03m0 0c.49 9.15-5.18 15.11-16 16m16-16c.76 10.66-7.37 13.84-16 16m0 0c-22.63-.05-47.77-1.26-74 0m74 0c-16.14-.5-31.91.07-74 0"/><path class="fill-neutral-900 dark:fill-neutral-50" fill-rule="evenodd" stroke-width="0" d="m391.9 170.18 10.87-5.67.6 11.69-14.59-7.36"/><path fill="none" class="stroke-neutral-900 dark:stroke-neutral-50" stroke-width="2" d="M390 169.03c2.09 0 6.54-1.61 13.58-6.36M390 169.03c2.67-.83 5.68-2.53 13.58-6.36m0 0c-1.09 3.17.54 4.79.03 12.67m-.03-12.67c.57 4.37.71 8.54.03 12.67m0 0c-5.22-1.29-10.51-5.2-13.61-6.31m13.61 6.31c-3.93-2.28-7.71-3.78-13.61-6.31m0 0q0 0 0 0m0 0q0 0 0 0"/></g><g stroke-linecap="round"><path fill="none" class="stroke-neutral-900 dark:stroke-neutral-50" stroke-width="2" d="M564 190c-36.49-.87-73.78 1.01-168 0m168 0c-34.88.22-68.88.22-168 0"/><path class="fill-neutral-900 dark:fill-neutral-50" fill-rule="evenodd" stroke-width="0" d="m564.94 189.29-14.46 7.24 1.46-13.84 12.27 8.87"/><path fill="none" class="stroke-neutral-900 dark:stroke-neutral-50" stroke-width="2" d="M564 190c-2.96.63-6.47 3.42-13.58 6.38M564 190c-3.07 1.61-5.48 2.91-13.58 6.38m0 0c-.12-4.89.65-8.8-.03-12.68m.03 12.68c-.52-3.57-.71-6.87-.03-12.68m0 0c1.4 2.53 4.76 2.34 13.61 6.3m-13.61-6.3c3.79 2.57 9.01 3.47 13.61 6.3m0 0q0 0 0 0m0 0q0 0 0 0"/><path class="fill-neutral-900 dark:fill-neutral-50" fill-rule="evenodd" stroke-width="0" d="m396.94 189.29 12.72-5.45 1.47 11.52-14.92-3.8"/><path fill="none" class="stroke-neutral-900 dark:stroke-neutral-50" stroke-width="2" d="M396 190c3.05-2.16 5.46-2.13 13.61-6.31M396 190c2.49-.97 5.66-2.27 13.61-6.31m0 0c-.36 4.84.41 10.67-.03 12.68m.03-12.68c-.37 3.35-.56 6.99-.03 12.68m0 0c-4.15-.23-6.24-2.96-13.58-6.37m13.58 6.37c-4.89-1.58-8.38-4.74-13.58-6.37m0 0q0 0 0 0m0 0q0 0 0 0"/></g><g stroke-linecap="round"><path fill="none" class="stroke-neutral-900 dark:stroke-neutral-50" stroke-width="2" d="M564 250c-17.59.31-39.51.79-68 0m68 0c-21.37.91-44.3.6-68 0m0 0c-12.44 1.08-14.67-5.01-16-16m16 16c-8.6 1.14-14.92-6.15-16-16m0 0c-.41-2.34.62-4.71 0-8m0 8c-.19-3.12.08-6.47 0-8m0 0c1.11-8.82-3.91-14.47-16-16m16 16c-.59-12.62-5.87-14.06-16-16m0 0c-23.67.48-46.93-1.04-68 0m68 0c-14.55.02-29.43 1.11-68 0"/><path class="fill-neutral-900 dark:fill-neutral-50" fill-rule="evenodd" stroke-width="0" d="m564.33 251.25-13.28 6.53-1.26-12.24 13.04 6.41"/><path fill="none" class="stroke-neutral-900 dark:stroke-neutral-50" stroke-width="2" d="M564 250c-2.78 2.31-8.79 4.47-13.54 6.46M564 250c-3.88 2.43-8.88 4.3-13.54 6.46m0 0c.12-1.54.51-4.75-.11-12.67m.11 12.67c.46-3.67.01-6.21-.11-12.67m0 0c5.34 1.18 8.57 4.13 13.65 6.21m-13.65-6.21c3.65 1.85 6.01 2.04 13.65 6.21m0 0q0 0 0 0m0 0q0 0 0 0"/><path class="fill-neutral-900 dark:fill-neutral-50" fill-rule="evenodd" stroke-width="0" d="m396.33 211.25 13.95-6.04-1.35 13.11-14.1-6.37"/><path fill="none" class="stroke-neutral-900 dark:stroke-neutral-50" stroke-width="2" d="M396 210c4.84-.99 6.42-2.33 13.7-6.11M396 210c5.08-1.92 8.95-4.14 13.7-6.11m0 0c.23 3.82.6 5.96-.22 12.68m.22-12.68c.44 3.04-.04 7.2-.22 12.68m0 0c-3.35-3.01-8.7-4.11-13.48-6.57m13.48 6.57c-2.55-.79-6.32-3.48-13.48-6.57m0 0q0 0 0 0m0 0q0 0 0 0"/></g><text y="14.096" class="fill-neutral-900 dark:fill-neutral-50" dominant-baseline="alphabetic" font-family="Excalifont, Xiaolai, sans-serif, Segoe UI Emoji" font-size="16" style="white-space:pre" transform="translate(450 10)">on share only</text></svg>