<svg xmlns="http://www.w3.org/2000/svg" viewBox="0 0 408.54 185"><defs/><path fill="none" class="stroke-neutral-900 dark:stroke-neutral-50" stroke-linecap="round" stroke-width="2" d="M20 10c7.53-.31 11.33 1.66 20 0m-20 0c6.54.85 10.92-.8 20 0m0 0c7.2 1.64 10.79 1.98 10 10M40 10c7.5-.69 10.97 2.93 10 10m0 0c-1.65 3.06-1.84 7.83 0 20m0-20c.45 5.63-.78 11.05 0 20m0 0c-1.2 8.55-1.39 10.12-10 10m10-10c.19 4.47-1.58 7.84-10 10m0 0c-6.2 1.4-11.83.43-20 0m20 0c-7.97.09-13.58-.21-20 0m0 0c-6.45-.49-9.88-3.56-10-10m10 10c-6.73-1.12-8.46-2.02-10-10m0 0c.3-7.71 1.18-11.7 0-20m0 20c-.29-5.03.22-11.34 0-20m0 0c.65-6.17 1.77-10.75 10-10M10 20c-1.07-4.54 5.55-11.55 10-10"/><text x="6.64" y="17.62" class="fill-neutral-900 dark:fill-neutral-50" dominant-baseline="alphabetic" font-family="Excalifont, Xiaolai, Segoe UI Emoji" font-size="20" style="white-space:pre" text-anchor="middle" transform="translate(23.36 17.5)">0</text><path fill="none" class="stroke-neutral-900 dark:stroke-neutral-50" stroke-linecap="round" stroke-width="2" d="M60 10c3.62.14 7.55.05 20 0m-20 0c6.44.67 11.94-.07 20 0m0 0c6.8.27 9.09 4.48 10 10M80 10c8.85-.58 12.11 3.25 10 10m0 0c-.62 6.44.59 10.01 0 20m0-20c.87 4.58-.43 9.74 0 20m0 0c1.18 7.76-1.88 9.62-10 10m10-10c-1.36 7.78-4.3 10.34-10 10m0 0c-6.86-.49-11.91 1.05-20 0m20 0c-7.83-.65-15.18-.03-20 0m0 0c-6.02 1.28-9.19-3.38-10-10m10 10c-8.48-.69-9.94-5.35-10-10m0 0c.49-2.33.39-7.04 0-20m0 20c-.53-5.25-.9-10.61 0-20m0 0c.89-6.89 2.64-8.79 10-10M50 20c1.53-8.64 3.66-9.97 10-10"/><text x="4.27" y="17.62" class="fill-neutral-900 dark:fill-neutral-50" dominant-baseline="alphabetic" font-family="Excalifont, Xiaolai, Segoe UI Emoji" font-size="20" style="white-space:pre" text-anchor="middle" transform="translate(65.73 17.5)">1</text><path fill="none" class="stroke-neutral-900 dark:stroke-neutral-50" stroke-linecap="round" stroke-width="2" d="M100 10c7.18-1.53 9.83-1.7 20 0m-20 0c6.99-.74 14.85-.56 20 0m0 0c6.96.18 11.44 5.24 10 10m-10-10c5.89-.78 10.51 4.32 10 10m0 0c-.99 5.83-1.12 14.37 0 20m0-20c.1 5.86-.17 13.33 0 20m0 0c-1.75 4.92-2.71 10.14-10 10m10-10c.64 8.88-2.82 11.69-10 10m0 0c-6.38.52-12.62.81-20 0m20 0c-6.29.59-14.65.07-20 0m0 0c-6.64-.33-10.21-3.64-10-10m10 10c-4.78 2.16-9.04-3.8-10-10m0 0c-.08-4.46-.51-8.83 0-20m0 20c.19-5.37-.77-11.62 0-20m0 0c-1.36-6.85 1.77-11.94 10-10M90 20c1.01-7.27 4.51-8.85 10-10"/><text x="4.27" y="17.62" class="fill-neutral-900 dark:fill-neutral-50" dominant-baseline="alphabetic" font-family="Excalifont, Xiaolai, Segoe UI Emoji" font-size="20" style="white-space:pre" text-anchor="middle" transform="translate(105.73 17.5)">1</text><path fill="none" class="stroke-neutral-900 dark:stroke-neutral-50" stroke-linecap="round" stroke-width="2" d="M140 10c7.59-1.2 12.27-1.32 20 0m-20 0c6.21-.15 10.81-.43 20 0m0 0c6.72-1.75 8.26 3.95 10 10m-10-10c6.83.64 12.21 3.85 10 10m0 0c.1 6.59.46 13.33 0 20m0-20c-.26 7.4.75 12.73 0 20m0 0c.29 6.69-3.67 9.79-10 10m10-10c-.36 8.55-1.18 10.96-10 10m0 0c-4.84-.35-11.41-.78-20 0m20 0c-6.56.19-10.86-.77-20 0m0 0c-6.8-1.36-10.19-4.9-10-10m10 10c-8.9 1.01-10.6-2.15-10-10m0 0c-.73-5.3 1.15-13.99 0-20m0 20c.43-5.27-.02-10.7 0-20m0 0c-1.84-4.98 4.39-9.92 10-10m-10 10c1.46-6.62 2.31-8.46 10-10"/><text x="6.64" y="17.62" class="fill-neutral-900 dark:fill-neutral-50" dominant-baseline="alphabetic" font-family="Excalifont, Xiaolai, Segoe UI Emoji" font-size="20" style="white-space:pre" text-anchor="middle" transform="translate(143.36 17.5)">0</text><path fill="none" class="stroke-neutral-900 dark:stroke-neutral-50" stroke-linecap="round" stroke-width="2" d="M180 10c8.11 1.4 12.07.36 20 0m-20 0c5.87.84 12.99.44 20 0m0 0c6.26-1.77 8.64 4.08 10 10m-10-10c6.42-.26 9.26 2.91 10 10m0 0c.37 6.58-1.54 11.42 0 20m0-20c-.99 5.08-.28 9.8 0 20m0 0c1 4.99-5.16 9.11-10 10m10-10c1.96 7.8-3.31 9.22-10 10m0 0c-5.76.02-11.84-1.75-20 0m20 0c-7.05.03-15.82.68-20 0m0 0c-5.54.96-9.33-1.75-10-10m10 10c-6.16 2.29-8.78-1.59-10-10m0 0c-1.23-6.8 1.69-12.12 0-20m0 20c.53-8.07.21-14.91 0-20m0 0c-1.8-5.21 2.98-9.88 10-10m-10 10c-.56-7.06 4.07-11.94 10-10"/><text x="6.64" y="17.62" class="fill-neutral-900 dark:fill-neutral-50" dominant-baseline="alphabetic" font-family="Excalifont, Xiaolai, Segoe UI Emoji" font-size="20" style="white-space:pre" text-anchor="middle" transform="translate(183.36 17.5)">0</text><path fill="none" class="stroke-neutral-900 dark:stroke-neutral-50" stroke-linecap="round" stroke-width="2" d="M220 10c3.78.37 12.07-1.54 20 0m-20 0c5.08-.95 12.17-.24 20 0m0 0c7.69 1 8.33 1.51 10 10m-10-10c5.64 1.96 11.13 3.36 10 10m0 0c.82 5.44-.08 10.55 0 20m0-20c.21 4.8.19 7.88 0 20m0 0c1.34 7.79-2.37 10.67-10 10m10-10c1.82 7.17-1.04 11.22-10 10m0 0c-9.22-1.53-16.2 1.39-20 0m20 0c-5.1.51-11.21.19-20 0m0 0c-7.88-1.8-8.55-3.68-10-10m10 10c-6.53-.56-10.4-2.59-10-10m0 0c.26-2.9-.07-9.55 0-20m0 20c-.41-5.51-.46-9.3 0-20m0 0c.91-6.17 4.42-11.77 10-10m-10 10c-2.27-4.87 5.25-10.39 10-10"/><text x="6.64" y="17.62" class="fill-neutral-900 dark:fill-neutral-50" dominant-baseline="alphabetic" font-family="Excalifont, Xiaolai, Segoe UI Emoji" font-size="20" style="white-space:pre" text-anchor="middle" transform="translate(223.36 17.5)">0</text><path fill="none" class="stroke-neutral-900 dark:stroke-neutral-50" stroke-linecap="round" stroke-width="2" d="M260 10c5.67.85 12.16-.05 20 0m-20 0c6.43-.13 12.43-.15 20 0m0 0c5.77 1.34 11.13 4.29 10 10m-10-10c7.44 1.82 10.51 5.62 10 10m0 0c-1.37 5.36-1.23 12.95 0 20m0-20c-.14 7.58.44 14.16 0 20m0 0c.41 5.45-5.13 11.45-10 10m10-10c-.4 6.8-3.9 9.6-10 10m0 0c-6.5-.03-11.88-.36-20 0m20 0c-5.01-.16-11.16-.22-20 0m0 0c-7.2.91-9.51-2.25-10-10m10 10c-8.7-2.27-8.2-1.42-10-10m0 0c.19-5.98-.65-12.83 0-20m0 20c-.02-6.52-.67-14.34 0-20m0 0c.02-5.1 2.79-9.11 10-10m-10 10c.33-4.52 5.15-9.58 10-10"/><text x="4.27" y="17.62" class="fill-neutral-900 dark:fill-neutral-50" dominant-baseline="alphabetic" font-family="Excalifont, Xiaolai, Segoe UI Emoji" font-size="20" style="white-space:pre" text-anchor="middle" transform="translate(265.73 17.5)">1</text><path fill="none" class="stroke-neutral-900 dark:stroke-neutral-50" stroke-linecap="round" stroke-width="2" d="M300 10c4.05.3 10.58-1.9 20 0m-20 0c7.21-.18 15.23-.85 20 0m0 0c5.26.14 10.12 4.75 10 10m-10-10c6.42-1.05 8.29 4.73 10 10m0 0c-.74 5.62.85 12.8 0 20m0-20c.61 7.92-.35 13.21 0 20m0 0c.55 6.67-3.65 9.16-10 10m10-10c-1.73 7.59-2.23 10.11-10 10m0 0c-7.62-.09-10.75-.66-20 0m20 0c-6.1.37-13.35.83-20 0m0 0c-7.91-1.06-8.58-3.85-10-10m10 10c-5.26 1.58-10.84-1.23-10-10m0 0c1.39-9.33-1.35-14.97 0-20m0 20c-.94-7.23-.9-15.88 0-20m0 0c-.9-7.5 5.27-9.24 10-10m-10 10c.01-4.74 2.88-12.2 10-10"/><text x="6.64" y="17.62" class="fill-neutral-900 dark:fill-neutral-50" dominant-baseline="alphabetic" font-family="Excalifont, Xiaolai, Segoe UI Emoji" font-size="20" style="white-space:pre" text-anchor="middle" transform="translate(303.36 17.5)">0</text><path fill="none" class="stroke-neutral-900 dark:stroke-neutral-50" stroke-linecap="round" stroke-width="2" d="M340 10c4.52 1.74 14.65-.16 20 0m-20 0c3.93-.42 7.43.4 20 0m0 0c7.62.1 10.16 3.9 10 10m-10-10c5.34-1.68 10.03 5.13 10 10m0 0c1.95 7.04.46 11.79 0 20m0-20c.58 7.03.49 15.28 0 20m0 0c-.73 8.49-1.38 11.21-10 10m10-10c-.56 8.41-4.91 8.59-10 10m0 0c-7.78-1.98-13.33-1.9-20 0m20 0c-3.3.3-8.53.75-20 0m0 0c-7.06-1.91-11.53-5.18-10-10m10 10c-8.49-1.75-10.17-5.08-10-10m0 0c-1.78-6.19 1.17-9.18 0-20m0 20c.49-7.08.79-14.84 0-20m0 0c.59-6.66 2.03-8.91 10-10m-10 10c-.47-6.7 5.03-9.49 10-10"/><text x="4.27" y="17.62" class="fill-neutral-900 dark:fill-neutral-50" dominant-baseline="alphabetic" font-family="Excalifont, Xiaolai, Segoe UI Emoji" font-size="20" style="white-space:pre" text-anchor="middle" transform="translate(345.73 17.5)">1</text><g stroke-linecap="round"><path fill="none" class="stroke-neutral-900 dark:stroke-neutral-50" stroke-width="2" d="M28.96 129.46c6.53-12.96 33.63-65.06 40.54-78.3m-38.88 80.63c6.3-13.16 31.12-68.73 37.67-82.14"/><path fill="none" class="stroke-neutral-900 dark:stroke-neutral-50" stroke-width="2" d="M66.15 74.56c.03-8.97 3.57-15.53 2.14-24.91m-2.14 24.91c-.52-8.25.16-15.77 2.14-24.91M50.64 67.35c5.04-6.47 13.66-10.68 17.65-17.7m-17.65 17.7c4.2-6.05 9.54-11.4 17.65-17.7"/></g><g stroke-linecap="round"><path fill="none" class="stroke-neutral-900 dark:stroke-neutral-50" stroke-width="2" d="M110.42 130.75c-.3-13.31-1.51-67.23-1.59-80.84m.35 80.19c-.01-13.1 1.75-65.34 1.75-78.7M119.04 75.04c-1.56-10.24-5.82-16.7-8.11-23.64m8.11 23.64c-2.49-5.24-4.14-10.31-8.11-23.64"/><path fill="none" class="stroke-neutral-900 dark:stroke-neutral-50" stroke-width="2" d="M101.94 74.73c4.46-10.2 6.22-16.55 8.99-23.33m-8.99 23.33c1.33-5.25 3.5-10.25 8.99-23.33"/></g><g stroke-linecap="round"><path fill="none" class="stroke-neutral-900 dark:stroke-neutral-50" stroke-width="2" d="M270.99 131.17c-.02-13.19.43-67.62.07-81.08m-1.01 80.64c-.18-12.9.45-65.31.62-79.05"/><path fill="none" class="stroke-neutral-900 dark:stroke-neutral-50" stroke-width="2" d="M278.94 75.27c-1.17-7.49-6.23-20.58-8.27-23.59m8.27 23.59c-2.75-7.01-5.24-14.95-8.27-23.59M261.84 75.07c5.59-7.55 7.29-20.56 8.83-23.39m-8.83 23.39c2.98-7.01 6.22-14.88 8.83-23.39"/></g><g stroke-linecap="round"><path fill="none" class="stroke-neutral-900 dark:stroke-neutral-50" stroke-width="2" d="M389.05 129.31c-6.62-13.56-33.22-66.47-39.74-79.58m41.44 81.84c-6.14-12.87-32.15-66.62-39.1-80.45"/><path fill="none" class="stroke-neutral-900 dark:stroke-neutral-50" stroke-width="2" d="M369.69 68.43c-5.18-5.02-8.37-7.75-18.04-17.31m18.04 17.31c-6.13-6.11-12.95-12.42-18.04-17.31"/><path fill="none" class="stroke-neutral-900 dark:stroke-neutral-50" stroke-width="2" d="M354.35 75.98c-1.95-6.53-1.84-10.87-2.7-24.86m2.7 24.86c-.68-8.87-2.1-17.83-2.7-24.86"/></g><text y="17.62" class="fill-neutral-900 dark:fill-neutral-50" dominant-baseline="alphabetic" font-family="Excalifont, Xiaolai, Segoe UI Emoji" font-size="20" style="white-space:pre" transform="translate(390 150)">1</text><text y="17.62" class="fill-neutral-900 dark:fill-neutral-50" dominant-baseline="alphabetic" font-family="Excalifont, Xiaolai, Segoe UI Emoji" font-size="20" style="white-space:pre" transform="translate(270 150)">3</text><text y="17.62" class="fill-neutral-900 dark:fill-neutral-50" dominant-baseline="alphabetic" font-family="Excalifont, Xiaolai, Segoe UI Emoji" font-size="20" style="white-space:pre" transform="translate(110 150)">7</text><text y="17.62" class="fill-neutral-900 dark:fill-neutral-50" dominant-baseline="alphabetic" font-family="Excalifont, Xiaolai, Segoe UI Emoji" font-size="20" style="white-space:pre" transform="translate(10 150)">8</text></svg>