<svg xmlns="http://www.w3.org/2000/svg" viewBox="0 0 421.402 260"><defs/><path fill="none" class="stroke-neutral-900 dark:stroke-neutral-50" stroke-linecap="round" stroke-width="2" d="M40 90c7.53-.31 11.33 1.66 20 0m-20 0c6.54.85 10.92-.8 20 0m0 0c7.2 1.64 10.79 1.98 10 10M60 90c7.5-.69 10.97 2.93 10 10m0 0c-1.65 3.06-1.84 7.83 0 20m0-20c.45 5.63-.78 11.05 0 20m0 0c-1.2 8.55-1.39 10.12-10 10m10-10c.19 4.47-1.58 7.84-10 10m0 0c-6.2 1.4-11.83.43-20 0m20 0c-7.97.09-13.58-.21-20 0m0 0c-6.45-.49-9.88-3.56-10-10m10 10c-6.73-1.12-8.46-2.02-10-10m0 0c.3-7.71 1.18-11.7 0-20m0 20c-.29-5.03.22-11.34 0-20m0 0c.65-6.17 1.77-10.75 10-10m-10 10c-1.07-4.54 5.55-11.55 10-10"/><text x="6.64" y="17.62" class="fill-neutral-900 dark:fill-neutral-50" dominant-baseline="alphabetic" font-family="Excalifont, Xiaolai, Segoe UI Emoji" font-size="20" style="white-space:pre" text-anchor="middle" transform="translate(43.36 97.5)">0</text><path fill="none" class="stroke-neutral-900 dark:stroke-neutral-50" stroke-linecap="round" stroke-width="2" d="M80 90c3.62.14 7.55.05 20 0m-20 0c6.44.67 11.94-.07 20 0m0 0c6.8.27 9.09 4.48 10 10m-10-10c8.85-.58 12.11 3.25 10 10m0 0c-.62 6.44.59 10.01 0 20m0-20c.87 4.58-.43 9.74 0 20m0 0c1.18 7.76-1.88 9.62-10 10m10-10c-1.36 7.78-4.3 10.34-10 10m0 0c-6.86-.49-11.91 1.05-20 0m20 0c-7.83-.65-15.18-.03-20 0m0 0c-6.02 1.28-9.19-3.38-10-10m10 10c-8.48-.69-9.94-5.35-10-10m0 0c.49-2.33.39-7.04 0-20m0 20c-.53-5.25-.9-10.61 0-20m0 0c.89-6.89 2.64-8.79 10-10m-10 10c1.53-8.64 3.66-9.97 10-10"/><text x="4.27" y="17.62" class="fill-neutral-900 dark:fill-neutral-50" dominant-baseline="alphabetic" font-family="Excalifont, Xiaolai, Segoe UI Emoji" font-size="20" style="white-space:pre" text-anchor="middle" transform="translate(85.73 97.5)">1</text><path fill="none" class="stroke-neutral-900 dark:stroke-neutral-50" stroke-linecap="round" stroke-width="2" d="M120 90c7.18-1.53 9.83-1.7 20 0m-20 0c6.99-.74 14.85-.56 20 0m0 0c6.96.18 11.44 5.24 10 10m-10-10c5.89-.78 10.51 4.32 10 10m0 0c-.99 5.83-1.12 14.37 0 20m0-20c.1 5.86-.17 13.33 0 20m0 0c-1.75 4.92-2.71 10.14-10 10m10-10c.64 8.88-2.82 11.69-10 10m0 0c-6.38.52-12.62.81-20 0m20 0c-6.29.59-14.65.07-20 0m0 0c-6.64-.33-10.21-3.64-10-10m10 10c-4.78 2.16-9.04-3.8-10-10m0 0c-.08-4.46-.51-8.83 0-20m0 20c.19-5.37-.77-11.62 0-20m0 0c-1.36-6.85 1.77-11.94 10-10m-10 10c1.01-7.27 4.51-8.85 10-10"/><text x="4.27" y="17.62" class="fill-neutral-900 dark:fill-neutral-50" dominant-baseline="alphabetic" font-family="Excalifont, Xiaolai, Segoe UI Emoji" font-size="20" style="white-space:pre" text-anchor="middle" transform="translate(125.73 97.5)">1</text><path fill="none" class="stroke-neutral-900 dark:stroke-neutral-50" stroke-linecap="round" stroke-width="2" d="M160 90c7.59-1.2 12.27-1.32 20 0m-20 0c6.21-.15 10.81-.43 20 0m0 0c6.72-1.75 8.26 3.95 10 10m-10-10c6.83.64 12.21 3.85 10 10m0 0c.1 6.59.46 13.33 0 20m0-20c-.26 7.4.75 12.73 0 20m0 0c.29 6.69-3.67 9.79-10 10m10-10c-.36 8.55-1.18 10.96-10 10m0 0c-4.84-.35-11.41-.78-20 0m20 0c-6.56.19-10.86-.77-20 0m0 0c-6.8-1.36-10.19-4.9-10-10m10 10c-8.9 1.01-10.6-2.15-10-10m0 0c-.73-5.3 1.15-13.99 0-20m0 20c.43-5.27-.02-10.7 0-20m0 0c-1.84-4.98 4.39-9.92 10-10m-10 10c1.46-6.62 2.31-8.46 10-10"/><text x="6.64" y="17.62" class="fill-neutral-900 dark:fill-neutral-50" dominant-baseline="alphabetic" font-family="Excalifont, Xiaolai, Segoe UI Emoji" font-size="20" style="white-space:pre" text-anchor="middle" transform="translate(163.36 97.5)">0</text><path fill="none" class="stroke-neutral-900 dark:stroke-neutral-50" stroke-linecap="round" stroke-width="2" d="M200 90c8.11 1.4 12.07.36 20 0m-20 0c5.87.84 12.99.44 20 0m0 0c6.26-1.77 8.64 4.08 10 10m-10-10c6.42-.26 9.26 2.91 10 10m0 0c.37 6.58-1.54 11.42 0 20m0-20c-.99 5.08-.28 9.8 0 20m0 0c1 4.99-5.16 9.11-10 10m10-10c1.96 7.8-3.31 9.22-10 10m0 0c-5.76.02-11.84-1.75-20 0m20 0c-7.05.03-15.82.68-20 0m0 0c-5.54.96-9.33-1.75-10-10m10 10c-6.16 2.29-8.78-1.59-10-10m0 0c-1.23-6.8 1.69-12.12 0-20m0 20c.53-8.07.21-14.91 0-20m0 0c-1.8-5.21 2.98-9.88 10-10m-10 10c-.56-7.06 4.07-11.94 10-10"/><text x="6.64" y="17.62" class="fill-neutral-900 dark:fill-neutral-50" dominant-baseline="alphabetic" font-family="Excalifont, Xiaolai, Segoe UI Emoji" font-size="20" style="white-space:pre" text-anchor="middle" transform="translate(203.36 97.5)">0</text><path fill="none" class="stroke-neutral-900 dark:stroke-neutral-50" stroke-linecap="round" stroke-width="2" d="M240 90c3.78.37 12.07-1.54 20 0m-20 0c5.08-.95 12.17-.24 20 0m0 0c7.69 1 8.33 1.51 10 10m-10-10c5.64 1.96 11.13 3.36 10 10m0 0c.82 5.44-.08 10.55 0 20m0-20c.21 4.8.19 7.88 0 20m0 0c1.34 7.79-2.37 10.67-10 10m10-10c1.82 7.17-1.04 11.22-10 10m0 0c-9.22-1.53-16.2 1.39-20 0m20 0c-5.1.51-11.21.19-20 0m0 0c-7.88-1.8-8.55-3.68-10-10m10 10c-6.53-.56-10.4-2.59-10-10m0 0c.26-2.9-.07-9.55 0-20m0 20c-.41-5.51-.46-9.3 0-20m0 0c.91-6.17 4.42-11.77 10-10m-10 10c-2.27-4.87 5.25-10.39 10-10"/><text x="6.64" y="17.62" class="fill-neutral-900 dark:fill-neutral-50" dominant-baseline="alphabetic" font-family="Excalifont, Xiaolai, Segoe UI Emoji" font-size="20" style="white-space:pre" text-anchor="middle" transform="translate(243.36 97.5)">0</text><path fill="none" class="stroke-neutral-900 dark:stroke-neutral-50" stroke-linecap="round" stroke-width="2" d="M280 90c5.67.85 12.16-.05 20 0m-20 0c6.43-.13 12.43-.15 20 0m0 0c5.77 1.34 11.13 4.29 10 10m-10-10c7.44 1.82 10.51 5.62 10 10m0 0c-1.37 5.36-1.23 12.95 0 20m0-20c-.14 7.58.44 14.16 0 20m0 0c.41 5.45-5.13 11.45-10 10m10-10c-.4 6.8-3.9 9.6-10 10m0 0c-6.5-.03-11.88-.36-20 0m20 0c-5.01-.16-11.16-.22-20 0m0 0c-7.2.91-9.51-2.25-10-10m10 10c-8.7-2.27-8.2-1.42-10-10m0 0c.19-5.98-.65-12.83 0-20m0 20c-.02-6.52-.67-14.34 0-20m0 0c.02-5.1 2.79-9.11 10-10m-10 10c.33-4.52 5.15-9.58 10-10"/><text x="4.27" y="17.62" class="fill-neutral-900 dark:fill-neutral-50" dominant-baseline="alphabetic" font-family="Excalifont, Xiaolai, Segoe UI Emoji" font-size="20" style="white-space:pre" text-anchor="middle" transform="translate(285.73 97.5)">1</text><path fill="none" class="stroke-neutral-900 dark:stroke-neutral-50" stroke-linecap="round" stroke-width="2" d="M320 90c4.05.3 10.58-1.9 20 0m-20 0c7.21-.18 15.23-.85 20 0m0 0c5.26.14 10.12 4.75 10 10m-10-10c6.42-1.05 8.29 4.73 10 10m0 0c-.74 5.62.85 12.8 0 20m0-20c.61 7.92-.35 13.21 0 20m0 0c.55 6.67-3.65 9.16-10 10m10-10c-1.73 7.59-2.23 10.11-10 10m0 0c-7.62-.09-10.75-.66-20 0m20 0c-6.1.37-13.35.83-20 0m0 0c-7.91-1.06-8.58-3.85-10-10m10 10c-5.26 1.58-10.84-1.23-10-10m0 0c1.39-9.33-1.35-14.97 0-20m0 20c-.94-7.23-.9-15.88 0-20m0 0c-.9-7.5 5.27-9.24 10-10m-10 10c.01-4.74 2.88-12.2 10-10"/><text x="6.64" y="17.62" class="fill-neutral-900 dark:fill-neutral-50" dominant-baseline="alphabetic" font-family="Excalifont, Xiaolai, Segoe UI Emoji" font-size="20" style="white-space:pre" text-anchor="middle" transform="translate(323.36 97.5)">0</text><path fill="none" class="stroke-neutral-900 dark:stroke-neutral-50" stroke-linecap="round" stroke-width="2" d="M360 90c4.52 1.74 14.65-.16 20 0m-20 0c3.93-.42 7.43.4 20 0m0 0c7.62.1 10.16 3.9 10 10m-10-10c5.34-1.68 10.03 5.13 10 10m0 0c1.95 7.04.46 11.79 0 20m0-20c.58 7.03.49 15.28 0 20m0 0c-.73 8.49-1.38 11.21-10 10m10-10c-.56 8.41-4.91 8.59-10 10m0 0c-7.78-1.98-13.33-1.9-20 0m20 0c-3.3.3-8.53.75-20 0m0 0c-7.06-1.91-11.53-5.18-10-10m10 10c-8.49-1.75-10.17-5.08-10-10m0 0c-1.78-6.19 1.17-9.18 0-20m0 20c.49-7.08.79-14.84 0-20m0 0c.59-6.66 2.03-8.91 10-10m-10 10c-.47-6.7 5.03-9.49 10-10"/><text x="4.27" y="17.62" class="fill-neutral-900 dark:fill-neutral-50" dominant-baseline="alphabetic" font-family="Excalifont, Xiaolai, Segoe UI Emoji" font-size="20" style="white-space:pre" text-anchor="middle" transform="translate(365.73 97.5)">1</text><path fill="none" class="stroke-neutral-900 dark:stroke-neutral-50" stroke-linecap="round" stroke-width="2" d="M40 210c7.39-1.02 14.78 1.75 20 0m-20 0c6.07-.66 11.1.58 20 0m0 0c4.99-1.31 8.62 4 10 10m-10-10c5.36-.7 8.56 1.19 10 10m0 0c-.78 7.81.29 14.05 0 20m0-20c-.95 8.73-.54 16.72 0 20m0 0c.91 8.27-2.19 11.21-10 10m10-10c-.35 5.38-1.25 9.67-10 10m0 0c-5.86-.12-7.04-1.19-20 0m20 0c-7.07-.91-15.97.33-20 0m0 0c-7.01-.85-11.34-4.1-10-10m10 10c-6.71 1.03-10.81-2.08-10-10m0 0c-.61-4.26-.77-8.16 0-20m0 20c-.55-6.88.32-12.47 0-20m0 0c.3-7.47 3.37-11.9 10-10m-10 10c-.04-5.58 4.73-9.26 10-10"/><text x="6.64" y="17.62" class="fill-neutral-900 dark:fill-neutral-50" dominant-baseline="alphabetic" font-family="Excalifont, Xiaolai, Segoe UI Emoji" font-size="20" style="white-space:pre" text-anchor="middle" transform="translate(43.36 217.5)">0</text><path fill="none" class="stroke-neutral-900 dark:stroke-neutral-50" stroke-linecap="round" stroke-width="2" d="M80 210c5.03 1.47 8.35.18 20 0m-20 0c3.44-.73 7.88.26 20 0m0 0c5.53-.61 8.75 1.47 10 10m-10-10c7.65-.72 8.91 2.5 10 10m0 0c1.96 6.56.79 12.09 0 20m0-20c.36 8.41.47 15.82 0 20m0 0c-.31 5.55-1.52 9.71-10 10m10-10c-1.81 4.54-2.68 8.35-10 10m0 0c-4.02-.77-11.61 1.36-20 0m20 0c-4.35-.36-9.03-.32-20 0m0 0c-6.7.9-10.71-2.24-10-10m10 10c-7.97-1.92-10.23-4.23-10-10m0 0c.46-7.39 1.54-14.46 0-20m0 20c.1-5.37-.03-10.89 0-20m0 0c-.04-5.72 4.55-9.36 10-10m-10 10c-2.03-4.58 4.7-8.41 10-10"/><text x="4.27" y="17.62" class="fill-neutral-900 dark:fill-neutral-50" dominant-baseline="alphabetic" font-family="Excalifont, Xiaolai, Segoe UI Emoji" font-size="20" style="white-space:pre" text-anchor="middle" transform="translate(85.73 217.5)">1</text><path fill="none" class="stroke-neutral-900 dark:stroke-neutral-50" stroke-linecap="round" stroke-width="2" d="M120 210c5.94-1.37 16.1-1.71 20 0m-20 0c4.12-.37 8.76-1 20 0m0 0c7.52-.63 9.06 2.61 10 10m-10-10c7.77.4 10.39 5.54 10 10m0 0c1.68 4.59 1.83 12.11 0 20m0-20c-.04 7.04 1.02 15.06 0 20m0 0c-1.57 4.81-2.76 8.57-10 10m10-10c-.2 8.76-4.76 12.08-10 10m0 0c-7.18-.56-10.06-.19-20 0m20 0c-5.17.37-10.65.47-20 0m0 0c-7.8-1.67-10.2-4.11-10-10m10 10c-5.97-1.08-8.2-2.91-10-10m0 0c-1.18-4.72.38-10.11 0-20m0 20c-.02-4.73.6-10.08 0-20m0 0c-1.77-4.85 4.52-8.62 10-10m-10 10c.47-7.67 4.34-12.02 10-10"/><text x="4.27" y="17.62" class="fill-neutral-900 dark:fill-neutral-50" dominant-baseline="alphabetic" font-family="Excalifont, Xiaolai, Segoe UI Emoji" font-size="20" style="white-space:pre" text-anchor="middle" transform="translate(125.73 217.5)">1</text><path fill="none" class="stroke-neutral-900 dark:stroke-neutral-50" stroke-linecap="round" stroke-width="2" d="M160 210c3.36-1.21 10.01-.97 20 0m-20 0c5.82-.13 10.31-.17 20 0m0 0c7.62.35 10.34 5.25 10 10m-10-10c6.2.87 7.9 5.18 10 10m0 0c1.78 6.14 1.38 9.68 0 20m0-20c-.6 3.95.47 9.04 0 20m0 0c-.18 8.49-4.58 11.81-10 10m10-10c-.74 6.71-1.63 7.91-10 10m0 0c-6.14-1.38-11.34-.07-20 0m20 0c-7.46-.73-13.89-.28-20 0m0 0c-6.06-.94-8.44-2.97-10-10m10 10c-7.58 1.66-11.44-4.52-10-10m0 0c-.85-6.45-1.96-13.02 0-20m0 20c-1-6.04.47-13.2 0-20m0 0c.41-7.54 4.2-11.75 10-10m-10 10c-1.65-6.75 2.18-10.12 10-10"/><text x="6.64" y="17.62" class="fill-neutral-900 dark:fill-neutral-50" dominant-baseline="alphabetic" font-family="Excalifont, Xiaolai, Segoe UI Emoji" font-size="20" style="white-space:pre" text-anchor="middle" transform="translate(163.36 217.5)">0</text><path fill="none" class="stroke-neutral-900 dark:stroke-neutral-50" stroke-linecap="round" stroke-width="2" d="M200 210c4.01-1.14 7.38.97 20 0m-20 0c5.85.25 10.91 1.03 20 0m0 0c6.27.76 8.17 4.94 10 10m-10-10c5.51 2.02 11.05 5.17 10 10m0 0c-1 8.95-.17 12.71 0 20m0-20c-.03 5.06-.57 9.2 0 20m0 0c-.64 6.7-1.85 8.18-10 10m10-10c-.82 7.41-3.73 9.02-10 10m0 0c-3.76-.71-8.23-1.14-20 0m20 0c-4.03-.55-7.87.11-20 0m0 0c-7.46 1.44-11.25-4.36-10-10m10 10c-6.1.61-9.65-4.25-10-10m0 0c1.14-4.82.83-13.84 0-20m0 20c.09-8.25.32-16.5 0-20m0 0c-1.43-6.74 2.33-10.1 10-10m-10 10c1.79-7.84 1.09-10.35 10-10"/><text x="6.64" y="17.62" class="fill-neutral-900 dark:fill-neutral-50" dominant-baseline="alphabetic" font-family="Excalifont, Xiaolai, Segoe UI Emoji" font-size="20" style="white-space:pre" text-anchor="middle" transform="translate(203.36 217.5)">0</text><path fill="none" class="stroke-neutral-900 dark:stroke-neutral-50" stroke-linecap="round" stroke-width="2" d="M240 210c4.12-1.03 8.78.87 20 0m-20 0c6.15.19 11.78.61 20 0m0 0c5.66 1.76 10.91 4.93 10 10m-10-10c7.98 1.39 9.65 2.05 10 10m0 0c-1.88 8.39-1.46 15.45 0 20m0-20c-.45 7.84.62 14.73 0 20m0 0c-.71 7.32-3.68 9.15-10 10m10-10c-1.54 5.79-3.38 11.03-10 10m0 0c-6.97-.31-11.37.49-20 0m20 0c-5.46.76-10.75-.48-20 0m0 0c-6.18.53-9.7-4.13-10-10m10 10c-6.63-2.19-10.04-2.25-10-10m0 0c1.75-6.03 1.32-14.02 0-20m0 20c-.8-5.16-.59-10.3 0-20m0 0c1.56-7.68 1.38-10.31 10-10m-10 10c1.18-5.78 1.38-8 10-10"/><text x="4.27" y="17.62" class="fill-neutral-900 dark:fill-neutral-50" dominant-baseline="alphabetic" font-family="Excalifont, Xiaolai, Segoe UI Emoji" font-size="20" style="white-space:pre" text-anchor="middle" transform="translate(245.73 217.5)">1</text><path fill="none" class="stroke-neutral-900 dark:stroke-neutral-50" stroke-linecap="round" stroke-width="2" d="M280 210c5.4.24 12.03-.5 20 0m-20 0c6.26.72 13.97.64 20 0m0 0c7.81 1.21 9.69 2.21 10 10m-10-10c8.75-.33 8.19 1.2 10 10m0 0c1.68 5.33 1.66 12.5 0 20m0-20c-.21 6.36-.02 11.65 0 20m0 0c-1.34 5.9-3.37 10.9-10 10m10-10c-.81 7.92-4.64 8.08-10 10m0 0c-6.74 1.62-11.23-.73-20 0m20 0c-7.2.16-14.74-.5-20 0m0 0c-6.63-1.9-10.04-2.39-10-10m10 10c-5.27.74-12.03-1.25-10-10m0 0c-1.01-6.31-1.89-15.8 0-20m0 20c.88-6.44-.88-12.01 0-20m0 0c1.02-5.9 1.64-8.26 10-10m-10 10c1.58-4.95 3.13-11.34 10-10"/><text x="4.27" y="17.62" class="fill-neutral-900 dark:fill-neutral-50" dominant-baseline="alphabetic" font-family="Excalifont, Xiaolai, Segoe UI Emoji" font-size="20" style="white-space:pre" text-anchor="middle" transform="translate(285.73 217.5)">1</text><path fill="none" class="stroke-neutral-900 dark:stroke-neutral-50" stroke-linecap="round" stroke-width="2" d="M320 210c7.1-1.79 14.29-.97 20 0m-20 0c8.33.44 15.36-.72 20 0m0 0c8.48-.29 8.43 1.48 10 10m-10-10c7.32-1.65 9.8 5.43 10 10m0 0c.22 6.24-1.64 8.8 0 20m0-20c-.7 6.27-.05 13.75 0 20m0 0c-.71 7.76-4.47 8.33-10 10m10-10c-.23 5.77-2.64 8.92-10 10m0 0c-6.12-1.33-16.15.41-20 0m20 0c-6.51-1.03-13.08.39-20 0m0 0c-5.45.64-11.77-1.52-10-10m10 10c-5.3 1.59-9.53-4.34-10-10m0 0c.1-7.88.07-12.18 0-20m0 20c.71-4.6-.65-9.1 0-20m0 0c1.37-5.18 3.16-11.17 10-10m-10 10c2.08-7.75 3.86-11.72 10-10"/><text x="6.64" y="17.62" class="fill-neutral-900 dark:fill-neutral-50" dominant-baseline="alphabetic" font-family="Excalifont, Xiaolai, Segoe UI Emoji" font-size="20" style="white-space:pre" text-anchor="middle" transform="translate(323.36 217.5)">0</text><path fill="none" class="stroke-neutral-900 dark:stroke-neutral-50" stroke-linecap="round" stroke-width="2" d="M360 210c5.93 1.01 9.95 1.24 20 0m-20 0c8.12-.03 13.63-.81 20 0m0 0c7.24-1.43 9.82 5.15 10 10m-10-10c5.24 2.08 9.26 3.37 10 10m0 0c.47 7.14-1.03 13.63 0 20m0-20c-.36 5.78-.57 9.64 0 20m0 0c-.2 5.89-2.73 9.06-10 10m10-10c1.8 7.09-4.24 11.66-10 10m0 0c-4.22.35-10.29.08-20 0m20 0c-3.49.42-9.08 1-20 0m0 0c-5.48 1.38-9.59-4.21-10-10m10 10c-5.66-2.02-11.65-3.42-10-10m0 0c-1.01-6.95-.29-8.96 0-20m0 20c.86-6.03.08-14.12 0-20m0 0c1.81-7.61 3.79-11.49 10-10m-10 10c-1.94-7.68 5.41-8.84 10-10"/><text x="4.27" y="17.62" class="fill-neutral-900 dark:fill-neutral-50" dominant-baseline="alphabetic" font-family="Excalifont, Xiaolai, Segoe UI Emoji" font-size="20" style="white-space:pre" text-anchor="middle" transform="translate(365.73 217.5)">1</text><path fill="none" class="stroke-neutral-900 dark:stroke-neutral-50" stroke-linecap="round" stroke-width="2" d="M240 10c4.9.79 11.7.89 20 0m-20 0c6.01.44 13.24.8 20 0m0 0c8.14 1.61 11.11 5.05 10 10m-10-10c7.36.14 11.54 2.41 10 10m0 0c-1.08 5.88-.3 7.23 0 20m0-20c-.12 6.45.68 13.76 0 20m0 0c1.06 7.3-3.17 10.33-10 10m10-10c1.61 6.68-4.28 10.4-10 10m0 0c-5.59-.6-11.98-.37-20 0m20 0c-4.5.22-10.44-.46-20 0m0 0c-7.49-1.89-10.12-3.64-10-10m10 10c-5.41-1.57-10.93-3.38-10-10m0 0c-.23-7.32-.22-12.97 0-20m0 20c.23-6.9.94-12.36 0-20m0 0c-.68-8.3 1.72-9.88 10-10m-10 10c.85-5.55 2.96-11.86 10-10"/><text x="4.27" y="17.62" class="fill-neutral-900 dark:fill-neutral-50" dominant-baseline="alphabetic" font-family="Excalifont, Xiaolai, Segoe UI Emoji" font-size="20" style="white-space:pre" text-anchor="middle" transform="translate(245.73 17.5)">1</text><path fill="none" class="stroke-neutral-900 dark:stroke-neutral-50" stroke-linecap="round" stroke-width="2" d="M280 10c7.64-1.02 13.32-1.69 20 0m-20 0c7.54.65 14.17.7 20 0m0 0c7.27.12 11.34 2.53 10 10m-10-10c4.42 2.27 9.18 1.87 10 10m0 0c.69 7.58 1.72 15.47 0 20m0-20c.67 5.74.22 11 0 20m0 0c1.4 6.68-4.15 10.35-10 10m10-10c.12 7.66-1.74 10.59-10 10m0 0c-5.76 1.67-11.64 1.94-20 0m20 0c-7.08-1.02-13.39-.22-20 0m0 0c-5.58-1.37-10.8-3.37-10-10m10 10c-7.15-.27-8.8-3.63-10-10m0 0c.43-5.72-.41-8.34 0-20m0 20c-.5-5.83-.97-9.96 0-20m0 0c.74-5.7 3.01-11.62 10-10m-10 10c.35-7.74 5.6-10.56 10-10"/><text x="6.64" y="17.62" class="fill-neutral-900 dark:fill-neutral-50" dominant-baseline="alphabetic" font-family="Excalifont, Xiaolai, Segoe UI Emoji" font-size="20" style="white-space:pre" text-anchor="middle" transform="translate(283.36 17.5)">0</text><path fill="none" class="stroke-neutral-900 dark:stroke-neutral-50" stroke-linecap="round" stroke-width="2" d="M320 10c5.88-.61 11.69 1.63 20 0m-20 0c7.91-.11 15.88-.57 20 0m0 0c4.72 1.98 9.29 2.06 10 10m-10-10c8.77-.57 9 4.19 10 10m0 0c-.41 7.16.72 12.56 0 20m0-20c.72 6.64-.39 13.45 0 20m0 0c.11 7.53-1.95 10.52-10 10m10-10c-.85 6.94-3.92 9.43-10 10m0 0c-7.06 1.33-16.14-.62-20 0m20 0c-3.56-.72-8.62-.05-20 0m0 0c-7.09-.24-8.96-3.59-10-10m10 10c-8.67-.28-12.08-2.87-10-10m0 0c-.95-2.95.93-9.75 0-20m0 20c.53-3.88 0-9.53 0-20m0 0c.31-7.6 5.31-10.48 10-10m-10 10c-1.5-5.98 5.17-9.91 10-10"/><text x="6.64" y="17.62" class="fill-neutral-900 dark:fill-neutral-50" dominant-baseline="alphabetic" font-family="Excalifont, Xiaolai, Segoe UI Emoji" font-size="20" style="white-space:pre" text-anchor="middle" transform="translate(323.36 17.5)">0</text><path fill="none" class="stroke-neutral-900 dark:stroke-neutral-50" stroke-linecap="round" stroke-width="2" d="M360 10c6.83.96 12.17.46 20 0m-20 0c5.15 1.07 11.89-.56 20 0m0 0c8.49-.49 9.13 4.07 10 10m-10-10c6.38 2.04 9.78 2.66 10 10m0 0c.69 7.57.39 16.21 0 20m0-20c-.03 6.44.61 12.28 0 20m0 0c-.74 6.9-3.84 9.5-10 10m10-10c1.98 5.39-1.04 10.77-10 10m0 0c-9.02-.2-14.56 1.01-20 0m20 0c-4.84-.12-8.74-.13-20 0m0 0c-8.41-.24-11.81-2.93-10-10m10 10c-8.35-.49-9.8-4.47-10-10m0 0c-1.73-9.2.03-14.44 0-20m0 20c.19-7.44 1.02-14.18 0-20m0 0c-1.3-6.07 4.93-9.92 10-10m-10 10c-.74-7.55 4.07-10.74 10-10"/><text x="6.64" y="17.62" class="fill-neutral-900 dark:fill-neutral-50" dominant-baseline="alphabetic" font-family="Excalifont, Xiaolai, Segoe UI Emoji" font-size="20" style="white-space:pre" text-anchor="middle" transform="translate(363.36 17.5)">0</text><text y="17.62" class="fill-neutral-900 dark:fill-neutral-50" dominant-baseline="alphabetic" font-family="Excalifont, Xiaolai, Segoe UI Emoji" font-size="20" style="white-space:pre" transform="translate(130 20.41)">1 &lt;&lt; 4 =</text><path fill="none" class="stroke-neutral-900 dark:stroke-neutral-50" stroke-linecap="round" stroke-width="2" d="M11.074 171.936c66.94.01 333.73.06 400.33-.15m-401.4-.49c66.91-.38 334.32-1.38 401-1.29"/><g stroke-linecap="round"><path fill="none" class="stroke-neutral-900 dark:stroke-neutral-50" stroke-width="2" d="M249.9 55c-.2 9.4.61 21.21 0 30m0-30c.51 7.21.09 14.53 0 30M244.93 70.85c1.55 4.23 3.84 10.26 4.97 14.15m-4.97-14.15c1.55 3.38 2.43 6.87 4.97 14.15M255.19 70.96c-1.92 4.19-3.11 10.18-5.29 14.04m5.29-14.04c-.91 3.41-2.49 6.87-5.29 14.04"/></g><g stroke-linecap="round"><path fill="none" class="stroke-neutral-900 dark:stroke-neutral-50" stroke-width="2" d="M249.9 135c-2.1 22.76.09 44.92 0 70m0-70c.2 21.36-.38 41.84 0 70M241.22 181.55c.99 7.27 6.07 13.88 8.68 23.45m-8.68-23.45c2.44 7.39 4.47 13.84 8.68 23.45M258.32 181.46c-4.72 7.2-5.35 13.84-8.42 23.54m8.42-23.54c-2.71 7.32-5.83 13.8-8.42 23.54"/></g></svg>