<svg xmlns="http://www.w3.org/2000/svg" viewBox="0 0 521.78 340"><defs/><path fill="none" class="stroke-neutral-900 dark:stroke-neutral-50" stroke-linecap="round" stroke-width="2" d="M20 150c7.53-.31 11.33 1.66 20 0m-20 0c6.54.85 10.92-.8 20 0m0 0c7.2 1.64 10.79 1.98 10 10m-10-10c7.5-.69 10.97 2.93 10 10m0 0c-1.65 3.06-1.84 7.83 0 20m0-20c.45 5.63-.78 11.05 0 20m0 0c-1.2 8.55-1.39 10.12-10 10m10-10c.19 4.47-1.58 7.84-10 10m0 0c-6.2 1.4-11.83.43-20 0m20 0c-7.97.09-13.58-.21-20 0m0 0c-6.45-.49-9.88-3.56-10-10m10 10c-6.73-1.12-8.46-2.02-10-10m0 0c.3-7.71 1.18-11.7 0-20m0 20c-.29-5.03.22-11.34 0-20m0 0c.65-6.17 1.77-10.75 10-10m-10 10c-1.07-4.54 5.55-11.55 10-10"/><text x="6.64" y="17.62" class="fill-neutral-900 dark:fill-neutral-50" dominant-baseline="alphabetic" font-family="Excalifont, Xiaolai, Segoe UI Emoji" font-size="20" style="white-space:pre" text-anchor="middle" transform="translate(23.36 157.5)">0</text><path fill="none" class="stroke-neutral-900 dark:stroke-neutral-50" stroke-linecap="round" stroke-width="2" d="M60 150c3.62.14 7.55.05 20 0m-20 0c6.44.67 11.94-.07 20 0m0 0c6.8.27 9.09 4.48 10 10m-10-10c8.85-.58 12.11 3.25 10 10m0 0c-.62 6.44.59 10.01 0 20m0-20c.87 4.58-.43 9.74 0 20m0 0c1.18 7.76-1.88 9.62-10 10m10-10c-1.36 7.78-4.3 10.34-10 10m0 0c-6.86-.49-11.91 1.05-20 0m20 0c-7.83-.65-15.18-.03-20 0m0 0c-6.02 1.28-9.19-3.38-10-10m10 10c-8.48-.69-9.94-5.35-10-10m0 0c.49-2.33.39-7.04 0-20m0 20c-.53-5.25-.9-10.61 0-20m0 0c.89-6.89 2.64-8.79 10-10m-10 10c1.53-8.64 3.66-9.97 10-10"/><text x="4.27" y="17.62" class="fill-neutral-900 dark:fill-neutral-50" dominant-baseline="alphabetic" font-family="Excalifont, Xiaolai, Segoe UI Emoji" font-size="20" style="white-space:pre" text-anchor="middle" transform="translate(65.73 157.5)">1</text><path fill="none" class="stroke-neutral-900 dark:stroke-neutral-50" stroke-linecap="round" stroke-width="2" d="M100 150c7.18-1.53 9.83-1.7 20 0m-20 0c6.99-.74 14.85-.56 20 0m0 0c6.96.18 11.44 5.24 10 10m-10-10c5.89-.78 10.51 4.32 10 10m0 0c-.99 5.83-1.12 14.37 0 20m0-20c.1 5.86-.17 13.33 0 20m0 0c-1.75 4.92-2.71 10.14-10 10m10-10c.64 8.88-2.82 11.69-10 10m0 0c-6.38.52-12.62.81-20 0m20 0c-6.29.59-14.65.07-20 0m0 0c-6.64-.33-10.21-3.64-10-10m10 10c-4.78 2.16-9.04-3.8-10-10m0 0c-.08-4.46-.51-8.83 0-20m0 20c.19-5.37-.77-11.62 0-20m0 0c-1.36-6.85 1.77-11.94 10-10m-10 10c1.01-7.27 4.51-8.85 10-10"/><text x="4.27" y="17.62" class="fill-neutral-900 dark:fill-neutral-50" dominant-baseline="alphabetic" font-family="Excalifont, Xiaolai, Segoe UI Emoji" font-size="20" style="white-space:pre" text-anchor="middle" transform="translate(105.73 157.5)">1</text><path fill="none" class="stroke-neutral-900 dark:stroke-neutral-50" stroke-linecap="round" stroke-width="2" d="M140 150c7.59-1.2 12.27-1.32 20 0m-20 0c6.21-.15 10.81-.43 20 0m0 0c6.72-1.75 8.26 3.95 10 10m-10-10c6.83.64 12.21 3.85 10 10m0 0c.1 6.59.46 13.33 0 20m0-20c-.26 7.4.75 12.73 0 20m0 0c.29 6.69-3.67 9.79-10 10m10-10c-.36 8.55-1.18 10.96-10 10m0 0c-4.84-.35-11.41-.78-20 0m20 0c-6.56.19-10.86-.77-20 0m0 0c-6.8-1.36-10.19-4.9-10-10m10 10c-8.9 1.01-10.6-2.15-10-10m0 0c-.73-5.3 1.15-13.99 0-20m0 20c.43-5.27-.02-10.7 0-20m0 0c-1.84-4.98 4.39-9.92 10-10m-10 10c1.46-6.62 2.31-8.46 10-10"/><text x="6.64" y="17.62" class="fill-neutral-900 dark:fill-neutral-50" dominant-baseline="alphabetic" font-family="Excalifont, Xiaolai, Segoe UI Emoji" font-size="20" style="white-space:pre" text-anchor="middle" transform="translate(143.36 157.5)">0</text><path fill="none" class="stroke-neutral-900 dark:stroke-neutral-50" stroke-linecap="round" stroke-width="2" d="M180 150c8.11 1.4 12.07.36 20 0m-20 0c5.87.84 12.99.44 20 0m0 0c6.26-1.77 8.64 4.08 10 10m-10-10c6.42-.26 9.26 2.91 10 10m0 0c.37 6.58-1.54 11.42 0 20m0-20c-.99 5.08-.28 9.8 0 20m0 0c1 4.99-5.16 9.11-10 10m10-10c1.96 7.8-3.31 9.22-10 10m0 0c-5.76.02-11.84-1.75-20 0m20 0c-7.05.03-15.82.68-20 0m0 0c-5.54.96-9.33-1.75-10-10m10 10c-6.16 2.29-8.78-1.59-10-10m0 0c-1.23-6.8 1.69-12.12 0-20m0 20c.53-8.07.21-14.91 0-20m0 0c-1.8-5.21 2.98-9.88 10-10m-10 10c-.56-7.06 4.07-11.94 10-10"/><text x="6.64" y="17.62" class="fill-neutral-900 dark:fill-neutral-50" dominant-baseline="alphabetic" font-family="Excalifont, Xiaolai, Segoe UI Emoji" font-size="20" style="white-space:pre" text-anchor="middle" transform="translate(183.36 157.5)">0</text><path fill="none" class="stroke-neutral-900 dark:stroke-neutral-50" stroke-linecap="round" stroke-width="2" d="M220 150c3.78.37 12.07-1.54 20 0m-20 0c5.08-.95 12.17-.24 20 0m0 0c7.69 1 8.33 1.51 10 10m-10-10c5.64 1.96 11.13 3.36 10 10m0 0c.82 5.44-.08 10.55 0 20m0-20c.21 4.8.19 7.88 0 20m0 0c1.34 7.79-2.37 10.67-10 10m10-10c1.82 7.17-1.04 11.22-10 10m0 0c-9.22-1.53-16.2 1.39-20 0m20 0c-5.1.51-11.21.19-20 0m0 0c-7.88-1.8-8.55-3.68-10-10m10 10c-6.53-.56-10.4-2.59-10-10m0 0c.26-2.9-.07-9.55 0-20m0 20c-.41-5.51-.46-9.3 0-20m0 0c.91-6.17 4.42-11.77 10-10m-10 10c-2.27-4.87 5.25-10.39 10-10"/><text x="6.64" y="17.62" class="fill-neutral-900 dark:fill-neutral-50" dominant-baseline="alphabetic" font-family="Excalifont, Xiaolai, Segoe UI Emoji" font-size="20" style="white-space:pre" text-anchor="middle" transform="translate(223.36 157.5)">0</text><path fill="none" class="stroke-neutral-900 dark:stroke-neutral-50" stroke-linecap="round" stroke-width="2" d="M220 10c4.9.79 11.7.89 20 0m-20 0c6.01.44 13.24.8 20 0m0 0c8.14 1.61 11.11 5.05 10 10m-10-10c7.36.14 11.54 2.41 10 10m0 0c-1.08 5.88-.3 7.23 0 20m0-20c-.12 6.45.68 13.76 0 20m0 0c1.06 7.3-3.17 10.33-10 10m10-10c1.61 6.68-4.28 10.4-10 10m0 0c-5.59-.6-11.98-.37-20 0m20 0c-4.5.22-10.44-.46-20 0m0 0c-7.49-1.89-10.12-3.64-10-10m10 10c-5.41-1.57-10.93-3.38-10-10m0 0c-.23-7.32-.22-12.97 0-20m0 20c.23-6.9.94-12.36 0-20m0 0c-.68-8.3 1.72-9.88 10-10m-10 10c.85-5.55 2.96-11.86 10-10"/><text x="4.27" y="17.62" class="fill-neutral-900 dark:fill-neutral-50" dominant-baseline="alphabetic" font-family="Excalifont, Xiaolai, Segoe UI Emoji" font-size="20" style="white-space:pre" text-anchor="middle" transform="translate(225.73 17.5)">1</text><path fill="none" class="stroke-neutral-900 dark:stroke-neutral-50" stroke-linecap="round" stroke-width="2" d="M260 150c5.67.85 12.16-.05 20 0m-20 0c6.43-.13 12.43-.15 20 0m0 0c5.77 1.34 11.13 4.29 10 10m-10-10c7.44 1.82 10.51 5.62 10 10m0 0c-1.37 5.36-1.23 12.95 0 20m0-20c-.14 7.58.44 14.16 0 20m0 0c.41 5.45-5.13 11.45-10 10m10-10c-.4 6.8-3.9 9.6-10 10m0 0c-6.5-.03-11.88-.36-20 0m20 0c-5.01-.16-11.16-.22-20 0m0 0c-7.2.91-9.51-2.25-10-10m10 10c-8.7-2.27-8.2-1.42-10-10m0 0c.19-5.98-.65-12.83 0-20m0 20c-.02-6.52-.67-14.34 0-20m0 0c.02-5.1 2.79-9.11 10-10m-10 10c.33-4.52 5.15-9.58 10-10"/><text x="4.27" y="17.62" class="fill-neutral-900 dark:fill-neutral-50" dominant-baseline="alphabetic" font-family="Excalifont, Xiaolai, Segoe UI Emoji" font-size="20" style="white-space:pre" text-anchor="middle" transform="translate(265.73 157.5)">1</text><path fill="none" class="stroke-neutral-900 dark:stroke-neutral-50" stroke-linecap="round" stroke-width="2" d="M260 10c7.64-1.02 13.32-1.69 20 0m-20 0c7.54.65 14.17.7 20 0m0 0c7.27.12 11.34 2.53 10 10m-10-10c4.42 2.27 9.18 1.87 10 10m0 0c.69 7.58 1.72 15.47 0 20m0-20c.67 5.74.22 11 0 20m0 0c1.4 6.68-4.15 10.35-10 10m10-10c.12 7.66-1.74 10.59-10 10m0 0c-5.76 1.67-11.64 1.94-20 0m20 0c-7.08-1.02-13.39-.22-20 0m0 0c-5.58-1.37-10.8-3.37-10-10m10 10c-7.15-.27-8.8-3.63-10-10m0 0c.43-5.72-.41-8.34 0-20m0 20c-.5-5.83-.97-9.96 0-20m0 0c.74-5.7 3.01-11.62 10-10m-10 10c.35-7.74 5.6-10.56 10-10"/><text x="6.64" y="17.62" class="fill-neutral-900 dark:fill-neutral-50" dominant-baseline="alphabetic" font-family="Excalifont, Xiaolai, Segoe UI Emoji" font-size="20" style="white-space:pre" text-anchor="middle" transform="translate(263.36 17.5)">0</text><path fill="none" class="stroke-neutral-900 dark:stroke-neutral-50" stroke-linecap="round" stroke-width="2" d="M300 150c4.05.3 10.58-1.9 20 0m-20 0c7.21-.18 15.23-.85 20 0m0 0c5.26.14 10.12 4.75 10 10m-10-10c6.42-1.05 8.29 4.73 10 10m0 0c-.74 5.62.85 12.8 0 20m0-20c.61 7.92-.35 13.21 0 20m0 0c.55 6.67-3.65 9.16-10 10m10-10c-1.73 7.59-2.23 10.11-10 10m0 0c-7.62-.09-10.75-.66-20 0m20 0c-6.1.37-13.35.83-20 0m0 0c-7.91-1.06-8.58-3.85-10-10m10 10c-5.26 1.58-10.84-1.23-10-10m0 0c1.39-9.33-1.35-14.97 0-20m0 20c-.94-7.23-.9-15.88 0-20m0 0c-.9-7.5 5.27-9.24 10-10m-10 10c.01-4.74 2.88-12.2 10-10"/><text x="6.64" y="17.62" class="fill-neutral-900 dark:fill-neutral-50" dominant-baseline="alphabetic" font-family="Excalifont, Xiaolai, Segoe UI Emoji" font-size="20" style="white-space:pre" text-anchor="middle" transform="translate(303.36 157.5)">0</text><path fill="none" class="stroke-neutral-900 dark:stroke-neutral-50" stroke-linecap="round" stroke-width="2" d="M300 10c5.88-.61 11.69 1.63 20 0m-20 0c7.91-.11 15.88-.57 20 0m0 0c4.72 1.98 9.29 2.06 10 10m-10-10c8.77-.57 9 4.19 10 10m0 0c-.41 7.16.72 12.56 0 20m0-20c.72 6.64-.39 13.45 0 20m0 0c.11 7.53-1.95 10.52-10 10m10-10c-.85 6.94-3.92 9.43-10 10m0 0c-7.06 1.33-16.14-.62-20 0m20 0c-3.56-.72-8.62-.05-20 0m0 0c-7.09-.24-8.96-3.59-10-10m10 10c-8.67-.28-12.08-2.87-10-10m0 0c-.95-2.95.93-9.75 0-20m0 20c.53-3.88 0-9.53 0-20m0 0c.31-7.6 5.31-10.48 10-10m-10 10c-1.5-5.98 5.17-9.91 10-10"/><text x="6.64" y="17.62" class="fill-neutral-900 dark:fill-neutral-50" dominant-baseline="alphabetic" font-family="Excalifont, Xiaolai, Segoe UI Emoji" font-size="20" style="white-space:pre" text-anchor="middle" transform="translate(303.36 17.5)">0</text><path fill="none" class="stroke-neutral-900 dark:stroke-neutral-50" stroke-linecap="round" stroke-width="2" d="M340 150c4.52 1.74 14.65-.16 20 0m-20 0c3.93-.42 7.43.4 20 0m0 0c7.62.1 10.16 3.9 10 10m-10-10c5.34-1.68 10.03 5.13 10 10m0 0c1.95 7.04.46 11.79 0 20m0-20c.58 7.03.49 15.28 0 20m0 0c-.73 8.49-1.38 11.21-10 10m10-10c-.56 8.41-4.91 8.59-10 10m0 0c-7.78-1.98-13.33-1.9-20 0m20 0c-3.3.3-8.53.75-20 0m0 0c-7.06-1.91-11.53-5.18-10-10m10 10c-8.49-1.75-10.17-5.08-10-10m0 0c-1.78-6.19 1.17-9.18 0-20m0 20c.49-7.08.79-14.84 0-20m0 0c.59-6.66 2.03-8.91 10-10m-10 10c-.47-6.7 5.03-9.49 10-10"/><text x="4.27" y="17.62" class="fill-neutral-900 dark:fill-neutral-50" dominant-baseline="alphabetic" font-family="Excalifont, Xiaolai, Segoe UI Emoji" font-size="20" style="white-space:pre" text-anchor="middle" transform="translate(345.73 157.5)">1</text><path fill="none" class="stroke-neutral-900 dark:stroke-neutral-50" stroke-linecap="round" stroke-width="2" d="M340 10c6.83.96 12.17.46 20 0m-20 0c5.15 1.07 11.89-.56 20 0m0 0c8.49-.49 9.13 4.07 10 10m-10-10c6.38 2.04 9.78 2.66 10 10m0 0c.69 7.57.39 16.21 0 20m0-20c-.03 6.44.61 12.28 0 20m0 0c-.74 6.9-3.84 9.5-10 10m10-10c1.98 5.39-1.04 10.77-10 10m0 0c-9.02-.2-14.56 1.01-20 0m20 0c-4.84-.12-8.74-.13-20 0m0 0c-8.41-.24-11.81-2.93-10-10m10 10c-8.35-.49-9.8-4.47-10-10m0 0c-1.73-9.2.03-14.44 0-20m0 20c.19-7.44 1.02-14.18 0-20m0 0c-1.3-6.07 4.93-9.92 10-10m-10 10c-.74-7.55 4.07-10.74 10-10"/><text x="6.64" y="17.62" class="fill-neutral-900 dark:fill-neutral-50" dominant-baseline="alphabetic" font-family="Excalifont, Xiaolai, Segoe UI Emoji" font-size="20" style="white-space:pre" text-anchor="middle" transform="translate(343.36 17.5)">0</text><text y="17.62" class="fill-neutral-900 dark:fill-neutral-50" dominant-baseline="alphabetic" font-family="Excalifont, Xiaolai, Segoe UI Emoji" font-size="20" style="white-space:pre" transform="translate(110 20.41)">1 &lt;&lt; 4 =</text><text y="17.62" class="fill-neutral-900 dark:fill-neutral-50" dominant-baseline="alphabetic" font-family="Excalifont, Xiaolai, Segoe UI Emoji" font-size="20" style="white-space:pre" transform="translate(370 90)">&amp;</text><text y="17.62" class="fill-neutral-900 dark:fill-neutral-50" dominant-baseline="alphabetic" font-family="Excalifont, Xiaolai, Segoe UI Emoji" font-size="20" style="white-space:pre" transform="translate(370 230)">&amp;</text><text y="17.62" class="fill-neutral-900 dark:fill-neutral-50" dominant-baseline="alphabetic" font-family="Excalifont, Xiaolai, Segoe UI Emoji" font-size="20" style="white-space:pre" transform="translate(450 90)">FALSE</text><path fill="none" class="stroke-neutral-900 dark:stroke-neutral-50" stroke-linecap="round" stroke-width="2" d="M260 290c7.99-.91 11.89.23 20 0m-20 0c5.2.02 12.74-.7 20 0m0 0c7.82.83 9.22 4.47 10 10m-10-10c6.8 0 11.59 2.72 10 10m0 0c-1.81 6.47-1.72 11.48 0 20m0-20c.6 5.84-.75 11.49 0 20m0 0c-.11 4.92-2.72 8.47-10 10m10-10c-.4 7.71-4.42 10.32-10 10m0 0c-7.97.25-11.18.22-20 0m20 0c-7.82-.66-14.41-.23-20 0m0 0c-7.51 1.53-10.97-4.91-10-10m10 10c-8.44 1.36-9.95-5.52-10-10m0 0c-.76-4.93-.73-10.26 0-20m0 20c.59-5.95.07-11.73 0-20m0 0c-1.21-6.46 2.3-10.2 10-10m-10 10c.43-5.33 3.59-8.69 10-10"/><text x="4.27" y="17.62" class="fill-neutral-900 dark:fill-neutral-50" dominant-baseline="alphabetic" font-family="Excalifont, Xiaolai, Segoe UI Emoji" font-size="20" style="white-space:pre" text-anchor="middle" transform="translate(265.73 297.5)">1</text><path fill="none" class="stroke-neutral-900 dark:stroke-neutral-50" stroke-linecap="round" stroke-width="2" d="M300 290c5.18 1.3 11.35-1.83 20 0m-20 0c6.86.53 12.16.68 20 0m0 0c6.78 0 11.39 2.8 10 10m-10-10c6.44 2.1 9.91 1.05 10 10m0 0c-.49 7.54-1.77 14.37 0 20m0-20c-.22 5.41.14 11.79 0 20m0 0c-.34 7.57-4.27 10.28-10 10m10-10c.31 4.74-4.81 8.04-10 10m0 0c-5.35-.6-13.12-1.54-20 0m20 0c-5.18.72-10-.83-20 0m0 0c-8.21 1.18-9.96-5.24-10-10m10 10c-6.71 1.54-9.31-4.05-10-10m0 0c-.13-8.29.63-13.14 0-20m0 20c-.59-5.61-.51-11.54 0-20m0 0c.37-5.5 3.55-8.86 10-10m-10 10c1.74-7.53 2.87-9.86 10-10"/><text x="6.64" y="17.62" class="fill-neutral-900 dark:fill-neutral-50" dominant-baseline="alphabetic" font-family="Excalifont, Xiaolai, Segoe UI Emoji" font-size="20" style="white-space:pre" text-anchor="middle" transform="translate(303.36 297.5)">0</text><path fill="none" class="stroke-neutral-900 dark:stroke-neutral-50" stroke-linecap="round" stroke-width="2" d="M340 290c7.6 1.25 13.49 1.34 20 0m-20 0c6.89-.11 14.35-.38 20 0m0 0c6.47 1.82 9.92 1.34 10 10m-10-10c7.43-2.19 9.86 2.99 10 10m0 0c.12 5.2 0 13.64 0 20m0-20c-.11 4.7-.41 8.64 0 20m0 0c.27 4.99-4.62 8.3-10 10m10-10c.44 8.23-2.93 11.19-10 10m0 0c-6.61-.85-11.13-1-20 0m20 0c-8.3.43-15.03-1.11-20 0m0 0c-6.7 1.34-9.4-3.96-10-10m10 10c-5.47-.68-8.08-3.55-10-10m0 0c-.34-4.86-.27-10.7 0-20m0 20c.29-5.63.21-11.84 0-20m0 0c1.51-7.42 2.93-9.88 10-10m-10 10c-1.42-4.45 1.92-11.35 10-10"/><text x="6.64" y="17.62" class="fill-neutral-900 dark:fill-neutral-50" dominant-baseline="alphabetic" font-family="Excalifont, Xiaolai, Segoe UI Emoji" font-size="20" style="white-space:pre" text-anchor="middle" transform="translate(343.36 297.5)">0</text><text y="17.62" class="fill-neutral-900 dark:fill-neutral-50" dominant-baseline="alphabetic" font-family="Excalifont, Xiaolai, Segoe UI Emoji" font-size="20" style="white-space:pre" transform="translate(149.128 298.666)">1 &lt;&lt; 3 =</text><g stroke-linecap="round"><path fill="none" class="stroke-neutral-900 dark:stroke-neutral-50" stroke-width="2" d="M375 29.9c4.39-1.7 7.94 1.28 19 0m-19 0c4.35.92 7.78-.08 19 0m0 0c12.26 1.26 17.73 3.74 16 16m-16-16c12.53-1.69 17.83 6.01 16 16m0 0c2.31 13.78-1.08 27.78 0 40.5m0-40.5c-1.19 8.87-1.05 18.78 0 40.5m0 0c-1.12 10.54 6.39 17.61 16 16m-16-16c-1.36 8.68 4.6 14.07 16 16m0 0c8.01.35 14.93-1.23 19 0m-19 0c7.93.67 14.93-.27 19 0M428.57 108.42c3.83-3.03 6.84-1.75 16.43-6.02m-16.43 6.02c3.8-.44 6.73-2.66 16.43-6.02"/><path fill="none" class="stroke-neutral-900 dark:stroke-neutral-50" stroke-width="2" d="M428.54 96.45c3.75-.13 6.77 4.05 16.46 5.95m-16.46-5.95c3.76 2.12 6.69 2.47 16.46 5.95"/></g><g stroke-linecap="round"><path fill="none" class="stroke-neutral-900 dark:stroke-neutral-50" stroke-width="2" d="M375 169.9c7.38-1.55 14.96-1.31 19 0m-19 0c3.94-.62 8.86-.34 19 0m0 0c10.54 1.05 17.61-6.52 16-16m-16 16c8.68-.73 14.07-3.62 16-16m0 0c.36-10.97-1.3-21.93 0-35.5m0 35.5c.6-11.14-.38-23.62 0-35.5m0 0c-1.04-9.08 7.26-15.65 16-16m-16 16c.6-8.88 6.21-15.31 16-16m0 0c5.53 1.47 14.1.81 19 0m-19 0c6.05-.1 12.95-.76 19 0"/><path fill="none" class="stroke-neutral-900 dark:stroke-neutral-50" stroke-width="2" d="M428.21 107.35c6.53-3.33 13.24-5.03 16.79-4.95m-16.79 4.95c3.49-1.83 7.84-2.82 16.79-4.95"/><path fill="none" class="stroke-neutral-900 dark:stroke-neutral-50" stroke-width="2" d="M428.96 95.4c6.22 1.3 12.64 4.23 16.04 7m-16.04-7c3.2 1.18 7.37 3.2 16.04 7"/></g><text y="17.62" class="fill-neutral-900 dark:fill-neutral-50" dominant-baseline="alphabetic" font-family="Excalifont, Xiaolai, Segoe UI Emoji" font-size="20" style="white-space:pre" transform="translate(450 230)">TRUE</text><g stroke-linecap="round"><path fill="none" class="stroke-neutral-900 dark:stroke-neutral-50" stroke-width="2" d="M375 169.9c7.72 1.56 13.71-1.52 19 0m-19 0c7.61-.39 14.18.61 19 0m0 0c9.21-1.82 15.98 5.62 16 16m-16-16c9.89 1.4 15.84 4.1 16 16m0 0c-2.3 13.54-.1 25.08 0 40.5m0-40.5c-.2 11.55-.12 23.41 0 40.5m0 0c1.82 11.88 3.95 17.89 16 16m-16-16c-.5 9.35 5.71 16.99 16 16m0 0c5.9.94 9.44.94 19 0m-19 0c7.5-.21 15 .38 19 0M428.73 248.85c6.72-.79 11.81-5.83 16.27-6.45m-16.27 6.45c6.56-2.78 12.16-4.26 16.27-6.45M428.39 236.89c6.79 3.32 12 2.38 16.61 5.51m-16.61-5.51c6.67 1.69 12.39 4.67 16.61 5.51"/></g><g stroke-linecap="round"><path fill="none" class="stroke-neutral-900 dark:stroke-neutral-50" stroke-width="2" d="M375 309.9c5.6.46 9.31-.15 19 0m-19 0c5.29 0 10.88.88 19 0m0 0c11.88-1.38 17.89-5.76 16-16m-16 16c9.35.37 16.99-5.79 16-16m0 0c.86-8.56.86-13.03 0-35.5m0 35.5c-.32-6.77.3-14.89 0-35.5m0 0c1.4-10.39 3.51-16.89 16-16m-16 16c.08-9.75 4.81-17.53 16-16m0 0c4.91-1.52 9.19.32 19 0m-19 0c7.69.8 14.17-.1 19 0M428.69 248.75c4.9-.86 8.08-2.7 16.31-6.35m-16.31 6.35c4.56-1.73 9.38-2.66 16.31-6.35"/><path fill="none" class="stroke-neutral-900 dark:stroke-neutral-50" stroke-width="2" d="M428.43 236.78c4.98 1.55 8.22 2.11 16.57 5.62m-16.57-5.62c4.6 1.54 9.5 3.88 16.57 5.62"/></g></svg>