<svg xmlns="http://www.w3.org/2000/svg" viewBox="0 0 349.536 375"><defs/><path fill="none" class="stroke-neutral-900 dark:stroke-neutral-50" stroke-linecap="round" stroke-width="2" d="M38.75 10c23.23-.11 49.43-.1 82.5 0m-82.5 0c18.1-.04 38.88.35 82.5 0m0 0c6.52-.89 7.85 4.65 8.75 8.75M121.25 10c6.02.57 10.88 1.47 8.75 8.75m0 0c1.43 8.28-1.33 12.55 0 17.5m0-17.5c-.59 6.32.01 14.74 0 17.5m0 0c1.1 4.59-1.2 7.96-8.75 8.75m8.75-8.75c1.08 4.22-4.53 10.7-8.75 8.75m0 0c-21.33-1.14-44.11-.43-82.5 0m82.5 0c-18.37 1.18-37.27.93-82.5 0m0 0c-4.95.07-9.3-3.07-8.75-8.75M38.75 45c-6.73-1.71-10.67-.93-8.75-8.75m0 0c.47-5.25 1.46-12.53 0-17.5m0 17.5c-.44-6.94.51-12.92 0-17.5m0 0c-.57-6.08 2.83-7.35 8.75-8.75M30 18.75c.34-4.1 4.7-10.86 8.75-8.75"/><text x="22.18" y="17.62" class="fill-neutral-900 dark:fill-neutral-50" dominant-baseline="alphabetic" font-family="Excalifont, Xiaolai, Segoe UI Emoji" font-size="20" style="white-space:pre" text-anchor="middle" transform="translate(57.82 15)">gone</text><path fill="none" class="stroke-neutral-900 dark:stroke-neutral-50" stroke-linecap="round" stroke-width="2" d="M38.75 50c20.99-1.35 46.68 1.74 82.5 0m-82.5 0c19.05.6 36.94.63 82.5 0m0 0c6.75 1.57 7.94 2.19 8.75 8.75M121.25 50c7.39.85 8.09 2.64 8.75 8.75m0 0c1.44 6.53-1.48 10.89 0 17.5m0-17.5c-.55 4.62.15 9.11 0 17.5m0 0c1.62 4.89-4.38 7.84-8.75 8.75m8.75-8.75c-1.52 5.64-1.92 8.18-8.75 8.75m0 0c-23.65-1.32-47.2.73-82.5 0m82.5 0c-21.27-.63-44.35-.71-82.5 0m0 0c-6.21 1.26-10.01-1.09-8.75-8.75M38.75 85c-8.13-2.07-9.24-2.31-8.75-8.75m0 0c.46-3.46 1.53-9.93 0-17.5m0 17.5c.72-5.24-.04-8.19 0-17.5m0 0c.93-6.06 1.91-9.61 8.75-8.75M30 58.75c1.42-8.08 4.82-10.97 8.75-8.75"/><text x="23.6" y="17.62" class="fill-neutral-900 dark:fill-neutral-50" dominant-baseline="alphabetic" font-family="Excalifont, Xiaolai, Segoe UI Emoji" font-size="20" style="white-space:pre" text-anchor="middle" transform="translate(56.4 55)">good</text><path fill="none" class="stroke-neutral-900 dark:stroke-neutral-50" stroke-linecap="round" stroke-width="2" d="M38.75 90c19.29-1.59 34.32-2.41 82.5 0m-82.5 0c21.16 1.56 43.26.63 82.5 0m0 0c4.83-.86 9.99.96 8.75 8.75M121.25 90c7.74-2.22 10.17 2.37 8.75 8.75m0 0c-.82 5.69-.85 10.68 0 17.5m0-17.5c-.66 4.63-.24 9.43 0 17.5m0 0c-1.27 6-3.91 7.31-8.75 8.75m8.75-8.75c-1.8 5.68-3.11 10.86-8.75 8.75m0 0c-22.46 2.19-39.37-1.24-82.5 0m82.5 0c-24.96.07-47.13.65-82.5 0m0 0c-6.73-1.9-8.56-4.45-8.75-8.75m8.75 8.75c-5.83.79-9.1-3.56-8.75-8.75m0 0c.87-2.79-.38-7.24 0-17.5m0 17.5c-.2-5.54.88-13.16 0-17.5m0 0c.53-5.23 4.29-10.25 8.75-8.75M30 98.75c.75-4.89.99-10.28 8.75-8.75"/><text x="19.56" y="17.62" class="fill-neutral-900 dark:fill-neutral-50" dominant-baseline="alphabetic" font-family="Excalifont, Xiaolai, Segoe UI Emoji" font-size="20" style="white-space:pre" text-anchor="middle" transform="translate(60.44 95)">goal</text><path fill="none" class="stroke-neutral-900 dark:stroke-neutral-50" stroke-linecap="round" stroke-width="2" d="M38.75 130c23.11.09 47.77-1.52 82.5 0m-82.5 0c19.23-.44 36.12.66 82.5 0m0 0c3.96 1.7 10.54 1.18 8.75 8.75m-8.75-8.75c5.62-.42 9.63.63 8.75 8.75m0 0c-.64 3.16.3 8.3 0 17.5m0-17.5c-.19 4.76.35 10.59 0 17.5m0 0c1.07 7.53-3.29 10.24-8.75 8.75m8.75-8.75c1.26 3.68-3.53 7.79-8.75 8.75m0 0c-30.52-.1-60.72-2.2-82.5 0m82.5 0c-28.1-1.52-54.41-.11-82.5 0m0 0c-4.13.18-8.84-4.6-8.75-8.75m8.75 8.75c-7.31.53-7.56-.62-8.75-8.75m0 0c.01-5.84.25-12.46 0-17.5m0 17.5c.56-6.36.68-11.36 0-17.5m0 0c.48-4.85 3.04-10.46 8.75-8.75M30 138.75c1.94-6.55 3.52-8.8 8.75-8.75"/><text x="17.6" y="17.62" class="fill-neutral-900 dark:fill-neutral-50" dominant-baseline="alphabetic" font-family="Excalifont, Xiaolai, Segoe UI Emoji" font-size="20" style="white-space:pre" text-anchor="middle" transform="translate(62.4 135)">god</text><path fill="none" class="stroke-neutral-900 dark:stroke-neutral-50" stroke-linecap="round" stroke-width="2" d="M38.75 290c21.22 1.62 39.94 1.41 82.5 0m-82.5 0c28.86.98 59.36-.63 82.5 0m0 0c6.36.6 10.13 1.41 8.75 8.75m-8.75-8.75c6.58.94 6.82 1.39 8.75 8.75m0 0c1.57 3.95.01 6.13 0 17.5m0-17.5c.91 4.59.6 8.15 0 17.5m0 0c.13 6.22-2.5 8.64-8.75 8.75m8.75-8.75c.49 6.47-3.53 10.34-8.75 8.75m0 0c-17.31.87-35.45-1.82-82.5 0m82.5 0c-31.74 1.1-63.34.1-82.5 0m0 0c-4.55 1.68-6.88-3.99-8.75-8.75m8.75 8.75c-7.44-1.5-10.36-3.59-8.75-8.75m0 0c-.87-4.17-1.37-9.82 0-17.5m0 17.5c.38-5.21.41-9.13 0-17.5m0 0c-.91-7.14 1.47-7.37 8.75-8.75M30 298.75c-.94-6.9 3.41-7.42 8.75-8.75"/><text x="16.29" y="17.62" class="fill-neutral-900 dark:fill-neutral-50" dominant-baseline="alphabetic" font-family="Excalifont, Xiaolai, Segoe UI Emoji" font-size="20" style="white-space:pre" text-anchor="middle" transform="translate(63.71 295)">gun</text><path fill="none" class="stroke-neutral-900 dark:stroke-neutral-50" stroke-dasharray="8 10" stroke-linecap="round" stroke-width="2.5" d="M38.75 330c21.47.22 42.36.52 82.5 0m0 0c7.38.79 9.29 3.48 8.75 8.75m0 0c-.38 5.69-.73 9.32 0 17.5m0 0c-1.46 6.29-4.89 10.36-8.75 8.75m0 0c-30.72 1.22-63.78.94-82.5 0m0 0c-3.92-1.24-10.61-3.84-8.75-8.75m0 0c-.78-7.23-.57-11.35 0-17.5m0 0c-1.66-4.76 4.21-6.87 8.75-8.75"/><text x="18.25" y="17.62" class="fill-neutral-900 dark:fill-neutral-50" dominant-baseline="alphabetic" font-family="Excalifont, Xiaolai, Segoe UI Emoji" font-size="20" style="white-space:pre" text-anchor="middle" transform="translate(61.75 335)">gulf</text><path fill="none" class="stroke-neutral-900 dark:stroke-neutral-50" stroke-linecap="round" stroke-width="2" d="M38.75 210c29.29.48 58.72-.01 82.5 0m-82.5 0c27.2-.62 53.85.09 82.5 0m0 0c6.31.98 8.87 1.21 8.75 8.75m-8.75-8.75c7.78-.71 9.36 2.86 8.75 8.75m0 0c1.14 8.25 1.65 12.64 0 17.5m0-17.5c-.37 4.01-.86 8.19 0 17.5m0 0c-1.16 7.04-4.66 9.47-8.75 8.75m8.75-8.75c-1.07 8-2.28 10.18-8.75 8.75m0 0c-18.37-1.54-36.37 1.14-82.5 0m82.5 0c-20.81-.7-43.66.94-82.5 0m0 0c-4.08.68-9.42-2.81-8.75-8.75m8.75 8.75c-7.65-1.5-6.79-4.88-8.75-8.75m0 0c1.62-5.65.86-7.23 0-17.5m0 17.5c.78-5.95-.34-10.51 0-17.5m0 0c.2-6.4 4.8-9.01 8.75-8.75M30 218.75c.36-3.78 4.2-7.29 8.75-8.75"/><text x="19.85" y="17.62" class="fill-neutral-900 dark:fill-neutral-50" dominant-baseline="alphabetic" font-family="Excalifont, Xiaolai, Segoe UI Emoji" font-size="20" style="white-space:pre" text-anchor="middle" transform="translate(60.15 215)">gold</text><path fill="none" class="stroke-neutral-900 dark:stroke-neutral-50" stroke-linecap="round" stroke-width="2" d="M38.75 250c24.75.15 46.59-1.38 82.5 0m-82.5 0c21.59.91 43.41.33 82.5 0m0 0c3.89 1.64 7.03 1.14 8.75 8.75m-8.75-8.75c7.7-2.22 9.97 4.38 8.75 8.75m0 0c.86 5.74 1.78 8.14 0 17.5m0-17.5c.95 5.37-.47 11.33 0 17.5m0 0c.87 5.44-3.48 10.13-8.75 8.75m8.75-8.75c-1.76 6.33-4.22 10.66-8.75 8.75m0 0c-31.43-1.71-64.02-1.06-82.5 0m82.5 0c-19.13-1.03-36.39-1.24-82.5 0m0 0c-6.23.65-9.23-4.19-8.75-8.75m8.75 8.75c-3.66-.36-9.86-.87-8.75-8.75m0 0c.27-2.84.46-7.03 0-17.5m0 17.5c-.13-3.48-.64-7.33 0-17.5m0 0c.09-5.89 2.84-8.12 8.75-8.75M30 258.75c-.77-7.07 4.72-10.02 8.75-8.75"/><text x="17.66" y="17.62" class="fill-neutral-900 dark:fill-neutral-50" dominant-baseline="alphabetic" font-family="Excalifont, Xiaolai, Segoe UI Emoji" font-size="20" style="white-space:pre" text-anchor="middle" transform="translate(62.34 255)">gum</text><path fill="none" class="stroke-neutral-900 dark:stroke-neutral-50" stroke-linecap="round" stroke-width="2" d="M38.75 170c23.47 1.08 47.52.59 82.5 0m-82.5 0c21.54-1.11 42.5-.52 82.5 0m0 0c4.92-1.31 7.3 4.29 8.75 8.75m-8.75-8.75c4.9-1.06 9.25 4.24 8.75 8.75m0 0c1.38 4.3-.74 7.51 0 17.5m0-17.5c-.86 3.28-.01 8.17 0 17.5m0 0c1.87 4.02-1.91 9.78-8.75 8.75m8.75-8.75c.49 7.03-2.43 11.03-8.75 8.75m0 0c-21.48.13-41.48.43-82.5 0m82.5 0c-25.4.05-52.64-.46-82.5 0m0 0c-5.11 1.93-9.76-4.7-8.75-8.75m8.75 8.75c-5.5 2.23-10.78-4.28-8.75-8.75m0 0c1.41-7.55.31-12.9 0-17.5m0 17.5c-.35-6.64-.7-12.56 0-17.5m0 0c-1.06-4.63 1.95-10.51 8.75-8.75M30 178.75c-2.29-6.24 2.11-8.11 8.75-8.75"/><text x="18.77" y="17.62" class="fill-neutral-900 dark:fill-neutral-50" dominant-baseline="alphabetic" font-family="Excalifont, Xiaolai, Segoe UI Emoji" font-size="20" style="white-space:pre" text-anchor="middle" transform="translate(61.23 175)">golf</text><text y="14.096" class="fill-neutral-900 dark:fill-neutral-50" dominant-baseline="alphabetic" font-family="Excalifont, Xiaolai, Segoe UI Emoji" font-size="16" style="white-space:pre" transform="translate(10 10)">0</text><text y="14.096" class="fill-neutral-900 dark:fill-neutral-50" dominant-baseline="alphabetic" font-family="Excalifont, Xiaolai, Segoe UI Emoji" font-size="16" style="white-space:pre" transform="translate(10 50)">1</text><text y="14.096" class="fill-neutral-900 dark:fill-neutral-50" dominant-baseline="alphabetic" font-family="Excalifont, Xiaolai, Segoe UI Emoji" font-size="16" style="white-space:pre" transform="translate(10 90)">2</text><text y="14.096" class="fill-neutral-900 dark:fill-neutral-50" dominant-baseline="alphabetic" font-family="Excalifont, Xiaolai, Segoe UI Emoji" font-size="16" style="white-space:pre" transform="translate(10 130)">3</text><text y="14.096" class="fill-neutral-900 dark:fill-neutral-50" dominant-baseline="alphabetic" font-family="Excalifont, Xiaolai, Segoe UI Emoji" font-size="16" style="white-space:pre" transform="translate(10 170)">4</text><text y="14.096" class="fill-neutral-900 dark:fill-neutral-50" dominant-baseline="alphabetic" font-family="Excalifont, Xiaolai, Segoe UI Emoji" font-size="16" style="white-space:pre" transform="translate(10 210)">5</text><text y="14.096" class="fill-neutral-900 dark:fill-neutral-50" dominant-baseline="alphabetic" font-family="Excalifont, Xiaolai, Segoe UI Emoji" font-size="16" style="white-space:pre" transform="translate(10 250)">6</text><text y="14.096" class="fill-neutral-900 dark:fill-neutral-50" dominant-baseline="alphabetic" font-family="Excalifont, Xiaolai, Segoe UI Emoji" font-size="16" style="white-space:pre" transform="translate(10 290)">7</text><text y="14.096" class="fill-neutral-900 dark:fill-neutral-50" dominant-baseline="alphabetic" font-family="Excalifont, Xiaolai, Segoe UI Emoji" font-size="16" style="white-space:pre" transform="translate(210.872 310)">insert: &quot;gulf&quot;</text><g stroke-linecap="round"><path fill="none" class="stroke-neutral-900 dark:stroke-neutral-50" stroke-width="2" d="M205.872 319.9c-3.71 1.46-10.46 1.42-21.69 0m21.69 0c-7.42.1-15.21-.46-21.69 0m0 0c-7.6.77-15.62 4.73-13.75 13.75m13.75-13.75c-9.8-1.76-13.53 6.17-13.75 13.75m0 0s0 0 0 0m0 0s0 0 0 0m0 0c-1.16 9.57-4.03 15.38-13.75 13.75m13.75-13.75c.64 9.2-3.04 14.54-13.75 13.75m0 0c-8.58 1.05-12.54 1.18-21.68 0m21.68 0c-7.3.7-16.44.54-21.68 0M152.012 342.45c-2.76 2.47-8.22 3.62-17.01 4.95m17.01-4.95c-5.76 1.85-11.89 3.09-17.01 4.95M151.212 354.55c-2.56-.44-7.83-2.19-16.21-7.15m16.21 7.15c-5.57-2.4-11.42-5.41-16.21-7.15"/></g><text y="14.096" class="fill-neutral-900 dark:fill-neutral-50" dominant-baseline="alphabetic" font-family="Excalifont, Xiaolai, Segoe UI Emoji" font-size="16" style="white-space:pre" transform="translate(210 110)">search: &quot;god&quot;</text><text y="14.096" class="fill-neutral-900 dark:fill-neutral-50" dominant-baseline="alphabetic" font-family="Excalifont, Xiaolai, Segoe UI Emoji" font-size="16" style="white-space:pre" transform="translate(210 190)">startsWith: &quot;gol&quot;</text><g stroke-linecap="round"><path fill="none" class="stroke-neutral-900 dark:stroke-neutral-50" stroke-width="2" d="M205 199.9c-9.89 1.13-18.63-.15-28.75 0m28.75 0c-6.68.16-12.18-.93-28.75 0m0 0c-6.16 0-4.71-2.05-6.25-6.25m6.25 6.25c-6.37 1.31-5.98-.05-6.25-6.25m0 0s0 0 0 0m0 0s0 0 0 0m0 0c-.88-5.31-.97-7.73-6.25-6.25m6.25 6.25c1.55-4.88-1.7-5.42-6.25-6.25m0 0c-6.58.22-12.75 1.25-28.75 0m28.75 0c-9.44-.1-18.67 1.04-28.75 0M151.72 182.24c-5.83 2.71-10.61 3.34-16.72 5.16m16.72-5.16c-3.96 1.35-6.9 1.54-16.72 5.16"/><path fill="none" class="stroke-neutral-900 dark:stroke-neutral-50" stroke-width="2" d="M151.13 194.2c-5.53-1.36-10.11-4.79-16.13-6.8m16.13 6.8c-3.86-1.3-6.67-3.76-16.13-6.8"/></g><g stroke-linecap="round"><path fill="none" class="stroke-neutral-900 dark:stroke-neutral-50" stroke-width="2" d="M205 119.9c-6.31 1.83-9.68.24-21.25 0m21.25 0c-6.38.62-13-.54-21.25 0m0 0c-10.05-1.14-12.63 3.1-13.75 13.75m13.75-13.75c-7.61-.71-13.37 5.41-13.75 13.75m0 0s0 0 0 0m0 0s0 0 0 0m0 0c-1.33 9.59-3.8 11.95-13.75 13.75M170 133.65c-1.17 10.21-3.18 15.09-13.75 13.75m0 0c-5.77-2.05-8.32-.41-21.25 0m21.25 0c-3.73-.4-9.22-.47-21.25 0M151.25 140.91c-4.98 3.02-7.42 3.04-16.25 6.49m16.25-6.49c-4.88 2.48-9.97 3.42-16.25 6.49M151.62 152.88c-5.11.41-7.63-2.18-16.62-5.48m16.62 5.48c-4.98-1.12-10.18-3.79-16.62-5.48"/></g></svg>