<svg xmlns="http://www.w3.org/2000/svg" viewBox="0 0 400.883 340"><defs/><path fill="none" class="stroke-neutral-900 dark:stroke-neutral-50" stroke-linecap="round" stroke-width="2" d="M25.523 10c6.26 1.34 11.73 1.68 29.28 0m-29.28 0c9.15.23 19.53.83 29.28 0m0 0c10.86-.28 13.75 5.85 14.65 14.64M54.803 10c9.69-.26 16.06 5.19 14.65 14.64m0 0c1.75 101.31-.57 199.69 0 290.72m0-290.72c-.56 64.43-1.3 127.97 0 290.72m0 0c-1.23 8.04-3.63 16.23-14.65 14.64m14.65-14.64c.9 9.55-6.67 12.84-14.65 14.64m0 0c-5.23 1.61-13.12-1.72-29.28 0m29.28 0c-8.15.03-15.6-.65-29.28 0m0 0c-11.5.68-16.12-3.27-14.64-14.64M25.523 330c-8.37-.09-16.57-6.1-14.64-14.64m0 0c2.44-74.25.45-148.18 0-290.72m0 290.72c-.64-104.36-.2-209.42 0-290.72m0 0c.17-8.17 3.44-15.24 14.64-14.64m-14.64 14.64c-1.84-10.14 2.7-14.57 14.64-14.64"/><path fill="none" class="stroke-neutral-900 dark:stroke-neutral-50" stroke-linecap="round" stroke-width="2" d="M10.153 48.82c9.77.22 49.58 3.12 59.78 3.36m-57.96-1.37c10.13-.16 50.53-.27 60.36-.23M11.293 89.11c10.09.29 49.44 1.63 59.12 1.61m-60.36.54c10.1.04 50.16-2.03 59.92-2.28M11.923 130.06c9.81.19 47.43 1.71 57.18 2.04m-58.1-3.05c9.66-.26 47.02.39 56.85 1.13M10.043 170.1c9.89-.25 50.52-.79 60.36-.96m-58.6-.03c9.8-.18 48.76.99 58.15 1.11M11.293 210.66c9.82-.19 49-1.85 58.55-1.84m-59.79 1.13c9.69-.07 48.88-.01 59.04-.22M11.263 249.86c9.8 0 48.25.25 57.84.23m-59.1-1.35c9.67.21 48.36 2.57 57.97 2.94M11.373 290.67c9.81.1 48.06.42 57.68.26m-58.89-.95c9.68-.26 48.07-.83 57.73-.68M139.633 10c16.32.22 33.7.23 82.5 0m-82.5 0c25.21.43 50.2-.11 82.5 0m0 0c6.52-1.7 7.88 4.34 8.75 8.75m-8.75-8.75c5.69-.73 8.95 3.41 8.75 8.75m0 0c.77 3.08-1.37 5.67 0 17.5m0-17.5c.29 5.11-.71 11.91 0 17.5m0 0c-.85 7.69-1.55 7.06-8.75 8.75m8.75-8.75c-.77 6.99-3.83 6.52-8.75 8.75m0 0c-19.17-1.35-36.28 1.81-82.5 0m82.5 0c-21.47.04-44.75-.57-82.5 0m0 0c-6.37-1.6-8.25-3.14-8.75-8.75m8.75 8.75c-7.72-.69-9.17-.91-8.75-8.75m0 0c-.6-4.56-.13-13.23 0-17.5m0 17.5c.13-4.96-.15-8.34 0-17.5m0 0c.82-6.55 3.18-9.4 8.75-8.75m-8.75 8.75c-.29-6.07 4.99-6.55 8.75-8.75"/><text x="22.18" y="17.62" class="fill-neutral-900 dark:fill-neutral-50" dominant-baseline="alphabetic" font-family="Excalifont, Xiaolai, Segoe UI Emoji" font-size="20" style="white-space:pre" text-anchor="middle" transform="translate(158.703 15)">gone</text><path fill="none" class="stroke-neutral-900 dark:stroke-neutral-50" stroke-linecap="round" stroke-width="2" d="M299.633 10c22.96.75 44.48.68 82.5 0m-82.5 0c24.09-.31 47.05 1.25 82.5 0m0 0c5.71-.64 8.92 3.35 8.75 8.75m-8.75-8.75c3.59-1.84 8.52 4.11 8.75 8.75m0 0c.15 5.33-1.09 10.05 0 17.5m0-17.5c-.52 5.24.45 8.11 0 17.5m0 0c-.67 6.84-3.71 6.81-8.75 8.75m8.75-8.75c-1.79 6.51-1.46 7.81-8.75 8.75m0 0c-17.67.77-34 1.8-82.5 0m82.5 0c-25.16-1.29-49.54-.6-82.5 0m0 0c-7.48-.6-9.11-1.17-8.75-8.75m8.75 8.75c-5.03-.31-9.68-3.74-8.75-8.75m0 0c-1.1-6.58-.1-12.87 0-17.5m0 17.5c.39-3.91.15-7.49 0-17.5m0 0c-.25-6.04 4.72-6.84 8.75-8.75m-8.75 8.75c1.39-4.72 3.51-10.24 8.75-8.75"/><text x="23.6" y="17.62" class="fill-neutral-900 dark:fill-neutral-50" dominant-baseline="alphabetic" font-family="Excalifont, Xiaolai, Segoe UI Emoji" font-size="20" style="white-space:pre" text-anchor="middle" transform="translate(317.283 15)">good</text><path fill="none" class="stroke-neutral-900 dark:stroke-neutral-50" stroke-linecap="round" stroke-width="2" d="M139.633 90c26.85.35 52.86.48 82.5 0m-82.5 0c17.66-.9 35.53-.37 82.5 0m0 0c3.88-1.6 8.55 3.96 8.75 8.75m-8.75-8.75c5.22-1.61 6.89 3.27 8.75 8.75m0 0c-.92 4.27 1.64 10.85 0 17.5m0-17.5c-.17 7.31-.23 12.89 0 17.5m0 0c-1.55 6.42-1.65 7.93-8.75 8.75m8.75-8.75c-2.15 6.31-1.44 8.01-8.75 8.75m0 0c-25.71-.57-52.67-.02-82.5 0m82.5 0c-18.98-.39-36.5.78-82.5 0m0 0c-5.13-.27-9.56-3.63-8.75-8.75m8.75 8.75c-4.11-.21-10.73-4.39-8.75-8.75m0 0c-1.64-5.54-.15-9.75 0-17.5m0 17.5c-.13-4.71.77-8.41 0-17.5m0 0c1.21-4.87 3.43-10.05 8.75-8.75m-8.75 8.75c1.79-5.99 3.96-7.99 8.75-8.75"/><text x="19.56" y="17.62" class="fill-neutral-900 dark:fill-neutral-50" dominant-baseline="alphabetic" font-family="Excalifont, Xiaolai, Segoe UI Emoji" font-size="20" style="white-space:pre" text-anchor="middle" transform="translate(161.323 95)">goal</text><path fill="none" class="stroke-neutral-900 dark:stroke-neutral-50" stroke-linecap="round" stroke-width="2" d="M139.633 130c25.33-1.15 55.48-.41 82.5 0m-82.5 0c21.15-.98 44.16.34 82.5 0m0 0c5.3-1.4 7.13 3.23 8.75 8.75m-8.75-8.75c6.55-1.27 9.37 1.83 8.75 8.75m0 0c1.79 4.92-1.3 6.86 0 17.5m0-17.5c-.75 6.39.48 11.9 0 17.5m0 0c-1.87 6.25-1.63 8.11-8.75 8.75m8.75-8.75c.28 5.89-1.46 8.79-8.75 8.75m0 0c-21.84.28-40.71-1.87-82.5 0m82.5 0c-21.94.58-44.98.36-82.5 0m0 0c-4.34-.18-10.47-4.2-8.75-8.75m8.75 8.75c-5.86-.15-8.42-5.08-8.75-8.75m0 0c-.61-4.72-.55-10.11 0-17.5m0 17.5c.37-4.65.07-10.71 0-17.5m0 0c1.56-5.97 3.82-8.09 8.75-8.75m-8.75 8.75c1.63-4.34 2.59-10.51 8.75-8.75"/><text x="17.6" y="17.62" class="fill-neutral-900 dark:fill-neutral-50" dominant-baseline="alphabetic" font-family="Excalifont, Xiaolai, Segoe UI Emoji" font-size="20" style="white-space:pre" text-anchor="middle" transform="translate(163.283 135)">god</text><path fill="none" class="stroke-neutral-900 dark:stroke-neutral-50" stroke-linecap="round" stroke-width="2" d="M139.633 290c20.53.22 42.76-1.9 82.5 0m-82.5 0c17.89-1.13 35.5-.27 82.5 0m0 0c6.46-1.1 9.29 1.98 8.75 8.75m-8.75-8.75c3.83 2.28 7.77 5.05 8.75 8.75m0 0c.73 5.75-1.84 11.54 0 17.5m0-17.5c-.71 5.95.67 11.25 0 17.5m0 0c.24 5.89-1.65 8.78-8.75 8.75m8.75-8.75c-1.26 4.47-3.54 6.91-8.75 8.75m0 0c-27.4-1.04-51.87.02-82.5 0m82.5 0c-22.88-.39-48.12-.93-82.5 0m0 0c-5.85-.13-8.47-4.8-8.75-8.75m8.75 8.75c-6.23-.22-7.81-3.74-8.75-8.75m0 0c-.12-3.9 1.73-9.9 0-17.5m0 17.5c.64-6.16.35-11.9 0-17.5m0 0c1.42-4.54 2.63-10.28 8.75-8.75m-8.75 8.75c1.92-3.72 5.14-10.39 8.75-8.75"/><text x="16.29" y="17.62" class="fill-neutral-900 dark:fill-neutral-50" dominant-baseline="alphabetic" font-family="Excalifont, Xiaolai, Segoe UI Emoji" font-size="20" style="white-space:pre" text-anchor="middle" transform="translate(164.593 295)">gun</text><path fill="none" class="stroke-neutral-900 dark:stroke-neutral-50" stroke-linecap="round" stroke-width="2" d="M299.633 210c22.52-1.4 48.15.84 82.5 0m-82.5 0c19.32 1.38 39.97 1.31 82.5 0m0 0c7.2-1.69 8.08 3.92 8.75 8.75m-8.75-8.75c4.92-2.23 6.96 3.59 8.75 8.75m0 0c.29 7.48-.63 12.92 0 17.5m0-17.5c-.37 4.78-.13 9.89 0 17.5m0 0c.5 5.61-4.56 8.15-8.75 8.75m8.75-8.75c-.42 7.84-2.11 8.44-8.75 8.75m0 0c-21.59-1.1-44.1.6-82.5 0m82.5 0c-24.37-.87-47.99-1.13-82.5 0m0 0c-5.57-.65-9-3.12-8.75-8.75m8.75 8.75c-3.76 2.2-7.36-1.81-8.75-8.75m0 0c-.01-4.91.69-10.16 0-17.5m0 17.5c.76-5.58.87-13.39 0-17.5m0 0c-.57-4.03 3.74-9.58 8.75-8.75m-8.75 8.75c.07-4.38 5.06-10.83 8.75-8.75"/><text x="19.85" y="17.62" class="fill-neutral-900 dark:fill-neutral-50" dominant-baseline="alphabetic" font-family="Excalifont, Xiaolai, Segoe UI Emoji" font-size="20" style="white-space:pre" text-anchor="middle" transform="translate(321.033 215)">gold</text><path fill="none" class="stroke-neutral-900 dark:stroke-neutral-50" stroke-linecap="round" stroke-width="2" d="M139.633 250c16.97.29 35.21-2 82.5 0m-82.5 0c33.63-1.61 65.56-.26 82.5 0m0 0c5.04-1.94 7.2 3.51 8.75 8.75m-8.75-8.75c7.29-.94 6.6 3.4 8.75 8.75m0 0c-.01 7.48-.03 11.79 0 17.5m0-17.5c.17 4.12-.77 8.17 0 17.5m0 0c-.36 7.58-2.21 8.48-8.75 8.75m8.75-8.75c-.93 5.01-1.2 8.54-8.75 8.75m0 0c-17.8.28-37.22-.35-82.5 0m82.5 0c-23.84-.62-48.07-.4-82.5 0m0 0c-4.03 1.91-7.54-1.95-8.75-8.75m8.75 8.75c-5.24-1.49-6.96-3.08-8.75-8.75m0 0c1.08-6.29-1.4-10.62 0-17.5m0 17.5c-.42-6.07.19-14.08 0-17.5m0 0c.06-4.57 4.78-10.56 8.75-8.75m-8.75 8.75c1.38-5.8 1.54-7.22 8.75-8.75"/><text x="17.66" y="17.62" class="fill-neutral-900 dark:fill-neutral-50" dominant-baseline="alphabetic" font-family="Excalifont, Xiaolai, Segoe UI Emoji" font-size="20" style="white-space:pre" text-anchor="middle" transform="translate(163.223 255)">gum</text><path fill="none" class="stroke-neutral-900 dark:stroke-neutral-50" stroke-linecap="round" stroke-width="2" d="M139.633 210c28.97-.13 55.83 2.09 82.5 0m-82.5 0c17.39-1.38 34.8-.12 82.5 0m0 0c7.1-.82 6.88 3.33 8.75 8.75m-8.75-8.75c7.31-.74 9.03 2.98 8.75 8.75m0 0c-1.03 5.89-1.39 13.16 0 17.5m0-17.5c-.3 5.82.16 9.99 0 17.5m0 0c-.81 5.12-1.42 8.57-8.75 8.75m8.75-8.75c-1.98 4.36-2.94 8.6-8.75 8.75m0 0c-26.11.67-52.56.12-82.5 0m82.5 0c-21.16.87-43.52.4-82.5 0m0 0c-5.32-1.3-7.19-3.06-8.75-8.75m8.75 8.75c-4.79.76-7.12-1.43-8.75-8.75m0 0c1.74-3.3-1.12-10.5 0-17.5m0 17.5c-.04-6.28.74-14.45 0-17.5m0 0c1.2-5.81 1.72-7.42 8.75-8.75m-8.75 8.75c.81-3.92 4.82-11 8.75-8.75"/><text x="18.77" y="17.62" class="fill-neutral-900 dark:fill-neutral-50" dominant-baseline="alphabetic" font-family="Excalifont, Xiaolai, Segoe UI Emoji" font-size="20" style="white-space:pre" text-anchor="middle" transform="translate(162.113 215)">golf</text><g stroke-linecap="round"><path fill="none" class="stroke-neutral-900 dark:stroke-neutral-50" stroke-width="2" d="M70.466 30.82c13.4-2.26 25.13-2.29 55.79-3.15m-55.79 3.15c17.75-1.45 33.88-1.8 55.79-3.15M103.266 37.49c5.71-3.96 9.71-5.57 22.99-9.82m-22.99 9.82c7.73-3.44 13.82-5.83 22.99-9.82M102.336 20.41c5.85.07 10.07 2.49 23.92 7.26m-23.92-7.26c7.98 1.79 14.36 4.62 23.92 7.26"/></g><g stroke-linecap="round"><path fill="none" class="stroke-neutral-900 dark:stroke-neutral-50" stroke-width="2" d="M69.717 110c20.63-.76 35.86.08 60.23 0m-60.23 0c14.76 1.37 26.86 1.21 60.23 0M106.737 119.29c8.95-3.41 12.6-5.49 23.21-9.29m-23.21 9.29c6.31-1.04 9.93-3.32 23.21-9.29M106.187 102.2c9.3 1.93 13.11 5.21 23.76 7.8m-23.76-7.8c6.39 2.88 10.14 4.51 23.76 7.8"/></g><g stroke-linecap="round"><path fill="none" class="stroke-neutral-900 dark:stroke-neutral-50" stroke-width="2" d="M69.717 150c22.13.33 44.98 1.06 60.23 0m-60.23 0c18.52-.57 36.26 1.25 60.23 0M106.647 159.07c8.18-2.88 17.08-5.57 23.3-9.07m-23.3 9.07c7.24-3.58 13.75-4.51 23.3-9.07M106.267 141.97c8.33 3.58 17.37 7.35 23.68 8.03m-23.68-8.03c7.42 1.63 14.04 5.9 23.68 8.03"/></g><g stroke-linecap="round"><path fill="none" class="stroke-neutral-900 dark:stroke-neutral-50" stroke-width="2" d="M69.717 230c21.09.85 39.65-1.44 60.23 0m-60.23 0c22.75.09 44.85-.34 60.23 0M106.377 238.35c8.62-2.25 14.72-7.38 23.57-8.35m-23.57 8.35c9.13-2.93 17.66-6.44 23.57-8.35M106.527 221.25c8.57 3.56 14.61 4.25 23.42 8.75m-23.42-8.75c9.19 3.4 17.66 6.21 23.42 8.75"/></g><g stroke-linecap="round"><path fill="none" class="stroke-neutral-900 dark:stroke-neutral-50" stroke-width="2" d="M69.717 270c19.88 1.63 43.26 1.91 60.23 0m-60.23 0c13.18-1.2 25.32-.75 60.23 0M106.277 278.04c7.07-1.37 17.56-3.93 23.67-8.04m-23.67 8.04c5.51-2.63 9.94-3.88 23.67-8.04M106.637 260.94c6.79 4.66 17.16 8.13 23.31 9.06m-23.31-9.06c5.35.98 9.7 3.34 23.31 9.06"/></g><g stroke-linecap="round"><path fill="none" class="stroke-neutral-900 dark:stroke-neutral-50" stroke-width="2" d="M69.717 310c24.61-1.28 45.53-2.45 60.23 0m-60.23 0c16.52.56 35.52.69 60.23 0"/><path fill="none" class="stroke-neutral-900 dark:stroke-neutral-50" stroke-width="2" d="M106.627 319.01c10.48-4.45 17.24-9.08 23.32-9.01m-23.32 9.01c5.98-2.26 14.37-4.73 23.32-9.01M106.287 301.91c10.55 2.11 17.43 4.04 23.66 8.09m-23.66-8.09c5.95 2.65 14.44 5.1 23.66 8.09"/></g><g stroke-linecap="round"><path fill="none" class="stroke-neutral-900 dark:stroke-neutral-50" stroke-width="2" d="M230.883 30c20.25-1.36 39.01-.3 60 0m-60 0c18.02.9 34.08.97 60 0"/><path fill="none" class="stroke-neutral-900 dark:stroke-neutral-50" stroke-width="2" d="M267.643 39.21c8.34-4.66 15.16-6.59 23.24-9.21m-23.24 9.21c7.34-1.82 12.79-4.4 23.24-9.21M267.153 22.12c8.47.89 15.45 4.51 23.73 7.88m-23.73-7.88c7.61 3.11 13.21 5.46 23.73 7.88"/></g><g stroke-linecap="round"><path fill="none" class="stroke-neutral-900 dark:stroke-neutral-50" stroke-width="2" d="M230.883 230c23.32.05 43.94 1.06 60 0m-60 0c21 1.35 43.57-.52 60 0M267.403 238.59c10.27-2.69 17.82-4.75 23.48-8.59m-23.48 8.59c7.98-1.95 17.46-6.91 23.48-8.59"/><path fill="none" class="stroke-neutral-900 dark:stroke-neutral-50" stroke-width="2" d="M267.373 221.49c10.24 3.43 17.81 7.49 23.51 8.51m-23.51-8.51c7.87 4.17 17.36 5.35 23.51 8.51"/></g></svg>