<svg xmlns="http://www.w3.org/2000/svg" viewBox="0 0 443.616 340.766"><defs/><g stroke-linecap="round"><path stroke-width="0" d="M78.54 90c6.1 1.72 6.73 1.29 20.27 0 3.22-3.2 10.11.69 8.54 8.54.65 4.5-2.7 11.63 0 17.07 2.75 2.29-.78 9.96-8.54 8.54-8.12 2.88-14.44 2.92-20.27 0-3.06-.77-5.98-1.23-8.54-8.54-2.22-5.85.94-12.07 0-17.07-1.99-2.53 5.44-8.76 8.54-8.54" class="fill-red-600"/><path fill="none" stroke-width="2" d="M78.54 90c5.29-1.94 10.7 1.45 20.27 0m-20.27 0c7.04.62 16.1.66 20.27 0m0 0c6.53-1.71 9.74.93 8.54 8.54M98.81 90c6.57-.69 7.27 1.21 8.54 8.54m0 0c-.52 5.9-.58 14.86 0 17.07m0-17.07c-.47 3.95-.76 7.82 0 17.07m0 0c2 5.35-4.61 7.94-8.54 8.54m8.54-8.54c-1.73 5.37-4.61 7.68-8.54 8.54m0 0c-6.81.5-16.3-1.2-20.27 0m20.27 0c-5.22.93-8.4.29-20.27 0m0 0c-3.84.75-7.17-2.31-8.54-8.54m8.54 8.54c-4.85-.98-9.63-3.46-8.54-8.54m0 0c.45-2.89.75-9.05 0-17.07m0 17.07c.51-3.74-.2-7.97 0-17.07m0 0c1.59-3.85 2.37-7.1 8.54-8.54M70 98.54c-.17-5.02.73-10.39 8.54-8.54" class="stroke-neutral-900 dark:stroke-neutral-50"/></g><g stroke-linecap="round"><path stroke-width="0" d="M138.54 150c5.8-1.67 11.21 1.59 20.27 0 8.87.82 6.2 5.34 8.54 8.54-.98 3.87-1.4 10.11 0 17.07-2.67 5.11-4.13 8.08-8.54 8.54-3.69-2.59-8.99-3.19-20.27 0-3.89 1.13-9.03.62-8.54-8.54-.3-5.46-3.18-9.89 0-17.07-1.87-4.68-.52-8.36 8.54-8.54" class="fill-red-600"/><path fill="none" stroke-width="2" d="M138.54 150c2.83-1.22 8.73 1.28 20.27 0m-20.27 0c7.91-.94 14.51-.38 20.27 0m0 0c5.45-1.41 9.54 1.46 8.54 8.54m-8.54-8.54c7.11-1.75 10.73 4.82 8.54 8.54m0 0c1.32 7.45-1.13 11.47 0 17.07m0-17.07c-.04 6.28-.02 13.07 0 17.07m0 0c-.11 5.52-3.76 7.36-8.54 8.54m8.54-8.54c-.07 5.71-5.08 10.44-8.54 8.54m0 0c-7.5 1.44-14.21-.75-20.27 0m20.27 0c-5.06 1.07-11.21.25-20.27 0m0 0c-7.12-1.14-9.08-2.95-8.54-8.54m8.54 8.54c-5.92-1.56-7.05-3.86-8.54-8.54m0 0c.15-3.39.25-8.71 0-17.07m0 17.07c-.69-3.53.9-7.4 0-17.07m0 0c-1.44-7.43 4.67-9 8.54-8.54m-8.54 8.54c-1.38-6.98 1.88-9.52 8.54-8.54" class="stroke-neutral-900 dark:stroke-neutral-50"/></g><path fill="none" stroke-linecap="round" stroke-width="2" d="M78.54 150c5.86.47 17.19-.32 20.27 0m-20.27 0c6.33-.08 11.14.61 20.27 0m0 0c6.46-1.84 9.09 3.76 8.54 8.54M98.81 150c7.21-.12 10.19 1.88 8.54 8.54m0 0c-1.52 5.56.3 7.91 0 17.07m0-17.07c-.68 5.07.28 10.65 0 17.07m0 0c-1.92 7.52-3.84 7.57-8.54 8.54m8.54-8.54c-2.15 6.57-4.54 8.76-8.54 8.54m0 0c-9.02.62-13.11-1.07-20.27 0m20.27 0c-6.74.4-14.19-.53-20.27 0m0 0c-5.95 1.68-8.08-1.2-8.54-8.54m8.54 8.54c-3.47.43-6.43-1.38-8.54-8.54m0 0c.41-4.23 1.58-9.99 0-17.07m0 17.07c.54-6.4-.64-11.72 0-17.07m0 0c-.94-5.24 4.11-7 8.54-8.54M70 158.54c-.7-6.51 4.77-10.39 8.54-8.54" class="stroke-neutral-900 dark:stroke-neutral-50"/><g stroke-linecap="round"><path stroke-width="0" d="M78.54 270c6.37 2.21 6.63-1.03 20.27 0 4.03 1.87 9.66 3.13 8.54 8.54-2.02 4.67 2.33 10.91 0 17.07 2.28 7.99-6.43 5.07-8.54 8.54-6.99-.18-15.66-1.35-20.27 0-2.82-.07-9.21.35-8.54-8.54 2.01-3.84-.41-9.48 0-17.07 3.06-5.36.75-11.87 8.54-8.54" class="fill-lime-600"/><path fill="none" stroke-width="2" d="M78.54 270c5.22 1.86 9.82-.16 20.27 0m-20.27 0c7.65-.87 15.48.08 20.27 0m0 0c5.87 1.3 8.76 2.81 8.54 8.54M98.81 270c6.61-2.14 9.11 2.44 8.54 8.54m0 0c-1.36 2.59-1.38 7.44 0 17.07m0-17.07c-.49 5.56-.64 11.41 0 17.07m0 0c-1.36 5.31-2.86 8.77-8.54 8.54m8.54-8.54c-.29 7.2-2.82 6.28-8.54 8.54m0 0c-4.17.09-11.76.54-20.27 0m20.27 0c-6.87.61-13.56.46-20.27 0m0 0c-5.98-1.12-7.55-3.31-8.54-8.54m8.54 8.54c-4.74 1.91-7.67-4.21-8.54-8.54m0 0c.57-6.56 1.31-13.05 0-17.07m0 17.07c-.35-4.25.41-8.83 0-17.07m0 0c1.96-4.56 3.98-9.83 8.54-8.54M70 278.54c-1.63-7.47 4.23-6.93 8.54-8.54" class="stroke-neutral-900 dark:stroke-neutral-50"/></g><g stroke-linecap="round"><path stroke-width="0" d="M78.54 210c7.94 3.2 11.95.24 20.27 0 3.13-2.04 7.56 2.66 8.54 8.54-1.56 4.72-.85 11.62 0 17.07.24 9.07-2.4 11.22-8.54 8.54-7.54 1.07-5.26.45-20.27 0-8.28-3.13-5.25-3.68-8.54-8.54-1.14-6.15-1.96-7.3 0-17.07 1.07-7.25 4.6-6.85 8.54-8.54" class="fill-lime-600"/><path fill="none" stroke-width="2" d="M78.54 210c5.78-1.87 12.29-.43 20.27 0m-20.27 0c7.16-.72 14.95.99 20.27 0m0 0c5.82-1.82 9.12 4.56 8.54 8.54M98.81 210c6.65-1.22 10.11 2.33 8.54 8.54m0 0c.79 4.33.76 12.12 0 17.07m0-17.07c.51 4.78-.13 8.51 0 17.07m0 0c1.09 3.71-1.03 7.93-8.54 8.54m8.54-8.54c-1.42 4.22-2.16 9.94-8.54 8.54m0 0c-6.52-1.88-15.67-.76-20.27 0m20.27 0c-6.52.71-12.42 1.05-20.27 0m0 0c-3.97 1.14-6.81-1.71-8.54-8.54m8.54 8.54c-4.12 1.82-10.27-3.82-8.54-8.54m0 0c-.31-6.83-.28-12.64 0-17.07m0 17.07c-.49-5.05.02-10.88 0-17.07m0 0c1.65-4.2 3.88-8.35 8.54-8.54M70 218.54c.11-4.06 3.98-9.42 8.54-8.54" class="stroke-neutral-900 dark:stroke-neutral-50"/></g><g stroke-linecap="round"><path stroke-width="0" d="M138.54 270c4.43-.59 11.42.4 20.27 0 9.07.44 11.22-.11 8.54 8.54.91 7.61.39 6.91 0 17.07-3.12 8.98-3.68 6.38-8.54 8.54-7.35-2.65-8.85.92-20.27 0-7.25 1.75-6.85.33-8.54-8.54-1.71-5.26-.19-12.03 0-17.07-.22-7.36 5.18-11.21 8.54-8.54" class="fill-lime-600"/><path fill="none" stroke-width="2" d="M138.54 270c5.87.57 17.1.82 20.27 0m-20.27 0c5.45-.93 10.96.61 20.27 0m0 0c3.87 1.09 8.94 2.2 8.54 8.54m-8.54-8.54c5.35-.16 9.97 3.41 8.54 8.54m0 0c-1.82 6.46-.64 8.76 0 17.07m0-17.07c.63 4.32.06 8.46 0 17.07m0 0c-1.87 4.92-3.6 8.29-8.54 8.54m8.54-8.54c-1.62 6.84-4.44 9.95-8.54 8.54m0 0c-3.4 1.9-7.95 1.54-20.27 0m20.27 0c-6.9.37-15.79-.22-20.27 0m0 0c-6.12-.23-8.2-2.96-8.54-8.54m8.54 8.54c-5.89-1.06-9.9-2.91-8.54-8.54m0 0c1.44-4.26.33-10.19 0-17.07m0 17.07c-.25-5.53.43-12.13 0-17.07m0 0c1.9-5.37 3.1-9.97 8.54-8.54m-8.54 8.54c-1.3-6.32 2.73-8.76 8.54-8.54" class="stroke-neutral-900 dark:stroke-neutral-50"/></g><path fill="none" stroke-linecap="round" stroke-width="2" d="M138.54 90c7.18-.58 13.59.45 20.27 0m-20.27 0c4.82-.93 11.63.06 20.27 0m0 0c7.43-.78 7.11 3.69 8.54 8.54M158.81 90c5.65 1.29 9.97 5.15 8.54 8.54m0 0c-1.13 3.73.1 9.55 0 17.07m0-17.07c-.79 4.7-.63 8.76 0 17.07m0 0c-.84 5.74-3.22 6.71-8.54 8.54m8.54-8.54c.51 7.56-3.76 9.61-8.54 8.54m0 0c-5.94-2.03-7.28-1.45-20.27 0m20.27 0c-5.73-.74-11.25.07-20.27 0m0 0c-5.83-1.73-9.65-4.27-8.54-8.54m8.54 8.54c-7.32.74-10.01-4.35-8.54-8.54m0 0c-1.16-5.02.44-11.51 0-17.07m0 17.07c-.59-4.5-.52-9.66 0-17.07m0 0c1.49-6.2.96-6.88 8.54-8.54M130 98.54c1.75-6.26 2.4-8.58 8.54-8.54m0 120c7.79.25 15.07.68 20.27 0m-20.27 0c5.66.57 9.05-.61 20.27 0m0 0c6.54-1.16 9.32.88 8.54 8.54m-8.54-8.54c4.64-1.73 7.74 2.74 8.54 8.54m0 0c.36 6.52 1.17 14.46 0 17.07m0-17.07c.75 5.05.62 10.21 0 17.07m0 0c1.4 6.02-2.98 7.08-8.54 8.54m8.54-8.54c-1.46 6.86-4.55 7.57-8.54 8.54m0 0c-8.57-.5-16.19.11-20.27 0m20.27 0c-6.06-.19-12.88-.31-20.27 0m0 0c-5.17-.18-7.73-2.54-8.54-8.54m8.54 8.54c-4.04-1.86-9.74-3.92-8.54-8.54m0 0c.61-3.48 1.78-7.51 0-17.07m0 17.07c.6-4.8-.71-9.47 0-17.07m0 0c.5-5.52 4.14-8.32 8.54-8.54m-8.54 8.54c-.04-4.78.7-7.97 8.54-8.54m60-120c4.89 1.59 9.86.27 20.27 0m-20.27 0c5.99 1.02 13.7.17 20.27 0m0 0c5.52 1.93 9.05 1.56 8.54 8.54M218.81 90c5.41 1.85 6.96 4.38 8.54 8.54m0 0c1.83 3.85.61 8.41 0 17.07m0-17.07c-.46 4.52.21 10.37 0 17.07m0 0c-.11 6.44-2.99 8.05-8.54 8.54m8.54-8.54c.2 3.96-4.36 10-8.54 8.54m0 0c-5.04-1.64-11.67-1.15-20.27 0m20.27 0c-5.41.37-10.22-.49-20.27 0m0 0c-7.25.02-6.56-1.53-8.54-8.54m8.54 8.54c-3.95-1.97-7.72-3.6-8.54-8.54m0 0c-.47-5.46-.34-11.04 0-17.07m0 17.07c.46-3.88-.03-9.08 0-17.07m0 0c-.64-6.6 2.33-7.38 8.54-8.54M190 98.54c-1.44-4.47 4.85-6.27 8.54-8.54m0 60c5.77-1.37 12.99 1.83 20.27 0m-20.27 0c6.33-1.05 12.17.33 20.27 0m0 0c7.02-.1 9.98 2 8.54 8.54m-8.54-8.54c5.21-.08 8.76.8 8.54 8.54m0 0c.5 4.3.43 10.81 0 17.07m0-17.07c-.73 4.86-.34 7.76 0 17.07m0 0c-1.87 6.45-4.32 8.73-8.54 8.54m8.54-8.54c1.57 4.44-1.21 6.74-8.54 8.54m0 0c-5.41.36-13.92.89-20.27 0m20.27 0c-7.18.75-13.87.73-20.27 0m0 0c-3.76.38-6.71-1.57-8.54-8.54m8.54 8.54c-5.93 1.51-9.87-2.14-8.54-8.54m0 0c.26-4.27-.95-10.26 0-17.07m0 17.07c-.3-3.24.64-6.21 0-17.07m0 0c-.61-6.4 4.52-10.15 8.54-8.54m-8.54 8.54c.16-5.38 5.14-10.04 8.54-8.54m0 60c5.03.53 8.14-1.55 20.27 0m-20.27 0c7.1-.6 15.83-.73 20.27 0m0 0c6.47-1.96 7.62 1.34 8.54 8.54m-8.54-8.54c4.89-.1 10.43 2.05 8.54 8.54m0 0c1.27 5.24-.12 9.23 0 17.07m0-17.07c.58 5.69.72 10.94 0 17.07m0 0c-.13 4.23-4.11 9.56-8.54 8.54m8.54-8.54c-1.7 4.72-1.04 7.94-8.54 8.54m0 0c-8.56-.13-15.21.62-20.27 0m20.27 0c-6.13-.33-11.49-.12-20.27 0m0 0c-4.89.31-7.1-4.46-8.54-8.54m8.54 8.54c-6.89-1.07-9.78-4.76-8.54-8.54m0 0c1.59-3.77-.14-8.21 0-17.07m0 17.07c-.74-5.09.07-11.3 0-17.07m0 0c1.3-5.48 2.81-7.74 8.54-8.54m-8.54 8.54c-2.14-5.12 2.44-10.06 8.54-8.54m0 60c9.31.68 17.7.55 20.27 0m-20.27 0c4.74.6 9.43-.07 20.27 0m0 0c6.49-1.86 9.04 2.5 8.54 8.54m-8.54-8.54c4.18.11 7.27 1.01 8.54 8.54m0 0c.09 2.6-1.54 6.68 0 17.07m0-17.07c-.69 5.39-.11 11.2 0 17.07m0 0c-.26 7.01-2.83 6.57-8.54 8.54m8.54-8.54c-.59 3.98-4.19 10.13-8.54 8.54m0 0c-5.5-.38-11.37.09-20.27 0m20.27 0c-7.21-.49-13.64-.16-20.27 0m0 0c-4.87 1.66-7.78-4.04-8.54-8.54m8.54 8.54c-4.87.81-10.31-1.99-8.54-8.54m0 0c-1.17-4.56-1.69-9.34 0-17.07m0 17.07c.76-4.31.41-10.14 0-17.07m0 0c-1.42-7.24 4.05-7.14 8.54-8.54m-8.54 8.54c-2.16-3.5.69-7.14 8.54-8.54m60-180c2.18-.67 9.77-1.07 20.27 0m-20.27 0c5.36-.54 11.69-.04 20.27 0m0 0c6.73 1.63 8.14 1.14 8.54 8.54M278.81 90c4.34-.21 7.09 3.91 8.54 8.54m0 0c-.05 4.94.55 11.86 0 17.07m0-17.07c.52 3.88.48 9.98 0 17.07m0 0c.21 4.75-1.49 8.52-8.54 8.54m8.54-8.54c1.56 4.67-2.61 8.38-8.54 8.54m0 0c-8.72-.77-12.76 1.27-20.27 0m20.27 0c-6.2.39-12.68-1.11-20.27 0m0 0c-7.54-1.96-8.64-3.58-8.54-8.54m8.54 8.54c-3.85 1.55-10.53-4.74-8.54-8.54m0 0c.61-2.71-.41-10.03 0-17.07m0 17.07c-.09-6.14-.19-12.19 0-17.07m0 0c-1.89-6.68 3.7-8.95 8.54-8.54M250 98.54c-.87-5.32 3.27-6.42 8.54-8.54m0 60c5.78 1.92 11.05.65 20.27 0m-20.27 0c7.63.64 15.37.13 20.27 0m0 0c7.13-.84 8.12 2.78 8.54 8.54m-8.54-8.54c5.92-2.04 9.62 3.25 8.54 8.54m0 0c.44 2.48-.99 7.91 0 17.07m0-17.07c-.59 3.66-.96 8.48 0 17.07m0 0c-1.48 5.89-1.48 7.45-8.54 8.54m8.54-8.54c1.63 3.9-2.29 10.62-8.54 8.54m0 0c-5.64 1.06-8.75.67-20.27 0m20.27 0c-4.93.99-9.36.36-20.27 0m0 0c-3.86 1.27-8.75-1.53-8.54-8.54m8.54 8.54c-7.03.7-7.58-.57-8.54-8.54m0 0c-.82-3.62-1.73-11.02 0-17.07m0 17.07c.62-3.23-.18-8.08 0-17.07m0 0c1.67-7.3 2.98-8.27 8.54-8.54m-8.54 8.54c2.3-7.19 1.82-7.01 8.54-8.54m0 60c4.95-1.59 13.98 1.62 20.27 0m-20.27 0c7.98-.49 15.51-.89 20.27 0m0 0c4.77-1.5 7.84 2.76 8.54 8.54m-8.54-8.54c7.58-.79 6.8 3.4 8.54 8.54m0 0c-.04 6.69.4 11.41 0 17.07m0-17.07c.69 5.45.04 9.99 0 17.07m0 0c-1.27 6.71-4.33 7.69-8.54 8.54m8.54-8.54c1.81 5.09-.99 7.51-8.54 8.54m0 0c-5.18.69-11.03.5-20.27 0m20.27 0c-5.48-.15-11.08.1-20.27 0m0 0c-4.25-1.61-9.58-3.78-8.54-8.54m8.54 8.54c-6.94-1.92-9.17-2.22-8.54-8.54m0 0c-.25-4.73.4-10.25 0-17.07m0 17.07c.33-5.5.67-11.06 0-17.07m0 0c-.04-4.9.98-8.04 8.54-8.54m-8.54 8.54c-.4-7.21 2.96-9.81 8.54-8.54m0 60c7.63.47 10.55 1.33 20.27 0m-20.27 0c6.7-.15 13.58-1.06 20.27 0m0 0c6.19-.35 7.22 2.94 8.54 8.54m-8.54-8.54c4.43-1.84 6.66.97 8.54 8.54m0 0c-1.38 3.81.46 8.09 0 17.07m0-17.07c-.12 6.67-.22 13.7 0 17.07m0 0c.02 3.73-3.36 7.05-8.54 8.54m8.54-8.54c-1.34 7.29-2.6 7.8-8.54 8.54m0 0c-5.53-.02-12.53.37-20.27 0m20.27 0c-6.27-.35-13.13.71-20.27 0m0 0c-4.94-1.19-7.83-2.14-8.54-8.54m8.54 8.54c-7.47.85-9.66-1-8.54-8.54m0 0c-1.45-4.3-.22-6.3 0-17.07m0 17.07c.32-4.36-.77-8.28 0-17.07m0 0c1.2-4.29.97-6.63 8.54-8.54m-8.54 8.54c-2.16-4.29 4.04-9.65 8.54-8.54m60-180c7.96.56 14.47-1.14 20.27 0m-20.27 0c3.51-.82 7.65.33 20.27 0m0 0c6.04 1.87 9.15 4.65 8.54 8.54M338.81 90c7.43-1.12 10.05 3.87 8.54 8.54m0 0c1.48 5.73-.26 12.12 0 17.07m0-17.07c-.56 6.48-.94 12.63 0 17.07m0 0c1.38 6.66-2.3 8.02-8.54 8.54m8.54-8.54c1.09 7.8-3.32 10.08-8.54 8.54m0 0c-4.66.18-14.35-1.53-20.27 0m20.27 0c-6.8-.54-15.85-.45-20.27 0m0 0c-6.5 0-7.47-3.64-8.54-8.54m8.54 8.54c-3.44-.15-7.83-3.77-8.54-8.54m0 0c.44-3.44.99-6.94 0-17.07m0 17.07c.9-3.42.52-7.61 0-17.07m0 0c.59-7.26 2.99-9.83 8.54-8.54M310 98.54c1.51-5.18 4.78-7.77 8.54-8.54" class="stroke-neutral-900 dark:stroke-neutral-50"/><g stroke-linecap="round"><path stroke-width="0" d="M318.54 150c6.67.53 13.93-2.31 20.27 0 2.93 2.88 11.56 5.47 8.54 8.54-1.92 5.28-3.15 6.77 0 17.07-2.71 4.44-3 11.49-8.54 8.54-5.38 2.68-7.78-.25-20.27 0-2.38.58-6.07-2.45-8.54-8.54.39-6.26-2.35-14.05 0-17.07 1.83-8.36 1.32-5.71 8.54-8.54" class="fill-orange-600"/><path fill="none" stroke-width="2" d="M318.54 150c4.51.33 10.55.58 20.27 0m-20.27 0c4.88-.14 9.16-.51 20.27 0m0 0c5.27-.07 8.73 1.07 8.54 8.54m-8.54-8.54c6.78.41 6.38 3.47 8.54 8.54m0 0c-1 4.39-1 5.37 0 17.07m0-17.07c-.88 7-.71 13.44 0 17.07m0 0c1.36 4.61-1.42 6.98-8.54 8.54m8.54-8.54c.56 7.78-4.24 9.86-8.54 8.54m0 0c-5.61.72-14.04-.15-20.27 0m20.27 0c-6.82.35-14.65.8-20.27 0m0 0c-5.9 1.31-9.7-2.24-8.54-8.54m8.54 8.54c-4.74 2.28-8.67-2.27-8.54-8.54m0 0c-1.61-7.66-1.15-14.17 0-17.07m0 17.07c-.37-5.81.61-11.7 0-17.07m0 0c.14-5.42 4.84-9.84 8.54-8.54m-8.54 8.54c-1.02-4.17 2.18-7.09 8.54-8.54" class="stroke-neutral-900 dark:stroke-neutral-50"/></g><g stroke-linecap="round"><path stroke-width="0" d="M378.54 150c4.82.68 10.27-.23 20.27 0 4.04-2.13 8.44 2.88 8.54 8.54 1.84 3.75.4 9.11 0 17.07 1.77 4.32-3.55 11.93-8.54 8.54-6.73.8-17.18-1.7-20.27 0-6.67-.19-8.89-5.29-8.54-8.54-.51-4.51.34-9.57 0-17.07.44-3.01-.11-9.73 8.54-8.54" class="fill-orange-600"/><path fill="none" stroke-width="2" d="M378.54 150c7.47-1.03 13.97-.26 20.27 0m-20.27 0c6.86.05 11.94.96 20.27 0m0 0c6.02-.67 8.18 4.09 8.54 8.54m-8.54-8.54c6.86-.38 9.52 4.8 8.54 8.54m0 0c-1.47 4.93.74 11.09 0 17.07m0-17.07c.69 5.85.07 9.26 0 17.07m0 0c.58 7.41-2.02 7.47-8.54 8.54m8.54-8.54c1.57 5.18-1.81 6.3-8.54 8.54m0 0c-6.92.21-16.67-.48-20.27 0m20.27 0c-6.07-.7-11.34-.94-20.27 0m0 0c-3.88-.61-9.77-4.12-8.54-8.54m8.54 8.54c-5.01 1.4-6.99-2.07-8.54-8.54m0 0c-.74-5.79-.29-11.48 0-17.07m0 17.07c-.53-5.16.85-11.46 0-17.07m0 0c1.73-4.56 4.21-6.96 8.54-8.54m-8.54 8.54c-1.73-6.66 4.65-7.49 8.54-8.54" class="stroke-neutral-900 dark:stroke-neutral-50"/></g><path fill="none" stroke-linecap="round" stroke-width="2" d="M318.54 210c8.23 1.83 14.72-1.05 20.27 0m-20.27 0c5.55-.86 9.87-.63 20.27 0m0 0c5-.09 10.18 2.15 8.54 8.54m-8.54-8.54c3.95.56 8.54 4.5 8.54 8.54m0 0c.26 7.71.17 14 0 17.07m0-17.07c.06 5.09-.42 11.86 0 17.07m0 0c-1.48 4.85-1.27 8.02-8.54 8.54m8.54-8.54c1.86 4.66-3.6 7.57-8.54 8.54m0 0c-6.22.57-12.38-.44-20.27 0m20.27 0c-5.08.14-10.26-.83-20.27 0m0 0c-6.74-.93-9.62-4.51-8.54-8.54m8.54 8.54c-6.32.63-7.58-.65-8.54-8.54m0 0c.58-4.59.47-13.21 0-17.07m0 17.07c.51-6.22-.06-12.29 0-17.07m0 0c-1.86-5.2 2.5-9.86 8.54-8.54m-8.54 8.54c.11-6.96 1.01-10.42 8.54-8.54m0 60c5.35 1.35 14.01.12 20.27 0m-20.27 0c7.79-.93 15.04-.17 20.27 0m0 0c4.37.1 7.44 1.25 8.54 8.54m-8.54-8.54c3.81-1.88 7.81 3.15 8.54 8.54m0 0c.29 2.94 1.31 6.84 0 17.07m0-17.07c-.11 5.36.01 8.76 0 17.07m0 0c-.51 4.21-4.01 9.92-8.54 8.54m8.54-8.54c.25 4.96-2.08 9.45-8.54 8.54m0 0c-4.65.42-10.57-.28-20.27 0m20.27 0c-4.53.78-9.51-.64-20.27 0m0 0c-4.98.7-10.08-2.11-8.54-8.54m8.54 8.54c-6.82 1.84-10.68-4.24-8.54-8.54m0 0c-.17-4.09-1.16-8.02 0-17.07m0 17.07c-.7-6.75.42-11.59 0-17.07m0 0c-1.87-3.79.97-7.32 8.54-8.54m-8.54 8.54c1.19-6.8 1.97-9.6 8.54-8.54m60-180c6.87 1.28 8.32.79 20.27 0m-20.27 0c7.44.32 14.19-.37 20.27 0m0 0c5.94-1.08 10.44 1.11 8.54 8.54M398.81 90c6.4 2.07 7.68 4.92 8.54 8.54m0 0c1.07 6.41.2 9.53 0 17.07m0-17.07c-.63 4.77.07 9.07 0 17.07m0 0c-.36 4.73-4.39 10.34-8.54 8.54m8.54-8.54c.55 3.72-4.84 8.2-8.54 8.54m0 0c-8.45.62-11.41.17-20.27 0m20.27 0c-7.13.64-13.87-.38-20.27 0m0 0c-5.76.66-6.96-2.23-8.54-8.54m8.54 8.54c-7.16 2.16-7.74-2.2-8.54-8.54m0 0c-.57-3.98-.83-11.33 0-17.07m0 17.07c.87-4.62-.58-10.03 0-17.07m0 0c-.77-5.22 2.35-9.89 8.54-8.54M370 98.54c1.62-6.7 2.98-9.93 8.54-8.54m0 120c5.98-1.37 8.15.67 20.27 0m-20.27 0c4.44-.55 9.46.15 20.27 0m0 0c7.33-.69 7.03 3.33 8.54 8.54m-8.54-8.54c5.69 1.65 10.45 2.63 8.54 8.54m0 0c.22 7.62.62 14.59 0 17.07m0-17.07c-.55 5.83-.64 10.43 0 17.07m0 0c1.57 5.17-1.23 7.64-8.54 8.54m8.54-8.54c-.76 4.72-2.91 8.8-8.54 8.54m0 0c-7.11-.46-14.15.57-20.27 0m20.27 0c-5.18-.78-12.32-.44-20.27 0m0 0c-6.78-1.67-9.09-2.3-8.54-8.54m8.54 8.54c-4.73 2.2-7.35-2.97-8.54-8.54m0 0c.4-7.42 1.14-12.01 0-17.07m0 17.07c-.13-4.93-.91-10.33 0-17.07m0 0c-.35-7.02 2.94-9.64 8.54-8.54m-8.54 8.54c-1.84-7.58.97-9.28 8.54-8.54" class="stroke-neutral-900 dark:stroke-neutral-50"/><g stroke-linecap="round"><path stroke-width="0" d="M378.54 270c3.8-2.05 11.85 3.04 20.27 0 6.28 2.28 10.84-.74 8.54 8.54-1.2 2.77-.01 4.12 0 17.07-1.2 8.57-2.92 7.87-8.54 8.54-8.53 2.11-13.95-.73-20.27 0-4.16 3.06-8.21-4.94-8.54-8.54 1.75-2.59.06-6.81 0-17.07-2.65-2.84 6.36-8.32 8.54-8.54" class="fill-blue-600"/><path fill="none" stroke-width="2" d="M378.54 270c7.13.03 14.54.08 20.27 0m-20.27 0c6.29.01 11.43.24 20.27 0m0 0c4.59-1.6 6.91 1.21 8.54 8.54m-8.54-8.54c4.96.3 7.03.96 8.54 8.54m0 0c1.49 3.19-.28 8.7 0 17.07m0-17.07c-.01 4.48-.24 10.01 0 17.07m0 0c-1.17 7.08-2.63 7.9-8.54 8.54m8.54-8.54c.76 6.6-3.36 9.95-8.54 8.54m0 0c-5.42-.24-13.33 1.03-20.27 0m20.27 0c-5.23-.43-10.87.52-20.27 0m0 0c-7.23.74-9.52-1.24-8.54-8.54m8.54 8.54c-7.84-1.4-8.91-4.94-8.54-8.54m0 0c-1.28-2.68 1-7.74 0-17.07m0 17.07c.63-3.42-.68-7.23 0-17.07m0 0c-1.88-4.48 3.88-9.5 8.54-8.54m-8.54 8.54c-.88-6.76 4.04-7.82 8.54-8.54" class="stroke-neutral-900 dark:stroke-neutral-50"/></g><g stroke-linecap="round"><path fill="none" stroke-width="2" d="M30.82 50.95c-.32 46.47-1.74 231.94-1.72 278.54m.69-279.09c-.04 46.57 1.4 234.02 1.55 280.37" class="stroke-neutral-900 dark:stroke-neutral-50"/><path fill="none" stroke-width="2" d="M22.66 307.32c5.07 7.5 6 19.64 8.68 23.45m-8.68-23.45c2.69 8 6.07 16.16 8.68 23.45m8.42-23.54c-1.54 7.65-7.22 19.82-8.42 23.54m8.42-23.54c-3.22 8-5.75 16.2-8.42 23.54" class="stroke-neutral-900 dark:stroke-neutral-50"/></g><g stroke-linecap="round"><path fill="none" stroke-width="2" d="M31.13 50.72c66.87.23 333.11.51 399.62.42M30.26 50.06c66.82-.06 333.39-.7 399.94-.45" class="stroke-neutral-900 dark:stroke-neutral-50"/><path fill="none" stroke-width="2" d="M406.7 58.16c7.38-1.21 14.22-4.38 23.5-8.55m-23.5 8.55c7.14-2.59 14.66-5.89 23.5-8.55m-23.49-8.55c7.34 3.27 14.18 4.58 23.49 8.55m-23.49-8.55c7.01 2.75 14.53 4.8 23.49 8.55" class="stroke-neutral-900 dark:stroke-neutral-50"/></g><text y="17.62" class="fill-neutral-900 dark:fill-neutral-50" dominant-baseline="alphabetic" font-family="Excalifont, Xiaolai, Segoe UI Emoji" font-size="20" style="white-space:pre" transform="translate(210 10)">X</text><text y="17.62" class="fill-neutral-900 dark:fill-neutral-50" dominant-baseline="alphabetic" font-family="Excalifont, Xiaolai, Segoe UI Emoji" font-size="20" style="white-space:pre" transform="translate(10 170)">Y</text><text y="14.096" class="fill-neutral-900 dark:fill-neutral-50" dominant-baseline="alphabetic" font-family="Excalifont, Xiaolai, Segoe UI Emoji" font-size="16" style="white-space:pre" transform="translate(50 70)">(0, 0)</text><text y="14.096" class="fill-neutral-900 dark:fill-neutral-50" dominant-baseline="alphabetic" font-family="Excalifont, Xiaolai, Segoe UI Emoji" font-size="16" style="white-space:pre" transform="translate(390 310)">(3, 5)</text></svg>