<svg xmlns="http://www.w3.org/2000/svg" viewBox="0 0 357.352 234.148"><defs/><g stroke-linecap="round"><path class="fill-red-600" stroke-width="0" d="M18.54 10c6.1 1.72 6.73 1.29 20.27 0 3.22-3.2 10.11.69 8.54 8.54.65 4.5-2.7 11.63 0 17.07 2.75 2.29-.78 9.96-8.54 8.54-8.12 2.88-14.44 2.92-20.27 0-3.06-.77-5.98-1.23-8.54-8.54-2.22-5.85.94-12.07 0-17.07-1.99-2.53 5.44-8.76 8.54-8.54"/><path fill="none" class="stroke-neutral-900 dark:stroke-neutral-50" stroke-width="2" d="M18.54 10c5.29-1.94 10.7 1.45 20.27 0m-20.27 0c7.04.62 16.1.66 20.27 0m0 0c6.53-1.71 9.74.93 8.54 8.54M38.81 10c6.57-.69 7.27 1.21 8.54 8.54m0 0c-.52 5.9-.58 14.86 0 17.07m0-17.07c-.47 3.95-.76 7.82 0 17.07m0 0c2 5.35-4.61 7.94-8.54 8.54m8.54-8.54c-1.73 5.37-4.61 7.68-8.54 8.54m0 0c-6.81.5-16.3-1.2-20.27 0m20.27 0c-5.22.93-8.4.29-20.27 0m0 0c-3.84.75-7.17-2.31-8.54-8.54m8.54 8.54c-4.85-.98-9.63-3.46-8.54-8.54m0 0c.45-2.89.75-9.05 0-17.07m0 17.07c.51-3.74-.2-7.97 0-17.07m0 0c1.59-3.85 2.37-7.1 8.54-8.54M10 18.54c-.17-5.02.73-10.39 8.54-8.54"/></g><g stroke-linecap="round"><path class="fill-red-600" stroke-width="0" d="M78.54 70c5.8-1.67 11.21 1.59 20.27 0 8.87.82 6.2 5.34 8.54 8.54-.98 3.87-1.4 10.11 0 17.07-2.67 5.11-4.13 8.08-8.54 8.54-3.69-2.59-8.99-3.19-20.27 0-3.89 1.13-9.03.62-8.54-8.54-.3-5.46-3.18-9.89 0-17.07-1.87-4.68-.52-8.36 8.54-8.54"/><path fill="none" class="stroke-neutral-900 dark:stroke-neutral-50" stroke-width="2" d="M78.54 70c2.83-1.22 8.73 1.28 20.27 0m-20.27 0c7.91-.94 14.51-.38 20.27 0m0 0c5.45-1.41 9.54 1.46 8.54 8.54M98.81 70c7.11-1.75 10.73 4.82 8.54 8.54m0 0c1.32 7.45-1.13 11.47 0 17.07m0-17.07c-.04 6.28-.02 13.07 0 17.07m0 0c-.11 5.52-3.76 7.36-8.54 8.54m8.54-8.54c-.07 5.71-5.08 10.44-8.54 8.54m0 0c-7.5 1.44-14.21-.75-20.27 0m20.27 0c-5.06 1.07-11.21.25-20.27 0m0 0c-7.12-1.14-9.08-2.95-8.54-8.54m8.54 8.54c-5.92-1.56-7.05-3.86-8.54-8.54m0 0c.15-3.39.25-8.71 0-17.07m0 17.07c-.69-3.53.9-7.4 0-17.07m0 0c-1.44-7.43 4.67-9 8.54-8.54M70 78.54c-1.38-6.98 1.88-9.52 8.54-8.54"/></g><path fill="none" class="stroke-neutral-900 dark:stroke-neutral-50" stroke-linecap="round" stroke-width="2" d="M18.54 70c5.86.47 17.19-.32 20.27 0m-20.27 0c6.33-.08 11.14.61 20.27 0m0 0c6.46-1.84 9.09 3.76 8.54 8.54M38.81 70c7.21-.12 10.19 1.88 8.54 8.54m0 0c-1.52 5.56.3 7.91 0 17.07m0-17.07c-.68 5.07.28 10.65 0 17.07m0 0c-1.92 7.52-3.84 7.57-8.54 8.54m8.54-8.54c-2.15 6.57-4.54 8.76-8.54 8.54m0 0c-9.02.62-13.11-1.07-20.27 0m20.27 0c-6.74.4-14.19-.53-20.27 0m0 0c-5.95 1.68-8.08-1.2-8.54-8.54m8.54 8.54c-3.47.43-6.43-1.38-8.54-8.54m0 0c.41-4.23 1.58-9.99 0-17.07m0 17.07c.54-6.4-.64-11.72 0-17.07m0 0c-.94-5.24 4.11-7 8.54-8.54M10 78.54c-.7-6.51 4.77-10.39 8.54-8.54"/><g stroke-linecap="round"><path class="fill-lime-600" stroke-width="0" d="M18.54 190c6.37 2.21 6.63-1.03 20.27 0 4.03 1.87 9.66 3.13 8.54 8.54-2.02 4.67 2.33 10.91 0 17.07 2.28 7.99-6.43 5.07-8.54 8.54-6.99-.18-15.66-1.35-20.27 0-2.82-.07-9.21.35-8.54-8.54 2.01-3.84-.41-9.48 0-17.07 3.06-5.36.75-11.87 8.54-8.54"/><path fill="none" class="stroke-neutral-900 dark:stroke-neutral-50" stroke-width="2" d="M18.54 190c5.22 1.86 9.82-.16 20.27 0m-20.27 0c7.65-.87 15.48.08 20.27 0m0 0c5.87 1.3 8.76 2.81 8.54 8.54M38.81 190c6.61-2.14 9.11 2.44 8.54 8.54m0 0c-1.36 2.59-1.38 7.44 0 17.07m0-17.07c-.49 5.56-.64 11.41 0 17.07m0 0c-1.36 5.31-2.86 8.77-8.54 8.54m8.54-8.54c-.29 7.2-2.82 6.28-8.54 8.54m0 0c-4.17.09-11.76.54-20.27 0m20.27 0c-6.87.61-13.56.46-20.27 0m0 0c-5.98-1.12-7.55-3.31-8.54-8.54m8.54 8.54c-4.74 1.91-7.67-4.21-8.54-8.54m0 0c.57-6.56 1.31-13.05 0-17.07m0 17.07c-.35-4.25.41-8.83 0-17.07m0 0c1.96-4.56 3.98-9.83 8.54-8.54M10 198.54c-1.63-7.47 4.23-6.93 8.54-8.54"/></g><g stroke-linecap="round"><path class="fill-lime-600" stroke-width="0" d="M18.54 130c7.94 3.2 11.95.24 20.27 0 3.13-2.04 7.56 2.66 8.54 8.54-1.56 4.72-.85 11.62 0 17.07.24 9.07-2.4 11.22-8.54 8.54-7.54 1.07-5.26.45-20.27 0-8.28-3.13-5.25-3.68-8.54-8.54-1.14-6.15-1.96-7.3 0-17.07 1.07-7.25 4.6-6.85 8.54-8.54"/><path fill="none" class="stroke-neutral-900 dark:stroke-neutral-50" stroke-width="2" d="M18.54 130c5.78-1.87 12.29-.43 20.27 0m-20.27 0c7.16-.72 14.95.99 20.27 0m0 0c5.82-1.82 9.12 4.56 8.54 8.54M38.81 130c6.65-1.22 10.11 2.33 8.54 8.54m0 0c.79 4.33.76 12.12 0 17.07m0-17.07c.51 4.78-.13 8.51 0 17.07m0 0c1.09 3.71-1.03 7.93-8.54 8.54m8.54-8.54c-1.42 4.22-2.16 9.94-8.54 8.54m0 0c-6.52-1.88-15.67-.76-20.27 0m20.27 0c-6.52.71-12.42 1.05-20.27 0m0 0c-3.97 1.14-6.81-1.71-8.54-8.54m8.54 8.54c-4.12 1.82-10.27-3.82-8.54-8.54m0 0c-.31-6.83-.28-12.64 0-17.07m0 17.07c-.49-5.05.02-10.88 0-17.07m0 0c1.65-4.2 3.88-8.35 8.54-8.54M10 138.54c.11-4.06 3.98-9.42 8.54-8.54"/></g><g stroke-linecap="round"><path class="fill-lime-600" stroke-width="0" d="M78.54 190c4.43-.59 11.42.4 20.27 0 9.07.44 11.22-.11 8.54 8.54.91 7.61.39 6.91 0 17.07-3.12 8.98-3.68 6.38-8.54 8.54-7.35-2.65-8.85.92-20.27 0-7.25 1.75-6.85.33-8.54-8.54-1.71-5.26-.19-12.03 0-17.07-.22-7.36 5.18-11.21 8.54-8.54"/><path fill="none" class="stroke-neutral-900 dark:stroke-neutral-50" stroke-width="2" d="M78.54 190c5.87.57 17.1.82 20.27 0m-20.27 0c5.45-.93 10.96.61 20.27 0m0 0c3.87 1.09 8.94 2.2 8.54 8.54M98.81 190c5.35-.16 9.97 3.41 8.54 8.54m0 0c-1.82 6.46-.64 8.76 0 17.07m0-17.07c.63 4.32.06 8.46 0 17.07m0 0c-1.87 4.92-3.6 8.29-8.54 8.54m8.54-8.54c-1.62 6.84-4.44 9.95-8.54 8.54m0 0c-3.4 1.9-7.95 1.54-20.27 0m20.27 0c-6.9.37-15.79-.22-20.27 0m0 0c-6.12-.23-8.2-2.96-8.54-8.54m8.54 8.54c-5.89-1.06-9.9-2.91-8.54-8.54m0 0c1.44-4.26.33-10.19 0-17.07m0 17.07c-.25-5.53.43-12.13 0-17.07m0 0c1.9-5.37 3.1-9.97 8.54-8.54M70 198.54c-1.3-6.32 2.73-8.76 8.54-8.54"/></g><path fill="none" class="stroke-fuchsia-600" stroke-dasharray="8 10" stroke-linecap="round" stroke-width="2.5" d="M198.54 70c6.94-1.59 15.73-1.01 20.27 0m0 0c4.55-.02 8.57 2.62 8.54 8.54m0 0c1.61 6.13.78 10.8 0 17.07m0 0c1.21 7.35-3.3 7.26-8.54 8.54m0 0c-7.27 1.56-12.74-.59-20.27 0m0 0c-7.54-1.4-9.11-3.4-8.54-8.54m0 0c-.68-3.26 1.12-9.78 0-17.07m0 0c.16-4.89 3.81-10.25 8.54-8.54"/><text x="5.6" y="14.096" class="fill-neutral-900 dark:fill-neutral-50" dominant-baseline="alphabetic" font-family="Excalifont, Xiaolai, Segoe UI Emoji" font-size="16" style="white-space:pre" text-anchor="middle" transform="translate(203.076 77.074)">2</text><path fill="none" class="stroke-fuchsia-600" stroke-dasharray="8 10" stroke-linecap="round" stroke-width="2.5" d="M198.54 130c5.48 1.09 12.65-2.06 20.27 0m0 0c6.11-1.36 8.61 2.46 8.54 8.54m0 0c-1.54 7.02-.85 12.34 0 17.07m0 0c.78 5.81-1.88 7.89-8.54 8.54m0 0c-8.9 1.48-17.02 2.03-20.27 0m0 0c-5.3.32-9.7-3.58-8.54-8.54m0 0c-.97-7.22.95-10.3 0-17.07m0 0c1.36-6.74 4.27-10.43 8.54-8.54"/><text x="3.416" y="14.096" class="fill-neutral-900 dark:fill-neutral-50" dominant-baseline="alphabetic" font-family="Excalifont, Xiaolai, Segoe UI Emoji" font-size="16" style="white-space:pre" text-anchor="middle" transform="translate(205.26 137.074)">1</text><path fill="none" class="stroke-fuchsia-600" stroke-dasharray="8 10" stroke-linecap="round" stroke-width="2.5" d="M258.54 130c5.2.87 8.84 1.05 20.27 0m0 0c5.05 1.63 9.97 4.17 8.54 8.54m0 0c1.73 4.46.39 7.25 0 17.07m0 0c-.74 6.48-1.98 7.44-8.54 8.54m0 0c-3.5 1.48-11.07 1.54-20.27 0m0 0c-7.58-.18-10.38-1.27-8.54-8.54m0 0c-.23-5.64-.98-9.58 0-17.07m0 0c1.3-4.15 3.16-8.2 8.54-8.54"/><text x="4.864" y="14.096" class="fill-neutral-900 dark:fill-neutral-50" dominant-baseline="alphabetic" font-family="Excalifont, Xiaolai, Segoe UI Emoji" font-size="16" style="white-space:pre" text-anchor="middle" transform="translate(263.812 137.074)">3</text><path fill="none" class="stroke-fuchsia-600" stroke-dasharray="8 10" stroke-linecap="round" stroke-width="2.5" d="M318.54 130c6.84-.77 16.79.83 20.27 0m0 0c4.6-1.05 6.87 4.04 8.54 8.54m0 0c1.33 4.79-.04 11.24 0 17.07m0 0c1.58 4.48-4.29 7.59-8.54 8.54m0 0c-7.31 1.17-9.79.18-20.27 0m0 0c-5.35-1.56-9.82-2.53-8.54-8.54m0 0c-1.1-4.58-.27-7.65 0-17.07m0 0c-.15-4.38 1.39-10.08 8.54-8.54"/><text x="5.088" y="14.096" class="fill-neutral-900 dark:fill-neutral-50" dominant-baseline="alphabetic" font-family="Excalifont, Xiaolai, Segoe UI Emoji" font-size="16" style="white-space:pre" text-anchor="middle" transform="translate(323.588 137.074)">8</text><path fill="none" class="stroke-fuchsia-600" stroke-dasharray="8 10" stroke-linecap="round" stroke-width="2.5" d="M258.54 190c5.68 1.6 13.83-1.42 20.27 0m0 0c4.75-.41 6.72 1.55 8.54 8.54m0 0c.38 4-1.21 6.34 0 17.07m0 0c.32 4.6-4.17 6.69-8.54 8.54m0 0c-3.78-.2-7.96-1.5-20.27 0m0 0c-7.23-.21-9.64-3.85-8.54-8.54m0 0c.27-2.85.87-10.42 0-17.07m0 0c-.65-3.86 4.8-7.4 8.54-8.54"/><text x="5.032" y="14.096" class="fill-neutral-900 dark:fill-neutral-50" dominant-baseline="alphabetic" font-family="Excalifont, Xiaolai, Segoe UI Emoji" font-size="16" style="white-space:pre" text-anchor="middle" transform="translate(263.644 197.074)">9</text><path fill="none" class="stroke-fuchsia-600" stroke-dasharray="8 10" stroke-linecap="round" stroke-width="2.5" d="M198.54 190c4.28-.3 10.34-.01 20.27 0m0 0c7.01-1.46 7 2.64 8.54 8.54m0 0c-.94 4.67.1 9.94 0 17.07m0 0c.92 3.85-3.49 10.37-8.54 8.54m0 0c-6.91 1.54-17.57 1.84-20.27 0m0 0c-7.29-.57-7.51-4.08-8.54-8.54m0 0c1.42-4.05.6-8.37 0-17.07m0 0c-1.19-7.16 1.55-9.36 8.54-8.54"/><text x="4.68" y="14.096" class="fill-neutral-900 dark:fill-neutral-50" dominant-baseline="alphabetic" font-family="Excalifont, Xiaolai, Segoe UI Emoji" font-size="16" style="white-space:pre" text-anchor="middle" transform="translate(203.996 197.074)">4</text><path fill="none" class="stroke-fuchsia-600" stroke-dasharray="8 10" stroke-linecap="round" stroke-width="2.5" d="M138.54 190c6.9.89 8.28-.67 20.27 0m0 0c7.53 1.95 9.68 4.36 8.54 8.54m0 0c1.56 4.74-.37 13.09 0 17.07m0 0c-1.23 4.46-3.67 7.35-8.54 8.54m0 0c-7.96-1.13-16.82-1.24-20.27 0m0 0c-6.52 1.09-9.26-1.62-8.54-8.54m0 0c-.82-2.39.79-8.61 0-17.07m0 0c-.55-6.73 1.87-9.03 8.54-8.54"/><text x="8.728" y="14.096" class="fill-neutral-900 dark:fill-neutral-50" dominant-baseline="alphabetic" font-family="Excalifont, Xiaolai, Segoe UI Emoji" font-size="16" style="white-space:pre" text-anchor="middle" transform="translate(139.948 197.074)">10</text><path fill="none" class="stroke-fuchsia-600" stroke-dasharray="8 10" stroke-linecap="round" stroke-width="2.5" d="M138.54 130c4.27-.71 9.82 1.7 20.27 0m0 0c5.71.62 8.26 1.66 8.54 8.54m0 0c.82 3.26.94 6.2 0 17.07m0 0c-1.05 7.52-3.91 9.94-8.54 8.54m0 0c-7.94-1.03-14.31 1.25-20.27 0m0 0c-4.99-.18-7.81-2.87-8.54-8.54m0 0c1.42-5.26-.4-13.96 0-17.07m0 0c-1.98-4.91 1.59-7.56 8.54-8.54"/><text x="4.944" y="14.096" class="fill-neutral-900 dark:fill-neutral-50" dominant-baseline="alphabetic" font-family="Excalifont, Xiaolai, Segoe UI Emoji" font-size="16" style="white-space:pre" text-anchor="middle" transform="translate(143.732 137.074)">5</text><path fill="none" class="stroke-fuchsia-600" stroke-dasharray="8 10" stroke-linecap="round" stroke-width="2.5" d="M78.54 130c9.15-.96 16.05.92 20.27 0m0 0c4.01-.55 7.51 1.87 8.54 8.54m0 0c-.04 5.32.09 11.1 0 17.07m0 0c1.35 5.63-1.05 10.37-8.54 8.54m0 0c-4.96-1.45-10.52-1.38-20.27 0m0 0c-6.67.45-6.88-3.57-8.54-8.54m0 0c1.28-3.67.75-8.32 0-17.07m0 0c-.06-6.61 1.42-8.69 8.54-8.54"/><text x="6.832" y="14.096" class="fill-neutral-900 dark:fill-neutral-50" dominant-baseline="alphabetic" font-family="Excalifont, Xiaolai, Segoe UI Emoji" font-size="16" style="white-space:pre" text-anchor="middle" transform="translate(81.844 137.074)">11</text><path fill="none" class="stroke-fuchsia-600" stroke-dasharray="8 10" stroke-linecap="round" stroke-width="2.5" d="M138.54 70c5.99 1.66 13.95-.47 20.27 0m0 0c5.34-1.98 9.33 1.59 8.54 8.54m0 0c.29 7.37-.72 10.47 0 17.07m0 0c-1.45 7.69-1.49 8.56-8.54 8.54m0 0c-7.74-1.43-13.79.82-20.27 0m0 0c-7.64 1.59-7.58-4.14-8.54-8.54m0 0c-.61-6.15-1.13-12.94 0-17.07m0 0c.79-5.93 1.95-7.5 8.54-8.54"/><text x="4.464" y="14.096" class="fill-neutral-900 dark:fill-neutral-50" dominant-baseline="alphabetic" font-family="Excalifont, Xiaolai, Segoe UI Emoji" font-size="16" style="white-space:pre" text-anchor="middle" transform="translate(144.212 77.074)">7</text><path fill="none" class="stroke-fuchsia-600" stroke-dasharray="8 10" stroke-linecap="round" stroke-width="2.5" d="M78.54 10c4.63.59 8.12-.2 20.27 0m0 0c4.78-1.42 8.39 3.67 8.54 8.54m0 0c-.96 4.37-.58 7.7 0 17.07m0 0c-.8 5.56-4.25 7.52-8.54 8.54m0 0c-5.84.82-12.07 1.73-20.27 0m0 0c-4.14 1.88-8.38-3.09-8.54-8.54m0 0c-.21-7.5.07-12.33 0-17.07m0 0c.93-4.25 3.52-6.69 8.54-8.54"/><text x="8.36" y="14.096" class="fill-neutral-900 dark:fill-neutral-50" dominant-baseline="alphabetic" font-family="Excalifont, Xiaolai, Segoe UI Emoji" font-size="16" style="white-space:pre" text-anchor="middle" transform="translate(80.316 17.074)">15</text><path fill="none" class="stroke-fuchsia-600" stroke-dasharray="8 10" stroke-linecap="round" stroke-width="2.5" d="M138.54 10c7.92 1 15.46 1.91 20.27 0m0 0c7.25 1.88 8.7 2.6 8.54 8.54m0 0c-.05 5.46.23 13.59 0 17.07m0 0c.93 7.13-2.16 10.39-8.54 8.54m0 0c-4.32.98-10.7.16-20.27 0m0 0c-5.54-.91-7.26-1.16-8.54-8.54m0 0c1.41-6.38 1.62-11.61 0-17.07m0 0c1.8-6.71 2.17-8.67 8.54-8.54"/><text x="8.28" y="14.096" class="fill-neutral-900 dark:fill-neutral-50" dominant-baseline="alphabetic" font-family="Excalifont, Xiaolai, Segoe UI Emoji" font-size="16" style="white-space:pre" text-anchor="middle" transform="translate(140.396 17.074)">13</text><path fill="none" class="stroke-fuchsia-600" stroke-dasharray="8 10" stroke-linecap="round" stroke-width="2.5" d="M198.54 10c6.67.91 13.29.66 20.27 0m0 0c7.55-.25 6.88 3.22 8.54 8.54m0 0c.19 6.53-.69 13.89 0 17.07m0 0c1.69 5.61-2.21 10.5-8.54 8.54m0 0c-9.59 2-16.67-.48-20.27 0m0 0c-5.82-1.6-8.12-3.93-8.54-8.54m0 0c-1.08-6.64 1.31-13.03 0-17.07m0 0c-.96-5.57 4.58-10.01 8.54-8.54"/><text x="5.12" y="14.096" class="fill-neutral-900 dark:fill-neutral-50" dominant-baseline="alphabetic" font-family="Excalifont, Xiaolai, Segoe UI Emoji" font-size="16" style="white-space:pre" text-anchor="middle" transform="translate(203.556 17.074)">6</text><path fill="none" class="stroke-fuchsia-600" stroke-dasharray="8 10" stroke-linecap="round" stroke-width="2.5" d="M258.54 10c7.2-.92 15.36 1.67 20.27 0m0 0c5.61.64 10.51 4.57 8.54 8.54m0 0c1.7 2.91-.41 7.46 0 17.07m0 0c-1.6 6.11-3.93 9.84-8.54 8.54m0 0c-7.48 1.51-14.67-1.08-20.27 0m0 0c-5.57 1.73-10.01-3.38-8.54-8.54m0 0c1.52-2.98 1.13-8.61 0-17.07m0 0c.09-6.68 4.84-8.04 8.54-8.54"/><text x="9.016" y="14.096" class="fill-neutral-900 dark:fill-neutral-50" dominant-baseline="alphabetic" font-family="Excalifont, Xiaolai, Segoe UI Emoji" font-size="16" style="white-space:pre" text-anchor="middle" transform="translate(259.66 17.074)">12</text><path fill="none" class="stroke-fuchsia-600" stroke-dasharray="8 10" stroke-linecap="round" stroke-width="2.5" d="M318.54 10c7.78-1.53 16.23-1.02 20.27 0m0 0c7 .91 7.73 1.67 8.54 8.54m0 0c-.68 4.81 1.62 8.17 0 17.07m0 0c-.53 4.98-1.5 10.5-8.54 8.54m0 0c-7.54.23-17.03 2.14-20.27 0m0 0c-5.2 1.6-9.61-3.07-8.54-8.54m0 0c-1.42-2.85-1.29-5.48 0-17.07m0 0c-1.1-4.01 3.86-7.19 8.54-8.54"/><text x="8.096" y="14.096" class="fill-neutral-900 dark:fill-neutral-50" dominant-baseline="alphabetic" font-family="Excalifont, Xiaolai, Segoe UI Emoji" font-size="16" style="white-space:pre" text-anchor="middle" transform="translate(320.58 17.074)">14</text><g stroke-linecap="round"><path class="fill-orange-600" stroke-width="0" d="M258.54 70c6.67.53 13.93-2.31 20.27 0 2.93 2.88 11.56 5.47 8.54 8.54-1.92 5.28-3.15 6.77 0 17.07-2.71 4.44-3 11.49-8.54 8.54-5.38 2.68-7.78-.25-20.27 0-2.38.58-6.07-2.45-8.54-8.54.39-6.26-2.35-14.05 0-17.07 1.83-8.36 1.32-5.71 8.54-8.54"/><path fill="none" class="stroke-neutral-900 dark:stroke-neutral-50" stroke-width="2" d="M258.54 70c4.51.33 10.55.58 20.27 0m-20.27 0c4.88-.14 9.16-.51 20.27 0m0 0c5.27-.07 8.73 1.07 8.54 8.54M278.81 70c6.78.41 6.38 3.47 8.54 8.54m0 0c-1 4.39-1 5.37 0 17.07m0-17.07c-.88 7-.71 13.44 0 17.07m0 0c1.36 4.61-1.42 6.98-8.54 8.54m8.54-8.54c.56 7.78-4.24 9.86-8.54 8.54m0 0c-5.61.72-14.04-.15-20.27 0m20.27 0c-6.82.35-14.65.8-20.27 0m0 0c-5.9 1.31-9.7-2.24-8.54-8.54m8.54 8.54c-4.74 2.28-8.67-2.27-8.54-8.54m0 0c-1.61-7.66-1.15-14.17 0-17.07m0 17.07c-.37-5.81.61-11.7 0-17.07m0 0c.14-5.42 4.84-9.84 8.54-8.54M250 78.54c-1.02-4.17 2.18-7.09 8.54-8.54"/></g><g stroke-linecap="round"><path class="fill-orange-600" stroke-width="0" d="M318.54 70c4.82.68 10.27-.23 20.27 0 4.04-2.13 8.44 2.88 8.54 8.54 1.84 3.75.4 9.11 0 17.07 1.77 4.32-3.55 11.93-8.54 8.54-6.73.8-17.18-1.7-20.27 0-6.67-.19-8.89-5.29-8.54-8.54-.51-4.51.34-9.57 0-17.07.44-3.01-.11-9.73 8.54-8.54"/><path fill="none" class="stroke-neutral-900 dark:stroke-neutral-50" stroke-width="2" d="M318.54 70c7.47-1.03 13.97-.26 20.27 0m-20.27 0c6.86.05 11.94.96 20.27 0m0 0c6.02-.67 8.18 4.09 8.54 8.54M338.81 70c6.86-.38 9.52 4.8 8.54 8.54m0 0c-1.47 4.93.74 11.09 0 17.07m0-17.07c.69 5.85.07 9.26 0 17.07m0 0c.58 7.41-2.02 7.47-8.54 8.54m8.54-8.54c1.57 5.18-1.81 6.3-8.54 8.54m0 0c-6.92.21-16.67-.48-20.27 0m20.27 0c-6.07-.7-11.34-.94-20.27 0m0 0c-3.88-.61-9.77-4.12-8.54-8.54m8.54 8.54c-5.01 1.4-6.99-2.07-8.54-8.54m0 0c-.74-5.79-.29-11.48 0-17.07m0 17.07c-.53-5.16.85-11.46 0-17.07m0 0c1.73-4.56 4.21-6.96 8.54-8.54M310 78.54c-1.73-6.66 4.65-7.49 8.54-8.54"/></g><g stroke-linecap="round"><path class="fill-blue-600" stroke-width="0" d="M318.54 190c3.8-2.05 11.85 3.04 20.27 0 6.28 2.28 10.84-.74 8.54 8.54-1.2 2.77-.01 4.12 0 17.07-1.2 8.57-2.92 7.87-8.54 8.54-8.53 2.11-13.95-.73-20.27 0-4.16 3.06-8.21-4.94-8.54-8.54 1.75-2.59.06-6.81 0-17.07-2.65-2.84 6.36-8.32 8.54-8.54"/><path fill="none" class="stroke-neutral-900 dark:stroke-neutral-50" stroke-width="2" d="M318.54 190c7.13.03 14.54.08 20.27 0m-20.27 0c6.29.01 11.43.24 20.27 0m0 0c4.59-1.6 6.91 1.21 8.54 8.54m-8.54-8.54c4.96.3 7.03.96 8.54 8.54m0 0c1.49 3.19-.28 8.7 0 17.07m0-17.07c-.01 4.48-.24 10.01 0 17.07m0 0c-1.17 7.08-2.63 7.9-8.54 8.54m8.54-8.54c.76 6.6-3.36 9.95-8.54 8.54m0 0c-5.42-.24-13.33 1.03-20.27 0m20.27 0c-5.23-.43-10.87.52-20.27 0m0 0c-7.23.74-9.52-1.24-8.54-8.54m8.54 8.54c-7.84-1.4-8.91-4.94-8.54-8.54m0 0c-1.28-2.68 1-7.74 0-17.07m0 17.07c.63-3.42-.68-7.23 0-17.07m0 0c-1.88-4.48 3.88-9.5 8.54-8.54m-8.54 8.54c-.88-6.76 4.04-7.82 8.54-8.54"/></g></svg>