<svg xmlns="http://www.w3.org/2000/svg" viewBox="0 0 357.352 234.148"><g stroke-linecap="round"><path class="fill-red-600" d="M18.54 10c6.1 1.72 6.73 1.29 20.27 0 3.22-3.2 10.11.69 8.54 8.54.65 4.5-2.7 11.63 0 17.07 2.75 2.29-.78 9.96-8.54 8.54-8.12 2.88-14.44 2.92-20.27 0-3.06-.77-5.98-1.23-8.54-8.54-2.22-5.85.94-12.07 0-17.07-1.99-2.53 5.44-8.76 8.54-8.54"/><path fill="none" class="stroke-neutral-900 dark:stroke-neutral-50" stroke-width="2" d="M18.54 10c5.29-1.94 10.7 1.45 20.27 0m-20.27 0c7.04.62 16.1.66 20.27 0m0 0c6.53-1.71 9.74.93 8.54 8.54M38.81 10c6.57-.69 7.27 1.21 8.54 8.54m0 0c-.52 5.9-.58 14.86 0 17.07m0-17.07c-.47 3.95-.76 7.82 0 17.07m0 0c2 5.35-4.61 7.94-8.54 8.54m8.54-8.54c-1.73 5.37-4.61 7.68-8.54 8.54m0 0c-6.81.5-16.3-1.2-20.27 0m20.27 0c-5.22.93-8.4.29-20.27 0m0 0c-3.84.75-7.17-2.31-8.54-8.54m8.54 8.54c-4.85-.98-9.63-3.46-8.54-8.54m0 0c.45-2.89.75-9.05 0-17.07m0 17.07c.51-3.74-.2-7.97 0-17.07m0 0c1.59-3.85 2.37-7.1 8.54-8.54M10 18.54c-.17-5.02.73-10.39 8.54-8.54"/></g><g stroke-linecap="round"><path class="fill-red-600" d="M78.54 70c5.8-1.67 11.21 1.59 20.27 0 8.87.82 6.2 5.34 8.54 8.54-.98 3.87-1.4 10.11 0 17.07-2.67 5.11-4.13 8.08-8.54 8.54-3.69-2.59-8.99-3.19-20.27 0-3.89 1.13-9.03.62-8.54-8.54-.3-5.46-3.18-9.89 0-17.07-1.87-4.68-.52-8.36 8.54-8.54"/><path fill="none" class="stroke-neutral-900 dark:stroke-neutral-50" stroke-width="2" d="M78.54 70c2.83-1.22 8.73 1.28 20.27 0m-20.27 0c7.91-.94 14.51-.38 20.27 0m0 0c5.45-1.41 9.54 1.46 8.54 8.54M98.81 70c7.11-1.75 10.73 4.82 8.54 8.54m0 0c1.32 7.45-1.13 11.47 0 17.07m0-17.07c-.04 6.28-.02 13.07 0 17.07m0 0c-.11 5.52-3.76 7.36-8.54 8.54m8.54-8.54c-.07 5.71-5.08 10.44-8.54 8.54m0 0c-7.5 1.44-14.21-.75-20.27 0m20.27 0c-5.06 1.07-11.21.25-20.27 0m0 0c-7.12-1.14-9.08-2.95-8.54-8.54m8.54 8.54c-5.92-1.56-7.05-3.86-8.54-8.54m0 0c.15-3.39.25-8.71 0-17.07m0 17.07c-.69-3.53.9-7.4 0-17.07m0 0c-1.44-7.43 4.67-9 8.54-8.54M70 78.54c-1.38-6.98 1.88-9.52 8.54-8.54"/></g><path fill="none" class="stroke-neutral-900 dark:stroke-neutral-50" stroke-linecap="round" stroke-width="2" d="M18.54 70c5.86.47 17.19-.32 20.27 0m-20.27 0c6.33-.08 11.14.61 20.27 0m0 0c6.46-1.84 9.09 3.76 8.54 8.54M38.81 70c7.21-.12 10.19 1.88 8.54 8.54m0 0c-1.52 5.56.3 7.91 0 17.07m0-17.07c-.68 5.07.28 10.65 0 17.07m0 0c-1.92 7.52-3.84 7.57-8.54 8.54m8.54-8.54c-2.15 6.57-4.54 8.76-8.54 8.54m0 0c-9.02.62-13.11-1.07-20.27 0m20.27 0c-6.74.4-14.19-.53-20.27 0m0 0c-5.95 1.68-8.08-1.2-8.54-8.54m8.54 8.54c-3.47.43-6.43-1.38-8.54-8.54m0 0c.41-4.23 1.58-9.99 0-17.07m0 17.07c.54-6.4-.64-11.72 0-17.07m0 0c-.94-5.24 4.11-7 8.54-8.54M10 78.54c-.7-6.51 4.77-10.39 8.54-8.54"/><g stroke-linecap="round"><path class="fill-lime-600" d="M18.54 190c6.37 2.21 6.63-1.03 20.27 0 4.03 1.87 9.66 3.13 8.54 8.54-2.02 4.67 2.33 10.91 0 17.07 2.28 7.99-6.43 5.07-8.54 8.54-6.99-.18-15.66-1.35-20.27 0-2.82-.07-9.21.35-8.54-8.54 2.01-3.84-.41-9.48 0-17.07 3.06-5.36.75-11.87 8.54-8.54"/><path fill="none" class="stroke-neutral-900 dark:stroke-neutral-50" stroke-width="2" d="M18.54 190c5.22 1.86 9.82-.16 20.27 0m-20.27 0c7.65-.87 15.48.08 20.27 0m0 0c5.87 1.3 8.76 2.81 8.54 8.54M38.81 190c6.61-2.14 9.11 2.44 8.54 8.54m0 0c-1.36 2.59-1.38 7.44 0 17.07m0-17.07c-.49 5.56-.64 11.41 0 17.07m0 0c-1.36 5.31-2.86 8.77-8.54 8.54m8.54-8.54c-.29 7.2-2.82 6.28-8.54 8.54m0 0c-4.17.09-11.76.54-20.27 0m20.27 0c-6.87.61-13.56.46-20.27 0m0 0c-5.98-1.12-7.55-3.31-8.54-8.54m8.54 8.54c-4.74 1.91-7.67-4.21-8.54-8.54m0 0c.57-6.56 1.31-13.05 0-17.07m0 17.07c-.35-4.25.41-8.83 0-17.07m0 0c1.96-4.56 3.98-9.83 8.54-8.54M10 198.54c-1.63-7.47 4.23-6.93 8.54-8.54"/></g><g stroke-linecap="round"><path class="fill-lime-600" d="M18.54 130c7.94 3.2 11.95.24 20.27 0 3.13-2.04 7.56 2.66 8.54 8.54-1.56 4.72-.85 11.62 0 17.07.24 9.07-2.4 11.22-8.54 8.54-7.54 1.07-5.26.45-20.27 0-8.28-3.13-5.25-3.68-8.54-8.54-1.14-6.15-1.96-7.3 0-17.07 1.07-7.25 4.6-6.85 8.54-8.54"/><path fill="none" class="stroke-neutral-900 dark:stroke-neutral-50" stroke-width="2" d="M18.54 130c5.78-1.87 12.29-.43 20.27 0m-20.27 0c7.16-.72 14.95.99 20.27 0m0 0c5.82-1.82 9.12 4.56 8.54 8.54M38.81 130c6.65-1.22 10.11 2.33 8.54 8.54m0 0c.79 4.33.76 12.12 0 17.07m0-17.07c.51 4.78-.13 8.51 0 17.07m0 0c1.09 3.71-1.03 7.93-8.54 8.54m8.54-8.54c-1.42 4.22-2.16 9.94-8.54 8.54m0 0c-6.52-1.88-15.67-.76-20.27 0m20.27 0c-6.52.71-12.42 1.05-20.27 0m0 0c-3.97 1.14-6.81-1.71-8.54-8.54m8.54 8.54c-4.12 1.82-10.27-3.82-8.54-8.54m0 0c-.31-6.83-.28-12.64 0-17.07m0 17.07c-.49-5.05.02-10.88 0-17.07m0 0c1.65-4.2 3.88-8.35 8.54-8.54M10 138.54c.11-4.06 3.98-9.42 8.54-8.54"/></g><g stroke-linecap="round"><path class="fill-lime-600" d="M78.54 190c4.43-.59 11.42.4 20.27 0 9.07.44 11.22-.11 8.54 8.54.91 7.61.39 6.91 0 17.07-3.12 8.98-3.68 6.38-8.54 8.54-7.35-2.65-8.85.92-20.27 0-7.25 1.75-6.85.33-8.54-8.54-1.71-5.26-.19-12.03 0-17.07-.22-7.36 5.18-11.21 8.54-8.54"/><path fill="none" class="stroke-neutral-900 dark:stroke-neutral-50" stroke-width="2" d="M78.54 190c5.87.57 17.1.82 20.27 0m-20.27 0c5.45-.93 10.96.61 20.27 0m0 0c3.87 1.09 8.94 2.2 8.54 8.54M98.81 190c5.35-.16 9.97 3.41 8.54 8.54m0 0c-1.82 6.46-.64 8.76 0 17.07m0-17.07c.63 4.32.06 8.46 0 17.07m0 0c-1.87 4.92-3.6 8.29-8.54 8.54m8.54-8.54c-1.62 6.84-4.44 9.95-8.54 8.54m0 0c-3.4 1.9-7.95 1.54-20.27 0m20.27 0c-6.9.37-15.79-.22-20.27 0m0 0c-6.12-.23-8.2-2.96-8.54-8.54m8.54 8.54c-5.89-1.06-9.9-2.91-8.54-8.54m0 0c1.44-4.26.33-10.19 0-17.07m0 17.07c-.25-5.53.43-12.13 0-17.07m0 0c1.9-5.37 3.1-9.97 8.54-8.54M70 198.54c-1.3-6.32 2.73-8.76 8.54-8.54"/></g><g stroke-linecap="round"><path class="fill-fuchsia-600" d="M138.54 130c3.24-2.65 11.21.76 20.27 0 3.33-2.96 6.93 3.76 8.54 8.54-.32 4.03.62 7.73 0 17.07 2.37 5.73-6.38 7.61-8.54 8.54-4.19-.9-7.96 1.68-20.27 0-6.5 2.2-8.5-1.09-8.54-8.54-1.83-3.95-.81-9.68 0-17.07 2.99-4.33.71-7.25 8.54-8.54"/><path fill="none" class="stroke-neutral-900 dark:stroke-neutral-50" stroke-width="2" d="M138.54 130c5.03.53 8.14-1.55 20.27 0m-20.27 0c7.1-.6 15.83-.73 20.27 0m0 0c6.47-1.96 7.62 1.34 8.54 8.54m-8.54-8.54c4.89-.1 10.43 2.05 8.54 8.54m0 0c1.27 5.24-.12 9.23 0 17.07m0-17.07c.58 5.69.72 10.94 0 17.07m0 0c-.13 4.23-4.11 9.56-8.54 8.54m8.54-8.54c-1.7 4.72-1.04 7.94-8.54 8.54m0 0c-8.56-.13-15.21.62-20.27 0m20.27 0c-6.13-.33-11.49-.12-20.27 0m0 0c-4.89.31-7.1-4.46-8.54-8.54m8.54 8.54c-6.89-1.07-9.78-4.76-8.54-8.54m0 0c1.59-3.77-.14-8.21 0-17.07m0 17.07c-.74-5.09.07-11.3 0-17.07m0 0c1.3-5.48 2.81-7.74 8.54-8.54m-8.54 8.54c-2.14-5.12 2.44-10.06 8.54-8.54"/></g><g stroke-linecap="round"><path class="fill-fuchsia-600" d="M78.54 130c7.24-1.8 15.51 1.77 20.27 0 9.06-3.12 7.93.08 8.54 8.54 1.53 5.81 3.13 7.47 0 17.07.59 4.27-6.39 6.63-8.54 8.54-1.71-1.77-6.64-1.61-20.27 0-6.63 2.19-11.21-3.18-8.54-8.54-2.63-3.16-1.97-7.89 0-17.07 2.85-3.48.74-5.23 8.54-8.54"/><path fill="none" class="stroke-neutral-900 dark:stroke-neutral-50" stroke-width="2" d="M78.54 130c4.13.64 12.3-1.69 20.27 0m-20.27 0c7.02-.46 14.25-.82 20.27 0m0 0c4.98 1.6 7.03 4.19 8.54 8.54M98.81 130c4.55-1.59 9.54 3.36 8.54 8.54m0 0c-.64 2.7-1.32 6.6 0 17.07m0-17.07c-.31 4.87.61 9.65 0 17.07m0 0c.16 5.67-1.3 7.14-8.54 8.54m8.54-8.54c1.74 6.3-4.34 6.31-8.54 8.54m0 0c-5.04-.96-13.01-1.79-20.27 0m20.27 0c-6.93.36-16.49.46-20.27 0m0 0c-3.87-1.98-8.65-3.7-8.54-8.54m8.54 8.54c-5.94.8-7.82-1.35-8.54-8.54m0 0c1.21-5.69.31-10.86 0-17.07m0 17.07c.44-3.72.82-7.03 0-17.07m0 0c-1.65-6.97 4.37-9.37 8.54-8.54M70 138.54c-1.13-7.78.98-8.75 8.54-8.54"/></g><g stroke-linecap="round"><path class="fill-fuchsia-600" d="M198.54 130c3.31.77 6.56-2.66 20.27 0 4.09.91 6.31 5.9 8.54 8.54.3 3.56 1.96 7.95 0 17.07-3.54 4.77-5.52 6.44-8.54 8.54-6.29 1.31-15.78 2.09-20.27 0-5.65 1.75-7.79-1.62-8.54-8.54-.54-3.61 2.72-8.6 0-17.07-2.14-4.41 4.11-11.31 8.54-8.54"/><path fill="none" class="stroke-neutral-900 dark:stroke-neutral-50" stroke-width="2" d="M198.54 130c4.95-1.59 13.98 1.62 20.27 0m-20.27 0c7.98-.49 15.51-.89 20.27 0m0 0c4.77-1.5 7.84 2.76 8.54 8.54m-8.54-8.54c7.58-.79 6.8 3.4 8.54 8.54m0 0c-.04 6.69.4 11.41 0 17.07m0-17.07c.69 5.45.04 9.99 0 17.07m0 0c-1.27 6.71-4.33 7.69-8.54 8.54m8.54-8.54c1.81 5.09-.99 7.51-8.54 8.54m0 0c-5.18.69-11.03.5-20.27 0m20.27 0c-5.48-.15-11.08.1-20.27 0m0 0c-4.25-1.61-9.58-3.78-8.54-8.54m8.54 8.54c-6.94-1.92-9.17-2.22-8.54-8.54m0 0c-.25-4.73.4-10.25 0-17.07m0 17.07c.33-5.5.67-11.06 0-17.07m0 0c-.04-4.9.98-8.04 8.54-8.54m-8.54 8.54c-.4-7.21 2.96-9.81 8.54-8.54"/></g><g stroke-linecap="round"><path class="fill-fuchsia-600" d="M198.54 70c6.5-2.26 7.74-3.76 20.27 0 8.91-2.15 7.21 6.31 8.54 8.54 2.58 2.83-.38 10.42 0 17.07-.39 6.94-1.71 10.88-8.54 8.54-4.4 1.02-13.53 2.96-20.27 0-8.91-.63-10.92-1.11-8.54-8.54-2.82-6.83 2.06-11.01 0-17.07-1.77-8.95-.07-8.87 8.54-8.54"/><path fill="none" class="stroke-neutral-900 dark:stroke-neutral-50" stroke-width="2" d="M198.54 70c6.94-1.59 15.73-1.01 20.27 0m-20.27 0c4.8.28 9.97-.53 20.27 0m0 0c7.55.62 9.43 2.36 8.54 8.54M218.81 70c7.08 1.91 8.02 1.37 8.54 8.54m0 0c-.22 7.25 1.14 11.36 0 17.07m0-17.07c-.35 3.33.37 7.63 0 17.07m0 0c-.68 7.37-1.42 8.08-8.54 8.54m8.54-8.54c.19 6.62-1.74 6.57-8.54 8.54m0 0c-6.78.76-9.53-1.57-20.27 0m20.27 0c-7.3-.44-14.41-.8-20.27 0m0 0c-6.41 1.6-10.05-1.5-8.54-8.54m8.54 8.54c-6.84-1.59-7.54-2.33-8.54-8.54m0 0c-.55-4.29-1.22-7.38 0-17.07m0 17.07c-.61-4.96.32-10.03 0-17.07m0 0c.16-5.71 4.39-9.94 8.54-8.54M190 78.54c1.74-5.09 1.35-10.77 8.54-8.54"/></g><g stroke-linecap="round"><path class="fill-fuchsia-600" d="M78.54 10c8.05-1.74 14.27 3.13 20.27 0 7.91-2.1 11.85 6.29 8.54 8.54.76 1.55-2.25 10.96 0 17.07.76 6.1-2.47 8.4-8.54 8.54-4.62 2.37-12.54.45-20.27 0-7.09-3.54-5.41-6.17-8.54-8.54-.95-4.53.47-6.87 0-17.07-.03-4.57 5.47-10.76 8.54-8.54"/><path fill="none" class="stroke-neutral-900 dark:stroke-neutral-50" stroke-width="2" d="M78.54 10c7.16 1.52 12.97 1.5 20.27 0m-20.27 0c6.36.33 13.98.46 20.27 0m0 0c4.59-1.88 6.6 4.63 8.54 8.54M98.81 10c4.32-.85 10.75 3.85 8.54 8.54m0 0c-1.6 3.82-.64 7.65 0 17.07m0-17.07c.54 6.38.49 12.1 0 17.07m0 0c.46 6.21-1.3 6.75-8.54 8.54m8.54-8.54c-.4 4.17-1.73 8.19-8.54 8.54m0 0c-9.24 1.36-16.76-1.15-20.27 0m20.27 0c-3.95.6-8.78.14-20.27 0m0 0c-6.75 1.2-7.62-.98-8.54-8.54m8.54 8.54c-7.69-.39-10.31-4.11-8.54-8.54m0 0c.87-4.34-.53-11.7 0-17.07m0 17.07c-.61-4.69-.43-8.29 0-17.07m0 0c-.84-4.67 2.09-9.06 8.54-8.54M70 18.54c1.4-7.4 2.63-10.79 8.54-8.54"/></g><g stroke-linecap="round"><path class="fill-fuchsia-600" d="M138.54 10c5.94-3.58 17.82-3.36 20.27 0 2.55.3 5.56 1.76 8.54 8.54.03 5.57 2.29 7.34 0 17.07 2.27 3.94-4.99 11.02-8.54 8.54-2.66 3.35-11.67 1.29-20.27 0-9.26-.18-10.05-5.07-8.54-8.54 1.36-5.71-2.01-9.54 0-17.07 3.31-2.23 3.27-8.03 8.54-8.54"/><path fill="none" class="stroke-neutral-900 dark:stroke-neutral-50" stroke-width="2" d="M138.54 10c6.66.65 13.24 1.16 20.27 0m-20.27 0c7.89.1 16.1-1.05 20.27 0m0 0c5.35-1.32 9.51 2.55 8.54 8.54M158.81 10c7.84.44 6.64 1.38 8.54 8.54m0 0c-1.61 5.04-.22 13.35 0 17.07m0-17.07c-.5 6.69.35 13.15 0 17.07m0 0c-1.73 5.36-4.38 7.44-8.54 8.54m8.54-8.54c1.17 6.15-1.82 9.76-8.54 8.54m0 0c-8.83-1.94-17.14-1.78-20.27 0m20.27 0c-5.92.66-11.39-.12-20.27 0m0 0c-4.48-1.48-8.73-4.81-8.54-8.54m8.54 8.54c-3.84-.41-10.32-2.63-8.54-8.54m0 0c1.11-5.16 1.62-6.69 0-17.07m0 17.07c.14-4.71-.7-7.24 0-17.07m0 0c.42-5.47 3.05-8.62 8.54-8.54M130 18.54c1.63-5.21 3.65-6.69 8.54-8.54"/></g><g stroke-linecap="round"><path class="fill-fuchsia-600" d="M198.54 10c3.85 2 10.38-2.41 20.27 0 8.18-.27 10.33 6.26 8.54 8.54 1.06 3.63.11 12.05 0 17.07-2.22 2.36-1 8.86-8.54 8.54-9.96 3.09-10.7.2-20.27 0-5.18.43-10.36-3.44-8.54-8.54.86-4.94-2.07-14.9 0-17.07-3.25-7.94 3.22-5.02 8.54-8.54"/><path fill="none" class="stroke-neutral-900 dark:stroke-neutral-50" stroke-width="2" d="M198.54 10c5.43 1.76 11.84-1.75 20.27 0m-20.27 0c4.29-.82 8.76-.01 20.27 0m0 0c6.28 1.23 7.96 3.16 8.54 8.54M218.81 10c4.48 1.38 9.6 4.99 8.54 8.54m0 0c-.97 4.51.31 8.04 0 17.07m0-17.07c.31 5.69-.68 11.6 0 17.07m0 0c-1.81 5.12-4.24 9.94-8.54 8.54m8.54-8.54c-.96 6.88-3.71 7.94-8.54 8.54m0 0c-9.27 1.59-14.98-1.57-20.27 0m20.27 0c-5.48.55-13.12.85-20.27 0m0 0c-3.78-1.29-7.97-4.37-8.54-8.54m8.54 8.54c-5.19-1.85-10.29-.67-8.54-8.54m0 0c-.08-4.27.34-10.37 0-17.07m0 17.07c-.03-6.83-.95-12.25 0-17.07m0 0c-1.85-7.44 3.01-10.2 8.54-8.54M190 18.54c-.69-6.37 3.21-8.24 8.54-8.54"/></g><g stroke-linecap="round"><path class="fill-fuchsia-600" d="M258.54 10c5.1-2.2 9.89 1.86 20.27 0 6.02 1.78 5.99.67 8.54 8.54.65 4.19.65 5.96 0 17.07-.59 8.4-.34 6.39-8.54 8.54-9.24-3.47-15.83.15-20.27 0-2.17.58-11.73.18-8.54-8.54 2.62-5.46 2.53-11.56 0-17.07-2.81-7.81 5.15-11.54 8.54-8.54"/><path fill="none" class="stroke-neutral-900 dark:stroke-neutral-50" stroke-width="2" d="M258.54 10c6.99-1 14.55.98 20.27 0m-20.27 0c7.21-.52 16.46.23 20.27 0m0 0c6.59 1.06 10.47 2.26 8.54 8.54M278.81 10c6.07-.91 6.27 1.62 8.54 8.54m0 0c1.15 2.85.83 6.5 0 17.07m0-17.07c.03 3.84.79 9.2 0 17.07m0 0c-1.55 5.88-3.97 7.9-8.54 8.54m8.54-8.54c1.82 7.11-4.19 10.65-8.54 8.54m0 0c-9.54.5-17.66-1.47-20.27 0m20.27 0c-7.9-.02-15.3.23-20.27 0m0 0c-4.99 1.61-7.29-1.46-8.54-8.54m8.54 8.54c-5.49-.9-10.8-.85-8.54-8.54m0 0c-1.27-4.06-.35-6.81 0-17.07m0 17.07c.62-5.87.54-11.1 0-17.07m0 0c-1.19-4.31 2.7-7.54 8.54-8.54M250 18.54c2.18-3.61 4.76-8.42 8.54-8.54"/></g><g stroke-linecap="round"><path class="fill-fuchsia-600" d="M318.54 10c4.5-.63 15.35 2.46 20.27 0 3.55 1.26 10.26.67 8.54 8.54.04 6.96.22 5.2 0 17.07 3.03 6.5-5.52 8.42-8.54 8.54-8.31-2.54-17.43 2.58-20.27 0-8.7 2.19-6.41-4.39-8.54-8.54-.4-7.26-.67-8.95 0-17.07 1.16-8.37-.5-7.79 8.54-8.54"/><path fill="none" class="stroke-neutral-900 dark:stroke-neutral-50" stroke-width="2" d="M318.54 10c6.4.13 13.18-2.17 20.27 0m-20.27 0c4.31.76 9.59.57 20.27 0m0 0c4.94-.52 9.76 1.36 8.54 8.54M338.81 10c5.48-2.25 10.39 2.43 8.54 8.54m0 0c-.53 5.15 1.07 6.6 0 17.07m0-17.07c.41 6.04.35 12.69 0 17.07m0 0c-1.52 7.59-2.42 8.77-8.54 8.54m8.54-8.54c.24 5.6-1.22 9.02-8.54 8.54m0 0c-5.41.31-14.36-1.84-20.27 0m20.27 0c-7.76-1.01-15.99-.47-20.27 0m0 0c-5.37.26-8.56-2.23-8.54-8.54m8.54 8.54c-4.02-1.42-7.09-3.96-8.54-8.54m0 0c.73-2.48 1.43-6.79 0-17.07m0 17.07c-.09-5.57-.57-11.21 0-17.07m0 0c1.03-5.52 3.84-9.95 8.54-8.54M310 18.54c-1.39-7.53 4.96-6.32 8.54-8.54"/></g><g stroke-linecap="round"><path class="fill-fuchsia-600" d="M138.54 70c8.49.64 18.1-3.5 20.27 0 5.07-2.38 10.28 2.3 8.54 8.54-1.9 9.06-1.21 11.91 0 17.07-3.26 2.78-3.17 9.59-8.54 8.54-9.24 2.22-13.01 3.42-20.27 0-8.81-.61-11.3-4.83-8.54-8.54 1.57-3.02-.96-11.48 0-17.07-1.42-9.24.93-11.8 8.54-8.54"/><path fill="none" class="stroke-neutral-900 dark:stroke-neutral-50" stroke-width="2" d="M138.54 70c7.16 1.4 10.64-1.82 20.27 0m-20.27 0c4.41.63 9.95-.28 20.27 0m0 0c7.38 1.42 8.08 3.01 8.54 8.54M158.81 70c6.62 1.1 6.58 2.14 8.54 8.54m0 0c.65 7.32-1.34 13.2 0 17.07m0-17.07c-.37 5.14-.68 10.1 0 17.07m0 0c1.6 4.18-1.5 7.54-8.54 8.54m8.54-8.54c-1.58 6.69-2.33 6.35-8.54 8.54m0 0c-6.43-1.56-11.46-.31-20.27 0m20.27 0c-7.87.43-15.85-.03-20.27 0m0 0c-5.71 1.54-9.94-1.34-8.54-8.54m8.54 8.54c-5.09-1.5-10.77-3.43-8.54-8.54m0 0c-1.07-6.95-1.78-9.17 0-17.07m0 17.07c.44-4.7.52-7.43 0-17.07m0 0c-1.98-5.8 1.99-8.76 8.54-8.54M130 78.54c.8-4.97 4.34-7.24 8.54-8.54"/></g><g stroke-linecap="round"><path class="fill-fuchsia-600" d="M258.54 130c4.96-.69 13.95-.57 20.27 0 7.76 2.23 7.32 5.87 8.54 8.54 1.17 7.81-2.69 11.72 0 17.07 2.15 6.73-5.24 9.8-8.54 8.54-7.3.4-15.47-1.42-20.27 0-5.98-2.93-9.83.04-8.54-8.54-2.33-2.5.48-10.59 0-17.07-1.03-5.54 1.59-10.21 8.54-8.54"/><path fill="none" class="stroke-neutral-900 dark:stroke-neutral-50" stroke-width="2" d="M258.54 130c7.33-.59 9.79.07 20.27 0m-20.27 0c6.61-.65 14.43.56 20.27 0m0 0c6.7 1.89 8.77.88 8.54 8.54m-8.54-8.54c5.68 1.29 10.47 1.01 8.54 8.54m0 0c-1.6 4.3-1 9.38 0 17.07m0-17.07c.54 4.41.64 8.14 0 17.07m0 0c-1.8 6.95-3.67 8.94-8.54 8.54m8.54-8.54c-2.12 5.51-4.09 7.58-8.54 8.54m0 0c-4.94-1.85-12.37-1.89-20.27 0m20.27 0c-7.64-.86-12.74-.18-20.27 0m0 0c-7.39-.89-6.58-2.05-8.54-8.54m8.54 8.54c-7.81 1.53-8.48-4.52-8.54-8.54m0 0c.06-6.76-.12-13.09 0-17.07m0 17.07c.35-4.98-.12-10.2 0-17.07m0 0c1.66-6.15 1.56-7.58 8.54-8.54m-8.54 8.54c-.52-5.37 2.6-6.78 8.54-8.54"/></g><g stroke-linecap="round"><path class="fill-fuchsia-600" d="M318.54 130c9.15-3.06 15.26.05 20.27 0 5.9-.51 6.92 2.56 8.54 8.54-2.43 5.8-1.65 5.35 0 17.07 1.56 6.5-6.27 7.51-8.54 8.54-8.84-.99-12.76 2.91-20.27 0-2.84-1.95-8.73-.89-8.54-8.54 2.34-6.9 2.3-8.69 0-17.07-2.34-9.18 1.93-8.07 8.54-8.54"/><path fill="none" class="stroke-neutral-900 dark:stroke-neutral-50" stroke-width="2" d="M318.54 130c6.73.52 14.42-1.75 20.27 0m-20.27 0c5.18-.91 11.64.81 20.27 0m0 0c5.71 1.86 6.96 1.04 8.54 8.54m-8.54-8.54c7.15-.95 9.01.72 8.54 8.54m0 0c-.8 4.1.03 10.23 0 17.07m0-17.07c.13 4.02-.57 6.31 0 17.07m0 0c-1.53 7.28-3.01 6.84-8.54 8.54m8.54-8.54c-1.02 7.95-1.93 6.42-8.54 8.54m0 0c-5.48-1.03-16-.17-20.27 0m20.27 0c-5.97-.47-11.29.37-20.27 0m0 0c-4.81-.49-7.33-1.19-8.54-8.54m8.54 8.54c-6.22-1.47-7.43-3.36-8.54-8.54m0 0c1.19-5.88-1.55-11.92 0-17.07m0 17.07c.54-4.11-.24-8.55 0-17.07m0 0c1.42-6.15 3.01-7.73 8.54-8.54m-8.54 8.54c1.1-7.66 2.14-7.16 8.54-8.54"/></g><g stroke-linecap="round"><path class="fill-fuchsia-600" d="M258.54 190c2.54.13 9.27-.25 20.27 0 6.72.5 6.66 6.18 8.54 8.54 1.99 8.2-.56 9.33 0 17.07 1.73 4.89-2.34 8.15-8.54 8.54-10.95-2.63-16.29-1.11-20.27 0-6.6 2.06-6.31-4.07-8.54-8.54.03-5.31 1.26-15.74 0-17.07-1.11-3.54 3.89-10.93 8.54-8.54"/><path fill="none" class="stroke-neutral-900 dark:stroke-neutral-50" stroke-width="2" d="M258.54 190c7.15 1.92 12.03.35 20.27 0m-20.27 0c8.08-.38 15.93.85 20.27 0m0 0c7.12-1.66 8.93 2.42 8.54 8.54m-8.54-8.54c5.55-.93 9.47 4.36 8.54 8.54m0 0c-.73 4.81-.6 5.47 0 17.07m0-17.07c.24 4.61-.43 10.25 0 17.07m0 0c1.19 6.69-.95 8.77-8.54 8.54m8.54-8.54c-2.26 5.68-1.56 10.47-8.54 8.54m0 0c-4.47-1.88-9.4-1.18-20.27 0m20.27 0c-5.6.62-12.08.75-20.27 0m0 0c-7.28-1.8-7.28-3.68-8.54-8.54m8.54 8.54c-5.23-2.12-8.72-4.09-8.54-8.54m0 0c.19-4.15-1.52-10.43 0-17.07m0 17.07c-.46-4.24-.71-6.31 0-17.07m0 0c-.17-7.39 1.96-6.58 8.54-8.54m-8.54 8.54c.92-7.81 4.37-8.48 8.54-8.54"/></g><g stroke-linecap="round"><path class="fill-fuchsia-600" d="M198.54 190c6.43.09 10.8-1.75 20.27 0 3.26-2.21 7.91 5.72 8.54 8.54-2.86 2.43.33 8.92 0 17.07-1.42 4.87-2.88 5.22-8.54 8.54-6.07 3.19-10.23-1.22-20.27 0-6.34 2.23-6.72-3.45-8.54-8.54-2.05-8.7-2.72-12.33 0-17.07 1.77-4.58 2.63-8.22 8.54-8.54"/><path fill="none" class="stroke-neutral-900 dark:stroke-neutral-50" stroke-width="2" d="M198.54 190c7.63.47 10.55 1.33 20.27 0m-20.27 0c6.7-.15 13.58-1.06 20.27 0m0 0c6.19-.35 7.22 2.94 8.54 8.54m-8.54-8.54c4.43-1.84 6.66.97 8.54 8.54m0 0c-1.38 3.81.46 8.09 0 17.07m0-17.07c-.12 6.67-.22 13.7 0 17.07m0 0c.02 3.73-3.36 7.05-8.54 8.54m8.54-8.54c-1.34 7.29-2.6 7.8-8.54 8.54m0 0c-5.53-.02-12.53.37-20.27 0m20.27 0c-6.27-.35-13.13.71-20.27 0m0 0c-4.94-1.19-7.83-2.14-8.54-8.54m8.54 8.54c-7.47.85-9.66-1-8.54-8.54m0 0c-1.45-4.3-.22-6.3 0-17.07m0 17.07c.32-4.36-.77-8.28 0-17.07m0 0c1.2-4.29.97-6.63 8.54-8.54m-8.54 8.54c-2.16-4.29 4.04-9.65 8.54-8.54"/></g><g stroke-linecap="round"><path class="fill-fuchsia-600" d="M138.54 190c2.9-1.69 5.63-.83 20.27 0 5.27 3.09 11.39.9 8.54 8.54.42 5 2.53 7.92 0 17.07 2.72 6.65-5.19 5.05-8.54 8.54-4.62-1.72-14.51-3.23-20.27 0-2.48-2.15-9.87.61-8.54-8.54 3.01-8.9.05-13.04 0-17.07-.39-4.45 3.98-6.2 8.54-8.54"/><path fill="none" class="stroke-neutral-900 dark:stroke-neutral-50" stroke-width="2" d="M138.54 190c5.41-.82 12.15-1.02 20.27 0m-20.27 0c5.28-.76 12.79.77 20.27 0m0 0c4.75-1.75 7.01 4.43 8.54 8.54m-8.54-8.54c5.51-1.95 7.52 5.1 8.54 8.54m0 0c-.11 4.56 1.51 10.85 0 17.07m0-17.07c-.1 4.38.12 7.84 0 17.07m0 0c1.85 6.31-1.96 8.05-8.54 8.54m8.54-8.54c1.39 7.6-3.37 7.07-8.54 8.54m0 0c-7.27 1.56-12.74-.59-20.27 0m20.27 0c-4.49-.31-7.85.56-20.27 0m0 0c-6.37 1.68-7.12-3.31-8.54-8.54m8.54 8.54c-5.51.93-7.44-4.81-8.54-8.54m0 0c-1.24-4 1.08-10.58 0-17.07m0 17.07c-.13-6.42-.08-12.76 0-17.07m0 0c-.72-4.09 1.33-7.19 8.54-8.54m-8.54 8.54c-1.15-7.28 3.84-8.02 8.54-8.54"/></g><g stroke-linecap="round"><path class="fill-orange-600" d="M258.54 70c6.67.53 13.93-2.31 20.27 0 2.93 2.88 11.56 5.47 8.54 8.54-1.92 5.28-3.15 6.77 0 17.07-2.71 4.44-3 11.49-8.54 8.54-5.38 2.68-7.78-.25-20.27 0-2.38.58-6.07-2.45-8.54-8.54.39-6.26-2.35-14.05 0-17.07 1.83-8.36 1.32-5.71 8.54-8.54"/><path fill="none" class="stroke-neutral-900 dark:stroke-neutral-50" stroke-width="2" d="M258.54 70c4.51.33 10.55.58 20.27 0m-20.27 0c4.88-.14 9.16-.51 20.27 0m0 0c5.27-.07 8.73 1.07 8.54 8.54M278.81 70c6.78.41 6.38 3.47 8.54 8.54m0 0c-1 4.39-1 5.37 0 17.07m0-17.07c-.88 7-.71 13.44 0 17.07m0 0c1.36 4.61-1.42 6.98-8.54 8.54m8.54-8.54c.56 7.78-4.24 9.86-8.54 8.54m0 0c-5.61.72-14.04-.15-20.27 0m20.27 0c-6.82.35-14.65.8-20.27 0m0 0c-5.9 1.31-9.7-2.24-8.54-8.54m8.54 8.54c-4.74 2.28-8.67-2.27-8.54-8.54m0 0c-1.61-7.66-1.15-14.17 0-17.07m0 17.07c-.37-5.81.61-11.7 0-17.07m0 0c.14-5.42 4.84-9.84 8.54-8.54M250 78.54c-1.02-4.17 2.18-7.09 8.54-8.54"/></g><g stroke-linecap="round"><path class="fill-orange-600" d="M318.54 70c4.82.68 10.27-.23 20.27 0 4.04-2.13 8.44 2.88 8.54 8.54 1.84 3.75.4 9.11 0 17.07 1.77 4.32-3.55 11.93-8.54 8.54-6.73.8-17.18-1.7-20.27 0-6.67-.19-8.89-5.29-8.54-8.54-.51-4.51.34-9.57 0-17.07.44-3.01-.11-9.73 8.54-8.54"/><path fill="none" class="stroke-neutral-900 dark:stroke-neutral-50" stroke-width="2" d="M318.54 70c7.47-1.03 13.97-.26 20.27 0m-20.27 0c6.86.05 11.94.96 20.27 0m0 0c6.02-.67 8.18 4.09 8.54 8.54M338.81 70c6.86-.38 9.52 4.8 8.54 8.54m0 0c-1.47 4.93.74 11.09 0 17.07m0-17.07c.69 5.85.07 9.26 0 17.07m0 0c.58 7.41-2.02 7.47-8.54 8.54m8.54-8.54c1.57 5.18-1.81 6.3-8.54 8.54m0 0c-6.92.21-16.67-.48-20.27 0m20.27 0c-6.07-.7-11.34-.94-20.27 0m0 0c-3.88-.61-9.77-4.12-8.54-8.54m8.54 8.54c-5.01 1.4-6.99-2.07-8.54-8.54m0 0c-.74-5.79-.29-11.48 0-17.07m0 17.07c-.53-5.16.85-11.46 0-17.07m0 0c1.73-4.56 4.21-6.96 8.54-8.54M310 78.54c-1.73-6.66 4.65-7.49 8.54-8.54"/></g><g stroke-linecap="round"><path class="fill-blue-600" d="M318.54 190c3.8-2.05 11.85 3.04 20.27 0 6.28 2.28 10.84-.74 8.54 8.54-1.2 2.77-.01 4.12 0 17.07-1.2 8.57-2.92 7.87-8.54 8.54-8.53 2.11-13.95-.73-20.27 0-4.16 3.06-8.21-4.94-8.54-8.54 1.75-2.59.06-6.81 0-17.07-2.65-2.84 6.36-8.32 8.54-8.54"/><path fill="none" class="stroke-neutral-900 dark:stroke-neutral-50" stroke-width="2" d="M318.54 190c7.13.03 14.54.08 20.27 0m-20.27 0c6.29.01 11.43.24 20.27 0m0 0c4.59-1.6 6.91 1.21 8.54 8.54m-8.54-8.54c4.96.3 7.03.96 8.54 8.54m0 0c1.49 3.19-.28 8.7 0 17.07m0-17.07c-.01 4.48-.24 10.01 0 17.07m0 0c-1.17 7.08-2.63 7.9-8.54 8.54m8.54-8.54c.76 6.6-3.36 9.95-8.54 8.54m0 0c-5.42-.24-13.33 1.03-20.27 0m20.27 0c-5.23-.43-10.87.52-20.27 0m0 0c-7.23.74-9.52-1.24-8.54-8.54m8.54 8.54c-7.84-1.4-8.91-4.94-8.54-8.54m0 0c-1.28-2.68 1-7.74 0-17.07m0 17.07c.63-3.42-.68-7.23 0-17.07m0 0c-1.88-4.48 3.88-9.5 8.54-8.54m-8.54 8.54c-.88-6.76 4.04-7.82 8.54-8.54"/></g></svg>