<svg xmlns="http://www.w3.org/2000/svg" viewBox="0 0 300 220"><defs/><path fill="none" class="stroke-neutral-900 dark:stroke-neutral-50" stroke-linecap="round" stroke-width="2" d="M20 10c7.32-1.47 12.89.87 20 0m-20 0c6.39-.68 10.59-.11 20 0m0 0c8.39-.21 8.36 1.72 10 10M40 10c8.47 1.94 10.97 1.64 10 10m0 0c-.53 5.1.38 11 0 20m0-20c-.1 6.06.6 11.64 0 20m0 0c-.4 8.51-3.91 10.14-10 10m10-10c.63 6.54-4.55 12.07-10 10m0 0c-5.79-.58-13.89-1.09-20 0m20 0c-5.87.2-9.91-.94-20 0m0 0c-7.49-1.53-11.6-2.8-10-10m10 10c-7.17-.36-9.95-2.68-10-10m0 0c1.37-5.16 1.44-7.53 0-20m0 20c.49-5-.14-10.01 0-20m0 0c.4-7.8 3.12-8.18 10-10M10 20c2.26-7.76 1.81-8.62 10-10"/><text x="6.264" y="14.096" class="fill-neutral-900 dark:fill-neutral-50" dominant-baseline="alphabetic" font-family="Excalifont, Xiaolai, sans-serif, Segoe UI Emoji" font-size="16" style="white-space:pre" text-anchor="middle" transform="translate(23.736 20)">#</text><path fill="none" class="stroke-neutral-900 dark:stroke-neutral-50" stroke-linecap="round" stroke-width="2" d="M60 10c2.82-.81 8.06 1.53 20 0m-20 0c6.57 1.01 11.99-.57 20 0m0 0c6.02-.89 10.38 2.89 10 10M80 10c6.38.54 10.35 2.76 10 10m0 0c1.3 7.4 1.46 12.12 0 20m0-20c.22 7.79-.59 16.59 0 20m0 0c1.07 6.81-3.03 11.28-10 10m10-10c-.7 6.94-4.62 9.19-10 10m0 0c-5.25 1.25-13.09-.94-20 0m20 0c-4.69-.1-8.93.34-20 0m0 0c-8.14-.45-8.56-2.01-10-10m10 10c-7.39 1.61-8.25-4.79-10-10m0 0c-.37-6.41-.92-11.92 0-20m0 20c1-5.34-.64-9.14 0-20m0 0c-.24-7.85 4.95-9.05 10-10M50 20c1.88-7.02 1.73-9.16 10-10"/><text x="6.264" y="14.096" class="fill-neutral-900 dark:fill-neutral-50" dominant-baseline="alphabetic" font-family="Excalifont, Xiaolai, sans-serif, Segoe UI Emoji" font-size="16" style="white-space:pre" text-anchor="middle" transform="translate(63.736 20)">#</text><path fill="none" class="stroke-neutral-900 dark:stroke-neutral-50" stroke-linecap="round" stroke-width="2" d="M100 10c7.04-.74 15.76-.29 20 0m-20 0c5.5.1 12.46-.16 20 0m0 0c7.78 1.14 11.27 2.93 10 10m-10-10c8.79-.66 10.16 3.97 10 10m0 0c.96 6.03.2 13.05 0 20m0-20c-.33 5.17.28 10.21 0 20m0 0c.31 8.03-5.32 9.17-10 10m10-10c-1.76 4.82-2.72 9.49-10 10m0 0c-7.16-.39-9.94 1.38-20 0m20 0c-6 .23-11.61.66-20 0m0 0c-7.21-.25-11.09-2.93-10-10m10 10c-7.97-.25-7.91-1.07-10-10m0 0c-.11-6.23 1.75-9.15 0-20m0 20c.4-8.03-.01-16.08 0-20m0 0c1.88-4.81 3.82-11.5 10-10M90 20c1.7-8.06 2.24-10.83 10-10"/><text x="6.264" y="14.096" class="fill-neutral-900 dark:fill-neutral-50" dominant-baseline="alphabetic" font-family="Excalifont, Xiaolai, sans-serif, Segoe UI Emoji" font-size="16" style="white-space:pre" text-anchor="middle" transform="translate(103.736 20)">#</text><path fill="none" class="stroke-neutral-900 dark:stroke-neutral-50" stroke-linecap="round" stroke-width="2" d="M140 10c7.01-.52 13.32-.69 20 0m-20 0c5.61.91 12.81.08 20 0m0 0c6.97 1.28 9.39 3.57 10 10m-10-10c5.38-.81 9.49 3.92 10 10m0 0c-1.95 4.03-1.5 8.11 0 20m0-20c-.02 6.82-.78 12.85 0 20m0 0c1.44 7.99-3.96 11.4-10 10m10-10c1.75 5.21-3.15 8-10 10m0 0c-8.1.38-15.16-.24-20 0m20 0c-8.48.5-15.76-.69-20 0m0 0c-5.05.95-8.37-3.64-10-10m10 10c-8.27.84-10.92-3.42-10-10m0 0c.29-5.88 1.29-9.97 0-20m0 20c.56-5.04.99-10.63 0-20m0 0c-.86-6.14 1.36-10.49 10-10m-10 10c2.1-6.21 3.97-9.96 10-10"/><text x="6.264" y="14.096" class="fill-neutral-900 dark:fill-neutral-50" dominant-baseline="alphabetic" font-family="Excalifont, Xiaolai, sans-serif, Segoe UI Emoji" font-size="16" style="white-space:pre" text-anchor="middle" transform="translate(143.736 20)">#</text><path fill="none" class="stroke-neutral-900 dark:stroke-neutral-50" stroke-linecap="round" stroke-width="2" d="M220 10c6.22.49 12.66.64 20 0m-20 0c7.09.31 12.1-.52 20 0m0 0c6.94.46 10.61 2.89 10 10m-10-10c8.01-2.09 10.28 1.25 10 10m0 0c1.96 4.71 1.01 8.59 0 20m0-20c-1.03 4.62-.67 8.97 0 20m0 0c-.38 6.1-4.59 11.18-10 10m10-10c-1.14 7.68-1.25 10.5-10 10m0 0c-6.93-1.64-12.44 1.76-20 0m20 0c-6.66-.25-13.97.3-20 0m0 0c-6.57-.46-11.52-2.55-10-10m10 10c-4.9-.55-7.89-4.94-10-10m0 0c-.24-7.67 1.13-13.83 0-20m0 20c.56-7.31 1.07-11.9 0-20m0 0c1.38-5.49 5.1-9.6 10-10m-10 10c-.38-8.9 4.37-8.96 10-10"/><text x="6.264" y="14.096" class="fill-neutral-900 dark:fill-neutral-50" dominant-baseline="alphabetic" font-family="Excalifont, Xiaolai, sans-serif, Segoe UI Emoji" font-size="16" style="white-space:pre" text-anchor="middle" transform="translate(223.736 20)">#</text><path fill="none" class="stroke-neutral-900 dark:stroke-neutral-50" stroke-linecap="round" stroke-width="2" d="M180 10c5.54.11 11.18-.83 20 0m-20 0c5.71.79 10.12-.3 20 0m0 0c5.14-1.6 10.54 2.89 10 10m-10-10c6.31.05 10.65 1.64 10 10m0 0c-.49 6.95 1.67 9.84 0 20m0-20c-.44 6.04-.72 12.52 0 20m0 0c-1.13 6.45-1.51 11.97-10 10m10-10c-1.09 5.14-1.96 9.73-10 10m0 0c-3.18-.21-11.03.82-20 0m20 0c-4.26.77-10.15-.91-20 0m0 0c-5.19-1.21-10.95-4.06-10-10m10 10c-8.59 1.12-9.98-1.23-10-10m0 0c-1.89-5.41 1.91-9.45 0-20m0 20c.1-6.13-.92-13.23 0-20m0 0c-.78-7.52 2.62-11.04 10-10m-10 10c1.65-8.45 1.61-11.61 10-10"/><text x="6.264" y="14.096" class="fill-neutral-900 dark:fill-neutral-50" dominant-baseline="alphabetic" font-family="Excalifont, Xiaolai, sans-serif, Segoe UI Emoji" font-size="16" style="white-space:pre" text-anchor="middle" transform="translate(183.736 20)">#</text><path fill="none" class="stroke-neutral-900 dark:stroke-neutral-50" stroke-linecap="round" stroke-width="2" d="M260 10c3.68 1.12 9.88-1.23 20 0m-20 0c5.68-.75 11.67-.63 20 0m0 0c6.6 1.03 11.27 2.03 10 10m-10-10c5.63-.22 12.05 1.36 10 10m0 0c-1.54 5.33-1.27 9.15 0 20m0-20c-.56 6.63.25 12.94 0 20m0 0c-.04 6.08-1.72 11.11-10 10m10-10c-.36 7.86-2.29 12.17-10 10m0 0c-6.37-.22-13.22.23-20 0m20 0c-6.52-.27-14.77.46-20 0m0 0c-6.33 1.2-11.24-2.44-10-10m10 10c-6.76-1.21-8.9-3.58-10-10m0 0c1.08-3.41-.69-10.42 0-20m0 20c.1-5-.33-10.24 0-20m0 0c-.96-5.85 1.59-9.15 10-10m-10 10c-.5-5.47 4.04-11.77 10-10"/><text x="6.264" y="14.096" class="fill-neutral-900 dark:fill-neutral-50" dominant-baseline="alphabetic" font-family="Excalifont, Xiaolai, sans-serif, Segoe UI Emoji" font-size="16" style="white-space:pre" text-anchor="middle" transform="translate(263.736 20)">#</text><path fill="none" class="stroke-neutral-900 dark:stroke-neutral-50" stroke-linecap="round" stroke-width="2" d="M20 50c5.71-.28 10.03.2 20 0m-20 0c7.29.71 12.82.74 20 0m0 0c8.19-1.27 10.16 1.6 10 10M40 50c7.83-.62 9.72 2.08 10 10m0 0c1.71 8.37-1.06 11.48 0 20m0-20c.79 7.67.79 14.24 0 20m0 0c-1.4 7.4-4.14 9.93-10 10m10-10c-1.86 8.83-1.2 10.56-10 10m0 0c-5.45-.84-10.67.85-20 0m20 0c-6.45.15-13.02-.35-20 0m0 0c-4.84.4-9.45-3.3-10-10m10 10c-5.13.23-9.03-5.45-10-10m0 0c-.64-6.8 1.52-13.06 0-20m0 20c-.58-5.18-.81-9.46 0-20m0 0c-1.95-6.42 2.03-9.93 10-10M10 60c.31-7.15 4.9-10.63 10-10"/><text x="6.264" y="14.096" class="fill-neutral-900 dark:fill-neutral-50" dominant-baseline="alphabetic" font-family="Excalifont, Xiaolai, sans-serif, Segoe UI Emoji" font-size="16" style="white-space:pre" text-anchor="middle" transform="translate(23.736 60)">#</text><path fill="none" class="stroke-neutral-900 dark:stroke-neutral-50" stroke-linecap="round" stroke-width="2" d="M20 130c3 .34 8.48.19 20 0m-20 0c4.58-.89 11.28.37 20 0m0 0c6.99 1.82 11.23 3.96 10 10m-10-10c5.99 1.65 9.26 1.95 10 10m0 0c-.42 8.19.34 13.89 0 20m0-20c.43 4.76.72 10.76 0 20m0 0c-.42 6.7-2.8 11.22-10 10m10-10c1.61 8.39-3.12 11.38-10 10m0 0c-6.95 1.65-15.08-1.85-20 0m20 0c-4.9.5-9.46-.37-20 0m0 0c-8.63-.53-9.38-4.19-10-10m10 10c-7.4 1.34-11.46-1.33-10-10m0 0c1.85-8.43 1.64-17.21 0-20m0 20c-.5-5.58 0-10.81 0-20m0 0c-.32-4.92 3.95-10.51 10-10m-10 10c-.18-4.7 2.47-9.38 10-10"/><text x="6.264" y="14.096" class="fill-neutral-900 dark:fill-neutral-50" dominant-baseline="alphabetic" font-family="Excalifont, Xiaolai, sans-serif, Segoe UI Emoji" font-size="16" style="white-space:pre" text-anchor="middle" transform="translate(23.736 140)">#</text><path fill="none" class="stroke-neutral-900 dark:stroke-neutral-50" stroke-linecap="round" stroke-width="2" d="M60 50c4.81-1.3 11.72.83 20 0m-20 0c8-.26 15.23-.67 20 0m0 0c8.55 1.86 10.48 1.83 10 10M80 50c8.37-1.39 8.9 2.5 10 10m0 0c1.92 3.25-.76 9.17 0 20m0-20c.15 4.3-.03 8.72 0 20m0 0c.2 7.51-5.17 9.75-10 10m10-10c-.9 5.68-4.16 8.8-10 10m0 0c-8.84 1.43-16.32-1.51-20 0m20 0c-3.98-.85-8.17-.06-20 0m0 0c-7.09 1.36-10.55-3.97-10-10m10 10c-8.25 1.02-11.38-5.36-10-10m0 0c-1.38-4.72-1.47-8.78 0-20m0 20c-.48-4.69-.33-9.15 0-20m0 0c-1.14-5.36 2.45-8.79 10-10M50 60c1.22-8.71 1.34-10.08 10-10M60 130c5.65-1.52 14.24-1.77 20 0m-20 0c4.76.8 9.8.2 20 0m0 0c6.08 1.43 9.35 2.13 10 10m-10-10c7.08-1.82 11.23 3.04 10 10m0 0c-.67 6.06.15 16.87 0 20m0-20c-.03 4.98.44 10.53 0 20m0 0c1.4 8.16-3.15 11.2-10 10m10-10c.66 4.41-5.24 9.57-10 10m0 0c-9.29-1.57-13.88-.92-20 0m20 0c-7.64-.37-13-.53-20 0m0 0c-7.31 1.17-11.27-1.59-10-10m10 10c-4.73-1.57-12.17-1.37-10-10m0 0c-.37-5.16-2.04-11.48 0-20m0 20c-.16-5.53.3-13.06 0-20m0 0c-.16-4.96 2.58-9.46 10-10m-10 10c-2.28-6.81 2.27-10.14 10-10"/><path fill="none" class="stroke-neutral-900 dark:stroke-neutral-50" stroke-linecap="round" stroke-width="2" d="M100 50c4.86-1.69 10.24-1.39 20 0m-20 0c5.53.18 11-.37 20 0m0 0c5.81.52 8.03 2.85 10 10m-10-10c8.77.46 10.63 3.37 10 10m0 0c-1.82 7.09-.76 13.81 0 20m0-20c-.88 4.53-.81 11.35 0 20m0 0c-1.44 5.31-5.23 9.07-10 10m10-10c-2.24 6.95-4.83 10.08-10 10m0 0c-6.82-.5-13.92 1.02-20 0m20 0c-4.89.12-10.31.08-20 0m0 0c-8.15 1.36-11.07-1.74-10-10m10 10c-5.43-.75-9.45-3.72-10-10m0 0c-.76-6.2 1.18-16.6 0-20m0 20c.43-4.71.41-7.58 0-20m0 0c1.53-5.27 4.23-9.48 10-10M90 60c1.7-6.02 4.46-7.99 10-10"/><text x="6.264" y="14.096" class="fill-neutral-900 dark:fill-neutral-50" dominant-baseline="alphabetic" font-family="Excalifont, Xiaolai, sans-serif, Segoe UI Emoji" font-size="16" style="white-space:pre" text-anchor="middle" transform="translate(103.736 60)">#</text><path fill="none" class="stroke-neutral-900 dark:stroke-neutral-50" stroke-linecap="round" stroke-width="2" d="M100 130c7.91-1.62 10.67.83 20 0m-20 0c7.72.13 13.93.53 20 0m0 0c6.02-1.2 10.36 1.75 10 10m-10-10c7.89-.3 12.1 3.91 10 10m0 0c.03 8.39-1.11 16.13 0 20m0-20c.22 7 .66 13.52 0 20m0 0c.19 7.86-2.76 8.03-10 10m10-10c-1.91 6.23-1.25 7.78-10 10m0 0c-2.57-.89-7.98-.95-20 0m20 0c-4.6-.48-10.15.53-20 0m0 0c-7.94 1.74-8.32-4.7-10-10m10 10c-8.84 1.97-10.86-1.61-10-10m0 0c-1.87-5.13.43-8.29 0-20m0 20c.34-7.77-.05-14.17 0-20m0 0c-.75-6.12 1.35-10.12 10-10m-10 10c-1.06-6.8 5.07-10.47 10-10"/><text x="6.264" y="14.096" class="fill-neutral-900 dark:fill-neutral-50" dominant-baseline="alphabetic" font-family="Excalifont, Xiaolai, sans-serif, Segoe UI Emoji" font-size="16" style="white-space:pre" text-anchor="middle" transform="translate(103.736 140)">#</text><path fill="none" class="stroke-neutral-900 dark:stroke-neutral-50" stroke-linecap="round" stroke-width="2" d="M140 50c2.95-.54 11.68.35 20 0m-20 0c6.65.29 12.19-.26 20 0m0 0c5.88-.86 9.28 2.29 10 10m-10-10c8.32-1.78 8.27 1.72 10 10m0 0c-2.04 6.65-2.1 15.4 0 20m0-20c-.2 5.38-.27 9.07 0 20m0 0c-1.38 7.55-4.53 8.24-10 10m10-10c-1.07 6.46-2.84 8.39-10 10m0 0c-7.42 1.73-11.63-.51-20 0m20 0c-7.05.79-13.4.75-20 0m0 0c-5.6-1.78-11.73-3.41-10-10m10 10c-4.51.96-11.01-2.4-10-10m0 0c.74-7.4 1.33-15.26 0-20m0 20c.71-7.15.02-14.11 0-20m0 0c1.92-7.37 3.25-11.77 10-10m-10 10c-.44-6.6 1.69-9.44 10-10M220 50c7 .49 13.16 1.23 20 0m-20 0c6.76.34 13.54-.12 20 0m0 0c7.83-1.81 10.25 1.52 10 10m-10-10c5.79-.25 9.1 5.61 10 10m0 0c-1.04 4.05 1.59 9.18 0 20m0-20c-.3 5.23-.73 11.62 0 20m0 0c-.99 7.55-1.52 10.43-10 10m10-10c-.15 5.39-3.64 8.78-10 10m0 0c-3.22 1.64-8.08 1.18-20 0m20 0c-5.3-.19-11.46.44-20 0m0 0c-5.13-.48-8.16-4.73-10-10m10 10c-4.98-1.28-9.37-3.73-10-10m0 0c.34-7.68-1.04-10.85 0-20m0 20c.51-3.67.71-8.31 0-20m0 0c-.33-8.61 4.24-9.09 10-10m-10 10c1.13-6.06 2.92-10.3 10-10M140 130c5.34.26 10.29 1.16 20 0m-20 0c6.3-.74 13.43-.93 20 0m0 0c7.73-.26 11.83 3.83 10 10m-10-10c8.01-.83 7.97 3.45 10 10m0 0c.28 6.8-.07 14.97 0 20m0-20c.23 7.82.43 13.46 0 20m0 0c-1.66 6.29-1.52 8.07-10 10m10-10c-1.93 4.97-4.95 12.01-10 10m0 0c-6.34-2.04-11.03.54-20 0m20 0c-5.78.99-9.45-.57-20 0m0 0c-8.56 1.71-10.75-1.83-10-10m10 10c-8.79-.25-9.89-5.51-10-10m0 0c1.47-5.35 1.71-9.44 0-20m0 20c-.36-5.22-.97-11.04 0-20m0 0c-.92-6.78 4.84-10.41 10-10m-10 10c-1.12-5.01 3.78-7.84 10-10M220 130c6.75 1.25 14.03-1.63 20 0m-20 0c5.27-.27 10.51-.95 20 0m0 0c6.91-1.81 9.24 3.12 10 10m-10-10c5.77 2.28 9.4 4.52 10 10m0 0c1.38 2.34-.6 7.17 0 20m0-20c-.67 5.09-.53 9.44 0 20m0 0c1.81 7.1-3.47 8.89-10 10m10-10c-.31 5.44-5.19 9.18-10 10m0 0c-7.1 1.15-16.23.86-20 0m20 0c-7.22.35-12.15-.29-20 0m0 0c-4.83-1.4-8.53-4.44-10-10m10 10c-6.04-.4-10.24-2.16-10-10m0 0c-.98-6.37-1.79-12.46 0-20m0 20c.75-7.75-.3-16.88 0-20m0 0c.9-5.76 4.32-9.47 10-10m-10 10c-.41-6.97 4.96-8.83 10-10"/><path fill="none" class="stroke-neutral-900 dark:stroke-neutral-50" stroke-linecap="round" stroke-width="2" d="M180 50c5.04-.96 12.95-1.47 20 0m-20 0c3.78-.84 8.05-.62 20 0m0 0c4.71.24 8.69 3.41 10 10m-10-10c6.98-.48 11.57 2.7 10 10m0 0c-1.33 3.6-1.06 10.54 0 20m0-20c-.88 7.11-.68 13.66 0 20m0 0c1.08 6.02-2.85 9.66-10 10m10-10c1.63 5.35-1.83 8.99-10 10m0 0c-8.94-.25-12.55.66-20 0m20 0c-4.35.89-9.79.45-20 0m0 0c-5.18.56-9.02-1.59-10-10m10 10c-5.94 2.04-10.39-2.89-10-10m0 0c-.28-7.48-.58-11.37 0-20m0 20c.88-4.93.73-9.81 0-20m0 0c-1.58-7 4.61-10.21 10-10m-10 10c-.87-8.8 1.37-12.19 10-10"/><text x="6.264" y="14.096" class="fill-neutral-900 dark:fill-neutral-50" dominant-baseline="alphabetic" font-family="Excalifont, Xiaolai, sans-serif, Segoe UI Emoji" font-size="16" style="white-space:pre" text-anchor="middle" transform="translate(183.736 60)">#</text><path fill="none" class="stroke-neutral-900 dark:stroke-neutral-50" stroke-linecap="round" stroke-width="2" d="M260 50c6.74.43 15.93.32 20 0m-20 0c4.8.61 10.3-.56 20 0m0 0c5.77-.19 11.79 1.61 10 10m-10-10c4.99.71 10 1.49 10 10m0 0c.27 6.9.82 12.44 0 20m0-20c.03 6.15.85 13.44 0 20m0 0c-.32 7.7-2.43 11.88-10 10m10-10c1.22 8.71-3.89 10.79-10 10m0 0c-4.41-1.51-13.21 1.82-20 0m20 0c-5.6.72-12.16.57-20 0m0 0c-6.75-1.05-9.04-3.55-10-10m10 10c-8.64.06-9.92-2.09-10-10m0 0c-1.2-8.02 1.39-13.77 0-20m0 20c-.39-5.07-.78-10.52 0-20m0 0c-.43-5.62 3.95-11.54 10-10m-10 10c-1.74-5.25 3.6-11.17 10-10"/><text x="6.264" y="14.096" class="fill-neutral-900 dark:fill-neutral-50" dominant-baseline="alphabetic" font-family="Excalifont, Xiaolai, sans-serif, Segoe UI Emoji" font-size="16" style="white-space:pre" text-anchor="middle" transform="translate(263.736 60)">#</text><path fill="none" class="stroke-neutral-900 dark:stroke-neutral-50" stroke-linecap="round" stroke-width="2" d="M180 130c8.5 1.19 13.98-.62 20 0m-20 0c7.62-.67 15.4-.01 20 0m0 0c8.49.5 11.17 2.61 10 10m-10-10c4.64.12 11.4 2.14 10 10m0 0c.07 8.33 1.26 17 0 20m0-20c.31 6.51-.81 14.8 0 20m0 0c1.81 4.74-5.01 8.53-10 10m10-10c-1.61 8.68-4.19 10.75-10 10m0 0c-5.71.43-11.22-.84-20 0m20 0c-6.32-.51-15.28 1.03-20 0m0 0c-7.41 1.5-11.85-3.55-10-10m10 10c-6.56-2.18-11.12-2.87-10-10m0 0c1.6-5.41-.66-12.2 0-20m0 20c-.92-7.77-.39-15.47 0-20m0 0c1.51-7.08 2.36-8.56 10-10m-10 10c.45-4.5 3.13-10.14 10-10"/><text x="6.264" y="14.096" class="fill-neutral-900 dark:fill-neutral-50" dominant-baseline="alphabetic" font-family="Excalifont, Xiaolai, sans-serif, Segoe UI Emoji" font-size="16" style="white-space:pre" text-anchor="middle" transform="translate(183.736 140)">#</text><path fill="none" class="stroke-neutral-900 dark:stroke-neutral-50" stroke-linecap="round" stroke-width="2" d="M260 130c5.14 1 11.69-.09 20 0m-20 0c6.58.04 14.95-.73 20 0m0 0c5.21.62 10 1.73 10 10m-10-10c7.58-1.53 10.08 3.8 10 10m0 0c.54 6.59.34 12.18 0 20m0-20c0 5.94.61 11.78 0 20m0 0c1.06 8.44-3.82 10.69-10 10m10-10c-.2 7.7-3.01 11.63-10 10m0 0c-4.69.32-7.68.51-20 0m20 0c-7.24-.44-13.91-.02-20 0m0 0c-8.39.05-9.93-2.25-10-10m10 10c-5.67-.79-12.13-4.79-10-10m0 0c-.66-5.74-1.68-10.66 0-20m0 20c-.04-6.29.48-14.4 0-20m0 0c-1.51-5.43 3.56-11.02 10-10m-10 10c-.63-7.53 2.03-7.79 10-10"/><text x="6.264" y="14.096" class="fill-neutral-900 dark:fill-neutral-50" dominant-baseline="alphabetic" font-family="Excalifont, Xiaolai, sans-serif, Segoe UI Emoji" font-size="16" style="white-space:pre" text-anchor="middle" transform="translate(263.736 140)">#</text><path fill="none" class="stroke-neutral-900 dark:stroke-neutral-50" stroke-linecap="round" stroke-width="2" d="M20 90c3.77.05 10.41-.45 20 0m-20 0c6.67.51 14.13-.82 20 0m0 0c5.74-.18 10.43 1.93 10 10M40 90c7.07-1.71 11.57 2.1 10 10m0 0c.59 7.26 1.52 14.05 0 20m0-20c.44 6.42-.95 14.58 0 20m0 0c1.87 7.5-4.22 10.81-10 10m10-10c2.2 8.43-1.73 11.03-10 10m0 0c-5.54 1.8-12.4 1.83-20 0m20 0c-4.7-.38-11.36-.91-20 0m0 0c-7.05.05-11.43-2.85-10-10m10 10c-5.31 2.14-10.84-1.55-10-10m0 0c1.43-4.85-.59-11.15 0-20m0 20c.08-4.28-.44-9.31 0-20m0 0c-1.6-5.98 4.01-9.06 10-10m-10 10c-1.7-7.54 1.62-10.71 10-10"/><text x="6.264" y="14.096" class="fill-neutral-900 dark:fill-neutral-50" dominant-baseline="alphabetic" font-family="Excalifont, Xiaolai, sans-serif, Segoe UI Emoji" font-size="16" style="white-space:pre" text-anchor="middle" transform="translate(23.736 100)">#</text><path fill="none" class="stroke-neutral-900 dark:stroke-neutral-50" stroke-linecap="round" stroke-width="2" d="M20 170c8.47-1.15 12.76-.81 20 0m-20 0c5.13-.44 11.76-1 20 0m0 0c5.31.19 11.36 4.09 10 10m-10-10c6.5-1.6 8.27 4.92 10 10m0 0c-1.82 2.59-.86 10.78 0 20m0-20c-.08 6.87.83 14.41 0 20m0 0c-.81 7.67-2.69 9.17-10 10m10-10c-.89 8.85-2.93 12.2-10 10m0 0c-5.58 1.15-12.08 1.19-20 0m20 0c-6.14-.72-10.15.71-20 0m0 0c-6.56 1.04-11.84-3.97-10-10m10 10c-5.96.36-9.97-2.6-10-10m0 0c-1.03-6.15-.04-11.49 0-20m0 20c.13-7.6.44-15.36 0-20m0 0c.6-8.45 5.17-8.57 10-10m-10 10c1.59-8.48 2.14-11.24 10-10"/><text x="6.264" y="14.096" class="fill-neutral-900 dark:fill-neutral-50" dominant-baseline="alphabetic" font-family="Excalifont, Xiaolai, sans-serif, Segoe UI Emoji" font-size="16" style="white-space:pre" text-anchor="middle" transform="translate(23.736 180)">#</text><path fill="none" class="stroke-neutral-900 dark:stroke-neutral-50" stroke-linecap="round" stroke-width="2" d="M60 90c6.53 1.08 15.89-1.91 20 0m-20 0c4.69-.63 8.94.77 20 0m0 0c8.2 1.4 10.9 3.85 10 10M80 90c8.37.64 11.13 5.34 10 10m0 0c.56 6.34 2.1 12.56 0 20m0-20c-.15 5.2.07 12.42 0 20m0 0c1.86 5.93-1.78 8.65-10 10m10-10c-1.81 6.29-1.87 9.76-10 10m0 0c-7.16-.56-10.71-.13-20 0m20 0c-4.4.18-9.02-.9-20 0m0 0c-7.43-1.49-10.62-1.95-10-10m10 10c-5 .7-9.69-4.53-10-10m0 0c.03-6.07-.27-15.77 0-20m0 20c-.73-6.51-.23-11.95 0-20m0 0c-1.23-7.8 2.98-10.12 10-10m-10 10c-1.95-5.92 3.94-10.8 10-10"/><text x="6.264" y="14.096" class="fill-neutral-900 dark:fill-neutral-50" dominant-baseline="alphabetic" font-family="Excalifont, Xiaolai, sans-serif, Segoe UI Emoji" font-size="16" style="white-space:pre" text-anchor="middle" transform="translate(63.736 100)">#</text><path fill="none" class="stroke-neutral-900 dark:stroke-neutral-50" stroke-linecap="round" stroke-width="2" d="M60 170c4.8 1.71 11.68-1.55 20 0m-20 0c4.85.26 11.73.54 20 0m0 0c6.52-1.39 8.49 4.72 10 10m-10-10c5.01-2.02 10.92 1.45 10 10m0 0c1.49 2.31.76 8.25 0 20m0-20c-.21 5.13.52 8.83 0 20m0 0c-.78 8.56-2.98 11.91-10 10m10-10c.63 4.72-3.33 11.11-10 10m0 0c-7.9-1.17-13.72-1.67-20 0m20 0c-4.39.65-9.81-.18-20 0m0 0c-6.05.31-9.98-2.7-10-10m10 10c-6.43-1.97-11.32-4.71-10-10m0 0c1.35-5.98-1.55-11.85 0-20m0 20c.21-6.35.83-10.19 0-20m0 0c1.38-8.25 2.29-11.08 10-10m-10 10c-.26-8.21 2.25-10.26 10-10"/><text x="6.264" y="14.096" class="fill-neutral-900 dark:fill-neutral-50" dominant-baseline="alphabetic" font-family="Excalifont, Xiaolai, sans-serif, Segoe UI Emoji" font-size="16" style="white-space:pre" text-anchor="middle" transform="translate(63.736 180)">#</text><path fill="none" class="stroke-neutral-900 dark:stroke-neutral-50" stroke-linecap="round" stroke-width="2" d="M100 90c8.81.38 17.31.42 20 0m-20 0c7.87-.23 14.15-.21 20 0m0 0c8.59-.7 9.92 1.57 10 10m-10-10c6.22.06 8.35 3.89 10 10m0 0c1.73 5.82-1.39 14.02 0 20m0-20c-.95 6.42-.97 14.35 0 20m0 0c-.21 6.7-4.59 8.56-10 10m10-10c-1.84 7.46-2.56 11.08-10 10m0 0c-5.14 1.23-7.59.46-20 0m20 0c-6.74 1.09-12.57 1.07-20 0m0 0c-7.04-.07-10.29-4-10-10m10 10c-6.83-1.83-11.83-4.02-10-10m0 0c-.23-5.07-1.57-9.26 0-20m0 20c-.92-6.89.87-13.52 0-20m0 0c-2-6.79 4.23-10.19 10-10m-10 10c-1.97-7.64 2.19-11.4 10-10"/><text x="6.264" y="14.096" class="fill-neutral-900 dark:fill-neutral-50" dominant-baseline="alphabetic" font-family="Excalifont, Xiaolai, sans-serif, Segoe UI Emoji" font-size="16" style="white-space:pre" text-anchor="middle" transform="translate(103.736 100)">#</text><path fill="none" class="stroke-neutral-900 dark:stroke-neutral-50" stroke-linecap="round" stroke-width="2" d="M100 170c7.15-.12 13.64-1.19 20 0m-20 0c6.12-.77 11.62.62 20 0m0 0c5.22-1.76 10.8 1.69 10 10m-10-10c4.4-.79 11.91 5.12 10 10m0 0c-1.29 6.27-1.32 7.74 0 20m0-20c-.32 7.95.24 14.96 0 20m0 0c.55 4.97-3.33 10.97-10 10m10-10c1.32 7.83-1.97 9.13-10 10m0 0c-6.27.49-8.11-.07-20 0m20 0c-6.74.09-14.08.26-20 0m0 0c-6.46-1.72-11.15-4.53-10-10m10 10c-6.6-.25-8.93-1.81-10-10m0 0c-.39-5.19-1.26-11.56 0-20m0 20c.51-5.01-.7-8.98 0-20m0 0c-.23-8.01 2.39-10.23 10-10m-10 10c.76-5.19 5.19-10.57 10-10"/><text x="6.264" y="14.096" class="fill-neutral-900 dark:fill-neutral-50" dominant-baseline="alphabetic" font-family="Excalifont, Xiaolai, sans-serif, Segoe UI Emoji" font-size="16" style="white-space:pre" text-anchor="middle" transform="translate(103.736 180)">#</text><path fill="none" class="stroke-neutral-900 dark:stroke-neutral-50" stroke-linecap="round" stroke-width="2" d="M140 90c5.63-1.7 11.04.12 20 0m-20 0c5.5-.48 9.91-.79 20 0m0 0c5.09-.33 11.27 3.13 10 10m-10-10c5.8-2.13 8.04 1.14 10 10m0 0c-1.27 4.16-1.62 11.9 0 20m0-20c-.29 5.93-.22 14.04 0 20m0 0c1.45 7.28-3.06 8.96-10 10m10-10c2.13 5.58-1.26 9.93-10 10m0 0c-8.07-.67-15.7-1.6-20 0m20 0c-5.03-.67-8.99-.16-20 0m0 0c-8.36.65-9.47-4.03-10-10m10 10c-6.54-2.27-10.84-1.48-10-10m0 0c1.1-5.25-1.51-10.98 0-20m0 20c.45-5.27-.78-9.89 0-20m0 0c.76-5.12 3.39-9.05 10-10m-10 10c-1.62-8.7 3.48-9.99 10-10"/><text x="6.264" y="14.096" class="fill-neutral-900 dark:fill-neutral-50" dominant-baseline="alphabetic" font-family="Excalifont, Xiaolai, sans-serif, Segoe UI Emoji" font-size="16" style="white-space:pre" text-anchor="middle" transform="translate(143.736 100)">#</text><path fill="none" class="stroke-neutral-900 dark:stroke-neutral-50" stroke-linecap="round" stroke-width="2" d="M220 90c7.18-1.7 12.08.14 20 0m-20 0c7.05-.86 13.05-.86 20 0m0 0c5.91-.22 9.22 5.31 10 10m-10-10c6.06 1.19 7.83 2.02 10 10m0 0c-.33 3.52-1.35 8.76 0 20m0-20c-.62 5.88.78 11.09 0 20m0 0c-.13 5.56-3.6 8.94-10 10m10-10c-1.86 5.85-1.27 11.34-10 10m0 0c-8.1.81-14.45.2-20 0m20 0c-4.77-.16-10.15-.62-20 0m0 0c-5.2-1.11-9.45-3.68-10-10m10 10c-6.9 1.18-8.72-2.83-10-10m0 0c-1.65-2.36 2.05-6.86 0-20m0 20c-.34-8.15.27-13.9 0-20m0 0c.98-6.14 2.98-10.26 10-10m-10 10c1.63-5.49 1.26-8.89 10-10"/><text x="6.264" y="14.096" class="fill-neutral-900 dark:fill-neutral-50" dominant-baseline="alphabetic" font-family="Excalifont, Xiaolai, sans-serif, Segoe UI Emoji" font-size="16" style="white-space:pre" text-anchor="middle" transform="translate(223.736 100)">#</text><path fill="none" class="stroke-neutral-900 dark:stroke-neutral-50" stroke-linecap="round" stroke-width="2" d="M140 170c5.9 1.49 12.19-.01 20 0m-20 0c3.89-1.02 9.62-.96 20 0m0 0c4.7-.69 11.66 4.89 10 10m-10-10c4.68.96 10.21 1.75 10 10m0 0c.86 8.64-.97 15.22 0 20m0-20c.31 7.05.04 16.28 0 20m0 0c1.14 7.68-2.14 9.24-10 10m10-10c-1.48 7.32-5.39 8.21-10 10m0 0c-5.63-1.83-13.97.63-20 0m20 0c-6.21-.79-13.2-.54-20 0m0 0c-6.61-.21-9.07-2.01-10-10m10 10c-6.57-1.81-9.69-3.96-10-10m0 0c-1.64-5.06 1.57-12.4 0-20m0 20c-.01-5.09-.37-8.95 0-20m0 0c.66-5.38 4.94-10.49 10-10m-10 10c-1.54-8.42 4.31-11.83 10-10"/><text x="6.264" y="14.096" class="fill-neutral-900 dark:fill-neutral-50" dominant-baseline="alphabetic" font-family="Excalifont, Xiaolai, sans-serif, Segoe UI Emoji" font-size="16" style="white-space:pre" text-anchor="middle" transform="translate(143.736 180)">#</text><path fill="none" class="stroke-neutral-900 dark:stroke-neutral-50" stroke-linecap="round" stroke-width="2" d="M220 170c4.89.58 8.42 1.14 20 0m-20 0c3.8.07 7.98 1.17 20 0m0 0c6.14 1.03 8.11 2.19 10 10m-10-10c5.02 1.72 7.97 2.78 10 10m0 0c-.71 3.69 1.03 8.91 0 20m0-20c.12 6.33.05 13.23 0 20m0 0c-1.62 5.96-1.54 11.16-10 10m10-10c1.68 7.45-2.18 9.26-10 10m0 0c-7.18-1.51-12.64 1.54-20 0m20 0c-4.78-.69-10.76-.31-20 0m0 0c-6.87 1.02-8.89-2.9-10-10m10 10c-8.83-1.07-9.15-5.34-10-10m0 0c.98-5.99.21-15.86 0-20m0 20c.4-3.79-.27-8.24 0-20m0 0c1.42-5.65 1.53-9.04 10-10m-10 10c2.05-8.14 1.57-11.82 10-10"/><text x="6.264" y="14.096" class="fill-neutral-900 dark:fill-neutral-50" dominant-baseline="alphabetic" font-family="Excalifont, Xiaolai, sans-serif, Segoe UI Emoji" font-size="16" style="white-space:pre" text-anchor="middle" transform="translate(223.736 180)">#</text><path fill="none" class="stroke-neutral-900 dark:stroke-neutral-50" stroke-linecap="round" stroke-width="2" d="M180 90c5.92-.17 8.54-1.82 20 0m-20 0c4.19.06 7.97-.68 20 0m0 0c5.07.69 10.67 4.28 10 10m-10-10c4.96-.87 8.29 2.62 10 10m0 0c.42 6.34 2 13.82 0 20m0-20c-.19 7.77-.15 15.27 0 20m0 0c-.15 5.08-4.93 9.4-10 10m10-10c-1.2 5.25-4.64 9.6-10 10m0 0c-5.35-.63-11.65-1.91-20 0m20 0c-6.27-.16-10.08-.19-20 0m0 0c-8.38-.85-10.99-4.55-10-10m10 10c-5.15.76-10.61-5.4-10-10m0 0c-.02-5.3-1.48-14.26 0-20m0 20c-.89-5.14-.63-11.3 0-20m0 0c-.09-7.75 4.49-8.46 10-10m-10 10c1.69-6.55 3.36-10.84 10-10"/><text x="6.264" y="14.096" class="fill-neutral-900 dark:fill-neutral-50" dominant-baseline="alphabetic" font-family="Excalifont, Xiaolai, sans-serif, Segoe UI Emoji" font-size="16" style="white-space:pre" text-anchor="middle" transform="translate(183.736 100)">#</text><path fill="none" class="stroke-neutral-900 dark:stroke-neutral-50" stroke-linecap="round" stroke-width="2" d="M260 90c8.04 1.28 12.73-.89 20 0m-20 0c5.08.48 11.62-.63 20 0m0 0c7.46-1.33 10.07 3.74 10 10m-10-10c6.79 1.1 8.69 3.84 10 10m0 0c-.56 8.09 1.14 12.65 0 20m0-20c.62 7.92-.15 14.41 0 20m0 0c-.17 7.56-3.05 11.42-10 10m10-10c-1.77 4.88-1.27 9.73-10 10m0 0c-4.94-1.2-11.38-.05-20 0m20 0c-5.81 0-9.86.52-20 0m0 0c-5.8-.69-11.86-4.6-10-10m10 10c-7.99 1.52-10.04-3.94-10-10m0 0c.97-6.85 1.01-10.65 0-20m0 20c-.82-6.43.05-14.59 0-20m0 0c-.55-7.42 2.2-8.08 10-10m-10 10c-1.33-7 3.33-9.36 10-10"/><text x="6.264" y="14.096" class="fill-neutral-900 dark:fill-neutral-50" dominant-baseline="alphabetic" font-family="Excalifont, Xiaolai, sans-serif, Segoe UI Emoji" font-size="16" style="white-space:pre" text-anchor="middle" transform="translate(263.736 100)">#</text><path fill="none" class="stroke-neutral-900 dark:stroke-neutral-50" stroke-linecap="round" stroke-width="2" d="M180 170c5.97-1.49 16.09-1.43 20 0m-20 0c3.26-.18 9.32.94 20 0m0 0c4.94.83 10.18 1.96 10 10m-10-10c8.96-1.62 9.07 4.48 10 10m0 0c1.81 6.99 1.83 13.83 0 20m0-20c.57 4.81.59 8.24 0 20m0 0c-1.29 7.23-5.12 8.44-10 10m10-10c.77 8.18-3.21 11.2-10 10m0 0c-3.84.09-7.67.27-20 0m20 0c-4.25-.23-8.1.54-20 0m0 0c-6.59-1.58-9.73-3.88-10-10m10 10c-5.64-1.63-9.31-5.38-10-10m0 0c-1.72-8.87-1.22-15.89 0-20m0 20c.43-4.01.9-9.55 0-20m0 0c-1.34-8.19 4.18-11.59 10-10m-10 10c.1-8.8 2.98-10.51 10-10"/><text x="6.264" y="14.096" class="fill-neutral-900 dark:fill-neutral-50" dominant-baseline="alphabetic" font-family="Excalifont, Xiaolai, sans-serif, Segoe UI Emoji" font-size="16" style="white-space:pre" text-anchor="middle" transform="translate(183.736 180)">#</text><path fill="none" class="stroke-neutral-900 dark:stroke-neutral-50" stroke-linecap="round" stroke-width="2" d="M260 170c7.08 1.88 12.82-1.37 20 0m-20 0c7.02-.51 13.28.36 20 0m0 0c6.78.95 8.86 3.77 10 10m-10-10c7.22.28 9.95 2.66 10 10m0 0c1.15 8.52 2 16.28 0 20m0-20c-.13 8.22.09 16.26 0 20m0 0c-1.54 5.11-1.54 9.77-10 10m10-10c.16 8.09-2.95 11.38-10 10m0 0c-5.82.95-9.75-1.73-20 0m20 0c-5.62-.24-13.03-.52-20 0m0 0c-7.82 1.32-10.03-3.86-10-10m10 10c-7.69-1.78-11.11-2.4-10-10m0 0c.96-3.64-1.63-10.03 0-20m0 20c-.3-7.61-.59-13.51 0-20m0 0c-1.16-6.95 3.33-9.45 10-10m-10 10c-.31-6.61 1.98-10.08 10-10"/><text x="6.264" y="14.096" class="fill-neutral-900 dark:fill-neutral-50" dominant-baseline="alphabetic" font-family="Excalifont, Xiaolai, sans-serif, Segoe UI Emoji" font-size="16" style="white-space:pre" text-anchor="middle" transform="translate(263.736 180)">#</text></svg>