<svg xmlns="http://www.w3.org/2000/svg" viewBox="0 0 796.86 539.736"><defs/><text y="17.62" class="fill-neutral-900 dark:fill-neutral-50" dominant-baseline="alphabetic" font-family="Excalifont, Xiaolai, sans-serif, Segoe UI Emoji" font-size="20" style="white-space:pre" transform="translate(39.428 10)">Incoming session request</text><path fill="none" class="stroke-neutral-900 dark:stroke-neutral-50" stroke-linecap="round" stroke-width="2" d="M25 109.736c62.77-1.66 125.65-1.08 270 0m-270 0c59.23.85 118.5.64 270 0m0 0c11.4-.07 13.07 3.24 15 15m-15-15c10.24-2.16 15.97 5.41 15 15m0 0c-.27 9.44 1.2 14.99 0 30m0-30c-.32 9.41-.19 17.57 0 30m0 0c-.27 8.33-4.75 16.51-15 15m15-15c-2.16 10.45-2.98 15.05-15 15m0 0c-106.76-2.8-212.88-3.15-270 0m270 0c-58.61.86-118.75-.01-270 0m0 0c-8.81.51-14.3-4.65-15-15m15 15c-12.21-.07-13.85-6.4-15-15m0 0c.82-6 1.49-14.48 0-30m0 30c-.72-7.37-1.19-13 0-30m0 0c-1.67-9.01 5.02-15.6 15-15m-15 15c-.74-11.23 4-15.44 15-15"/><text x="124.68" y="17.62" class="fill-neutral-900 dark:fill-neutral-50" dominant-baseline="alphabetic" font-family="Excalifont, Xiaolai, sans-serif, Segoe UI Emoji" font-size="20" style="white-space:pre" text-anchor="middle" transform="translate(35.32 127.236)">Per-request override set?</text><path fill="none" class="stroke-neutral-900 dark:stroke-neutral-50" stroke-linecap="round" stroke-width="2" d="M25 289.736c90.52-.74 182.36-.12 270 0m-270 0c98.36-.35 195.38-.12 270 0m0 0c8.8-.48 14.15 5.61 15 15m-15-15c10.62 1.33 13.87 4.71 15 15m0 0c.76 13.13.38 23.4 0 30m0-30c-.49 5.91-.67 12.05 0 30m0 0c-.85 9.32-4.41 13.99-15 15m15-15c2.04 8.7-5.06 16.91-15 15m0 0c-104.19-1.44-209.04-.4-270 0m270 0c-70.86 1.09-142.46.42-270 0m0 0c-11.18-1.04-15.19-6.02-15-15m15 15c-11.33.95-14.5-5.91-15-15m0 0c.02-9.04.34-19.81 0-30m0 30c-.51-7.01.2-12.85 0-30m0 0c-.62-8.46 3.43-16.53 15-15m-15 15c.83-11.92 5.25-15.29 15-15"/><text x="103.02" y="17.62" class="fill-neutral-900 dark:fill-neutral-50" dominant-baseline="alphabetic" font-family="Excalifont, Xiaolai, sans-serif, Segoe UI Emoji" font-size="20" style="white-space:pre" text-anchor="middle" transform="translate(56.98 307.236)">Per-job override set?</text><path fill="none" class="stroke-neutral-900 dark:stroke-neutral-50" stroke-linecap="round" stroke-width="2" d="M25 469.736c77.4-.76 154.53-3.17 270 0m-270 0c90.65.17 181.94-.02 270 0m0 0c9.47.52 16.41 3.31 15 15m-15-15c12.23 2.15 14.24 6.08 15 15m0 0c-.02 7.34.71 11.47 0 30m0-30c.1 8.92-.32 19.69 0 30m0 0c1.04 8.99-6.77 15.37-15 15m15-15c.35 9.96-5.63 16.52-15 15m0 0c-103.54 2.28-206.07 2.24-270 0m270 0c-76.18-.95-153.09-.15-270 0m0 0c-9.23-1.4-14.52-5.56-15-15m15 15c-10.54 1.6-15.19-5.1-15-15m0 0c-.05-12.06 1.19-22.16 0-30m0 30c.23-10.25.21-20.11 0-30m0 0c1.26-11.46 6.33-16.62 15-15m-15 15c2.2-9.98 3.38-13.87 15-15"/><text x="119.37" y="17.62" class="fill-neutral-900 dark:fill-neutral-50" dominant-baseline="alphabetic" font-family="Excalifont, Xiaolai, sans-serif, Segoe UI Emoji" font-size="20" style="white-space:pre" text-anchor="middle" transform="translate(40.63 487.236)">System default property</text><g stroke-linecap="round"><path fill="none" class="stroke-neutral-900 dark:stroke-neutral-50" stroke-width="2" d="M160.808 41c1.11 15.34-1.45 30.06-.91 62.74m.91-62.74c1.2 18.28-.23 37.75-.91 62.74"/><path fill="none" class="stroke-neutral-900 dark:stroke-neutral-50" stroke-width="2" d="M152.158 79.97c3.34 5.57 2.92 10.61 7.74 23.77m-7.74-23.77c3.42 6.78 4.53 14.79 7.74 23.77M169.248 80.55c-.91 5.59-5.57 10.49-9.35 23.19m9.35-23.19c-1.61 6.68-5.53 14.52-9.35 23.19"/></g><g stroke-linecap="round" mask="url(#mask-cqnxbBIhRP5e_padrp8Zo)"><path fill="none" class="stroke-neutral-900 dark:stroke-neutral-50" stroke-width="2" d="M159.9 175.736c-2.56 37.83-1.75 73.2 0 108m0-108c-.56 38.94-.76 76.55 0 108M151 260.376c1.31 8.98 5.15 15.51 8.9 23.36m-8.9-23.36c2.82 8.68 5.81 15.94 8.9 23.36M168.1 260.116c-4.52 9.09-6.5 15.7-8.2 23.62m8.2-23.62c-3.31 8.61-6.45 15.97-8.2 23.62"/></g><mask id="mask-cqnxbBIhRP5e_padrp8Zo"><path fill="#fff" d="M0 0h259.9v383.736H0z"/><path d="M147.58 217.236h24.64v25h-24.64z"/></mask><text x="12.32" y="17.62" class="fill-neutral-900 dark:fill-neutral-50" dominant-baseline="alphabetic" font-family="Excalifont, Xiaolai, sans-serif, Segoe UI Emoji" font-size="20" style="white-space:pre" text-anchor="middle" transform="translate(147.58 217.236)">No</text><g stroke-linecap="round" mask="url(#mask-wzb1RI5qoYrbC-lAhrJI_)"><path fill="none" class="stroke-neutral-900 dark:stroke-neutral-50" stroke-width="2" d="M159.9 355.736c1.29 31.02-1.25 60.82 0 108m0-108c.51 25.95-.07 51.92 0 108M151.38 440.236c3.28 7.37 3.12 13.54 8.52 23.5m-8.52-23.5c2.79 5.36 4.27 10.84 8.52 23.5M168.49 440.256c-1.51 7.41-6.45 13.57-8.59 23.48m8.59-23.48c-1.37 5.52-4.04 10.99-8.59 23.48"/></g><mask id="mask-wzb1RI5qoYrbC-lAhrJI_"><path fill="#fff" d="M0 0h259.9v563.736H0z"/><path d="M147.58 397.236h24.64v25h-24.64z"/></mask><text x="12.32" y="17.62" class="fill-neutral-900 dark:fill-neutral-50" dominant-baseline="alphabetic" font-family="Excalifont, Xiaolai, sans-serif, Segoe UI Emoji" font-size="20" style="white-space:pre" text-anchor="middle" transform="translate(147.58 397.236)">No</text><text y="17.62" class="fill-neutral-900 dark:fill-neutral-50" dominant-baseline="alphabetic" font-family="Excalifont, Xiaolai, sans-serif, Segoe UI Emoji" font-size="20" style="white-space:pre" transform="translate(550 129.736)">Use that implementation</text><text y="17.62" class="fill-neutral-900 dark:fill-neutral-50" dominant-baseline="alphabetic" font-family="Excalifont, Xiaolai, sans-serif, Segoe UI Emoji" font-size="20" style="white-space:pre" transform="translate(550 309.736)">Use that implementation</text><text y="17.62" class="fill-neutral-900 dark:fill-neutral-50" dominant-baseline="alphabetic" font-family="Excalifont, Xiaolai, sans-serif, Segoe UI Emoji" font-size="20" style="white-space:pre" transform="translate(550 489.736)">Use that implementation</text><g stroke-linecap="round" mask="url(#mask-rKIlEbZTe0Q46cef5lwf3)"><path fill="none" class="stroke-neutral-900 dark:stroke-neutral-50" stroke-width="2" d="M316 149.736c83.9 2.03 163.63 1.27 228 0m-228 0c77.51.76 155.2 1.5 228 0M520.61 158.566c10.3-1.81 15.75-5.89 23.39-8.83m-23.39 8.83c8.22-2.81 16.63-4.94 23.39-8.83"/><path fill="none" class="stroke-neutral-900 dark:stroke-neutral-50" stroke-width="2" d="M520.41 141.466c10.46 4.36 15.97 6.46 23.59 8.27m-23.59-8.27c8.26 2.99 16.73 6.66 23.59 8.27"/></g><mask id="mask-rKIlEbZTe0Q46cef5lwf3"><path fill="#fff" d="M0 0h644v249.736H0z"/><path d="M414.16 137.236h31.68v25h-31.68z"/></mask><text x="15.84" y="17.62" class="fill-neutral-900 dark:fill-neutral-50" dominant-baseline="alphabetic" font-family="Excalifont, Xiaolai, sans-serif, Segoe UI Emoji" font-size="20" style="white-space:pre" text-anchor="middle" transform="translate(414.16 137.236)">Yes</text><g stroke-linecap="round" mask="url(#mask-nF7IUwwOzkYyUlSiw5jxu)"><path fill="none" class="stroke-neutral-900 dark:stroke-neutral-50" stroke-width="2" d="M316 329.736c69.11.71 135.55-2.43 228 0m-228 0c70.3.23 141.26-1.36 228 0M520.44 338.106c8.17-.83 13.23-7.02 23.56-8.37m-23.56 8.37c6.68-1.78 14.13-6.25 23.56-8.37M520.57 321.006c8.15 4.28 13.17 3.21 23.43 8.73m-23.43-8.73c6.63 3.53 14.04 4.38 23.43 8.73"/></g><mask id="mask-nF7IUwwOzkYyUlSiw5jxu"><path fill="#fff" d="M0 0h644v429.736H0z"/><path d="M414.16 317.236h31.68v25h-31.68z"/></mask><text x="15.84" y="17.62" class="fill-neutral-900 dark:fill-neutral-50" dominant-baseline="alphabetic" font-family="Excalifont, Xiaolai, sans-serif, Segoe UI Emoji" font-size="20" style="white-space:pre" text-anchor="middle" transform="translate(414.16 317.236)">Yes</text><g stroke-linecap="round" mask="url(#mask-V0lv5oV5vC367UAApqIVo)"><path fill="none" class="stroke-neutral-900 dark:stroke-neutral-50" stroke-width="2" d="M316 509.736c61.86-1.13 124.19.85 228 0m-228 0c54.38.03 109.02-.23 228 0M520.5 518.266c5.65-4.25 11.84-4.27 23.5-8.53m-23.5 8.53c5.61-2.12 11.62-4.46 23.5-8.53M520.52 501.156c5.62.45 11.81 5.12 23.48 8.58m-23.48-8.58c5.78 1.96 11.78 3.7 23.48 8.58"/></g><mask id="mask-V0lv5oV5vC367UAApqIVo"><path fill="#fff" d="M0 0h644v609.736H0z"/><path d="M414.16 497.236h31.68v25h-31.68z"/></mask><text x="15.84" y="17.62" class="fill-neutral-900 dark:fill-neutral-50" dominant-baseline="alphabetic" font-family="Excalifont, Xiaolai, sans-serif, Segoe UI Emoji" font-size="20" style="white-space:pre" text-anchor="middle" transform="translate(414.16 497.236)">Yes</text></svg>