<svg xmlns="http://www.w3.org/2000/svg" viewBox="0 0 720 400"><defs/><path fill="none" class="stroke-neutral-900 dark:stroke-neutral-50" stroke-dasharray="8 10" stroke-linecap="round" stroke-width="2.5" d="M242 10c78.31.23 155.83-2.45 216 0m0 0c19.64.37 32.71 10.51 32 32m0 0c-1.98 25.99.93 47.71 0 96m0 0c-.98 21.7-10.17 30.32-32 32m0 0c-59.12-.45-118.11.3-216 0m0 0c-22.03 1.56-30.41-11.87-32-32m0 0c.55-23.66 1-43.92 0-96m0 0c.98-22 9.49-32.92 32-32"/><text x="126.88" y="17.62" class="fill-neutral-900 dark:fill-neutral-50" dominant-baseline="alphabetic" font-family="Excalifont, Xiaolai, sans-serif, Segoe UI Emoji" font-size="20" style="white-space:pre" text-anchor="middle" transform="translate(223.12 27.5)">ProxyManagerFactory</text><text x="126.88" y="42.62" class="fill-neutral-900 dark:fill-neutral-50" dominant-baseline="alphabetic" font-family="Excalifont, Xiaolai, sans-serif, Segoe UI Emoji" font-size="20" style="white-space:pre" text-anchor="middle" transform="translate(223.12 27.5)">&lt;&lt;interface&gt;&gt;</text><text x="126.88" y="92.62" class="fill-neutral-900 dark:fill-neutral-50" dominant-baseline="alphabetic" font-family="Excalifont, Xiaolai, sans-serif, Segoe UI Emoji" font-size="20" style="white-space:pre" text-anchor="middle" transform="translate(223.12 27.5)">getImplementation()</text><text x="126.88" y="117.62" class="fill-neutral-900 dark:fill-neutral-50" dominant-baseline="alphabetic" font-family="Excalifont, Xiaolai, sans-serif, Segoe UI Emoji" font-size="20" style="white-space:pre" text-anchor="middle" transform="translate(223.12 27.5)">create(int): ProxyManager</text><path fill="none" class="stroke-neutral-900 dark:stroke-neutral-50" stroke-linecap="round" stroke-width="2" d="M35 290c77.13.12 152.49.42 250 0m-250 0c67.25-1.29 133.54-.94 250 0m0 0c17.67 1.04 23.24 8.22 25 25m-25-25c18.72.73 25.34 7.8 25 25m0 0c-.47 18.53.54 35.76 0 50m0-50c.37 10.3-.55 21.33 0 50m0 0c.64 18.03-6.82 26.86-25 25m25-25c-1.39 14.97-6.3 23.49-25 25m0 0c-96.27.22-193.02-1.04-250 0m250 0c-71.9-1.33-146.2-2.52-250 0m0 0c-15.72.63-23.32-8.75-25-25m25 25c-17.48 1.37-25.48-6.12-25-25m0 0c.94-9.34-.4-22.03 0-50m0 50c.56-15.54.14-31.98 0-50m0 0c-1.48-16 6.94-23.19 25-25m-25 25c1.21-17.08 8.39-22.78 25-25"/><text x="144.45" y="17.62" class="fill-neutral-900 dark:fill-neutral-50" dominant-baseline="alphabetic" font-family="Excalifont, Xiaolai, sans-serif, Segoe UI Emoji" font-size="20" style="white-space:pre" text-anchor="middle" transform="translate(15.55 327.5)">InternalProxyManagerFactory</text><path fill="none" class="stroke-neutral-900 dark:stroke-neutral-50" stroke-linecap="round" stroke-width="2" d="M435 290c87.32.8 177.77-.98 250 0m-250 0c75.75 1.66 151.73.43 250 0m0 0c17.46-1.38 26.15 7.09 25 25m-25-25c16.72.21 23.59 6.54 25 25m0 0c1.26 17.89-.15 36.62 0 50m0-50c1.04 17.22-.64 34.29 0 50m0 0c-.87 15.85-8.24 23.49-25 25m25-25c.84 14.54-10.61 24.26-25 25m0 0c-99.16-1.71-196.26-2.68-250 0m250 0c-76.01-.92-151.83.15-250 0m0 0c-15.47 1.56-23.62-6.42-25-25m25 25c-15.02-1.08-24.83-8.68-25-25m0 0c.67-13.84 1.02-26.08 0-50m0 50c-.16-11.12.2-23.92 0-50m0 0c-1.4-15.12 7.47-23.9 25-25m-25 25c-2.1-14.48 6.53-24.96 25-25"/><text x="126.1" y="17.62" class="fill-neutral-900 dark:fill-neutral-50" dominant-baseline="alphabetic" font-family="Excalifont, Xiaolai, sans-serif, Segoe UI Emoji" font-size="20" style="white-space:pre" text-anchor="middle" transform="translate(433.9 327.5)">MitmproxyManagerFactory</text><g stroke-linecap="round" mask="url(#mask-uiYVcKxn47tuAH3qq1Jo7)"><path fill="none" class="stroke-neutral-900 dark:stroke-neutral-50" stroke-dasharray="8 10" stroke-width="2.5" d="M349.9 176c1.12 12.49 1.28 30.32 0 38m0 0c-.83 10.6 7.11 16.96 16 16m0 0c47.84 1.7 100.99.75 178 0m0 0c10.68-.28 14.09 5.54 16 16m0 0c.45 10.11-.2 24.25 0 38"/><path fill="none" class="stroke-neutral-900 dark:stroke-neutral-50" stroke-width="2.5" d="M359.08 199.25c-2.82-10.58-6.12-15.82-9.18-23.25"/><path fill="none" class="stroke-neutral-900 dark:stroke-neutral-50" stroke-width="2.5" d="M341.99 199.71c3.61-10.75 6.75-16.16 7.91-23.71"/></g><mask id="mask-uiYVcKxn47tuAH3qq1Jo7"><path fill="#fff" d="M0 0h659.9v384H0z"/><path d="M401.61 217.5h106.58v25H401.61z"/></mask><text x="53.29" y="17.62" class="fill-neutral-900 dark:fill-neutral-50" dominant-baseline="alphabetic" font-family="Excalifont, Xiaolai, sans-serif, Segoe UI Emoji" font-size="20" style="white-space:pre" text-anchor="middle" transform="translate(401.61 217.5)">Implements</text><g stroke-linecap="round" mask="url(#mask-9Pq_NE0HQhfoAvpGEEgbr)"><path fill="none" class="stroke-neutral-900 dark:stroke-neutral-50" stroke-dasharray="8 10" stroke-width="2.5" d="M349.9 176c-1.08 13.86 1.14 28.37 0 38m0 0c-1.06 12.23-6.67 17.19-16 16m0 0c-43.16 2.24-88.43 1.55-158 0m0 0c-9.37-.28-16.71 4.04-16 16m0 0c.67 10.65-.31 21.42 0 38"/><path fill="none" class="stroke-neutral-900 dark:stroke-neutral-50" stroke-width="2.5" d="M358.7 199.4c-4.32-7.89-5.22-15.16-8.8-23.4"/><path fill="none" class="stroke-neutral-900 dark:stroke-neutral-50" stroke-width="2.5" d="M341.6 199.58c1.75-8.03 6.92-15.36 8.3-23.58"/></g><mask id="mask-9Pq_NE0HQhfoAvpGEEgbr"><path fill="#fff" d="M0 0h639.9v384H0z"/><path d="M201.61 217.5h106.58v25H201.61z"/></mask><text x="53.29" y="17.62" class="fill-neutral-900 dark:fill-neutral-50" dominant-baseline="alphabetic" font-family="Excalifont, Xiaolai, sans-serif, Segoe UI Emoji" font-size="20" style="white-space:pre" text-anchor="middle" transform="translate(201.61 217.5)">Implements</text></svg>