<svg xmlns="http://www.w3.org/2000/svg" viewBox="0 0 700 420"><defs/><path fill="none" class="stroke-neutral-900 dark:stroke-neutral-50" stroke-dasharray="8 10" stroke-linecap="round" stroke-width="2.5" d="M242 10c43.71 1.12 90.61.6 216 0m0 0c20.66-1.49 31.74 10.97 32 32m0 0c-2.85 27.76.42 58.2 0 96m0 0c.46 22.27-12.62 32.53-32 32m0 0c-82.81-2.3-165.21-.55-216 0m0 0c-22.49.79-30.52-10.34-32-32m0 0c.36-26.44.91-51.21 0-96m0 0c-.76-21.29 10.06-31.07 32-32"/><text x="112.14" y="17.62" class="fill-neutral-900 dark:fill-neutral-50" dominant-baseline="alphabetic" font-family="Excalifont, Xiaolai, sans-serif, Segoe UI Emoji" font-size="20" style="white-space:pre" text-anchor="middle" transform="translate(237.86 15)">ProxyManager</text><text x="112.14" y="42.62" class="fill-neutral-900 dark:fill-neutral-50" dominant-baseline="alphabetic" font-family="Excalifont, Xiaolai, sans-serif, Segoe UI Emoji" font-size="20" style="white-space:pre" text-anchor="middle" transform="translate(237.86 15)">&lt;&lt;interface&gt;&gt;</text><text x="112.14" y="92.62" class="fill-neutral-900 dark:fill-neutral-50" dominant-baseline="alphabetic" font-family="Excalifont, Xiaolai, sans-serif, Segoe UI Emoji" font-size="20" style="white-space:pre" text-anchor="middle" transform="translate(237.86 15)">beginRequest()</text><text x="112.14" y="117.62" class="fill-neutral-900 dark:fill-neutral-50" dominant-baseline="alphabetic" font-family="Excalifont, Xiaolai, sans-serif, Segoe UI Emoji" font-size="20" style="white-space:pre" text-anchor="middle" transform="translate(237.86 15)">endRequest(): HarData</text><text x="112.14" y="142.62" class="fill-neutral-900 dark:fill-neutral-50" dominant-baseline="alphabetic" font-family="Excalifont, Xiaolai, sans-serif, Segoe UI Emoji" font-size="20" style="white-space:pre" text-anchor="middle" transform="translate(237.86 15)">destroy()</text><path fill="none" class="stroke-neutral-900 dark:stroke-neutral-50" stroke-linecap="round" stroke-width="2" d="M35 310c39.13.58 80.71 1.61 190 0m-190 0c52.27-1.95 103.06-1.2 190 0m0 0c17 .72 25.34 9.86 25 25m-25-25c15.16-1.17 23.81 9.93 25 25m0 0c-1.33 16.62-.01 37.77 0 50m0-50c.2 19.23-.31 36.91 0 50m0 0c.94 16.7-7.82 23.14-25 25m25-25c-1.34 18.82-10.48 25.67-25 25m0 0c-62.71 1.57-128.34-1.14-190 0m190 0c-38.79 1.16-79.62 2.11-190 0m0 0c-18.05.41-23.6-8.12-25-25m25 25c-16.98.92-26.91-9.83-25-25m0 0c.29-19.7-.96-39.34 0-50m0 50c.62-13.27.07-24.9 0-50m0 0c1.74-15.77 9.03-25.31 25-25m-25 25c-1.17-16.7 8.01-25.48 25-25"/><text x="106.59" y="17.62" class="fill-neutral-900 dark:fill-neutral-50" dominant-baseline="alphabetic" font-family="Excalifont, Xiaolai, sans-serif, Segoe UI Emoji" font-size="20" style="white-space:pre" text-anchor="middle" transform="translate(23.41 347.5)">InternalProxyManager</text><path fill="none" class="stroke-neutral-900 dark:stroke-neutral-50" stroke-linecap="round" stroke-width="2" d="M475 310c53.43 1.96 104.58.04 190 0m-190 0c67.14-1.11 134.79-1.3 190 0m0 0c18.5 1.32 25.01 7.88 25 25m-25-25c17.91-1.69 26.5 7.93 25 25m0 0c-.92 21.23-1.58 39.69 0 50m0-50c.9 14.63-.59 27.13 0 50m0 0c-.05 17.21-8.26 25.2-25 25m25-25c2.18 14.71-7.4 23.09-25 25m0 0c-51.77-.09-106.71.33-190 0m190 0c-72.36.75-143.43.52-190 0m0 0c-16.24.48-25.33-8.68-25-25m25 25c-15.57 2.07-23.88-7.79-25-25m0 0c-.66-12.49.74-22.46 0-50m0 50c.63-12.62-.18-24.62 0-50m0 0c.4-15 10.28-25.8 25-25m-25 25c-1.38-14.61 7.29-24.04 25-25"/><text x="88.24" y="17.62" class="fill-neutral-900 dark:fill-neutral-50" dominant-baseline="alphabetic" font-family="Excalifont, Xiaolai, sans-serif, Segoe UI Emoji" font-size="20" style="white-space:pre" text-anchor="middle" transform="translate(481.76 347.5)">MitmproxyManager</text><g stroke-linecap="round" mask="url(#mask-SrkF94h_y_JXyfKfUubeW)"><path fill="none" class="stroke-neutral-900 dark:stroke-neutral-50" stroke-dasharray="8 10" stroke-width="2.5" d="M349.9 176c1.29 11.79-.45 26.21 0 48m0 0c1.48 9.64-7.22 16.56-16 16m0 0c-58.28-.36-117.79-1.25-188 0m0 0c-10 2-14.46 5.97-16 16m0 0c-.74 11.09.37 22.44 0 48"/><path fill="none" class="stroke-neutral-900 dark:stroke-neutral-50" stroke-width="2.5" d="M358.49 199.48c-.36-6.63-4.32-10.68-8.59-23.48M341.39 199.51c4.06-6.71 4.51-10.77 8.51-23.51"/></g><mask id="mask-SrkF94h_y_JXyfKfUubeW"><path fill="#fff" d="M0 0h669.9v404H0z"/><path d="M186.61 227.5h106.58v25H186.61z"/></mask><text x="53.29" y="17.62" class="fill-neutral-900 dark:fill-neutral-50" dominant-baseline="alphabetic" font-family="Excalifont, Xiaolai, sans-serif, Segoe UI Emoji" font-size="20" style="white-space:pre" text-anchor="middle" transform="translate(186.61 227.5)">Implements</text><g stroke-linecap="round" mask="url(#mask-Vja6g6r6dTukdNR7ju4HO)"><path fill="none" class="stroke-neutral-900 dark:stroke-neutral-50" stroke-dasharray="8 10" stroke-width="2.5" d="M349.9 176c-.81 15.21 1.25 35.6 0 48m0 0c-1.07 11.74 5.17 17.34 16 16m0 0c70.35.86 144.5-.29 188 0m0 0c11.85-1.12 15.09 5.72 16 16m0 0c-.03 13.93.37 24.82 0 48"/><path fill="none" class="stroke-neutral-900 dark:stroke-neutral-50" stroke-width="2.5" d="M358.72 199.39c-3.34-10.31-4.43-15.48-8.82-23.39M341.62 199.59c2.79-10.46 7.81-15.7 8.28-23.59"/></g><mask id="mask-Vja6g6r6dTukdNR7ju4HO"><path fill="#fff" d="M0 0h669.9v404H0z"/><path d="M406.61 227.5h106.58v25H406.61z"/></mask><text x="53.29" y="17.62" class="fill-neutral-900 dark:fill-neutral-50" dominant-baseline="alphabetic" font-family="Excalifont, Xiaolai, sans-serif, Segoe UI Emoji" font-size="20" style="white-space:pre" text-anchor="middle" transform="translate(406.61 227.5)">Implements</text></svg>