<svg xmlns="http://www.w3.org/2000/svg" viewBox="0 0 1163.78 420"><defs/><path fill="none" class="stroke-neutral-900 dark:stroke-neutral-50" stroke-linecap="round" stroke-width="2" d="M20 110c49.26-2.39 94.77.74 140 0m-140 0c50.08.97 100.1-.03 140 0m0 0c7.02 1.18 8.63 1.73 10 10m-10-10c6.37.81 10.42 4.38 10 10m0 0c-.87 6.74 1.29 10.18 0 20m0-20c.24 5.35-.91 10.75 0 20m0 0c.39 7.23-3.52 9.89-10 10m10-10c1.56 8.52-2.27 11.11-10 10m0 0c-46.02-.36-87.62-.17-140 0m140 0c-52.19-.78-102.93-.79-140 0m0 0c-7.51-.95-8.82-3.18-10-10m10 10c-6.86-1.98-12.11-1.96-10-10m0 0c1.31-8.67.25-14.01 0-20m0 20c.08-6.79.5-16.17 0-20m0 0c-1.18-7.05 5.12-8.55 10-10m-10 10c2.06-7.14 4.35-9.42 10-10"/><text x="32.5" y="17.62" class="fill-neutral-900 dark:fill-neutral-50" dominant-baseline="alphabetic" font-family="Excalifont, Xiaolai, sans-serif, Segoe UI Emoji" font-size="20" style="white-space:pre" text-anchor="middle" transform="translate(57.5 117.5)">Worker</text><path fill="none" class="stroke-neutral-900 dark:stroke-neutral-50" stroke-linecap="round" stroke-width="2" d="M20 250c50.91 1.5 103.19-1.94 140 0m-140 0c43.05-1.36 87.5.12 140 0m0 0c8.12 1.79 9.59 4.21 10 10m-10-10c7.24-1.96 10.63 4.82 10 10m0 0c-1.5 8.5 1.28 15.33 0 20m0-20c-.79 6.53-.62 13.09 0 20m0 0c.71 4.73-5.07 8.94-10 10m10-10c-1.44 7.18-1.37 9.96-10 10m0 0c-30.37-.43-57.26 2.76-140 0m140 0c-36.88-.85-74.36-.86-140 0m0 0c-4.67 1.33-10.75-2.39-10-10m10 10c-5.35-1.88-9.38-2.19-10-10m0 0c1.35-4.54.03-10.37 0-20m0 20c.48-6.01.72-10.65 0-20m0 0c.8-6.92 3.39-10.16 10-10m-10 10c-1.59-6.18 4.18-11.4 10-10"/><text x="64.17" y="17.62" class="fill-neutral-900 dark:fill-neutral-50" dominant-baseline="alphabetic" font-family="Excalifont, Xiaolai, sans-serif, Segoe UI Emoji" font-size="20" style="white-space:pre" text-anchor="middle" transform="translate(25.83 257.5)">Config server</text><path fill="none" stroke="#1971c2" stroke-linecap="round" stroke-width="2" d="M302 10c168.56-.97 336.06-1.29 576 0m-576 0c192.09-.04 383.32-.3 576 0m0 0c21.92.42 30.06 12.26 32 32m-32-32c22.89.54 30.35 9.73 32 32m0 0c1 76.16-.69 152.98 0 336m0-336c-.23 77.49.09 154.27 0 336m0 0c1.67 20.6-8.82 33.86-32 32m32-32c-1.99 21.99-8.63 32.54-32 32m0 0c-161.05-2.56-322.29-2.75-576 0m576 0c-162.95-.32-325.72-.61-576 0m0 0c-20.47 1.15-31.76-10.13-32-32m32 32c-21.31 1.45-30.07-9-32-32m0 0c.35-80.28-1.56-159.68 0-336m0 336c-1.24-112.54-.8-225.51 0-336m0 0c-.67-21.08 9.48-32.42 32-32m-32 32c-.88-21.73 11.33-29.96 32-32"/><text x="65.92" y="17.62" class="fill-neutral-900 dark:fill-neutral-50" dominant-baseline="alphabetic" font-family="Excalifont, Xiaolai, sans-serif, Segoe UI Emoji" font-size="20" style="white-space:pre" text-anchor="middle" transform="translate(524.08 15)">Proxy Service</text><g stroke-linecap="round"><path fill="none" class="stroke-neutral-900 dark:stroke-neutral-50" stroke-width="2" d="M176 269.9c19.24-1.01 36.41.68 88 .1m-88-.1c33.53-.26 66.59-.01 88 .1M240.46 278.42c6.09-2.53 10.03-2.58 23.54-8.42m-23.54 8.42c9.03-3.71 17.63-6.7 23.54-8.42M240.56 261.32c5.91.98 9.83 4.43 23.44 8.68m-23.44-8.68c9.05 2.78 17.61 6.28 23.44 8.68"/></g><g stroke-linecap="round"><path fill="none" class="stroke-neutral-900 dark:stroke-neutral-50" stroke-width="2" d="M176 129.9c17.46 1.4 37.99-.35 88 .1m-88-.1c24.93.2 50.24-.98 88 .1M240.38 138.2c4.16.06 11.45-3.4 23.62-8.2m-23.62 8.2c6.43-1.84 13.16-5.42 23.62-8.2M240.64 121.1c4.22 3.58 11.45 3.64 23.36 8.9m-23.36-8.9c6.18 3.1 12.84 4.46 23.36 8.9"/></g><path fill="none" class="stroke-neutral-900 dark:stroke-neutral-50" stroke-linecap="round" stroke-width="2" d="M322 70c198.1 1.9 395.47 1.49 536 0m-536 0c116.61 1.03 232.99 1.37 536 0m0 0c23.05.65 31.35 12.59 32 32m-32-32c23.51.51 32.03 9.84 32 32m0 0c-2.28 55.57-2.15 113.37 0 216m0-216c-.74 64.96-.07 131.48 0 216m0 0c.99 21.55-8.83 32-32 32m32-32c1.76 22.39-9.33 33.1-32 32m0 0c-134.05 1.31-268.77 1.5-536 0m536 0c-134.15.08-267.93.2-536 0m0 0c-19.43-1.51-31.48-10.08-32-32m32 32c-19.94-1.3-30.11-12.92-32-32m0 0c-.28-52.59.26-108.87 0-216m0 216c-.85-71.5.56-144.6 0-216m0 0c-.93-20.42 11.93-31.31 32-32m-32 32c1.67-19.69 10.65-33.74 32-32"/><text x="124.08" y="17.62" class="fill-neutral-900 dark:fill-neutral-50" dominant-baseline="alphabetic" font-family="Excalifont, Xiaolai, sans-serif, Segoe UI Emoji" font-size="20" style="white-space:pre" text-anchor="middle" transform="translate(465.92 75)">ProxyManager (interface)</text><g stroke-linecap="round"><path fill="none" class="stroke-neutral-900 dark:stroke-neutral-50" stroke-width="2" d="M916 110c52.59.92 102.26-2.02 148 0m-148 0c36.7 1.58 74.81 1.68 148 0M1040.67 118.98c9.45-1.76 16.05-7.8 23.33-8.98m-23.33 8.98c4.98-1.92 11.34-4.11 23.33-8.98M1040.36 101.88c9.67 4.15 16.37 4.02 23.64 8.12m-23.64-8.12c4.99 2.44 11.43 4.61 23.64 8.12"/></g><text y="17.62" class="fill-neutral-900 dark:fill-neutral-50" dominant-baseline="alphabetic" font-family="Excalifont, Xiaolai, sans-serif, Segoe UI Emoji" font-size="20" style="white-space:pre" transform="translate(1070 90)">Internet</text><path fill="none" class="stroke-neutral-900 dark:stroke-neutral-50" stroke-linecap="round" stroke-width="2" d="M342 150c64.74-1.06 132.97.12 196 0m-196 0c44.75-2.24 87.02-1.99 196 0m0 0c20.49-.03 31.53 9.07 32 32m-32-32c23.4-.44 30.74 11.38 32 32m0 0c-.69 35.07-.71 67.65 0 96m0-96c.27 34.83-1.04 68.5 0 96m0 0c-1.37 20.66-10.45 31.4-32 32m32-32c-1.09 22.42-10.25 30.2-32 32m0 0c-40.49.48-84.73-3.07-196 0m196 0c-76.92.82-154.36 1-196 0m0 0c-21.68.84-32.08-11.98-32-32m32 32c-22.42-1.12-33.83-10.81-32-32m0 0c1.01-27.68.33-56.32 0-96m0 96c-.09-31.54.6-63.89 0-96m0 0c1.72-21.68 10.72-30.34 32-32m-32 32c-.28-20.31 8.57-30.85 32-32"/><text x="115.82" y="17.62" class="fill-neutral-900 dark:fill-neutral-50" dominant-baseline="alphabetic" font-family="Excalifont, Xiaolai, sans-serif, Segoe UI Emoji" font-size="20" style="white-space:pre" text-anchor="middle" transform="translate(324.18 205)">InternalProxyManager</text><text x="115.82" y="42.62" class="fill-neutral-900 dark:fill-neutral-50" dominant-baseline="alphabetic" font-family="Excalifont, Xiaolai, sans-serif, Segoe UI Emoji" font-size="20" style="white-space:pre" text-anchor="middle" transform="translate(324.18 205)">(BrowserUp, in-process)</text><path fill="none" class="stroke-neutral-900 dark:stroke-neutral-50" stroke-linecap="round" stroke-width="2" d="M642 150c68.9-1.53 138.76-1.8 196 0m-196 0c67.61.56 135.03 1.44 196 0m0 0c21.43.94 30.9 10.18 32 32m-32-32c19.84.87 30.84 9.56 32 32m0 0c-2 22.93.37 44.88 0 96m0-96c-1.77 31.55-1.45 63.68 0 96m0 0c.5 21.56-12.37 32.82-32 32m32-32c.34 23.15-11.82 33.77-32 32m0 0c-38.15.27-79.74 1.15-196 0m196 0c-59.74-1.06-118.09-.76-196 0m0 0c-19.82-1.17-32.62-11.81-32-32m32 32c-22.29-1.63-34-10.83-32-32m0 0c1.43-32.5.68-64.26 0-96m0 96c.67-20.79-.65-40.86 0-96m0 0c.18-21.36 10.53-31.66 32-32m-32 32c.37-19.74 10.31-29.84 32-32"/><text x="112.98" y="17.62" class="fill-neutral-900 dark:fill-neutral-50" dominant-baseline="alphabetic" font-family="Excalifont, Xiaolai, sans-serif, Segoe UI Emoji" font-size="20" style="white-space:pre" text-anchor="middle" transform="translate(627.02 205)">MitmproxyManager</text><text x="112.98" y="42.62" class="fill-neutral-900 dark:fill-neutral-50" dominant-baseline="alphabetic" font-family="Excalifont, Xiaolai, sans-serif, Segoe UI Emoji" font-size="20" style="white-space:pre" text-anchor="middle" transform="translate(627.02 205)">(mitmdump, subprocess)</text></svg>