<svg xmlns="http://www.w3.org/2000/svg" viewBox="0 0 1020 130"><defs/><path fill="none" stroke="#f08c00" stroke-linecap="round" stroke-width="2" d="M402.47 10c11.61 1.13 24.76.22 55.06 0m-55.06 0c15.55-.68 30.68.14 55.06 0m0 0c9.27 1.12 13.8 6.08 12.47 12.47M457.53 10c7.23 0 12.14 6.33 12.47 12.47m0 0c.86 5.98-1.07 15.26 0 24.95m0-24.95c.59 9.37-.64 18.32 0 24.95m0 0c.98 8.31-4.9 13.74-12.47 12.48M470 47.42c2.27 6.41-5.1 14.04-12.47 12.48m0 0c-17.51-1.28-37.68-2.24-55.06 0m55.06 0c-22.22.99-43.02.15-55.06 0m0 0c-9.89-.94-13.54-4.4-12.47-12.48m12.47 12.48c-8 .2-14.05-6.01-12.47-12.48m0 0c1.53-6.93 1.72-12.24 0-24.95m0 24.95c.72-9.26-.94-16.95 0-24.95m0 0c1.82-8.5 4.98-13.94 12.47-12.47M390 22.47c.31-10.21 4.23-10.52 12.47-12.47"/><text x="23.01" y="17.62" fill="#f08c00" dominant-baseline="alphabetic" font-family="Excalifont, Xiaolai, sans-serif, Segoe UI Emoji" font-size="20" style="white-space:pre" text-anchor="middle" transform="translate(406.99 22.45)">Work</text><path fill="none" stroke="#f08c00" stroke-linecap="round" stroke-width="2" d="M582.47 10c18.14-.78 35.96.36 55.06 0m-55.06 0c17.53.92 34.99-1.07 55.06 0m0 0c9.04.56 11.95 4.43 12.47 12.47M637.53 10c10.3.98 10.77 6.06 12.47 12.47m0 0c-.52 8.08 1.15 19.91 0 24.95m0-24.95c-.58 8.89-.06 18.23 0 24.95m0 0c1.87 8.7-5.63 11.34-12.47 12.48M650 47.42c1.98 6.47-2.04 12.37-12.47 12.48m0 0c-14.41.16-25.98-.52-55.06 0m55.06 0c-13.49-.95-26.8.6-55.06 0m0 0c-6.61.7-13.41-4.02-12.47-12.48m12.47 12.48c-7.6-1.74-11.92-4.24-12.47-12.48m0 0c-.43-6.11.92-12.81 0-24.95m0 24.95c.31-8.67.78-17.98 0-24.95m0 0c.65-9.14 3.05-10.65 12.47-12.47M570 22.47c1.97-7.36 3.4-11.06 12.47-12.47"/><text x="23.01" y="17.62" fill="#f08c00" dominant-baseline="alphabetic" font-family="Excalifont, Xiaolai, sans-serif, Segoe UI Emoji" font-size="20" style="white-space:pre" text-anchor="middle" transform="translate(586.99 22.45)">Work</text><path fill="none" stroke="#f08c00" stroke-linecap="round" stroke-width="2" d="M222.47 10c11.25-1.62 26.41-.8 55.06 0m-55.06 0c19.56.21 38.18-.25 55.06 0m0 0c7.74 1.24 11.45 2.17 12.47 12.47M277.53 10c10.6-2.04 10.87 3.19 12.47 12.47m0 0c.1 6.41.78 15.86 0 24.95m0-24.95c.46 4.4 0 10.92 0 24.95m0 0c1.34 6.63-3.93 13.76-12.47 12.48M290 47.42c-1.9 8.3-3.65 11.51-12.47 12.48m0 0c-20.93-1.56-39.08-1.49-55.06 0m55.06 0c-19.6-1-40.27.32-55.06 0m0 0c-7.6-1.51-12.81-5.11-12.47-12.48m12.47 12.48c-10.25-.45-10.6-3.27-12.47-12.48m0 0c-1.4-10.95 1.46-20.65 0-24.95m0 24.95c-.55-8.23.04-16.34 0-24.95m0 0c.07-8.07 5.03-14.2 12.47-12.47M210 22.47c.47-7.52 5.89-12.12 12.47-12.47"/><text x="23.01" y="17.62" fill="#f08c00" dominant-baseline="alphabetic" font-family="Excalifont, Xiaolai, sans-serif, Segoe UI Emoji" font-size="20" style="white-space:pre" text-anchor="middle" transform="translate(226.99 22.45)">Work</text><path fill="none" stroke="#2f9e44" stroke-linecap="round" stroke-width="2" d="M102.47 10c29.4.44 55.98-.75 75.06 0m-75.06 0c16.77.89 33.59.8 75.06 0m0 0c7.87-1.18 10.53 4.32 12.47 12.47M177.53 10c7.13-.7 14.37 6.16 12.47 12.47m0 0c-.45 9.39.6 18.33 0 24.95m0-24.95c-.19 8.93.87 16.66 0 24.95m0 0c1.18 6.86-5.21 11.32-12.47 12.48M190 47.42c2.04 7.94-2.76 13.61-12.47 12.48m0 0c-26.38-.46-51.9 1.1-75.06 0m75.06 0c-17.13.11-35.35.32-75.06 0m0 0C92.9 57.99 88.28 56.28 90 47.42m12.47 12.48c-6.3.26-10.96-2.49-12.47-12.48m0 0c1.59-6.39.72-12.07 0-24.95m0 24.95c-1.02-5.91.39-12.81 0-24.95m0 0C88.73 12.82 95.94 8.61 102.47 10M90 22.47c.02-7.78 2.49-14.19 12.47-12.47"/><text x="36.69" y="17.62" class="fill-lime-600" dominant-baseline="alphabetic" font-family="Excalifont, Xiaolai, sans-serif, Segoe UI Emoji" font-size="20" style="white-space:pre" text-anchor="middle" transform="translate(103.31 22.45)">Prepare</text><path fill="none" stroke="#6741d9" stroke-linecap="round" stroke-width="2" d="M682.47 10c24.31-.78 46.65-.96 95.06 0m-95.06 0c29.31-.29 59.91.02 95.06 0m0 0c8.87-1.2 13.44 5.65 12.47 12.47M777.53 10c9.63-.08 13.49 3.71 12.47 12.47m0 0c1.49 7.7-.62 18.12 0 24.95m0-24.95c.62 6.1 1.06 12.76 0 24.95m0 0c-.05 7.79-4.82 13.21-12.47 12.48M790 47.42c-.62 7.89-6.23 13.05-12.47 12.48m0 0c-26.58 1.56-48.75-1.88-95.06 0m95.06 0c-27.77 1.02-53.95 1.03-95.06 0m0 0c-7.36-1.16-14.04-3.73-12.47-12.48m12.47 12.48c-10.08 1.14-10.87-2.62-12.47-12.48m0 0c-1.54-5.09 2.08-9.76 0-24.95m0 24.95c.6-7.83.58-16.69 0-24.95m0 0c-.93-10.21 4.03-11.37 12.47-12.47M670 22.47c-2.27-6.32 5.01-13.73 12.47-12.47"/><text x="44.78" y="17.62" fill="#6741d9" dominant-baseline="alphabetic" font-family="Excalifont, Xiaolai, sans-serif, Segoe UI Emoji" font-size="20" style="white-space:pre" text-anchor="middle" transform="translate(685.22 22.45)">Cooldown</text><path fill="none" stroke-linecap="round" stroke-width="2" d="M822.47 10c15.06-1.94 29.64.77 55.06 0m-55.06 0c13.83.18 26.23.21 55.06 0m0 0c9.13 1.7 13.8 4.63 12.47 12.47M877.53 10c6.8-.99 12.44 4.64 12.47 12.47m0 0c-.77 6.55.14 15.9 0 24.95m0-24.95c-.33 7.14.11 12.78 0 24.95m0 0c.36 6.91-4.91 14.08-12.47 12.48M890 47.42c1.21 6.96-4.25 11.07-12.47 12.48m0 0c-14.19-1.29-27.91.07-55.06 0m55.06 0c-21.11.09-42.01-.58-55.06 0m0 0c-8.22 1.95-12.96-3.71-12.47-12.48m12.47 12.48c-8.6-.15-14.26-3.86-12.47-12.48m0 0c-1.16-6.42-.64-13.12 0-24.95m0 24.95c.6-6.57.83-12.07 0-24.95m0 0c1.89-8.18 3.25-12.83 12.47-12.47M810 22.47c-1.13-6.98 3.17-10.4 12.47-12.47" class="stroke-neutral-900 dark:stroke-neutral-50"/><text x="24.43" y="17.62" class="fill-neutral-900 dark:fill-neutral-50" dominant-baseline="alphabetic" font-family="Excalifont, Xiaolai, sans-serif, Segoe UI Emoji" font-size="20" style="white-space:pre" text-anchor="middle" transform="translate(825.57 22.45)">Done</text><path fill="none" stroke="#1971c2" stroke-linecap="round" stroke-width="2" d="M322.47 10c9.19-.98 14.42.2 35.06 0m-35.06 0c8.67-.91 16.68.3 35.06 0m0 0c9.82.31 11.35 2.38 12.47 12.47M357.53 10c10.39-.98 13.29 2.81 12.47 12.47m0 0c.73 8.11-.02 20.32 0 24.95m0-24.95c-.46 5.71-.28 12.76 0 24.95m0 0c.13 6.85-3.55 12.91-12.47 12.48M370 47.42c-.96 7.32-3.77 10.56-12.47 12.48m0 0c-14.82-1.57-24.64.14-35.06 0m35.06 0c-11.58.06-22.09-.21-35.06 0m0 0c-7.14-.23-14.08-3.26-12.47-12.48m12.47 12.48c-6.68-2.23-14.17-4.92-12.47-12.48m0 0c.81-7.11-2-11.77 0-24.95m0 24.95c.23-8.14-.18-14.07 0-24.95m0 0c-1.23-9.2 3.09-12.82 12.47-12.47M310 22.47c1.98-7.03 5.01-12.16 12.47-12.47"/><text x="23.69" y="17.62" class="fill-blue-600" dominant-baseline="alphabetic" font-family="Excalifont, Xiaolai, sans-serif, Segoe UI Emoji" font-size="20" style="white-space:pre" text-anchor="middle" transform="translate(316.31 22.45)">Rest</text><path fill="none" stroke="#1971c2" stroke-linecap="round" stroke-width="2" d="M502.47 10c8.19.46 13.56 1.67 35.06 0m-35.06 0c7.32.34 16.24-.93 35.06 0m0 0c6.5 1.77 12.12 5.46 12.47 12.47M537.53 10c9.6-.12 14.49 4.88 12.47 12.47m0 0c1.61 9.16-.65 19.94 0 24.95m0-24.95c-.08 8.2.95 16.15 0 24.95m0 0c.78 6.91-3.7 12.4-12.47 12.48M550 47.42c.87 9.12-3.54 12.88-12.47 12.48m0 0c-10.38.63-21.18 1.44-35.06 0m35.06 0c-13.75.34-26.41-.14-35.06 0m0 0c-8.05-.15-10.48-4.59-12.47-12.48m12.47 12.48c-10.6.84-11.83-4.76-12.47-12.48m0 0c-1.69-6.17 1.22-15.32 0-24.95m0 24.95c.62-9.24.87-19.33 0-24.95m0 0c-2-9.73 2.96-12.83 12.47-12.47M490 22.47c-1.7-6.16 4.6-14.17 12.47-12.47"/><text x="23.69" y="17.62" class="fill-blue-600" dominant-baseline="alphabetic" font-family="Excalifont, Xiaolai, sans-serif, Segoe UI Emoji" font-size="20" style="white-space:pre" text-anchor="middle" transform="translate(496.31 22.45)">Rest</text><text y="17.62" class="fill-neutral-900 dark:fill-neutral-50" dominant-baseline="alphabetic" font-family="Excalifont, Xiaolai, sans-serif, Segoe UI Emoji" font-size="20" style="white-space:pre" transform="translate(930 70)">Time</text><g stroke-linecap="round"><path fill="none" stroke-dasharray="8 10" stroke-width="2.5" d="M10 70.3c225.19-.42 449.1-.57 1000-.3" class="stroke-neutral-900 dark:stroke-neutral-50"/><path fill="none" stroke-width="2.5" d="M986.5 78.54c7.24-2.92 11.25-5.04 23.5-8.54M986.51 61.44c7.14.92 11.15 2.63 23.49 8.56" class="stroke-neutral-900 dark:stroke-neutral-50"/></g><path fill="none" stroke-linecap="round" stroke-width="2" d="M217.5 90c30.2 1.44 63.55 1.62 145 0m-145 0c28.65.99 58.23.47 145 0m0 0c3.15-.25 5.89 4.27 7.5 7.5m-7.5-7.5c4.77 1.16 6.04 3.84 7.5 7.5m0 0c-.86 4.73-1.35 11.11 0 15m0-15c.29 4.7-.38 9.37 0 15m0 0c-.12 5.94-2.17 8.46-7.5 7.5m7.5-7.5c-.63 4.56-1.96 7.3-7.5 7.5m0 0c-56.09-2.84-110.55-.42-145 0m145 0c-54.41.46-109.03.6-145 0m0 0c-3.31.03-7.51-2.36-7.5-7.5m7.5 7.5c-2.79 1.78-8.46-3.94-7.5-7.5m0 0c1.37-3.66-1.34-8.6 0-15m0 15c-.26-2.94.13-6.03 0-15m0 0c-.59-6.97 3-8.93 7.5-7.5m-7.5 7.5c-.57-4.51.44-9.71 7.5-7.5" class="stroke-neutral-900 dark:stroke-neutral-50"/><text x="30.736" y="14.096" class="fill-neutral-900 dark:fill-neutral-50" dominant-baseline="alphabetic" font-family="Excalifont, Xiaolai, sans-serif, Segoe UI Emoji" font-size="16" style="white-space:pre" text-anchor="middle" transform="translate(259.264 95)">Round 1</text><path fill="none" stroke-linecap="round" stroke-width="2" d="M397.5 90c33.36.28 65.51-1.07 145 0m-145 0c47.75-1.98 92.86-1.85 145 0m0 0c3.07.88 9.04 4.02 7.5 7.5m-7.5-7.5c4.56.54 9.19 3.09 7.5 7.5m0 0c.12 5.92 1.57 12.79 0 15m0-15c.15 3.86.61 7.87 0 15m0 0c-1.72 3.95-4.35 8.22-7.5 7.5m7.5-7.5c1.97 4.36-1.98 8.07-7.5 7.5m0 0c-46.71-2.86-94.91-1-145 0m145 0c-29.8-.75-61.31-.59-145 0m0 0c-5.61.26-5.69-3-7.5-7.5m7.5 7.5c-4.3-1.1-5.21-1.95-7.5-7.5m0 0c.87-4.1 1-8.72 0-15m0 15c-.08-3.45-.44-6.27 0-15m0 0c1.6-5.81 3.58-6.19 7.5-7.5m-7.5 7.5c1.58-3.1 2.23-7.9 7.5-7.5" class="stroke-neutral-900 dark:stroke-neutral-50"/><text x="32.92" y="14.096" class="fill-neutral-900 dark:fill-neutral-50" dominant-baseline="alphabetic" font-family="Excalifont, Xiaolai, sans-serif, Segoe UI Emoji" font-size="16" style="white-space:pre" text-anchor="middle" transform="translate(437.08 95)">Round 2</text><path fill="none" stroke-linecap="round" stroke-width="2" d="M577.5 90c22.28.68 44.16-.41 65 0m-65 0c12.86.68 25.32-.5 65 0m0 0c4.08 1.49 7.34 2.05 7.5 7.5m-7.5-7.5c5.19-.7 7.8 4.58 7.5 7.5m0 0c1.54 4.48-.01 8.57 0 15m0-15c.61 4.24-.48 8.93 0 15m0 0c-.48 5.12-2.76 6.66-7.5 7.5m7.5-7.5c1.33 6.84-3.43 8.74-7.5 7.5m0 0c-23.98.19-49.04-.8-65 0m65 0c-18.83-1.42-37.55-.56-65 0m0 0c-5.05.57-8.36-4.25-7.5-7.5m7.5 7.5c-4.17.08-6.39-1.49-7.5-7.5m0 0c-1-3.83-.7-9.58 0-15m0 15c.16-4.28-.4-9.93 0-15m0 0c-.37-6.78 4.49-8.43 7.5-7.5m-7.5 7.5c1.59-4.96 3.15-5.72 7.5-7.5" class="stroke-neutral-900 dark:stroke-neutral-50"/><text x="32.184" y="14.096" class="fill-neutral-900 dark:fill-neutral-50" dominant-baseline="alphabetic" font-family="Excalifont, Xiaolai, sans-serif, Segoe UI Emoji" font-size="16" style="white-space:pre" text-anchor="middle" transform="translate(577.816 95)">Round 3</text></svg>