<svg xmlns="http://www.w3.org/2000/svg" viewBox="0 0 780 402.398"><defs/><path fill="none" stroke="#2f9e44" stroke-linecap="round" stroke-width="2" d="M27.47 102.5c24.48.17 44.99-.08 105.06 0m-105.06 0c27.19-.13 54.71-.88 105.06 0m0 0c13.56.58 16.7 4.84 17.47 17.47m-17.47-17.47c10.63-1.06 15.38 4.04 17.47 17.47m0 0c.27 7.78-1.1 16.21 0 34.95m0-34.95c-.24 10.3-.53 20.88 0 34.95m0 0c-.8 12.78-5.61 19.15-17.47 17.48M150 154.92c.83 10.03-7.32 15.5-17.47 17.48m0 0c-24.15 2.16-47.13 1.54-105.06 0m105.06 0c-38.53-.39-76.13-.46-105.06 0m0 0c-12.01 1.37-16.35-6.6-17.47-17.48m17.47 17.48c-9.37 2.24-18.43-4.65-17.47-17.48m0 0c.17-12.75-1.02-23.6 0-34.95m0 34.95c-.09-8.16.65-16.42 0-34.95m0 0c-1.94-13.61 4.43-17.31 17.47-17.47M10 119.97c-.88-9.92 7.55-18.62 17.47-17.47"/><text x="36.69" y="17.62" class="fill-lime-600" dominant-baseline="alphabetic" font-family="Excalifont, Xiaolai, sans-serif, Segoe UI Emoji" font-size="20" style="white-space:pre" text-anchor="middle" transform="translate(43.31 124.95)">Prepare</text><path fill="none" stroke="#f08c00" stroke-linecap="round" stroke-width="2" d="M307.47 102.5c34.1-1.66 68.72.5 105.06 0m-105.06 0c25.99-.1 51.2-.7 105.06 0m0 0c11.85.66 16.32 5.34 17.47 17.47m-17.47-17.47c12.34-.15 17.74 5 17.47 17.47m0 0c.06 7.86 1.26 15.82 0 34.95m0-34.95c.75 10.93-.11 21.07 0 34.95m0 0c1.35 10.16-7.12 16.75-17.47 17.48M430 154.92c-.6 10.39-6.07 17.12-17.47 17.48m0 0c-19.82-2.04-45.23-2.84-105.06 0m105.06 0c-33 .22-67.59 1.27-105.06 0m0 0c-11.18-1.84-19.03-4.92-17.47-17.48m17.47 17.48c-12.69 1.88-15.74-6.15-17.47-17.48m0 0c-1.05-11.34-.97-20.45 0-34.95m0 34.95c-.75-12.72-.63-23.69 0-34.95m0 0c.81-9.68 4.93-18.96 17.47-17.47M290 119.97c.2-13.92 5.45-15.94 17.47-17.47"/><text x="23.01" y="17.62" fill="#f08c00" dominant-baseline="alphabetic" font-family="Excalifont, Xiaolai, sans-serif, Segoe UI Emoji" font-size="20" style="white-space:pre" text-anchor="middle" transform="translate(336.99 124.95)">Work</text><path fill="none" stroke="#6741d9" stroke-linecap="round" stroke-width="2" d="M307.47 322.5c41.87 1.29 80.7-.76 105.06 0m-105.06 0c25.8.87 51.23.46 105.06 0m0 0c10.05 1.27 18.89 7.82 17.47 17.47m-17.47-17.47c9.98-2.29 17.22 6.03 17.47 17.47m0 0c.16 13.42.76 27.99 0 34.95m0-34.95c-.6 7.4-.1 16.62 0 34.95m0 0c-.2 10.33-4.33 18.45-17.47 17.48M430 374.92c1.73 9.83-5.24 15.27-17.47 17.48m0 0c-28.04-.29-53.93-.21-105.06 0m105.06 0c-21.68 1.66-45.18 1.63-105.06 0m0 0c-11.31-1.61-15.73-4.64-17.47-17.48m17.47 17.48c-10.07 1.77-18.58-5.4-17.47-17.48m0 0c-.29-9.69-.09-18.94 0-34.95m0 34.95c1.25-10.47.45-18.97 0-34.95m0 0c-1.33-13.48 4.37-19.41 17.47-17.47M290 339.97c.5-13.52 5.37-18.03 17.47-17.47"/><text x="44.78" y="17.62" fill="#6741d9" dominant-baseline="alphabetic" font-family="Excalifont, Xiaolai, sans-serif, Segoe UI Emoji" font-size="20" style="white-space:pre" text-anchor="middle" transform="translate(315.22 344.95)">Cooldown</text><path fill="none" stroke-linecap="round" stroke-width="2" d="M647.47 322.5c32.19-1 67 1.17 105.06 0m-105.06 0c31.2-1.87 61.35-1.3 105.06 0m0 0c9.94-1.79 17.58 7.69 17.47 17.47m-17.47-17.47c9.42 1.11 19.76 7.13 17.47 17.47m0 0c1.21 11.63 1.72 24.81 0 34.95m0-34.95c-.82 7.91-1 14.62 0 34.95m0 0c.65 9.77-6.87 19.25-17.47 17.48M770 374.92c1.4 13.91-5.58 17.83-17.47 17.48m0 0c-38.29 2.63-78.05 1.67-105.06 0m105.06 0c-23.94.63-48.87-.48-105.06 0m0 0c-13.41-1.17-17.87-4.36-17.47-17.48m17.47 17.48c-12.56 1.82-16.11-7.71-17.47-17.48m0 0c1.56-9.55.4-18.41 0-34.95m0 34.95c-.21-8.29.82-15.85 0-34.95m0 0c1.9-11.87 6.69-17.63 17.47-17.47M630 339.97c-1.17-11.63 5.93-18.97 17.47-17.47" class="stroke-neutral-900 dark:stroke-neutral-50"/><text x="24.43" y="17.62" class="fill-neutral-900 dark:fill-neutral-50" dominant-baseline="alphabetic" font-family="Excalifont, Xiaolai, sans-serif, Segoe UI Emoji" font-size="20" style="white-space:pre" text-anchor="middle" transform="translate(675.57 344.95)">Done</text><path fill="none" stroke="#1971c2" stroke-linecap="round" stroke-width="2" d="M647.47 102.5c33.08-.16 64.4.24 105.06 0m-105.06 0c26.43-.22 54.38-1.11 105.06 0m0 0c10.04.24 17.74 6.48 17.47 17.47m-17.47-17.47c11.47-1.95 16.44 7.36 17.47 17.47m0 0c1.75 6.69-.57 18.61 0 34.95m0-34.95c-.17 12.73-.27 26.69 0 34.95m0 0c.73 11.9-4.7 19.43-17.47 17.48M770 154.92c-1.79 13.14-6.83 15.2-17.47 17.48m0 0c-36.85-.7-79.48 1-105.06 0m105.06 0c-34-.91-66.52-.07-105.06 0m0 0c-13.45.56-18.65-6.69-17.47-17.48m17.47 17.48c-10.62 1.3-16.36-7.85-17.47-17.48m0 0c1.36-10.65-1.83-23.41 0-34.95m0 34.95c.07-7.83-.02-15.28 0-34.95m0 0c-1.55-10.11 6.76-17.28 17.47-17.47M630 119.97c.7-9.88 7.82-15.63 17.47-17.47"/><text x="23.69" y="17.62" class="fill-blue-600" dominant-baseline="alphabetic" font-family="Excalifont, Xiaolai, sans-serif, Segoe UI Emoji" font-size="20" style="white-space:pre" text-anchor="middle" transform="translate(676.31 124.95)">Rest</text><g stroke-linecap="round"><path fill="none" stroke-width="2" d="M155.65 136.726c21.51.16 106.91.27 128.27.53m-126.26 1.71c21.46.43 104.4.16 125.26-.27" class="stroke-neutral-900 dark:stroke-neutral-50"/><path fill="none" stroke-width="2" d="M259.52 147.486c3.56-1.83 9.13-3.86 23.4-8.79m-23.4 8.79c7.83-3.45 17.66-7.32 23.4-8.79M259.34 130.386c3.44 1.59 9.04 2.99 23.58 8.31m-23.58-8.31c8.03 2.89 17.92 5.34 23.58 8.31" class="stroke-neutral-900 dark:stroke-neutral-50"/></g><g stroke-linecap="round" mask="url(#mask-l5hdclDqRew0RTtaFcAYU)"><path fill="none" stroke-width="2" d="M435.36 136.956c31.51.14 157.46.31 189.05.29m-187.18-1.6c31.44.42 155.22 2.66 186.45 3.02M600.06 146.856c5.04-1.2 11.33-2.38 23.62-8.19m-23.62 8.19c6.19-1.28 11.26-4.78 23.62-8.19" class="stroke-neutral-900 dark:stroke-neutral-50"/><path fill="none" stroke-width="2" d="M600.32 129.756c4.82 3 11.05 6.02 23.36 8.91m-23.36-8.91c6.29 2.95 11.29 3.67 23.36 8.91" class="stroke-neutral-900 dark:stroke-neutral-50"/></g><mask id="mask-l5hdclDqRew0RTtaFcAYU"><path fill="#fff" d="M0 0h724v237.456H0z"/><path d="M511.03 112.456h37.94v50h-37.94z"/></mask><text x="18.97" y="17.62" class="fill-neutral-900 dark:fill-neutral-50" dominant-baseline="alphabetic" font-family="Excalifont, Xiaolai, sans-serif, Segoe UI Emoji" font-size="20" style="white-space:pre" text-anchor="middle" transform="translate(511.03 112.456)">not</text><text x="18.97" y="42.62" class="fill-neutral-900 dark:fill-neutral-50" dominant-baseline="alphabetic" font-family="Excalifont, Xiaolai, sans-serif, Segoe UI Emoji" font-size="20" style="white-space:pre" text-anchor="middle" transform="translate(511.03 112.456)">last</text><g stroke-linecap="round" mask="url(#mask-KVzJks7t2D1c6tLEPl-O7)"><path fill="none" stroke-width="2" d="M710 96.5c1.34-17.2 2.03-32.25 0-58m0 58c-.78-14.55.4-27.8 0-58m0 0c-.45-9.01-6.54-17.2-16-16m16 16c-1.37-8.46-4.88-15.93-16-16m0 0c-114.26-1.74-229.04-2.14-328 0m328 0c-112.68-.79-223.95-.26-328 0m0 0c-8.77.11-14.21 3.97-16 16m16-16c-11.13 1.21-15.06 3.75-16 16m0 0c.04 18.46-1.75 38.05 0 58m0-58c.51 21.52-.76 44.04 0 58M341.06 73.15c3.53 5.44 6.69 12.96 8.94 23.35m-8.94-23.35c1.85 4.63 5.14 10.52 8.94 23.35M358.16 72.87c-1.22 5.38-2.8 12.98-8.16 23.63m8.16-23.63c-2.17 4.61-2.9 10.56-8.16 23.63" class="stroke-neutral-900 dark:stroke-neutral-50"/></g><mask id="mask-KVzJks7t2D1c6tLEPl-O7"><path fill="#fff" d="M0 0h1170v270.5H0z"/><path d="M485.32 10h89.36v25h-89.36z"/></mask><text x="44.68" y="17.62" class="fill-neutral-900 dark:fill-neutral-50" dominant-baseline="alphabetic" font-family="Excalifont, Xiaolai, sans-serif, Segoe UI Emoji" font-size="20" style="white-space:pre" text-anchor="middle" transform="translate(485.32 10)">round + 1</text><g stroke-linecap="round" mask="url(#mask-A5XkxbwD_B8e76MFHTPhg)"><path fill="none" stroke-width="2" d="M350 178.398c0 38.59-.26 71.64 0 138.1m0-138.1c-.11 40.99-.65 80.96 0 138.1M341.3 293.068c2.88 8.11 4.94 10.71 8.7 23.43m-8.7-23.43c3.01 7.08 5.04 13.21 8.7 23.43M358.4 292.948c-1.66 8.22-4.14 10.85-8.4 23.55m8.4-23.55c-2.04 7.26-5.06 13.43-8.4 23.55" class="stroke-neutral-900 dark:stroke-neutral-50"/></g><mask id="mask-A5XkxbwD_B8e76MFHTPhg"><path fill="#fff" d="M0 0h450v416.5H0z"/><path d="M300.12 234.949h99.76v25h-99.76z"/></mask><text x="49.88" y="17.62" class="fill-neutral-900 dark:fill-neutral-50" dominant-baseline="alphabetic" font-family="Excalifont, Xiaolai, sans-serif, Segoe UI Emoji" font-size="20" style="white-space:pre" text-anchor="middle" transform="translate(300.12 234.95)">last round</text><g stroke-linecap="round"><path fill="none" stroke-width="2" d="M436 362.5c40.08-.62 82.5-.29 188 0m-188 0c71.85-1.32 143.6.22 188 0M600.48 370.97c4.76-2.79 11.8-4.29 23.52-8.47m-23.52 8.47c8.91-3.94 17.71-5.65 23.52-8.47M600.54 353.87c4.6.89 11.62 3.07 23.46 8.63m-23.46-8.63c8.89 2.6 17.67 7.44 23.46 8.63" class="stroke-neutral-900 dark:stroke-neutral-50"/></g></svg>