<svg xmlns="http://www.w3.org/2000/svg" viewBox="0 0 540 409"><defs/><path fill="none" class="stroke-neutral-900 dark:stroke-neutral-50" stroke-linecap="round" stroke-width="2" d="M186.41 110.42c3.94-1.26 9.74.17 13.42 2.75 3.69 2.57 7.25 7.69 8.68 12.69 1.44 5 1.39 12.3-.05 17.31-1.44 5.01-4.85 10.14-8.57 12.74-3.73 2.61-9.55 3.81-13.79 2.89-4.24-.92-9.01-4.41-11.66-8.39-2.64-3.98-4.3-10.15-4.2-15.47.11-5.32 2.05-12.41 4.83-16.44 2.78-4.03 9.76-6.4 11.88-7.76 2.11-1.35.76-.75.79-.39m2.5-.59c4.15-.3 9.89 2.63 13.24 6.15 3.36 3.52 6.17 9.88 6.89 14.99.71 5.1-.26 11.23-2.61 15.64-2.36 4.41-7.36 8.91-11.54 10.81-4.18 1.9-9.55 2.38-13.56.59s-8.35-6.61-10.52-11.32c-2.17-4.7-3.47-11.79-2.51-16.92.96-5.14 4.91-10.71 8.25-13.88 3.34-3.16 9.72-4.1 11.79-5.1 2.06-1 .55-1.16.59-.91"/><text x="7.8" y="17.62" class="fill-neutral-900 dark:fill-neutral-50" dominant-baseline="alphabetic" font-family="Excalifont, Xiaolai, Segoe UI Emoji" font-size="20" style="white-space:pre" text-anchor="middle" transform="translate(182.058 122.176)">G</text><path fill="none" class="stroke-neutral-900 dark:stroke-neutral-50" stroke-linecap="round" stroke-width="2" d="M188.02 9.97c3.98-.77 9.89 1.41 13.39 4.49 3.51 3.08 6.57 8.97 7.63 13.97 1.06 5 .5 11.27-1.27 16.02-1.77 4.76-5.48 10.29-9.34 12.49-3.86 2.21-9.7 2.18-13.81.74-4.1-1.44-8.44-5.18-10.82-9.38-2.39-4.21-3.88-10.73-3.48-15.85.4-5.13 2.74-11.17 5.88-14.88 3.13-3.72 10.71-6.26 12.94-7.41 2.23-1.14.41.16.43.52m-3.53-.18c4.03-1.61 9.7-.82 13.37 1.54 3.67 2.37 6.99 7.56 8.65 12.64 1.67 5.08 2.47 12.74 1.33 17.84-1.14 5.1-4.56 10.15-8.16 12.77-3.6 2.61-9.01 3.7-13.44 2.93-4.43-.78-10.19-3.79-13.12-7.59-2.93-3.79-4.29-9.94-4.44-15.19-.16-5.26.87-12.09 3.51-16.33 2.65-4.24 10.23-7.64 12.34-9.11 2.11-1.47.41-.3.33.31"/><text x="7.83" y="17.62" class="fill-neutral-900 dark:fill-neutral-50" dominant-baseline="alphabetic" font-family="Excalifont, Xiaolai, Segoe UI Emoji" font-size="20" style="white-space:pre" text-anchor="middle" transform="translate(182.028 22.176)">#</text><path fill="none" class="stroke-neutral-900 dark:stroke-neutral-50" stroke-linecap="round" stroke-width="2" d="M67.35 169.75c4.09-.84 10.49 1.1 14.08 4.1 3.59 2.99 6.35 8.77 7.45 13.87 1.1 5.1.8 12.01-.83 16.73-1.63 4.73-5.22 9.31-8.95 11.62-3.73 2.31-9.2 3.35-13.43 2.24-4.23-1.11-9.41-4.62-11.96-8.89-2.55-4.27-3.62-11.42-3.33-16.71.29-5.3 2.18-11.35 5.05-15.07 2.88-3.72 10.07-6.03 12.22-7.23 2.15-1.19.56-.36.68.07m-2.39-.57c3.98-1.24 9.79.45 13.64 3.14 3.85 2.7 7.93 8.23 9.49 13.04 1.56 4.82 1.22 10.9-.15 15.84-1.37 4.95-4.34 11.14-8.06 13.83-3.73 2.68-10 3.11-14.3 2.26-4.31-.85-8.66-3.63-11.53-7.37-2.87-3.75-5.63-9.78-5.7-15.08-.06-5.31 2.65-12.48 5.32-16.76 2.68-4.28 8.79-7.74 10.71-8.93 1.92-1.19.64 1.35.83 1.79"/><text x="7.3" y="17.62" class="fill-neutral-900 dark:fill-neutral-50" dominant-baseline="alphabetic" font-family="Excalifont, Xiaolai, Segoe UI Emoji" font-size="20" style="white-space:pre" text-anchor="middle" transform="translate(62.558 182.176)">U</text><g stroke-linecap="round"><path class="fill-yellow-200 dark:fill-yellow-700" stroke-width="0" d="M93.25 250.3c4.07.55 9.65 4.77 12.43 8.71 2.79 3.95 4.33 9.72 4.29 14.93-.05 5.22-1.76 12.21-4.54 16.36-2.79 4.15-8 7.68-12.19 8.55-4.19.86-9.32-.76-12.94-3.35-3.62-2.6-7.19-7.28-8.78-12.23-1.59-4.95-2.14-12.54-.78-17.46 1.37-4.93 5.03-9.48 8.95-12.09 3.92-2.61 12.19-3.11 14.57-3.58 2.37-.47-.1.37-.32.77M92 249.49c4.02.1 9.32 4.14 12.31 7.99 2.99 3.85 5.34 9.85 5.65 15.09.3 5.24-1.29 12.06-3.82 16.32-2.54 4.27-7.34 7.83-11.4 9.25-4.06 1.41-9.2 1.42-12.97-.74-3.77-2.17-7.9-7.4-9.65-12.25s-1.97-11.81-.85-16.85c1.11-5.05 4.19-10.42 7.53-13.43 3.35-3.02 10.36-3.9 12.55-4.64 2.18-.74.63-.1.56.21"/><path fill="none" class="stroke-neutral-900 dark:stroke-neutral-50" stroke-width="2" d="M92.77 250.18c4.03.44 8.82 4.26 11.72 8.06 2.9 3.8 5.45 9.61 5.68 14.72.24 5.12-1.59 11.7-4.27 15.96-2.68 4.26-7.57 8.31-11.79 9.59-4.22 1.28-9.81.57-13.54-1.92-3.73-2.49-7.18-8.1-8.83-13.01-1.64-4.91-2.24-11.44-1.05-16.43 1.2-5 4.57-10.77 8.24-13.54 3.66-2.76 11.3-2.54 13.76-3.06 2.46-.51.95-.36.97-.03m-.42-.1c3.97.54 8.21 4.01 10.96 7.87 2.76 3.85 5.33 9.94 5.56 15.25.24 5.31-1.58 12.32-4.14 16.58-2.55 4.27-7.01 7.93-11.19 9.02-4.18 1.08-10.18.04-13.9-2.49-3.71-2.53-6.81-7.73-8.4-12.71-1.59-4.98-2.39-12.17-1.14-17.16 1.24-4.98 5.06-10.08 8.63-12.75 3.56-2.67 10.55-2.73 12.77-3.27 2.22-.55.45-.41.55 0"/></g><text x="6.32" y="17.62" class="fill-neutral-900 dark:fill-neutral-50" dominant-baseline="alphabetic" font-family="Excalifont, Xiaolai, Segoe UI Emoji" font-size="20" style="white-space:pre" text-anchor="middle" transform="translate(83.538 262.176)">N</text><g stroke-linecap="round"><path class="fill-yellow-200 dark:fill-yellow-700" stroke-width="0" d="M32.72 250.13c3.99.44 9.19 3.8 12 7.79 2.82 3.99 4.72 10.91 4.89 16.15.17 5.23-1.25 11.22-3.84 15.26-2.59 4.04-7.54 7.86-11.7 8.97-4.17 1.1-9.43.08-13.29-2.34-3.85-2.42-8.25-7.23-9.86-12.17-1.61-4.94-1.23-12.43.21-17.48 1.45-5.05 4.76-10.15 8.46-12.82 3.7-2.67 11.3-2.8 13.74-3.19 2.44-.38.86.49.9.9m-.56-.85c3.96.61 9.3 4.8 11.95 8.96 2.64 4.15 3.96 10.77 3.92 15.96-.05 5.2-1.57 11.21-4.21 15.2-2.65 3.99-7.38 7.96-11.67 8.74-4.29.77-10.41-1.44-14.08-4.1-3.67-2.66-6.61-6.98-7.94-11.87-1.34-4.89-1.49-12.59-.08-17.49 1.42-4.9 4.77-9.36 8.56-11.92 3.79-2.56 12.01-2.98 14.16-3.46 2.15-.48-1.13.24-1.24.55"/><path fill="none" class="stroke-neutral-900 dark:stroke-neutral-50" stroke-width="2" d="M27.82 250.54c4.1-.79 10.17.78 13.67 3.65s6.2 8.48 7.34 13.56c1.14 5.09 1.26 12.16-.5 16.94-1.75 4.79-6.22 9.5-10.03 11.75-3.8 2.25-8.73 3.05-12.78 1.75-4.04-1.3-8.9-5.27-11.48-9.52-2.57-4.26-4.18-10.92-3.95-16.03.23-5.11 2.18-10.91 5.35-14.64 3.18-3.73 11.06-6.46 13.7-7.74 2.65-1.29 2.1-.35 2.18.02m3.54 1.09c3.93.92 8.81 4.88 11.22 8.87 2.42 4 3.43 9.97 3.28 15.11-.15 5.14-1.38 11.82-4.17 15.74-2.8 3.93-8.17 7.17-12.61 7.83-4.43.65-10.45-1.05-14-3.91-3.56-2.86-6.07-8.28-7.33-13.23-1.26-4.94-1.86-11.54-.26-16.44 1.61-4.89 5.89-10.53 9.91-12.93 4.02-2.4 12.03-1.26 14.2-1.49 2.17-.23-.91-.14-1.18.13"/></g><text x="7.66" y="17.62" class="fill-neutral-900 dark:fill-neutral-50" dominant-baseline="alphabetic" font-family="Excalifont, Xiaolai, Segoe UI Emoji" font-size="20" style="white-space:pre" text-anchor="middle" transform="translate(22.198 262.176)">M</text><path fill="none" class="stroke-neutral-900 dark:stroke-neutral-50" stroke-linecap="round" stroke-width="2" d="M294.37 170.56c3.94.93 9.15 5.27 11.67 9.55 2.53 4.28 3.77 10.81 3.48 16.12-.3 5.31-2.37 12.01-5.24 15.73-2.88 3.72-7.77 6.13-12.01 6.58-4.25.46-9.93-.93-13.47-3.86-3.54-2.93-6.66-8.76-7.78-13.71-1.12-4.95-.69-11.18 1.06-16 1.75-4.81 5.62-10.54 9.44-12.9 3.82-2.36 11.09-1.06 13.46-1.24 2.38-.18.78-.24.78.17m-1.45-1.03c3.99.79 9.47 5.99 12.2 10.25 2.72 4.26 4.45 10.13 4.14 15.3-.3 5.16-2.98 11.9-5.97 15.68-2.98 3.77-7.7 6.26-11.93 6.98-4.22.72-9.76.09-13.41-2.65-3.65-2.73-7.1-8.62-8.47-13.76-1.37-5.13-1.39-12.21.26-17.05 1.66-4.84 5.79-9.74 9.68-11.99 3.88-2.25 11.46-1.29 13.63-1.51 2.18-.21-.54-.01-.59.22"/><text x="7.67" y="17.62" class="fill-neutral-900 dark:fill-neutral-50" dominant-baseline="alphabetic" font-family="Excalifont, Xiaolai, Segoe UI Emoji" font-size="20" style="white-space:pre" text-anchor="middle" transform="translate(282.188 182.176)">O</text><path fill="none" class="stroke-neutral-900 dark:stroke-neutral-50" stroke-linecap="round" stroke-width="2" d="M313.83 250.75c4.01.78 9.43 4.84 12.19 8.97 2.75 4.13 4.58 10.58 4.34 15.81-.25 5.24-2.79 11.68-5.8 15.6-3 3.93-8.02 7.17-12.24 7.93-4.21.76-9.4-.49-13.04-3.37-3.64-2.88-7.52-8.9-8.8-13.9-1.28-5.01-.5-11.35 1.14-16.14 1.63-4.8 4.75-10.12 8.66-12.62 3.91-2.51 12.25-2.24 14.8-2.41 2.55-.17.6.98.48 1.37m-1.3-2.26c4.07.65 8.86 5.02 11.41 9.32 2.55 4.3 3.89 11.21 3.89 16.5 0 5.28-1.16 11.4-3.88 15.19-2.73 3.79-8.2 6.65-12.47 7.53-4.26.88-9.44.45-13.14-2.27-3.7-2.72-7.73-9.01-9.06-14.03-1.33-5.01-.59-11.24 1.07-16.07 1.67-4.83 5.18-10.41 8.92-12.9 3.75-2.49 11.38-1.58 13.56-2.03 2.18-.45-.33-1.03-.47-.68"/><text x="7.67" y="17.62" class="fill-neutral-900 dark:fill-neutral-50" dominant-baseline="alphabetic" font-family="Excalifont, Xiaolai, Segoe UI Emoji" font-size="20" style="white-space:pre" text-anchor="middle" transform="translate(302.188 262.176)">O</text><path fill="none" class="stroke-neutral-900 dark:stroke-neutral-50" stroke-linecap="round" stroke-width="2" d="M369.62 249.74c4.17-.42 9.83 2.24 13.19 5.69 3.37 3.45 6.22 9.86 7.02 15.02.81 5.16-.06 11.48-2.16 15.94-2.11 4.45-6.5 8.92-10.47 10.81-3.97 1.88-9.21 2.22-13.34.48-4.13-1.74-9.16-6.37-11.43-10.92-2.28-4.55-2.95-11.26-2.2-16.37.74-5.11 3.31-10.93 6.67-14.28 3.36-3.35 11.25-4.93 13.5-5.81 2.25-.89.01.18 0 .52m2.7-.02c3.95.57 8.81 4.42 11.51 8.28 2.71 3.86 4.62 9.58 4.73 14.88.11 5.31-1.32 12.89-4.07 16.97-2.76 4.08-8.18 6.81-12.44 7.51-4.26.7-9.4-.7-13.11-3.31-3.7-2.61-7.73-7.47-9.11-12.34-1.38-4.87-.71-12.01.86-16.87 1.57-4.86 4.96-9.66 8.55-12.3 3.58-2.64 10.8-2.94 12.96-3.52 2.16-.58-.17-.52-.02.04"/><text x="6.32" y="17.62" class="fill-neutral-900 dark:fill-neutral-50" dominant-baseline="alphabetic" font-family="Excalifont, Xiaolai, Segoe UI Emoji" font-size="20" style="white-space:pre" text-anchor="middle" transform="translate(363.538 262.176)">N</text><path fill="none" class="stroke-neutral-900 dark:stroke-neutral-50" stroke-linecap="round" stroke-width="2" d="M425.8 250.32c3.92-1.18 9.81.5 13.55 3.09 3.74 2.6 7.34 7.72 8.9 12.48 1.55 4.75 1.67 11.04.41 16.05-1.27 5-4.47 11.15-8.01 13.98-3.54 2.82-8.87 3.9-13.23 2.97-4.35-.93-10-4.53-12.9-8.55-2.9-4.02-4.43-10.31-4.5-15.56-.07-5.24 1.21-11.87 4.06-15.9 2.84-4.04 10.55-6.87 12.99-8.28 2.45-1.4 1.67-.44 1.7-.16m-4.12.18c3.8-1.6 9.69-.75 13.7 1.45 4 2.2 8.52 6.93 10.31 11.75 1.79 4.82 1.72 12.07.41 17.17-1.32 5.09-4.83 10.42-8.31 13.41-3.49 2.99-8.39 4.9-12.61 4.52-4.22-.38-9.6-3.12-12.7-6.79-3.1-3.68-5.69-9.88-5.91-15.25-.21-5.38 1.97-12.52 4.6-16.99 2.63-4.46 9.42-8.32 11.2-9.81 1.77-1.48-.57.28-.57.88"/><text x="5.43" y="17.62" class="fill-neutral-900 dark:fill-neutral-50" dominant-baseline="alphabetic" font-family="Excalifont, Xiaolai, Segoe UI Emoji" font-size="20" style="white-space:pre" text-anchor="middle" transform="translate(424.428 262.176)">L</text><g stroke-linecap="round"><path class="fill-yellow-200 dark:fill-yellow-700" stroke-width="0" d="M446.13 350.23c4.05-1.09 10.31.67 14.06 3.39s7.09 8.11 8.44 12.94c1.36 4.83 1.14 11.17-.3 16.02-1.43 4.84-4.65 10.37-8.32 13.04-3.66 2.67-9.52 3.9-13.67 2.97-4.15-.94-8.58-4.57-11.23-8.57-2.66-4.01-4.71-10.29-4.69-15.45.02-5.17 2.08-11.56 4.82-15.52 2.74-3.97 9.57-6.89 11.62-8.29 2.05-1.4.54-.37.67-.1m-.98-.25c4.1-1.25 9.97-.6 13.66 2.07 3.7 2.66 7.05 8.95 8.5 13.92 1.45 4.97 1.71 11.12.21 15.89-1.5 4.77-5.45 9.93-9.23 12.74-3.78 2.81-9.34 4.89-13.46 4.11-4.11-.78-8.62-4.85-11.21-8.81-2.6-3.96-4.29-9.66-4.35-14.98-.07-5.32 1.25-12.7 3.96-16.93s10.4-7.16 12.3-8.44c1.91-1.29-.86.34-.87.74"/><path fill="none" class="stroke-neutral-900 dark:stroke-neutral-50" stroke-width="2" d="M447.18 350.14c4.11-1.1 10.05.38 13.76 3.2 3.71 2.82 7.25 8.66 8.5 13.72 1.25 5.07.72 11.87-1.01 16.66-1.74 4.78-5.63 9.63-9.41 12.05-3.78 2.43-9.21 3.56-13.27 2.51-4.06-1.05-8.38-4.62-11.09-8.79-2.7-4.17-5.25-10.98-5.13-16.23.12-5.25 2.88-11.38 5.84-15.28 2.96-3.9 9.71-6.91 11.9-8.1 2.18-1.19 1.09.46 1.19.97m2.39-.78c4.01-.04 9.81 3.27 13.08 6.84 3.28 3.57 6.14 9.33 6.57 14.6.43 5.27-1.47 12.7-4 17-2.52 4.31-7.17 7.5-11.15 8.84-3.99 1.33-8.84 1.15-12.75-.83-3.92-1.98-8.75-6.48-10.75-11.06-2-4.57-2.16-11.37-1.25-16.38.9-5.01 3.23-10.61 6.69-13.69 3.46-3.07 11.7-3.91 14.07-4.78 2.36-.88.11-.7.13-.46"/></g><text x="6.61" y="17.62" class="fill-neutral-900 dark:fill-neutral-50" dominant-baseline="alphabetic" font-family="Excalifont, Xiaolai, Segoe UI Emoji" font-size="20" style="white-space:pre" text-anchor="middle" transform="translate(443.248 362.176)">F</text><g stroke-linecap="round"><path class="fill-yellow-200 dark:fill-yellow-700" stroke-width="0" d="M392.58 350.33c4.07.25 8.73 3.79 11.68 7.52 2.95 3.72 5.74 9.57 6.01 14.84.27 5.26-1.87 12.55-4.39 16.77-2.51 4.22-6.57 7.45-10.69 8.55-4.12 1.1-10.17.33-14.02-1.93-3.86-2.26-7.46-6.9-9.1-11.64-1.65-4.73-1.97-11.79-.78-16.77s4.42-10.11 7.91-13.11c3.49-2.99 10.73-4.18 13.02-4.85 2.29-.67.6.3.7.83m-5.98.22c4-.91 9.32.33 12.89 3.05 3.58 2.73 7.06 8.42 8.58 13.32 1.53 4.9 2.09 11.36.58 16.07-1.51 4.71-5.86 9.65-9.63 12.19-3.77 2.53-8.7 4.02-12.97 3.02-4.27-1-9.85-4.99-12.65-9-2.8-4.02-4.4-9.91-4.14-15.11.26-5.21 2.71-12.18 5.71-16.12 2.99-3.94 10.41-6.23 12.26-7.52 1.84-1.3-1.17-.54-1.16-.24"/><path fill="none" class="stroke-neutral-900 dark:stroke-neutral-50" stroke-width="2" d="M391.05 349.53c3.97-.2 8.91 3.17 12.08 6.74 3.17 3.57 6.35 9.44 6.94 14.68.58 5.23-1.07 12.24-3.41 16.73s-6.67 8.66-10.63 10.22c-3.97 1.56-9.17 1.14-13.18-.84-4.02-1.98-8.8-6.37-10.93-11.02-2.14-4.65-2.84-11.69-1.9-16.87.94-5.19 3.83-11.14 7.54-14.24 3.7-3.11 12.11-3.76 14.69-4.41 2.57-.65.89.11.76.51m-2.71-1.01c4.03-.17 9.36 2.3 12.65 5.62 3.29 3.31 6.43 8.94 7.09 14.28.65 5.34-1.02 13.21-3.18 17.75-2.15 4.53-5.84 7.91-9.73 9.48-3.88 1.56-9.59 1.66-13.58-.1-3.99-1.77-8.13-5.92-10.35-10.48-2.21-4.55-3.55-11.7-2.95-16.84.61-5.15 3.33-10.84 6.6-14.05 3.26-3.2 10.84-4.2 13-5.18 2.15-.99-.07-1.07-.08-.73"/></g><text x="7.07" y="17.62" class="fill-neutral-900 dark:fill-neutral-50" dominant-baseline="alphabetic" font-family="Excalifont, Xiaolai, Segoe UI Emoji" font-size="20" style="white-space:pre" text-anchor="middle" transform="translate(382.788 362.176)">E</text><g stroke-linecap="round"><path class="fill-yellow-200 dark:fill-yellow-700" stroke-width="0" d="M307.65 350.55c4.15-.84 10.25.36 13.86 3.22 3.61 2.85 6.63 8.81 7.81 13.93 1.18 5.11 1.09 11.97-.75 16.75-1.84 4.77-6.3 9.51-10.27 11.89-3.97 2.39-9.53 3.66-13.54 2.4-4.01-1.27-8.05-5.66-10.53-9.98-2.47-4.31-4.49-10.75-4.31-15.91.19-5.17 2.27-11.3 5.41-15.06s11.19-6.25 13.44-7.48c2.25-1.23.11-.25.07.11m3.6.33c4 .55 9.01 4.26 11.92 8.19 2.9 3.92 5.24 10.34 5.49 15.38.25 5.05-1.39 10.91-4.01 14.89-2.62 3.97-7.5 7.94-11.7 8.97-4.2 1.03-9.72-.39-13.49-2.79-3.78-2.39-7.67-6.84-9.14-11.59-1.48-4.75-1-11.81.3-16.91 1.31-5.11 3.89-11.05 7.53-13.69 3.64-2.65 12.09-1.68 14.32-2.18 2.22-.51-.75-1.16-.99-.83"/><path fill="none" class="stroke-neutral-900 dark:stroke-neutral-50" stroke-width="2" d="M309.66 349.7c4.07-.38 9.64 2.45 12.95 5.8 3.3 3.35 6.01 9.04 6.89 14.28.88 5.24.39 12.52-1.63 17.17-2.02 4.65-6.38 8.94-10.47 10.71-4.1 1.77-10.02 1.72-14.1-.09s-8.27-6.19-10.39-10.75c-2.13-4.56-3.06-11.47-2.36-16.61.7-5.15 3.24-10.94 6.58-14.27 3.33-3.34 10.96-4.91 13.41-5.75 2.46-.84 1.27.34 1.3.7m-6.22-.1c3.82-1.34 9.68-.62 13.61 1.71 3.92 2.33 8.29 7.31 9.95 12.25 1.66 4.95 1.34 12.47.03 17.43-1.31 4.95-4.22 9.51-7.89 12.29-3.67 2.79-9.83 5-14.15 4.41-4.32-.6-8.89-4.07-11.75-7.97-2.86-3.89-5.13-10.11-5.42-15.41-.3-5.29 1.07-12.25 3.63-16.38 2.57-4.13 9.82-6.96 11.75-8.42 1.93-1.46-.31-.86-.18-.35"/></g><text x="7.8" y="17.62" class="fill-neutral-900 dark:fill-neutral-50" dominant-baseline="alphabetic" font-family="Excalifont, Xiaolai, Segoe UI Emoji" font-size="20" style="white-space:pre" text-anchor="middle" transform="translate(302.058 362.176)">D</text><g stroke-linecap="round"><path class="fill-yellow-200 dark:fill-yellow-700" stroke-width="0" d="M508.75 350.22c3.95-.6 9.2 1.31 12.68 4.44 3.47 3.14 7.03 9.3 8.19 14.35 1.16 5.04.68 11.29-1.23 15.92-1.91 4.62-6.21 9.6-10.24 11.84-4.03 2.23-9.83 2.93-13.94 1.56-4.11-1.38-8.42-5.38-10.71-9.8-2.29-4.42-3.53-11.48-3.03-16.75.5-5.26 3.01-11.17 6.05-14.82 3.04-3.64 9.91-5.93 12.19-7.05 2.28-1.12 1.37-.1 1.49.35m-5.03.8c3.68-1.41 9.07-.84 12.94 1.39 3.87 2.24 8.42 7.29 10.3 12.03 1.87 4.74 2.24 11.28.94 16.43-1.3 5.15-5.04 11.47-8.74 14.46s-9.38 4.13-13.46 3.46c-4.09-.67-8.12-3.81-11.04-7.48-2.93-3.67-6.19-9.24-6.51-14.55-.31-5.3 2.06-13.02 4.62-17.27 2.57-4.25 9-6.84 10.79-8.22 1.79-1.37-.08-.21-.04-.01"/><path fill="none" class="stroke-neutral-900 dark:stroke-neutral-50" stroke-width="2" d="M507.45 349.75c3.89-.95 9.46.96 13.06 3.79 3.6 2.84 7.22 8.14 8.53 13.24 1.3 5.09.88 12.45-.72 17.33-1.61 4.89-5.17 9.68-8.91 11.99-3.74 2.31-9.24 2.98-13.53 1.86-4.3-1.11-9.57-4.43-12.24-8.56-2.67-4.13-4.06-11.02-3.78-16.2.28-5.18 2.31-11.08 5.46-14.87 3.14-3.79 10.9-6.65 13.42-7.87 2.52-1.22 1.59.21 1.69.53m4.92-.73c3.9.83 7.91 5.02 10.24 9.39 2.33 4.37 3.95 11.46 3.75 16.85-.2 5.38-1.99 11.74-4.96 15.47-2.97 3.74-8.72 6.44-12.87 6.92-4.15.48-8.53-1.01-12.03-4.03-3.49-3.03-7.55-9-8.92-14.15-1.38-5.14-1.19-12.06.66-16.74 1.85-4.68 6.54-9.24 10.43-11.33 3.9-2.1 10.69-1.04 12.94-1.26 2.26-.21.74-.44.59-.04"/></g><text x="7.8" y="17.62" class="fill-neutral-900 dark:fill-neutral-50" dominant-baseline="alphabetic" font-family="Excalifont, Xiaolai, Segoe UI Emoji" font-size="20" style="white-space:pre" text-anchor="middle" transform="translate(502.058 362.176)">D</text><g stroke-linecap="round"><path class="fill-yellow-200 dark:fill-yellow-700" stroke-width="0" d="M246.42 250.4c4-1.21 9.92.14 13.61 2.78 3.68 2.64 6.98 8.22 8.51 13.07 1.54 4.84 2.09 11.15.71 15.97-1.39 4.82-5.2 10.25-9.02 12.96-3.82 2.7-9.71 4.03-13.92 3.27-4.2-.77-8.66-3.99-11.3-7.87-2.65-3.89-4.51-10.19-4.57-15.46-.06-5.27 1.44-11.96 4.2-16.18 2.76-4.22 10.18-7.84 12.37-9.14 2.19-1.31.72.88.77 1.3m2.97-1.2c4.12.06 10.33 2.85 13.52 6.61 3.2 3.77 5.38 10.72 5.67 15.98.29 5.25-1.45 11.43-3.93 15.56-2.48 4.13-6.94 7.73-10.95 9.23-4.01 1.49-9.2 1.64-13.12-.27-3.92-1.92-8.49-6.38-10.39-11.22-1.89-4.83-2.04-12.51-.98-17.79 1.06-5.28 4-11.03 7.35-13.9 3.35-2.87 10.44-2.64 12.76-3.3 2.31-.67 1.02-.88 1.14-.69"/><path fill="none" class="stroke-neutral-900 dark:stroke-neutral-50" stroke-width="2" d="M252.4 249.7c4.09.2 9.25 4.3 12.1 8.12 2.84 3.83 4.7 9.65 4.97 14.81.28 5.16-.9 11.86-3.32 16.15-2.43 4.29-7.01 8.29-11.23 9.6-4.21 1.3-10.25.47-14.06-1.75-3.82-2.23-7.09-6.85-8.82-11.61-1.72-4.75-2.68-11.73-1.51-16.91 1.17-5.17 4.91-11.08 8.55-14.14 3.65-3.06 11.05-3.69 13.33-4.21 2.28-.51.42.57.33 1.1m2.36.36c3.97.81 8.32 5.01 10.77 9.04 2.46 4.03 4.22 10.02 3.98 15.12-.25 5.1-2.47 11.54-5.44 15.46-2.97 3.92-8.19 7.45-12.39 8.07-4.21.63-9.34-1.42-12.84-4.32-3.5-2.9-6.88-8.14-8.17-13.08-1.29-4.93-1.35-11.83.43-16.55 1.78-4.72 6.4-9.37 10.25-11.76 3.86-2.39 10.79-2.15 12.89-2.56 2.09-.41-.18-.32-.33.11"/></g><text x="7.8" y="17.62" class="fill-neutral-900 dark:fill-neutral-50" dominant-baseline="alphabetic" font-family="Excalifont, Xiaolai, Segoe UI Emoji" font-size="20" style="white-space:pre" text-anchor="middle" transform="translate(242.058 262.176)">D</text><path fill="none" class="stroke-neutral-900 dark:stroke-neutral-50" stroke-linecap="round" stroke-width="2" d="M187.18 250.35c3.88-1.06 9.33.84 13.03 3.57 3.69 2.73 7.78 7.81 9.13 12.83 1.34 5.02.56 12.33-1.05 17.29-1.62 4.95-4.91 9.98-8.64 12.46-3.73 2.49-9.56 3.56-13.72 2.46-4.17-1.1-8.55-4.89-11.28-9.06-2.72-4.17-5.17-10.77-5.07-15.97.09-5.19 2.6-11.27 5.65-15.22 3.04-3.96 10.33-7.17 12.62-8.51 2.3-1.34 1.1.02 1.16.47m.75-.9c4.07-.37 10.76 2.46 14.07 5.92 3.31 3.45 5.12 9.52 5.77 14.81.65 5.29.3 12.33-1.86 16.93-2.15 4.61-6.82 8.95-11.07 10.68-4.25 1.73-10.36 1.64-14.45-.28-4.08-1.93-8.02-6.48-10.06-11.28-2.04-4.81-2.98-12.36-2.18-17.56.8-5.19 3.63-10.53 6.98-13.61 3.35-3.09 10.85-4.18 13.12-4.89 2.27-.71.33.41.5.63"/><text x="6.76" y="17.62" class="fill-neutral-900 dark:fill-neutral-50" dominant-baseline="alphabetic" font-family="Excalifont, Xiaolai, Segoe UI Emoji" font-size="20" style="white-space:pre" text-anchor="middle" transform="translate(183.098 262.176)">A</text><g stroke-linecap="round"><path class="fill-yellow-200 dark:fill-yellow-700" stroke-width="0" d="M150.91 349.98c4.18-.02 10.09 3.35 13.21 6.92 3.12 3.58 5.05 9.37 5.54 14.52.48 5.15-.29 11.93-2.65 16.4-2.36 4.48-7.29 8.88-11.52 10.44-4.23 1.57-9.94 1.07-13.86-1.07-3.92-2.13-7.75-7.03-9.67-11.76-1.93-4.73-2.83-11.47-1.89-16.61.95-5.15 3.92-11.22 7.58-14.27 3.65-3.05 11.82-3.39 14.34-4.02 2.51-.63.77-.13.76.24m-7.96.11c3.93-1.47 10.3-.9 14.18 1.41 3.88 2.31 7.47 7.59 9.09 12.45 1.61 4.85 1.75 11.61.61 16.68-1.14 5.07-4.08 10.77-7.47 13.76-3.38 3-8.67 4.89-12.86 4.2-4.18-.69-9.3-4.51-12.23-8.35-2.93-3.83-5.07-9.56-5.35-14.67-.29-5.11 1.24-11.79 3.64-15.98 2.39-4.19 8.85-7.59 10.72-9.16 1.87-1.57.36-.63.49-.26"/><path fill="none" class="stroke-neutral-900 dark:stroke-neutral-50" stroke-width="2" d="M146.66 350.72c3.94-1.1 9.15.04 12.84 2.57 3.69 2.53 7.79 7.68 9.29 12.61 1.5 4.93 1.23 12.02-.29 16.98-1.53 4.97-5.18 10.22-8.85 12.81-3.66 2.6-8.98 3.6-13.14 2.76-4.15-.84-8.95-3.83-11.78-7.8-2.82-3.97-5.11-10.68-5.17-15.99-.07-5.31 1.74-11.85 4.79-15.88 3.05-4.04 11.17-7.04 13.51-8.34 2.34-1.29.53.18.54.57m.23-.33c4.11-.99 9.85.05 13.23 3.04 3.37 2.99 6.02 9.79 7.01 14.92.99 5.13.65 11.3-1.08 15.87-1.73 4.57-5.53 9.21-9.31 11.53-3.78 2.32-9.27 3.61-13.37 2.39-4.1-1.23-8.69-5.37-11.23-9.76-2.55-4.38-4.35-11.37-4.04-16.57.31-5.2 2.87-11.05 5.91-14.63 3.04-3.59 10.3-5.72 12.33-6.88 2.02-1.16-.24-.45-.2-.09"/></g><text x="5.43" y="17.62" class="fill-neutral-900 dark:fill-neutral-50" dominant-baseline="alphabetic" font-family="Excalifont, Xiaolai, Segoe UI Emoji" font-size="20" style="white-space:pre" text-anchor="middle" transform="translate(144.428 362.176)">L</text><g stroke-linecap="round"><path fill="none" class="stroke-neutral-900 dark:stroke-neutral-50" stroke-width="2" d="M168.568 146.974c-30.06 10.3-60.43 21.69-75.89 26.41m75.89-26.41c-29.19 10.13-58.16 20.86-75.89 26.41M112.248 157.844c-8.05 6.2-16.33 13.33-19.57 15.54m19.57-15.54c-7.65 5.97-15.04 12.53-19.57 15.54M117.668 174.064c-10.31-.18-20.71.58-24.99-.68m24.99.68c-9.81-.25-19.27.1-24.99-.68"/></g><g stroke-linecap="round"><path fill="none" class="stroke-neutral-900 dark:stroke-neutral-50" stroke-width="2" d="M52.513 213.8c-4.54 7.25-10.24 15.37-25.14 35.4m25.14-35.4c-5.01 7.01-10.39 15.14-25.14 35.4M33.273 228.31c-.47 4.24-2.06 9.26-5.9 20.89m5.9-20.89c-1 4-2.33 9.08-5.9 20.89"/><path fill="none" class="stroke-neutral-900 dark:stroke-neutral-50" stroke-width="2" d="M45.323 236.98c-3.07 2.33-7.24 5.5-17.95 12.22m17.95-12.22c-3.54 2.16-7.41 5.41-17.95 12.22"/></g><g stroke-linecap="round"><path fill="none" class="stroke-neutral-900 dark:stroke-neutral-50" stroke-width="2" d="M83.044 218.251c4.34 7.68 6.03 15.63 13.44 32m-13.44-32c5 10.35 9.08 21.46 13.44 32M84.874 237.351c3.78 2.85 5.24 5.94 11.61 12.9m-11.61-12.9c4.32 4 7.84 8.65 11.61 12.9M95.874 232.901c.96 4.03-.41 8.26.61 17.35m-.61-17.35c.63 5.47.47 11.62.61 17.35"/></g><g stroke-linecap="round"><path fill="none" class="stroke-neutral-900 dark:stroke-neutral-50" stroke-width="2" d="M210.86 148.275c12.21 6.27 28.5 11.93 57.57 23.63m-57.57-23.63c14.87 6.99 29.14 11.56 57.57 23.63M243.45 170.885c4.49.98 13.19 1.37 24.98 1.02m-24.98-1.02c6.71 1.17 12.96.18 24.98 1.02M249.95 155.065c3.06 4.66 10.24 8.74 18.48 16.84m-18.48-16.84c5.22 5.01 9.88 7.9 18.48 16.84"/></g><g stroke-linecap="round"><path fill="none" class="stroke-neutral-900 dark:stroke-neutral-50" stroke-width="2" d="M267.77 204.814c-16.15 12.45-37.7 22.16-71.59 45.32m71.59-45.32c-26.6 16.32-54.62 33.47-71.59 45.32"/><path fill="none" class="stroke-neutral-900 dark:stroke-neutral-50" stroke-width="2" d="M211 229.994c-1.8 6.6-9.03 9.97-14.82 20.14m14.82-20.14c-5.17 7.18-11.69 14.79-14.82 20.14M220.47 244.234c-4.16 2.93-13.78 2.7-24.29 5.9m24.29-5.9c-8.81 1.72-18.91 3.93-24.29 5.9"/></g><g stroke-linecap="round"><path fill="none" class="stroke-neutral-900 dark:stroke-neutral-50" stroke-width="2" d="M296.726 221.714c1.19 11.15 3.59 20.66 4.68 29.52m-4.68-29.52c.82 8.43 2.57 17.13 4.68 29.52M293.956 238.274c2.31 5.01 5.54 8.8 7.45 12.96m-7.45-12.96c1.82 3.6 4.31 7.39 7.45 12.96M304.026 236.524c-1.36 5.66-1.8 10.09-2.62 14.71m2.62-14.71c-1.19 4.09-1.7 8.4-2.62 14.71"/></g><g stroke-linecap="round"><path fill="none" class="stroke-neutral-900 dark:stroke-neutral-50" stroke-width="2" d="M171.509 292.43c-5.4 15.58-12.66 29.74-22.64 56.61m22.64-56.61c-7.61 21.75-17.63 43.65-22.64 56.61"/><path fill="none" class="stroke-neutral-900 dark:stroke-neutral-50" stroke-width="2" d="M149.859 324.06c.22 7.21-1.4 13.14-.99 24.98m.99-24.98c.62 9.66-1.07 19.4-.99 24.98M165.679 330.54c-3.89 5.63-9.63 9.87-16.81 18.5m16.81-18.5c-5.48 7.11-13.25 14.36-16.81 18.5"/></g><g stroke-linecap="round"><path fill="none" class="stroke-neutral-900 dark:stroke-neutral-50" stroke-width="2" d="M310 310c-.39 8.17-2.18 18.31-3.97 38.05M310 310c-.75 9.74-2.63 19.02-3.97 38.05M301.09 329.57c1.59 3.64 1.93 9.13 4.94 18.48m-4.94-18.48c1.59 4.73 2.02 9.05 4.94 18.48M314.13 330.72c-1.48 3.32-4.2 8.54-8.1 17.33m8.1-17.33c-1.73 4.46-4.63 8.49-8.1 17.33"/></g><g stroke-linecap="round"><path fill="none" class="stroke-neutral-900 dark:stroke-neutral-50" stroke-width="2" d="M308.062 213.037c12.61 9.17 24.88 18.4 43.88 35.08m-43.88-35.08c14.79 12.57 29.36 23.97 43.88 35.08"/><path fill="none" class="stroke-neutral-900 dark:stroke-neutral-50" stroke-width="2" d="M328.122 240.527c6.98 1.58 13.72 3.24 23.82 7.59m-23.82-7.59c8.06 3.12 15.8 5.14 23.82 7.59M338.572 226.987c4.15 5.31 8.01 10.7 13.37 21.13m-13.37-21.13c4.44 7.7 8.61 14.34 13.37 21.13"/></g><g stroke-linecap="round"><path fill="none" class="stroke-neutral-900 dark:stroke-neutral-50" stroke-width="2" d="M374.782 302.288c3.64 8.94 6.97 18.8 14.72 38.59m-14.72-38.59c4.86 11.43 8.37 22.88 14.72 38.59"/><path fill="none" class="stroke-neutral-900 dark:stroke-neutral-50" stroke-width="2" d="M375.922 325.318c3.31 3.07 6.34 7.06 13.58 15.56m-13.58-15.56c4.52 4.58 7.69 9.19 13.58 15.56"/><path fill="none" class="stroke-neutral-900 dark:stroke-neutral-50" stroke-width="2" d="M389.102 320.228c-.04 4.35-.37 9.63.4 20.65m-.4-20.65c.6 6.07-.15 12.19.4 20.65"/></g><g stroke-linecap="round"><path fill="none" class="stroke-neutral-900 dark:stroke-neutral-50" stroke-width="2" d="M279.63 227.955c-6.17 7.15-13.41 14.54-21.89 22.84m21.89-22.84c-5.17 5.15-9.8 10.02-21.89 22.84M264.01 236.275c-1.36 4.49-3.55 9.19-6.27 14.52m6.27-14.52c-1.59 3.31-2.75 6.35-6.27 14.52M271.88 243.705c-3.91 2.13-8.62 4.46-14.14 7.09m14.14-7.09c-3.36 1.6-6.31 2.96-14.14 7.09"/></g><g stroke-linecap="round"><path fill="none" class="stroke-neutral-900 dark:stroke-neutral-50" stroke-width="2" d="M310.835 191.305c29.21 17.9 58.13 34.67 100.47 57.41m-100.47-57.41c22.84 13.08 48.6 26.78 100.47 57.41"/><path fill="none" class="stroke-neutral-900 dark:stroke-neutral-50" stroke-width="2" d="M386.695 244.285c6.96 1.79 13.88 3.2 24.61 4.43m-24.61-4.43c4.98.86 12.53 1.84 24.61 4.43M395.295 229.505c4.53 5.99 8.96 11.69 16.01 19.21m-16.01-19.21c2.82 4.47 8.3 9 16.01 19.21"/></g><g stroke-linecap="round"><path fill="none" class="stroke-neutral-900 dark:stroke-neutral-50" stroke-width="2" d="M424.895 309.515c10.33 15.48 21.64 29.28 27.85 39.7m-27.85-39.7c8.23 10.88 15.56 22.37 27.85 39.7M432.905 335.275c7.31 5.77 15.6 9.86 19.84 13.94m-19.84-13.94c5.92 3.63 11 7.88 19.84 13.94"/><path fill="none" class="stroke-neutral-900 dark:stroke-neutral-50" stroke-width="2" d="M446.505 325.785c2.19 9.34 5.36 17.01 6.24 23.43m-6.24-23.43c2.13 6.26 3.39 13.18 6.24 23.43"/></g><g stroke-linecap="round"><path fill="none" class="stroke-neutral-900 dark:stroke-neutral-50" stroke-width="2" d="M446.122 295.412c12.36 13.84 25.54 26.67 50.13 49.44m-50.13-49.44c16.53 16.6 32.2 33.82 50.13 49.44M473.202 335.182c5.14 3.24 10.97 5.27 23.05 9.67m-23.05-9.67c7.76 3.28 14.4 7.24 23.05 9.67"/><path fill="none" class="stroke-neutral-900 dark:stroke-neutral-50" stroke-width="2" d="M484.802 322.622c1.95 6.73 4.63 12.17 11.45 22.23m-11.45-22.23c3.82 7.44 6.59 15.59 11.45 22.23"/></g><g stroke-linecap="round"><path fill="none" class="stroke-neutral-900 dark:stroke-neutral-50" stroke-width="2" d="M190 70c-.45 8.81.61 18.15 0 39m0-39c.29 15.15-.04 30.21 0 39M183.4 90.65c1.13 3.83 3.77 8.15 6.6 18.35m-6.6-18.35c2.95 7.14 5.19 14.17 6.6 18.35M196.74 90.7c-2.11 3.8-2.7 8.12-6.74 18.3m6.74-18.3c-2.24 7.07-5.19 14.08-6.74 18.3"/></g></svg>
