<svg xmlns="http://www.w3.org/2000/svg" viewBox="0 0 700 440"><defs/><path fill="none" class="stroke-neutral-900 dark:stroke-neutral-50" stroke-dasharray="1.5 8" stroke-linecap="round" stroke-width="2.5" d="M42 10c228.62 1.92 456.58 2.6 616 0m0 0c20.8 1.67 32.62 12.27 32 32m0 0c1.09 89.64.36 181.07 0 356m0 0c-1.85 21.74-12.25 32.36-32 32m0 0c-138.34-1.23-276.78-1-616 0m0 0c-23.31-.05-32.51-10.93-32-32m0 0c-1.54-102.3.25-202.41 0-356m0 0c1.22-20.63 11.72-31.51 32-32"/><text x="11.424" y="14.096" class="fill-neutral-900 dark:fill-neutral-50" dominant-baseline="alphabetic" font-family="Excalifont, Xiaolai, Segoe UI Emoji" font-size="16" style="white-space:pre" text-anchor="middle" transform="translate(338.576 15)">UP</text><path fill="none" class="stroke-neutral-900 dark:stroke-neutral-50" stroke-linecap="round" stroke-width="2" d="M220 110c18.58.1 38.35 1.19 60 0m-60 0c15.98.17 31.63.55 60 0m0 0c7.96-1.1 11.43 3.36 10 10m-10-10c5.55-1.84 9.86 4.49 10 10m0 0c-.02 5.01 1.07 8.99 0 20m0-20c1.07 6.97.34 13.54 0 20m0 0c-.14 5.38-3.81 10.89-10 10m10-10c.41 7.39-5.16 8.33-10 10m0 0c-13.72-.95-25.36.34-60 0m60 0c-23.06 1-45.45.85-60 0m0 0c-6.79 1.28-9.34-1.84-10-10m10 10c-7.52-.06-9.59-4.99-10-10m0 0c1.79-6.49 1.85-14.26 0-20m0 20c-.06-3.73.25-8.15 0-20m0 0c1.77-5.89 1.44-10.37 10-10m-10 10c-.1-4.74 2.12-8 10-10M60 110c20.86 1.4 42.13-.73 60 0m-60 0c17.09.58 36.51 1.23 60 0m0 0c6.86 1.56 11.42 2.41 10 10m-10-10c4.55 1.3 10.9 2.88 10 10m0 0c1.37 6.93-1.66 16.08 0 20m0-20c.19 5.37-.12 12.33 0 20m0 0c-.82 8.55-3.26 11.43-10 10m10-10c1.97 7.56-3.62 8.24-10 10m0 0c-14.39-1.07-31.58.82-60 0m60 0c-20.82-.28-43.07.7-60 0m0 0c-6.29-.09-9.62-5.22-10-10m10 10c-6.33-1.41-10.67-4.8-10-10m0 0c.79-9.59-.98-15.99 0-20m0 20c.47-4.34.56-8.4 0-20m0 0c-.52-7.64 5.19-8.84 10-10m-10 10c-.74-7.05 4.83-8.52 10-10M420 110c20.83-.05 40.15-1.55 60 0m-60 0c21.71 1.31 44.98-.06 60 0m0 0c7.3 1.95 10.11 4.35 10 10m-10-10c7.36-.82 9.04 3.8 10 10m0 0c1.27 8.27 1.43 14.76 0 20m0-20c.11 4.72-.75 9.13 0 20m0 0c-.95 7.02-2.4 10.67-10 10m10-10c-.61 8.83-2.93 11.05-10 10m0 0c-18.74-.03-39.94-.39-60 0m60 0c-14.9-.02-29.79-.17-60 0m0 0c-8.24-1.91-11.86-4.06-10-10m10 10c-5.31-.81-9.68-3.34-10-10m0 0c-.93-6.75-1.03-10.17 0-20m0 20c-.28-6.49.09-12.33 0-20m0 0c-.01-7.29 4.46-10.72 10-10m-10 10c1.66-6.53 2.27-9.72 10-10M540 110c21.01 1.12 46.02-2.01 60 0m-60 0c18.01.63 36.21 1.19 60 0m0 0c6.5.36 10.8 4.95 10 10m-10-10c6.07-.36 7.86 4.74 10 10m0 0c1.19 6.83 1.26 13.17 0 20m0-20c-.28 5.19-.31 8.5 0 20m0 0c.88 6.43-2.58 11.49-10 10m10-10c.27 8.24-2.92 10.37-10 10m0 0c-15.82 1.28-29.26-1.72-60 0m60 0c-13.51.42-25.8-.48-60 0m0 0c-8.58.43-8.79-5.22-10-10m10 10c-8.29.23-8.08-3.03-10-10m0 0c.01-6.11-1.79-15.81 0-20m0 20c1.01-4.49-.49-8.53 0-20m0 0c-.75-7.25 5.04-8.65 10-10m-10 10c1.97-5.54 4.2-11.24 10-10M200 230c21.12-.72 43.91-1.27 60 0m-60 0c24.2-.74 47.71-.55 60 0m0 0c7.7 1.75 9.12 3.36 10 10m-10-10c7.28 1.64 9.2 2.84 10 10m0 0c-.08 9.19 1.11 14.19 0 20m0-20c-.59 5.64.49 11.01 0 20m0 0c1.93 8.58-1.48 10.04-10 10m10-10c-2.02 8.51-3.97 8.85-10 10m0 0c-19.08-1.11-42.51.59-60 0m60 0c-17.84.19-34.49.48-60 0m0 0c-6.36-.89-11.17-2.44-10-10m10 10c-8.69.99-9.1-2.71-10-10m0 0c.13-3.88 1.88-7.73 0-20m0 20c-.5-7.76-1.12-15.24 0-20m0 0c-1.89-6.16 2.58-10.93 10-10m-10 10c.95-7.71 1.76-8.09 10-10M320 230c12.06-.83 25.09 1.11 60 0m-60 0c13.94.24 28.2-.14 60 0m0 0c7.02-.01 10.99 3.71 10 10m-10-10c7.83-1.5 10.27 4.43 10 10m0 0c1.82 3.24-.91 10.83 0 20m0-20c-.08 3.96-.56 10.48 0 20m0 0c-1.7 6.46-1.51 8.84-10 10m10-10c1.08 8.14-1.76 11.35-10 10m0 0c-18.01 1.65-36.1-.24-60 0m60 0c-23.47-.29-47.89-1.17-60 0m0 0c-5.83.46-8.16-4.65-10-10m10 10c-7.29.35-10.36-4.46-10-10m0 0c-.06-3.94.82-8.56 0-20m0 20c-.76-7.88.2-13.97 0-20m0 0c.55-6.5 4.42-8.88 10-10m-10 10c-2.1-6.84 3.86-8.48 10-10M220 350c14.29 1.11 30.51.8 60 0m-60 0c16.24-.63 31.03-.02 60 0m0 0c7.67.98 10.47 2.03 10 10m-10-10c8.69 1.15 8.27 2.1 10 10m0 0c-.56 5.13 1.72 8.81 0 20m0-20c.52 7.51-.28 15.23 0 20m0 0c-.96 6.89-1.41 8.87-10 10m10-10c1.13 6.91-5.51 10.11-10 10m0 0c-19.38-.71-37.8 1.59-60 0m60 0c-20.2-.44-41.07.69-60 0m0 0c-7.32 1.95-8.53-4.08-10-10m10 10c-7.38 2.09-11.29-2.63-10-10m0 0c-.58-9.66-1.54-14.19 0-20m0 20c.85-5.15-.84-9.59 0-20m0 0c-.47-6.04 5.32-8.35 10-10m-10 10c1.12-5.48 5.41-10.83 10-10M440 230c19.17 1.14 34.24-1.86 60 0m-60 0c13.42.24 25.32.5 60 0m0 0c7.79-1.83 9.85 3.79 10 10m-10-10c8.19-2.1 10.89 3.9 10 10m0 0c-1.16 7.92.3 12.14 0 20m0-20c.6 6.43-.47 12.97 0 20m0 0c.14 6.73-3.93 11.74-10 10m10-10c1.11 7.83-1.23 8.09-10 10m0 0c-20.47-.45-40.91-.4-60 0m60 0c-15.54-.14-31.6.02-60 0m0 0c-7.27-1.35-11.24-3.86-10-10m10 10c-4.68-.01-11.47-5.27-10-10m0 0c-.78-8.01.35-12.1 0-20m0 20c.56-5.61.67-10.68 0-20m0 0c1.1-7.59 2.21-9.38 10-10m-10 10c-.91-4.37 5.1-8.43 10-10M420 350c18.01.49 35.96-.56 60 0m-60 0c19.29.42 39.57.78 60 0m0 0c7.13-1.31 11.76 4.33 10 10m-10-10c4.94-1.23 8.43 3.76 10 10m0 0c1.62 6.66 1.79 16.13 0 20m0-20c-.41 6.37-.41 13.8 0 20m0 0c1.92 5.53-2.35 10.21-10 10m10-10c-2.18 6.77-2.84 8.02-10 10m0 0c-19.98 1.02-40.72-2.2-60 0m60 0c-22.32-.16-43.65.49-60 0m0 0c-5.19-.75-10.62-1.52-10-10m10 10c-7.96.71-7.86-1.38-10-10m0 0c-1.33-3.45-1.59-8.42 0-20m0 20c-.89-5.8-.43-9.58 0-20m0 0c1.99-5.02 4.3-8.97 10-10m-10 10c2.08-7.5 4.28-11.04 10-10"/><path fill="none" class="stroke-red-600" stroke-dasharray="8 10" stroke-linecap="round" stroke-width="2.5" d="M180 70c16.28.59 32.16 1.08 60 0m0 0c5.57 1.43 10.02 2.36 10 10m0 0c-.93 5.71-1.54 8.65 0 20m0 0c-.07 7.61-4.51 11.22-10 10m0 0c-22.52.96-45.85.42-60 0m0 0c-7.95-.48-9.11-2.98-10-10m0 0c-1.63-5.98-1.75-14.34 0-20m0 0c-.38-6.76 4.25-8.56 10-10"/><path fill="none" class="stroke-red-600" stroke-dasharray="8 10" stroke-linecap="round" stroke-width="2.5" d="M260 70c12.35-.99 24.99 1.41 60 0m0 0c8.6.67 11.04 4.84 10 10m0 0c.47 6.13-.86 12.45 0 20m0 0c1.84 6.04-3 8.31-10 10m0 0c-23.25-2.11-42.18.98-60 0m0 0c-5.53-1.25-8.78-4.06-10-10m0 0c2.07-3.76-1.78-10.03 0-20m0 0c-1.54-5.9 4.01-11.26 10-10M380 70c15.31-1.13 31.8-1.9 60 0m0 0c7.42 1.11 9.65 3.58 10 10m0 0c-.69 3.12-.82 7.22 0 20m0 0c-1.73 5.66-4.37 11.8-10 10m0 0c-18.16-2.37-35.64-2.05-60 0m0 0c-5.05 1.64-11.59-2.24-10-10m0 0c1.59-6.27 1.25-15.79 0-20m0 0c1.18-6.37 2.86-8.2 10-10M260 310c19.96.96 34.79-1.89 60 0m0 0c7.3 1.69 10.51 3.18 10 10m0 0c-.01 2.83.65 6.63 0 20m0 0c.25 5.45-1.7 11.54-10 10m0 0c-13.29-1.59-24.43.25-60 0m0 0c-7.77.63-11.71-2.83-10-10m0 0c.05-3.53-.79-7.78 0-20m0 0c-.43-6.21 3.23-9.3 10-10M580 70c21.99.04 41.92.14 60 0m0 0c6.77-.43 11.23 3.16 10 10m0 0c-.44 6.04-1.78 13.95 0 20m0 0c.86 4.89-5.09 11.37-10 10m0 0c-19.22-1.72-35.66-.42-60 0m0 0c-5.62-.3-11.67-2.45-10-10m0 0c.16-4.4.28-11.21 0-20m0 0c-1.12-6.94 2.27-11.17 10-10M380 310c15.73-1.62 30.43-.46 60 0m0 0c7.08 1.89 9.83 1.45 10 10m0 0c-1.94 7.96.18 15.59 0 20m0 0c-.62 7.9-1.65 9.2-10 10m0 0c-14.4-.66-30.13.62-60 0m0 0c-6.13-.32-11.66-3.26-10-10m0 0c.54-5.56.01-11.59 0-20m0 0c1.83-7.07 1.51-10.7 10-10M60 70c23.19.1 44.85-1.67 60 0m0 0c6.91 1.07 11.54 3.53 10 10m0 0c-1.7 8.69.93 14.72 0 20m0 0c2 6.54-5.12 11.39-10 10m0 0c-14.45 1.5-28.71.1-60 0m0 0c-8.6-.53-10.67-4.15-10-10m0 0c1.71-7.11-.25-17.29 0-20m0 0c-.71-5.25 3.61-8.51 10-10"/><g stroke-linecap="round"><path fill="none" class="stroke-red-600" d="M192.66 192.31s0 0 0 0m0 0s0 0 0 0m3.42 8.27c2.12-1.4 4.21-5.48 7.21-8.3m-7.21 8.3c.87-1.2 3.03-2.93 7.21-8.3m-7.74 21.1c4.98-6.94 8.47-9.79 18.37-21.14m-18.37 21.14c3.3-5.11 7.27-8.53 18.37-21.14m-20.86 36.2c13.33-14.11 24.74-26.34 30.84-35.47m-30.84 35.47c8-7.71 14.27-16.63 30.84-35.47m-22.83 38.45c11.31-10.55 20.96-24.46 30.83-35.47m-30.83 35.47c9.42-11.42 19.82-22.53 30.83-35.47m-20.2 35.44c5.78-8.67 14.08-15.63 23.62-27.17m-23.62 27.17c6.13-7.34 11.43-12.75 23.62-27.17m-13.65 27.89c3.65-4.39 6.02-6.09 9.84-11.32m-9.84 11.32c3.1-3.28 4.38-4.83 9.84-11.32m-39.38 6.39s0 0 0 0m0 0s0 0 0 0m14.31 1.83c-4.48-2.38-8.96-8.52-15.85-13.77m15.85 13.77c-6.05-5.39-12.93-11.74-15.85-13.77m28.64 14.3c-10.91-8.58-18.83-16.65-27.92-24.28m27.92 24.28c-6.09-6.14-13.37-11.8-27.92-24.28m36.19 20.86c-15.19-13.64-27.91-23.34-36.23-31.49m36.23 31.49c-13.3-11.36-28.51-23.96-36.23-31.49m39.21 23.49c-9.89-8.92-20.89-17.58-32.45-28.21m32.45 28.21c-11.62-10.27-23.59-20.95-32.45-28.21m32.42 17.58c-6.11-2.9-10.51-9.01-21.13-18.37m21.13 18.37c-5.36-3.95-12.4-9.46-21.13-18.37m19.58 6.43c-2.3-2.26-4.59-4.28-6.03-5.25m6.03 5.25c-1.36-.99-2.74-2.61-6.03-5.25"/><path fill="none" class="stroke-red-600" stroke-width="2" d="M200 190c5.82.31 14.83-1.71 20 0m-20 0c5.93-.01 13.3-.52 20 0m0 0c7.61 0 9.7 5.29 10 10m-10-10c6.4-.26 11.84 2.89 10 10m0 0c-.16 7.5.24 12.49 0 20m0-20c.08 5.28.66 11.68 0 20m0 0c.17 7.56-4.02 11.04-10 10m10-10c.79 7.51-3.58 8.92-10 10m0 0c-4.68-.88-10.55-1.27-20 0m20 0c-4.19-.6-7.72.76-20 0m0 0c-5.24.12-8.71-3.78-10-10m10 10c-4.94-1.86-11.22-3.09-10-10m0 0c2.03-7.09 1.52-12.91 0-20m0 20c-.5-5.79.53-13.55 0-20m0 0c1.07-7.11 4.9-9.72 10-10m-10 10c-.22-6.4 3.87-10.91 10-10"/></g><g stroke-linecap="round"><path fill="none" class="stroke-red-600" d="M312.66 192.31s0 0 0 0m0 0s0 0 0 0m3.42 8.27c2.43-1.27 2.91-4.12 7.21-8.3m-7.21 8.3c2.79-3.32 5.56-6.51 7.21-8.3m-7.74 21.1c4.79-3.96 9.51-10.83 18.37-21.14m-18.37 21.14c5.27-4.87 8.03-10.62 18.37-21.14m-20.86 36.2c9.68-13.24 21.2-22.54 30.84-35.47m-30.84 35.47c8.65-9.79 16.82-18.9 30.84-35.47m-22.83 38.45c11.72-13.2 24.04-23.46 30.83-35.47m-30.83 35.47c11.21-12.58 22.02-26.58 30.83-35.47m-20.2 35.44c5.17-6.47 10.78-12.92 23.62-27.17m-23.62 27.17c8.2-9.75 18.31-19.13 23.62-27.17m-13.65 27.89c2.31-1.78 6.32-5.99 9.84-11.32m-9.84 11.32c2.64-2.38 4.77-6.79 9.84-11.32m-39.38 6.39s0 0 0 0m0 0s0 0 0 0m11.29-.79c-4.64-3.8-8.61-6.66-10.57-9.18m10.57 9.18c-3.03-2.67-7.34-6.52-10.57-9.18m22.61 9.05c-5.67-4.05-10.52-10.99-22.64-19.68m22.64 19.68c-7.07-7.11-16.82-14.33-22.64-19.68m35.43 20.2c-14.83-10.54-26.58-23.71-36.98-32.15m36.98 32.15c-14.25-12.42-28.05-25.87-36.98-32.15m39.97 24.14c-8.7-10.48-20.86-17.17-34.72-30.17m34.72 30.17c-9.84-9.52-22.06-18.23-34.72-30.17m34.68 19.54c-4.43-3.14-10.28-11.76-26.41-22.96m26.41 22.96c-10.33-9.55-19.29-18.04-26.41-22.96m27.13 12.99c-4.24-3.06-7.81-6.41-10.56-9.19m10.56 9.19c-3.21-2.82-7.12-6.39-10.56-9.19"/><path fill="none" class="stroke-red-600" stroke-width="2" d="M320 190c4.49-1.35 12.6-1.41 20 0m-20 0c7.44-.06 15.03.14 20 0m0 0c7.68-1.3 10.24 4.28 10 10m-10-10c5.14-1.43 12.22 5.57 10 10m0 0c-1.34 5.83.73 8.74 0 20m0-20c-.99 4.34.77 8.29 0 20m0 0c.94 7.95-1.96 11.17-10 10m10-10c.19 7.85-4.4 10.55-10 10m0 0c-5.99 1.53-17.51.72-20 0m20 0c-6 .09-11.91-.79-20 0m0 0c-7.2.3-10.31-4.31-10-10m10 10c-7.86-.13-8.18-3.41-10-10m0 0c1.3-8.38-1.7-15.85 0-20m0 20c.26-4.93.53-9.47 0-20m0 0c-1.83-6.82 3.79-8.68 10-10m-10 10c-2.1-5.78 3.9-9.7 10-10"/></g><g stroke-linecap="round"><path fill="none" class="stroke-red-600" d="M212.66 312.31s0 0 0 0m0 0s0 0 0 0m-1.83 14.31c3.54-4.85 12.17-12.32 13.77-15.85m-13.77 15.85c3.21-4.08 7.04-6.3 13.77-15.85m-14.3 28.64c5.04-7.67 11.95-11.92 24.93-28.67m-24.93 28.67c6.27-7.49 12.15-12.91 24.93-28.67m-21.51 36.94c10.61-11.05 18.95-21.48 30.83-35.47m-30.83 35.47c9.76-11.3 20.3-23.1 30.83-35.47m-22.83 38.46c11.37-13.53 21.64-24.56 28.21-32.46m-28.21 32.46c6.08-7.66 13.94-15.88 28.21-32.46m-17.58 32.42c6.7-6.59 13.59-17.15 18.37-21.13m-18.37 21.13c4.13-6.21 9.35-12.87 18.37-21.13m-6.42 19.59c1.68-1.67 3.97-4.12 5.24-6.04m-5.24 6.04c1.68-2.03 3.47-4.03 5.24-6.04m-37.41 4.13s0 0 0 0m0 0s0 0 0 0m14.31 1.83c-4.71-6.15-10.98-9.62-15.85-13.77m15.85 13.77c-3.1-2.44-8.51-7.59-15.85-13.77m28.64 14.3c-9.06-6.83-19.02-16.02-27.92-24.28m27.92 24.28c-8.4-6.72-16.51-14.01-27.92-24.28m36.19 20.86c-13.93-10.76-27.69-24.69-36.23-31.49m36.23 31.49c-9.95-7.66-20.38-17.32-36.23-31.49m39.21 23.49c-11.22-9.96-19.91-18.38-32.45-28.21m32.45 28.21c-11.35-9.03-21.78-18.53-32.45-28.21m32.42 17.58c-4.3-5.06-7.42-8.05-21.13-18.37m21.13 18.37c-5.3-4.16-8.63-7.76-21.13-18.37m19.58 6.43c-1.5-.97-3.17-2.36-6.03-5.25m6.03 5.25c-1.65-1.72-2.98-3-6.03-5.25"/><path fill="none" class="stroke-red-600" stroke-width="2" d="M220 310c4.82-.61 11.82.89 20 0m-20 0c7.86.63 13.21-.4 20 0m0 0c5.3.37 11.12 2.73 10 10m-10-10c7.24 1.94 9.47 5.46 10 10m0 0c-.58 6.94-.85 14.82 0 20m0-20c.68 6.33-.75 12.5 0 20m0 0c.42 4.95-2.42 9.89-10 10m10-10c-1.13 7.52-1.82 10.84-10 10m0 0c-5.71-1.32-7.55-.65-20 0m20 0c-8.26.83-16.46.23-20 0m0 0c-4.81 1.7-11.03-3.74-10-10m10 10c-8.74-1.57-8.25-5.21-10-10m0 0c-1.45-8.9-1.6-15.5 0-20m0 20c.29-6.11.71-13.62 0-20m0 0c.83-7.58 5.27-11.23 10-10m-10 10c1.5-4.88 3.26-8.82 10-10"/></g><g stroke-linecap="round"><path fill="none" class="stroke-red-600" d="M232.66 192.31s0 0 0 0m0 0s0 0 0 0m3.42 8.27c.9-1.1 2.49-3 7.21-8.3m-7.21 8.3c1.45-1.44 3.04-3.14 7.21-8.3m-7.74 21.1c2.96-6.3 10.53-8.07 18.37-21.14m-18.37 21.14c3.65-4.34 8.89-10 18.37-21.14m-20.86 36.2c5.39-8.38 15.75-17.22 30.84-35.47m-30.84 35.47c11.06-12.44 21.69-25.3 30.84-35.47m-22.83 38.45c9.69-9.69 21.16-24.77 30.83-35.47m-30.83 35.47c9.6-11.41 20.85-22.82 30.83-35.47m-20.2 35.44c5.29-7.38 10.1-12.88 23.62-27.17m-23.62 27.17c9.37-9.74 18.61-21.41 23.62-27.17m-13.65 27.89c2.35-1.24 4.83-4.79 9.84-11.32m-9.84 11.32c3.37-3.75 7.41-8.62 9.84-11.32m-39.38 6.39s0 0 0 0m0 0s0 0 0 0m14.31 1.83c-6.64-3.49-11.1-9.46-15.85-13.77m15.85 13.77c-5.27-5.96-12.45-10.76-15.85-13.77m28.64 14.3c-8.76-7.61-13.99-12.95-27.92-24.28m27.92 24.28c-10.81-9.45-20.46-16.72-27.92-24.28m36.19 20.86c-9.9-10.59-21.45-20.03-36.23-31.49m36.23 31.49c-8.99-7.35-16.76-14.11-36.23-31.49m39.21 23.49c-7.58-8.38-18.29-14.22-32.45-28.21m32.45 28.21c-8.05-6.71-17.9-14.45-32.45-28.21m32.42 17.58c-8.11-8.02-15.31-12.73-21.13-18.37m21.13 18.37c-5.31-5.85-12.36-11.14-21.13-18.37m19.58 6.43c-2.07-1.87-4.13-3.53-6.03-5.25m6.03 5.25c-2.51-1.94-4.99-4.11-6.03-5.25"/><path fill="none" class="stroke-red-600" stroke-width="2" d="M240 190c5.67-1.21 14.8.17 20 0m-20 0c4.26.5 9.16.01 20 0m0 0c7.55-1.27 9.18 4.56 10 10m-10-10c8.08-1.7 11.23 2.82 10 10m0 0c.26 8.03-.77 16.28 0 20m0-20c-.74 8.11-.38 15.57 0 20m0 0c-.8 5.05-5.19 8.43-10 10m10-10c-.05 5.39-3.96 9.86-10 10m0 0c-3.57-.1-11.98-1.86-20 0m20 0c-6.82.01-14.53-.62-20 0m0 0c-6.77-1.28-9.77-4.94-10-10m10 10c-7.85 1.15-12.17-1.67-10-10m0 0c-.2-4.61 1.61-10.6 0-20m0 20c.48-4.29-.88-9.27 0-20m0 0c-1.54-5.05 3.56-9.85 10-10m-10 10c-1.71-5.65 4.27-8.69 10-10"/></g><g stroke-linecap="round"><path fill="none" class="stroke-red-600" d="M472.66 192.31s0 0 0 0m0 0s0 0 0 0m-1.83 14.31c5.59-3.24 7.94-9 13.77-15.85m-13.77 15.85c5.43-5.88 8.13-9.37 13.77-15.85m-14.3 28.64c7.14-8.65 12.32-13.7 24.93-28.67m-24.93 28.67c5.89-7.68 11.72-13.71 24.93-28.67m-21.51 36.94c11.18-14.41 23.12-27.06 30.83-35.47m-30.83 35.47c11.23-11.17 20.46-24.15 30.83-35.47m-22.83 38.46c6.32-7.25 13.51-17.23 28.21-32.46m-28.21 32.46c11.06-11.32 19.42-23.09 28.21-32.46m-17.58 32.42c5.06-6.79 13.23-16 18.37-21.13m-18.37 21.13c7.17-8.04 14.71-17.23 18.37-21.13m-6.42 19.59c1.94-2.51 2.5-3.47 5.24-6.04m-5.24 6.04c1.87-1.86 2.74-3.53 5.24-6.04m-37.41 4.13s0 0 0 0m0 0s0 0 0 0m14.31 1.83c-3.49-4.4-7.56-5.72-15.85-13.77m15.85 13.77c-4.94-4.64-11.18-10.16-15.85-13.77m28.64 14.3c-5.68-4.96-13.11-10.31-27.92-24.28m27.92 24.28c-8.1-7.68-15.55-14.03-27.92-24.28m36.19 20.86c-9.74-8.98-16.98-14.88-36.23-31.49m36.23 31.49c-11-9.13-21.41-20.44-36.23-31.49m39.21 23.49c-13.02-11.22-22.81-22.32-32.45-28.21m32.45 28.21c-11.84-10.11-23.71-21.16-32.45-28.21m32.42 17.58c-4.12-6.69-13.7-10.07-21.13-18.37m21.13 18.37c-6.06-5.37-13.55-11.93-21.13-18.37m19.58 6.43c-1.44-1.29-2.99-1.92-6.03-5.25m6.03 5.25c-1.71-2.13-3.86-3.54-6.03-5.25"/><path fill="none" class="stroke-red-600" stroke-width="2" d="M480 190c4.51 1.69 9.31.26 20 0m-20 0c7.01.41 14.83-.73 20 0m0 0c7.44.49 10.26 4.28 10 10m-10-10c8.21-1.44 11.91 3.57 10 10m0 0c-1.01 7.03.7 10.53 0 20m0-20c-.29 8.48.5 15.72 0 20m0 0c1.83 5.01-2.61 11.65-10 10m10-10c-1.46 6.31-3.42 9.33-10 10m0 0c-6.93 1-11.67 1.09-20 0m20 0c-7.23-.4-12.36-.14-20 0m0 0c-7.95-1.69-9.26-4.19-10-10m10 10c-6.62-1-11.46-3.03-10-10m0 0c.89-6.32-.69-13.48 0-20m0 20c-.67-5.26-.51-10.13 0-20m0 0c1.54-5.3 4.12-11.44 10-10m-10 10c-.01-6.07 2.09-11.58 10-10"/></g><g stroke-linecap="round"><path fill="none" class="stroke-red-600" d="M452.66 312.31s0 0 0 0m0 0s0 0 0 0m-1.83 14.31c5.78-4.85 6.73-8.82 13.77-15.85m-13.77 15.85c3.59-2.36 4.7-7.33 13.77-15.85m-14.3 28.64c8.6-8.11 13.88-16.31 24.93-28.67m-24.93 28.67c5.31-5.07 10.67-11.59 24.93-28.67m-21.51 36.94c8.23-9.29 16.52-17.42 30.83-35.47m-30.83 35.47c6.97-7.73 14.97-16.06 30.83-35.47m-22.83 38.46c8.65-9.51 15.81-17.56 28.21-32.46m-28.21 32.46c7.11-7.71 13.59-14.45 28.21-32.46m-17.58 32.42c3.87-6.16 8.07-8.39 18.37-21.13m-18.37 21.13c6.63-9.16 14.92-17.18 18.37-21.13m-6.42 19.59c1.56-1.45 2.65-2.18 5.24-6.04m-5.24 6.04c1.55-1.77 3.37-4.03 5.24-6.04m-37.41 4.13s0 0 0 0m0 0s0 0 0 0m14.31 1.83c-2.79-2.35-9.42-7.48-15.85-13.77m15.85 13.77c-6.75-5.93-12-9.4-15.85-13.77m28.64 14.3c-11.86-10.13-21.01-16.14-27.92-24.28m27.92 24.28c-6.71-5.43-11.71-11.33-27.92-24.28m36.19 20.86c-8.82-7.69-18.98-14.85-36.23-31.49m36.23 31.49c-10.05-7.96-18.46-16.42-36.23-31.49m39.21 23.49c-8.67-8.73-19.03-16.15-32.45-28.21m32.45 28.21c-13.28-11.81-26.43-21.54-32.45-28.21m32.42 17.58c-5.55-6.78-16.63-11.61-21.13-18.37m21.13 18.37c-5.23-5.02-13.23-11.18-21.13-18.37m19.58 6.43c-2.57-1.83-3.97-3.06-6.03-5.25m6.03 5.25c-2.14-2.39-4.91-4.56-6.03-5.25"/><path fill="none" class="stroke-red-600" stroke-width="2" d="M460 310c7.46 1.06 15.37.52 20 0m-20 0c3.94-.64 8.71.08 20 0m0 0c7.79-.6 10.49 5.02 10 10m-10-10c6.14 2.12 12.17 4.3 10 10m0 0c-1 5.7.16 15.23 0 20m0-20c-.85 4.91.31 8.87 0 20m0 0c.91 6.56-4.31 10.74-10 10m10-10c1.51 7.51-5.52 11.4-10 10m0 0c-5.37-.79-10.06 1.34-20 0m20 0c-5.82.49-9.58 1.03-20 0m0 0c-7.7-.41-11.8-4.7-10-10m10 10c-4.92-1.87-8.25-4.54-10-10m0 0c-1.55-8.46.78-14 0-20m0 20c.81-8.01.32-15.75 0-20m0 0c1.94-7.9 4.64-8.45 10-10m-10 10c-.08-5.49 3.69-11.75 10-10"/></g></svg>
