<svg xmlns="http://www.w3.org/2000/svg" viewBox="0 0 420 340"><defs/><path fill="none" class="stroke-neutral-900 dark:stroke-neutral-50" stroke-dasharray="1.5 8" stroke-linecap="round" stroke-width="2.5" d="M40 210c103.54.78 206.27-.86 340 0m0 0c18.8.65 28.24 10.53 30 30m0 0c-1.34 15.98.38 35.05 0 60m0 0c-1.86 21.59-8.15 28.78-30 30m0 0c-96.02-1.45-189.92.12-340 0m0 0c-21.26-1.65-30.69-10.31-30-30m0 0c1.6-13.63-.31-28.77 0-60m0 0c-.64-21.89 10.46-30.89 30-30"/><text x="27.928" y="14.096" class="fill-neutral-900 dark:fill-neutral-50" dominant-baseline="alphabetic" font-family="Excalifont, Xiaolai, Segoe UI Emoji" font-size="16" style="white-space:pre" text-anchor="middle" transform="translate(182.072 215)">RIGHT</text><path fill="none" class="stroke-neutral-900 dark:stroke-neutral-50" stroke-dasharray="1.5 8" stroke-linecap="round" stroke-width="2.5" d="M40 10c86.8-2.2 172.07-1.83 340 0m0 0c18.26-1.69 28.57 10.19 30 30m0 0c-1.23 22.88-1.04 45.67 0 60m0 0c-1.35 18.89-11.25 30-30 30m0 0c-81.79-1.01-162.25-1.36-340 0m0 0c-18.19 1.1-29.88-9.27-30-30m0 0c-1.29-15.55.65-33.5 0-60m0 0c.29-20.79 8.2-28.06 30-30"/><text x="22.144" y="14.096" class="fill-neutral-900 dark:fill-neutral-50" dominant-baseline="alphabetic" font-family="Excalifont, Xiaolai, Segoe UI Emoji" font-size="16" style="white-space:pre" text-anchor="middle" transform="translate(187.856 15)">LEFT</text><path fill="none" class="stroke-neutral-900 dark:stroke-neutral-50" stroke-linecap="round" stroke-width="2" d="M120 70c18.58.1 38.35 1.19 60 0m-60 0c15.98.17 31.63.55 60 0m0 0c7.96-1.1 11.43 3.36 10 10m-10-10c5.55-1.84 9.86 4.49 10 10m0 0c-.02 5.01 1.07 8.99 0 20m0-20c1.07 6.97.34 13.54 0 20m0 0c-.14 5.38-3.81 10.89-10 10m10-10c.41 7.39-5.16 8.33-10 10m0 0c-13.72-.95-25.36.34-60 0m60 0c-23.06 1-45.45.85-60 0m0 0c-6.79 1.28-9.34-1.84-10-10m10 10c-7.52-.06-9.59-4.99-10-10m0 0c1.79-6.49 1.85-14.26 0-20m0 20c-.06-3.73.25-8.15 0-20m0 0c1.77-5.89 1.44-10.37 10-10m-10 10c-.1-4.74 2.12-8 10-10M320 70c20.83-.05 40.15-1.55 60 0m-60 0c21.71 1.31 44.98-.06 60 0m0 0c7.3 1.95 10.11 4.35 10 10m-10-10c7.36-.82 9.04 3.8 10 10m0 0c1.27 8.27 1.43 14.76 0 20m0-20c.11 4.72-.75 9.13 0 20m0 0c-.95 7.02-2.4 10.67-10 10m10-10c-.61 8.83-2.93 11.05-10 10m0 0c-18.74-.03-39.94-.39-60 0m60 0c-14.9-.02-29.79-.17-60 0m0 0c-8.24-1.91-11.86-4.06-10-10m10 10c-5.31-.81-9.68-3.34-10-10m0 0c-.93-6.75-1.03-10.17 0-20m0 20c-.28-6.49.09-12.33 0-20m0 0c-.01-7.29 4.46-10.72 10-10m-10 10c1.66-6.53 2.27-9.72 10-10M280 270c21.12-.72 43.91-1.27 60 0m-60 0c24.2-.74 47.71-.55 60 0m0 0c7.7 1.75 9.12 3.36 10 10m-10-10c7.28 1.64 9.2 2.84 10 10m0 0c-.08 9.19 1.11 14.19 0 20m0-20c-.59 5.64.49 11.01 0 20m0 0c1.93 8.58-1.48 10.04-10 10m10-10c-2.02 8.51-3.97 8.85-10 10m0 0c-19.08-1.11-42.51.59-60 0m60 0c-17.84.19-34.49.48-60 0m0 0c-6.36-.89-11.17-2.44-10-10m10 10c-8.69.99-9.1-2.71-10-10m0 0c.13-3.88 1.88-7.73 0-20m0 20c-.5-7.76-1.12-15.24 0-20m0 0c-1.89-6.16 2.58-10.93 10-10m-10 10c.95-7.71 1.76-8.09 10-10M40 270c14.38-2.05 27.61.62 60 0m-60 0c12.81 1.04 23.56 0 60 0m0 0c5.43-1.89 9.35 4.93 10 10m-10-10c5.8-1.12 12.24 1.72 10 10m0 0c-1.64 6.35-1.77 16.39 0 20m0-20c-.12 7.73-.21 12.98 0 20m0 0c1.94 6.96-5.05 10.03-10 10m10-10c-1.86 6.19-2.89 8.2-10 10m0 0c-18.27-.79-37.21-1.47-60 0m60 0c-16.7-.31-35.15.52-60 0m0 0c-7.04-.93-11.92-4.61-10-10m10 10c-4.61-1.92-7.81-3.01-10-10m0 0c-1.05-4.95.49-8.98 0-20m0 20c-.1-4.55.18-11.3 0-20m0 0c-.66-5.34 3.77-9.18 10-10m-10 10c-.63-8.34 2.14-10.67 10-10"/><path fill="none" class="stroke-red-600" stroke-dasharray="8 10" stroke-linecap="round" stroke-width="2.5" d="M40 70c16.28.59 32.16 1.08 60 0m0 0c5.57 1.43 10.02 2.36 10 10m0 0c-.93 5.71-1.54 8.65 0 20m0 0c-.07 7.61-4.51 11.22-10 10m0 0c-22.52.96-45.85.42-60 0m0 0c-7.95-.48-9.11-2.98-10-10m0 0c-1.63-5.98-1.75-14.34 0-20m0 0c-.38-6.76 4.25-8.56 10-10M120 270c10.16 1.74 22.81 1.4 60 0m0 0c7.84-.91 9.09 2.1 10 10m0 0c-.82 3.13 1.88 6.81 0 20m0 0c1.41 6.54-3.93 8.37-10 10m0 0c-13.96 1.31-28.18.07-60 0m0 0c-4.94-.58-11.51-1.39-10-10m0 0c-1.44-6.71.55-14.15 0-20m0 0c.01-8.36 3.28-10.24 10-10"/><g stroke-linecap="round"><path fill="none" class="stroke-red-600" d="M272.66 72.31s0 0 0 0m0 0s0 0 0 0m-1.83 14.31c4.74-2.65 5.26-8.1 13.77-15.85m-13.77 15.85c4.79-5.12 9.38-10.14 13.77-15.85m-14.3 28.64c7.85-9.74 18.91-23.69 24.93-28.67M270.3 99.41c9.94-10.16 17.5-19.38 24.93-28.67m-21.51 36.94c9.2-9.2 20.46-19.1 30.83-35.47m-30.83 35.47c10.33-11.89 20.03-21.8 30.83-35.47m-22.83 38.46c8.8-10.43 19.58-19.29 28.21-32.46m-28.21 32.46c11.41-13.33 22.06-26.72 28.21-32.46m-17.58 32.42c6.04-8.57 14.22-16.12 18.37-21.13m-18.37 21.13c4.09-5.26 8.85-9.13 18.37-21.13m-6.42 19.59c.69-.86 2.29-2.25 5.24-6.04m-5.24 6.04c2.11-2.36 4.39-4.59 5.24-6.04m-37.41 4.13s0 0 0 0m0 0s0 0 0 0m14.31 1.83c-7.9-3.29-12.26-11.41-15.85-13.77m15.85 13.77c-4.5-3.19-8.63-6.4-15.85-13.77m28.64 14.3c-6.71-4.54-14-13.09-27.92-24.28m27.92 24.28c-7.27-4.8-13.14-10.69-27.92-24.28m36.19 20.86c-12.07-10.26-26.77-21.95-36.23-31.49m36.23 31.49c-13.03-10.41-25.43-22.51-36.23-31.49m39.21 23.49c-9.85-7.3-17.29-14.83-32.45-28.21m32.45 28.21c-8-7.02-16.48-14.41-32.45-28.21m32.42 17.58c-5.75-4.1-13.08-12.44-21.13-18.37m21.13 18.37c-3.95-3.76-9.34-7.45-21.13-18.37m19.58 6.43c-1.52-1.3-2.97-2.92-6.03-5.25m6.03 5.25c-1.37-.98-2.51-2.07-6.03-5.25"/><path fill="none" class="stroke-red-600" stroke-width="2" d="M280 70c5.17.39 13.18.71 20 0m-20 0c5.92.4 10.39-.39 20 0m0 0c8.56.18 11.34 3.16 10 10m-10-10c5.35-.47 8.56 2.54 10 10m0 0c-1.71 4.81-1.99 12.7 0 20m0-20c-.08 6.62-.92 14.61 0 20m0 0c-1.1 4.79-4.53 9.58-10 10m10-10c.01 7.67-5.47 9.55-10 10m0 0c-5.05-.68-8.95-.78-20 0m20 0c-7.32.9-14.88.59-20 0m0 0c-8.28.96-8.46-4.84-10-10m10 10c-7.23-1.13-11.35-3.01-10-10m0 0c.02-6.75 1.74-10.49 0-20m0 20c-.98-6.94.46-14.67 0-20m0 0c1.63-8.65 2.42-11.78 10-10m-10 10c-1.14-8.84 1.56-7.75 10-10"/></g><g stroke-linecap="round"><path fill="none" class="stroke-red-600" d="M352.66 272.31s0 0 0 0m0 0s0 0 0 0m3.42 8.27c.63-1.32 4-3.44 7.21-8.3m-7.21 8.3c3.21-2.94 4.89-6.18 7.21-8.3m-7.74 21.1c7.08-8.94 13.69-14.33 18.37-21.14m-18.37 21.14c4.76-5.32 9.33-10.23 18.37-21.14m-20.86 36.2c12.3-14.32 25.95-29.27 30.84-35.47m-30.84 35.47c6.89-8.39 13.92-15.33 30.84-35.47m-22.83 38.45c11.77-11.02 21.14-24.69 30.83-35.47m-30.83 35.47c10.11-11.4 19.36-22.17 30.83-35.47m-20.2 35.44c6.6-6.49 11.46-10.54 23.62-27.17m-23.62 27.17c8.28-10.56 17.82-21.63 23.62-27.17m-13.65 27.89c2.37-1.6 5.48-4.36 9.84-11.32m-9.84 11.32c2.06-2.6 5.7-6.27 9.84-11.32m-39.38 6.39s0 0 0 0m0 0s0 0 0 0m11.29-.79c-4.5-4.85-7.83-7.61-10.57-9.18m10.57 9.18c-3.37-3.38-6.54-6.03-10.57-9.18m22.61 9.05c-3.91-3.09-11.54-10.85-22.64-19.68m22.64 19.68c-6.84-4.96-12.18-10.29-22.64-19.68m35.43 20.2c-10.18-9.14-18.25-14.55-36.98-32.15m36.98 32.15c-15.13-11.7-28.97-23.72-36.98-32.15m39.97 24.14c-7.9-8.49-14.82-14.76-34.72-30.17m34.72 30.17c-7.52-5.53-13.41-12.48-34.72-30.17m34.68 19.54c-7.98-8.91-15.85-14.69-26.41-22.96m26.41 22.96c-10.69-7.61-20.42-16.95-26.41-22.96m27.13 12.99c-3.99-1.98-5.57-5.6-10.56-9.19m10.56 9.19c-4.79-2.91-8.19-7.52-10.56-9.19"/><path fill="none" class="stroke-red-600" stroke-width="2" d="M360 270c6.96-1.38 9.27.82 20 0m-20 0c4.6 1.03 7.72.17 20 0m0 0c7.2 1.43 9.31 2.9 10 10m-10-10c8.79-1.28 9.46 3.37 10 10m0 0c-.23 8.41.95 13.28 0 20m0-20c1.04 6.94 1 11.99 0 20m0 0c-1.75 8.27-3.88 9-10 10m10-10c1.17 5.02-5.22 12.27-10 10m0 0c-5.48-1.71-11.94-.12-20 0m20 0c-6.94-.28-14.77.61-20 0m0 0c-8.43.86-9.22-2.79-10-10m10 10c-8.04-1.66-10.72-3.35-10-10m0 0c1.74-5.7 1.05-14.62 0-20m0 20c-.75-6.07-.18-13.1 0-20m0 0c.83-7.57 1.96-8.34 10-10m-10 10c1.62-6.64 2.78-8.8 10-10"/></g><g stroke-linecap="round"><path fill="none" class="stroke-neutral-900 dark:stroke-neutral-50" stroke-width="2" d="M150 90c-7.81.09-17.06-.87-40 0m40 0c-15.87-.03-31.12-.33-40 0M128.68 82.87c-3.54 1.55-8.51 2.03-18.68 7.13m18.68-7.13C121.22 85.59 114.35 88.1 110 90M128.9 96.55c-3.55-1.2-8.57-3.47-18.9-6.55m18.9 6.55c-7.61-2.65-14.57-5.52-18.9-6.55"/></g><g stroke-linecap="round"><path fill="none" class="stroke-neutral-900 dark:stroke-neutral-50" stroke-width="2" d="M350 90c-15.23.26-29.6-.33-40 0m40 0c-11.67-.07-22.58-.18-40 0M328.75 83.04C321.2 85.78 314.54 87.71 310 90m18.75-6.96c-5.56 1.9-10.36 3.8-18.75 6.96M328.84 96.72c-7.52-2.23-14.22-5.26-18.84-6.72m18.84 6.72c-5.59-2.03-10.42-4.07-18.84-6.72"/></g><g stroke-linecap="round"><path fill="none" class="stroke-neutral-900 dark:stroke-neutral-50" stroke-width="2" d="M70 290c10.23.62 21.15.95 40 0m-40 0c7.95.09 16.54-.2 40 0M91.18 296.76c4.47-1.31 9.6-2.82 18.82-6.76m-18.82 6.76c3.71-1.21 8.05-2.86 18.82-6.76M91.23 283.08c4.4 2.43 9.52 4.66 18.77 6.92m-18.77-6.92c3.67 1.54 7.99 2.64 18.77 6.92"/></g><g stroke-linecap="round"><path fill="none" class="stroke-neutral-900 dark:stroke-neutral-50" stroke-width="2" d="M310 290c14.8.35 31.3.13 40 0m-40 0c10.29-.34 20.26.53 40 0M331.28 297.05c6.45-2.49 14.6-5.48 18.72-7.05m-18.72 7.05c4.9-2.2 9.44-3.13 18.72-7.05M331.13 283.37c6.5 2.88 14.7 5.27 18.87 6.63m-18.87-6.63c4.87 1.29 9.45 3.85 18.87 6.63"/></g></svg>
