<svg xmlns="http://www.w3.org/2000/svg" viewBox="0 0 827.26 650"><defs/><path fill="none" stroke="#2f9e44" stroke-linecap="round" stroke-width="2" d="M305 10c45.31 2.29 94.46-.83 150 0m-150 0c55.32-1.59 110.67-1.17 150 0m0 0c9.51 1.45 13.77 5.78 15 15m-15-15c10.43 1.6 13.4 6.7 15 15m0 0c-.74 9.21-1.71 15.34 0 30m0-30c.03 6.66.33 14.77 0 30m0 0c-1.55 9.89-4.13 16.88-15 15m15-15c1.49 10.84-5.49 16.73-15 15m0 0c-52.65 3.15-100.91.89-150 0m150 0c-41.55-.94-80.65-.2-150 0m0 0c-10 1.97-16.79-5.34-15-15m15 15c-9.87-1.64-16.75-3.52-15-15m0 0c1.33-9.5-.24-20.64 0-30m0 30c.22-8.59-.6-16.56 0-30m0 0c-.95-10.22 6.53-15.71 15-15m-15 15c.6-12.23 6.28-16.39 15-15"/><text x="22.22" y="17.62" class="fill-lime-600" dominant-baseline="alphabetic" font-family="Excalifont, Xiaolai, sans-serif, Segoe UI Emoji" font-size="20" style="white-space:pre" text-anchor="middle" transform="translate(357.78 27.5)">User</text><path fill="none" class="stroke-neutral-900 dark:stroke-neutral-50" stroke-linecap="round" stroke-width="2" d="M222 210c96.9 1.45 193.49.64 316 0m-316 0c87.86-.26 175.78-.35 316 0m0 0c23.16-.56 31.43 11.93 32 32m-32-32c20.08-1.81 31.72 12.68 32 32m0 0c-1.79 27.12.11 53.5 0 76m0-76c.6 16.64 1.17 34.94 0 76m0 0c-.21 23.24-11.31 33.27-32 32m32-32c.35 22.27-11.95 31.06-32 32m0 0c-77.84-.74-157.48-1.61-316 0m316 0c-111.73 2.73-224.36 2.47-316 0m0 0c-21.57 1.34-31.21-11.06-32-32m32 32c-21.18 1.92-30.35-9.12-32-32m0 0c-1.42-22.35-.38-42.44 0-76m0 76c-.03-17 .16-34.26 0-76m0 0c-.54-19.45 12.11-31.49 32-32m-32 32c1.11-23.14 10.28-31.96 32-32"/><text x="141.57" y="17.62" class="fill-neutral-900 dark:fill-neutral-50" dominant-baseline="alphabetic" font-family="Excalifont, Xiaolai, sans-serif, Segoe UI Emoji" font-size="20" style="white-space:pre" text-anchor="middle" transform="translate(238.43 230)">worklog</text><text x="141.57" y="67.62" class="fill-neutral-900 dark:fill-neutral-50" dominant-baseline="alphabetic" font-family="Excalifont, Xiaolai, sans-serif, Segoe UI Emoji" font-size="20" style="white-space:pre" text-anchor="middle" transform="translate(238.43 230)">validate → cache → fetch →</text><text x="141.57" y="92.62" class="fill-neutral-900 dark:fill-neutral-50" dominant-baseline="alphabetic" font-family="Excalifont, Xiaolai, sans-serif, Segoe UI Emoji" font-size="20" style="white-space:pre" text-anchor="middle" transform="translate(238.43 230)">transform → summarize</text><g stroke-linecap="round" mask="url(#mask-sn987j0JJx7GH3eFF3prr)"><path fill="none" class="stroke-neutral-900 dark:stroke-neutral-50" stroke-width="2" d="M379.887 76c.74 27.12-2.74 55.03.01 128m-.01-128c1.1 43.64.67 85.42.01 128M371.657 180.4c3.23 5.25 1.48 11.21 8.24 23.6m-8.24-23.6c3.68 8.71 6.01 15.51 8.24 23.6M388.757 180.62c-.36 5.04-5.7 10.96-8.86 23.38m8.86-23.38c-2.05 8.52-5.45 15.24-8.86 23.38"/></g><mask id="mask-sn987j0JJx7GH3eFF3prr"><path fill="#fff" d="M0 0h479.9v304H0z"/><path d="M283.794 127.5h192.2v25h-192.2z"/></mask><text x="96.1" y="17.62" class="fill-neutral-900 dark:fill-neutral-50" dominant-baseline="alphabetic" font-family="Excalifont, Xiaolai, sans-serif, Segoe UI Emoji" font-size="20" style="white-space:pre" text-anchor="middle" transform="translate(283.794 127.5)">input: date &amp; token</text><path fill="none" stroke="#1971c2" stroke-linecap="round" stroke-width="2" d="M30 490c21.96-1.58 41.01 1.85 80 0m-80 0c22.99-1 43.61-.53 80 0m0 0c14.16-.86 19.39 6.82 20 20m-20-20c11.08-.91 19.75 4.86 20 20m0 0c-.95 8.15.83 19.14 0 40m0-40c0 12.96.1 26.33 0 40m0 0c1.39 12.27-5.99 21.45-20 20m20-20c-.12 12.7-6.73 19.7-20 20m0 0c-28.83 1.32-53.22.29-80 0m80 0c-20.91 0-41.56 1.34-80 0m0 0c-14.67.48-20.21-6.11-20-20m20 20c-15.05 2.25-19.77-7.2-20-20m0 0c.84-16.08-.02-30.65 0-40m0 40c.09-8.89.62-19.57 0-40m0 0c.75-14.33 7.61-21.34 20-20m-20 20c-1.11-14.49 6.15-21.96 20-20"/><text x="41.1" y="17.62" class="fill-blue-600" dominant-baseline="alphabetic" font-family="Excalifont, Xiaolai, sans-serif, Segoe UI Emoji" font-size="20" style="white-space:pre" text-anchor="middle" transform="translate(28.9 505)">Cache</text><text x="41.1" y="42.62" class="fill-blue-600" dominant-baseline="alphabetic" font-family="Excalifont, Xiaolai, sans-serif, Segoe UI Emoji" font-size="20" style="white-space:pre" text-anchor="middle" transform="translate(28.9 505)">(SQLite)</text><path fill="none" stroke="#f08c00" stroke-linecap="round" stroke-width="2" d="M450 490c33.1.1 64.91 2.25 100 0m-100 0c30-1.54 58.81-1.22 100 0m0 0c12.74 1.18 21.62 4.87 20 20m-20-20c15.16 1.88 18.48 5.98 20 20m0 0c-2.35 15.24-2.18 28.48 0 40m0-40c-.26 11.57.54 24.98 0 40m0 0c-.56 14.8-7.31 18.52-20 20m20-20c.77 12.22-6.83 20.4-20 20m0 0c-18.86-.97-42.55-.02-100 0m100 0c-24.59.56-50.7-.49-100 0m0 0c-14.45 1.15-18.11-7.5-20-20m20 20c-13.94-1.94-20.18-5.79-20-20m0 0c1.9-12.49 1.62-23.34 0-40m0 40c-.71-10.2-.52-22.36 0-40m0 0c-1.08-14.6 6.41-20.66 20-20m-20 20c-1.46-12.71 4.92-19.21 20-20"/><text x="52.37" y="17.62" fill="#f08c00" dominant-baseline="alphabetic" font-family="Excalifont, Xiaolai, sans-serif, Segoe UI Emoji" font-size="20" style="white-space:pre" text-anchor="middle" transform="translate(447.63 517.5)">Claude CLI</text><path fill="none" stroke="#2f9e44" stroke-linecap="round" stroke-width="2" d="M651.25 490c36.32 2.75 74.59 2.36 137.5 0m-137.5 0c41.59-1.76 83.89-.8 137.5 0m0 0c15.62-1.5 19.38 5.51 21.25 21.25M788.75 490c14.51 2.16 19.59 5.53 21.25 21.25m0 0c1.23 12.26-.95 25.06 0 42.5m0-42.5c.65 10.45-.41 21.38 0 42.5m0 0c.61 12.74-5.17 19.98-21.25 21.25M810 553.75c-1.81 16.16-8.09 23.06-21.25 21.25m0 0c-51.72.98-101.53.81-137.5 0m137.5 0c-39.17.87-77.39.28-137.5 0m0 0c-13.9-.17-21.98-5.52-21.25-21.25M651.25 575c-15.89.43-21.34-5.01-21.25-21.25m0 0c1.76-16.07 1.08-32.76 0-42.5m0 42.5c-.36-15.16.39-31.78 0-42.5m0 0c-1.5-12.92 7.97-21.87 21.25-21.25M630 511.25c.77-13.21 6.45-23.46 21.25-21.25"/><text x="79.64" y="17.62" class="fill-lime-600" dominant-baseline="alphabetic" font-family="Excalifont, Xiaolai, sans-serif, Segoe UI Emoji" font-size="20" style="white-space:pre" text-anchor="middle" transform="translate(640.36 507.5)">User</text><text x="79.64" y="42.62" class="fill-lime-600" dominant-baseline="alphabetic" font-family="Excalifont, Xiaolai, sans-serif, Segoe UI Emoji" font-size="20" style="white-space:pre" text-anchor="middle" transform="translate(640.36 507.5)">(stdout, stderr)</text><path fill="none" class="stroke-fuchsia-600" stroke-linecap="round" stroke-width="2" d="M231.25 490c26.23-2.17 51.08-1.45 97.5 0m-97.5 0c33.36.25 66.87 1.37 97.5 0m0 0c15.94-.57 21.21 7.25 21.25 21.25M328.75 490c13.06 1.51 20.39 8.78 21.25 21.25m0 0c1.26 17.3.98 32.13 0 42.5m0-42.5c-.3 10.5.73 21.93 0 42.5m0 0c1.09 15.34-6.52 20.75-21.25 21.25M350 553.75c-1.24 16.03-7.43 20.4-21.25 21.25m0 0c-34.81 1.59-68.77 2.27-97.5 0m97.5 0c-20.61-.71-39.35-1.15-97.5 0m0 0c-15.35-.72-19.26-5.25-21.25-21.25M231.25 575c-14.99 1.26-20.15-6.44-21.25-21.25m0 0c.68-17.88-1.95-32.03 0-42.5m0 42.5c-.15-12.73-.71-25.73 0-42.5m0 0c.11-13.47 8.05-21.8 21.25-21.25M210 511.25c1.85-16.17 5.15-22.42 21.25-21.25"/><text x="64.62" y="17.62" class="fill-fuchsia-600" dominant-baseline="alphabetic" font-family="Excalifont, Xiaolai, sans-serif, Segoe UI Emoji" font-size="20" style="white-space:pre" text-anchor="middle" transform="translate(215.38 507.5)">GitHub</text><text x="64.62" y="42.62" class="fill-fuchsia-600" dominant-baseline="alphabetic" font-family="Excalifont, Xiaolai, sans-serif, Segoe UI Emoji" font-size="20" style="white-space:pre" text-anchor="middle" transform="translate(215.38 507.5)">GraphQL API</text><g stroke-linecap="round"><path fill="none" class="stroke-neutral-900 dark:stroke-neutral-50" stroke-width="2" d="M184 270c-25.61-1.15-53.42-1.34-98.1 0m98.1 0c-35.04.04-71.4.57-98.1 0m0 0c-10.54.72-16.99 4.94-16 16m16-16c-9.25-1.39-18.12 4.55-16 16m0 0c-.59 78.76.56 151.92 0 198m0-198c.32 61.39.2 121.86 0 198M61.4 460.49c3.96 5.1 5.6 11.4 8.5 23.51m-8.5-23.51c3.23 8.83 5.19 17.81 8.5 23.51M78.51 460.53c-.77 5.13-3.86 11.42-8.61 23.47m8.61-23.47c-2.92 8.76-7.12 17.73-8.61 23.47"/></g><g stroke-linecap="round"><path fill="none" class="stroke-neutral-900 dark:stroke-neutral-50" stroke-width="2" d="M310 356c-.4 9.34-.21 23.54 0 48m0-48c1.07 12.57.91 24.16 0 48m0 0c-.12 8.89-6.5 17.42-16 16m16-16c-.81 9.73-4.06 14-16 16m0 0c-2.51.51-6.39.47-8 0m8 0c-2.3-.37-4.58 0-8 0m0 0c-9.07-.35-14.48 6.68-16 16m16-16c-10.5-1.1-18.18 4.29-16 16m0 0c.65 11.05-1.34 26 0 48m0-48c.46 12.08.19 25.47 0 48M261.67 460.43c1.4 3.7 3.52 12.26 8.33 23.57m-8.33-23.57c3 6.44 4.96 11.83 8.33 23.57M278.77 460.59c-2.54 3.66-4.37 12.18-8.77 23.41m8.77-23.41c-1.33 6.27-3.71 11.62-8.77 23.41"/></g><g stroke-linecap="round"><path fill="none" class="stroke-neutral-900 dark:stroke-neutral-50" stroke-width="2" d="M430 356c1.91 16.3.52 28.95 0 48m0-48c-.16 10.04.09 19.08 0 48m0 0c-1.37 12.02 4.64 15.9 16 16m-16-16c-1.66 11.78 3.82 16.5 16 16m0 0c13.34-.79 30.45.51 48 0m-48 0c12.08 0 23.83.67 48 0m0 0c9.23.29 14.5 4.2 16 16m-16-16c9.67.94 16.3 6.61 16 16m0 0c-.02 12.22-1.14 26.97 0 48m0-48c1.1 17.65.35 36.56 0 48M502.16 460.26c4.16 8.76 5.22 13.85 7.84 23.74m-7.84-23.74c1.56 5.09 3.42 9.15 7.84 23.74M519.25 460.78c-1.17 8.56-5.44 13.49-9.25 23.22m9.25-23.22c-1.95 4.9-3.59 8.86-9.25 23.22"/></g><g stroke-linecap="round"><path fill="none" class="stroke-neutral-900 dark:stroke-neutral-50" stroke-width="2" d="M576 290c46.64-.28 94.43-.9 138 0m-138 0c33.89.81 66.2.57 138 0m0 0c9.9-.16 17.01 7.07 16 16m-16-16c11.87-1.93 16.02 4.61 16 16m0 0c1.19 68.03 1.98 137.48 0 178m0-178c.9 46.52.87 95.29 0 178M721.65 460.44c2.47 8.46 6.05 15.88 8.35 23.56m-8.35-23.56c2.61 6.55 3.8 11.97 8.35 23.56M738.75 460.58c-3.36 8.51-5.61 15.88-8.75 23.42m8.75-23.42c-1.49 6.53-4.41 11.92-8.75 23.42"/></g><text y="17.62" class="fill-neutral-900 dark:fill-neutral-50" dominant-baseline="alphabetic" font-family="Excalifont, Xiaolai, sans-serif, Segoe UI Emoji" font-size="20" style="white-space:pre" transform="translate(30 590)">read/write</text><text y="42.62" class="fill-neutral-900 dark:fill-neutral-50" dominant-baseline="alphabetic" font-family="Excalifont, Xiaolai, sans-serif, Segoe UI Emoji" font-size="20" style="white-space:pre" transform="translate(30 590)">by date</text><text y="17.62" class="fill-neutral-900 dark:fill-neutral-50" dominant-baseline="alphabetic" font-family="Excalifont, Xiaolai, sans-serif, Segoe UI Emoji" font-size="20" style="white-space:pre" transform="translate(230 590)">PR + review</text><text y="42.62" class="fill-neutral-900 dark:fill-neutral-50" dominant-baseline="alphabetic" font-family="Excalifont, Xiaolai, sans-serif, Segoe UI Emoji" font-size="20" style="white-space:pre" transform="translate(230 590)">activity</text><text y="17.62" class="fill-neutral-900 dark:fill-neutral-50" dominant-baseline="alphabetic" font-family="Excalifont, Xiaolai, sans-serif, Segoe UI Emoji" font-size="20" style="white-space:pre" transform="translate(450 590)">prompt in,</text><text y="42.62" class="fill-neutral-900 dark:fill-neutral-50" dominant-baseline="alphabetic" font-family="Excalifont, Xiaolai, sans-serif, Segoe UI Emoji" font-size="20" style="white-space:pre" transform="translate(450 590)">summary out</text><text y="17.62" class="fill-neutral-900 dark:fill-neutral-50" dominant-baseline="alphabetic" font-family="Excalifont, Xiaolai, sans-serif, Segoe UI Emoji" font-size="20" style="white-space:pre" transform="translate(650 590)">reports, prompts,</text><text y="42.62" class="fill-neutral-900 dark:fill-neutral-50" dominant-baseline="alphabetic" font-family="Excalifont, Xiaolai, sans-serif, Segoe UI Emoji" font-size="20" style="white-space:pre" transform="translate(650 590)">spinners</text></svg>