<svg xmlns="http://www.w3.org/2000/svg" fill="none" viewBox="0 0 32 32"><rect width="32" height="32" fill="url(#a)" rx="8"/><path fill="#fff" d="M26.443 26.563c-.875 0-1.644-.163-2.306-.488a3.753 3.753 0 0 1-1.52-1.406c-.35-.613-.524-1.332-.524-2.157V16.55c0-.838.175-1.556.525-2.156.362-.6.869-1.063 1.519-1.388.662-.337 1.43-.506 2.306-.506.887 0 1.65.169 2.287.506.65.325 1.157.788 1.519 1.388.363.6.544 1.319.544 2.156H28.43c0-.65-.175-1.144-.525-1.481-.337-.338-.825-.507-1.462-.507-.638 0-1.132.17-1.482.507-.35.337-.524.825-.524 1.462v5.982c0 .637.174 1.13.524 1.48.35.338.844.507 1.482.507.637 0 1.125-.169 1.462-.506.35-.35.525-.844.525-1.482h2.363c0 .813-.181 1.526-.544 2.138a3.714 3.714 0 0 1-1.519 1.425c-.637.325-1.4.488-2.287.488ZM13.606 26.375l-3.45-13.688h2.438l2.062 8.926a33.381 33.381 0 0 1 .544 2.625c.05-.313.119-.72.206-1.22.088-.5.181-.974.281-1.424l2.044-8.907h2.363l-3.45 13.688h-3.038Z"/><path fill="#000" d="M24.436 22.512v-5.98c0-.638.175-1.126.525-1.463.35-.338.844-.507 1.482-.507l.059.001c.608.01 1.076.179 1.403.506.35.337.525.831.525 1.481h2.363c0-.838-.182-1.556-.544-2.156a3.628 3.628 0 0 0-1.519-1.388c-.617-.327-1.352-.495-2.204-.505l-.083-.001c-.875 0-1.644.169-2.307.506a3.628 3.628 0 0 0-1.518 1.388c-.35.6-.525 1.319-.525 2.156v6.04c.01.792.186 1.485.525 2.079.362.6.868 1.069 1.518 1.406.642.315 1.384.477 2.225.487h.082c.86 0 1.602-.152 2.227-.457l.06-.03a3.713 3.713 0 0 0 1.485-1.368l.034-.057c.362-.612.544-1.325.544-2.137H28.43v.059c-.01.609-.186 1.083-.525 1.422l-.032.03c-.336.318-.813.476-1.43.476v-.063c.626 0 1.096-.165 1.418-.487.335-.336.507-.812.507-1.438v-.062h2.487v.063c0 .822-.183 1.545-.552 2.169a3.776 3.776 0 0 1-1.544 1.449c-.649.33-1.421.494-2.316.494-.883 0-1.662-.164-2.334-.494h-.001a3.816 3.816 0 0 1-1.544-1.43V24.7c-.357-.624-.534-1.354-.534-2.188V16.55c0-.846.177-1.576.534-2.188a3.69 3.69 0 0 1 1.544-1.412c.673-.342 1.452-.512 2.335-.512.894 0 1.667.17 2.315.512.66.33 1.176.8 1.544 1.412.37.61.553 1.341.553 2.188v.063h-2.487v-.063c0-.639-.172-1.114-.506-1.436l-.001-.001c-.322-.322-.792-.488-1.418-.488-.627 0-1.103.166-1.438.489-.334.322-.506.791-.506 1.417v5.982c0 .625.171 1.1.506 1.436.335.323.811.488 1.438.488v.063h-.06c-.608-.01-1.082-.18-1.422-.506-.339-.34-.513-.813-.524-1.422v-.06ZM12.643 12.625l2.074 8.972.042.166c.097.39.19.805.277 1.243.065.323.119.607.163.853.04-.245.09-.529.146-.851.087-.5.181-.977.281-1.428l2.056-8.955h2.492l-3.482 13.813h-3.134l-3.482-13.813h2.567Zm-2.487.063 3.45 13.687h3.038l3.45-13.688H17.73l-2.044 8.907-.037.17c-.086.399-.167.817-.244 1.255-.087.5-.156.906-.206 1.219a33.38 33.38 0 0 0-.544-2.625l-2.062-8.925h-2.438Z"/><defs><linearGradient id="a" x1="25.438" x2="7.688" y1="0" y2="32" gradientUnits="userSpaceOnUse"><stop stop-color="#004FF9"/><stop offset="1" stop-color="#FFF94C"/></linearGradient></defs></svg>